<svg width="1152" height="148" viewBox="0 0 1152 148" fill="none" xmlns="http://www.w3.org/2000/svg">
<rect width="1152" height="148" rx="8" fill="#EAF2FF"/>
<path d="M1.90735e-06 42C4.2023 42 8.36345 42.8277 12.2459 44.4359C16.1283 46.044 19.6559 48.4011 22.6274 51.3726C25.5989 54.3441 27.956 57.8717 29.5641 61.7541C31.1723 65.6366 32 69.7977 32 74C32 78.2023 31.1723 82.3635 29.5641 86.2459C27.956 90.1283 25.5989 93.6559 22.6274 96.6274C19.6559 99.5989 16.1283 101.956 12.2459 103.564C8.36345 105.172 4.2023 106 0 106L1.90735e-06 74L1.90735e-06 42Z" fill="white"/>
<path d="M1152 42C1147.8 42 1143.64 42.8277 1139.75 44.4359C1135.87 46.044 1132.34 48.4011 1129.37 51.3726C1126.4 54.3441 1124.04 57.8717 1122.44 61.7541C1120.83 65.6366 1120 69.7977 1120 74C1120 78.2023 1120.83 82.3635 1122.44 86.2459C1124.04 90.1283 1126.4 93.6559 1129.37 96.6274C1132.34 99.5989 1135.87 101.956 1139.75 103.564C1143.64 105.172 1147.8 106 1152 106L1152 74V42Z" fill="white"/>
</svg>
