<svg width="592" height="599" viewBox="0 0 592 599" fill="none" xmlns="http://www.w3.org/2000/svg">
<path d="M23.6195 530.24C21.9875 530.24 20.5555 529.88 19.3235 529.16C18.1075 528.44 17.1635 527.432 16.4915 526.136C15.8195 524.824 15.4835 523.288 15.4835 521.528C15.4835 519.752 15.8195 518.216 16.4915 516.92C17.1635 515.624 18.1075 514.624 19.3235 513.92C20.5395 513.2 21.9715 512.84 23.6195 512.84C25.2675 512.84 26.6995 513.2 27.9155 513.92C29.1315 514.624 30.0755 515.624 30.7475 516.92C31.4195 518.216 31.7555 519.744 31.7555 521.504C31.7555 523.28 31.4195 524.824 30.7475 526.136C30.0755 527.432 29.1315 528.44 27.9155 529.16C26.6995 529.88 25.2675 530.24 23.6195 530.24ZM23.6195 527.6C25.1715 527.6 26.3795 527.064 27.2435 525.992C28.1075 524.92 28.5395 523.432 28.5395 521.528C28.5395 519.608 28.1075 518.12 27.2435 517.064C26.3955 516.008 25.1875 515.48 23.6195 515.48C22.0675 515.48 20.8595 516.008 19.9955 517.064C19.1315 518.12 18.6995 519.608 18.6995 521.528C18.6995 523.432 19.1315 524.92 19.9955 525.992C20.8595 527.064 22.0675 527.6 23.6195 527.6ZM39.9433 530.24C38.7273 530.24 37.6713 529.992 36.7753 529.496C35.8793 529 35.1833 528.296 34.6873 527.384C34.1913 526.456 33.9433 525.368 33.9433 524.12C33.9433 522.872 34.1913 521.792 34.6873 520.88C35.1833 519.968 35.8793 519.264 36.7753 518.768C37.6713 518.272 38.7273 518.024 39.9433 518.024C41.1593 518.024 42.2153 518.272 43.1113 518.768C44.0073 519.264 44.7033 519.968 45.1993 520.88C45.6953 521.792 45.9433 522.872 45.9433 524.12C45.9433 525.368 45.6953 526.456 45.1993 527.384C44.7033 528.296 44.0073 529 43.1113 529.496C42.2153 529.992 41.1593 530.24 39.9433 530.24ZM39.9433 527.96C40.8393 527.96 41.5593 527.64 42.1033 527C42.6473 526.344 42.9193 525.384 42.9193 524.12C42.9193 522.84 42.6473 521.888 42.1033 521.264C41.5593 520.624 40.8393 520.304 39.9433 520.304C39.0473 520.304 38.3273 520.624 37.7833 521.264C37.2393 521.888 36.9673 522.84 36.9673 524.12C36.9673 525.384 37.2393 526.344 37.7833 527C38.3273 527.64 39.0473 527.96 39.9433 527.96ZM53.7714 530.24C52.5554 530.24 51.4994 529.992 50.6034 529.496C49.7074 529 49.0114 528.296 48.5154 527.384C48.0194 526.456 47.7714 525.368 47.7714 524.12C47.7714 522.872 48.0194 521.792 48.5154 520.88C49.0114 519.968 49.7074 519.264 50.6034 518.768C51.4994 518.272 52.5554 518.024 53.7714 518.024C54.9874 518.024 56.0434 518.272 56.9394 518.768C57.8354 519.264 58.5314 519.968 59.0274 520.88C59.5234 521.792 59.7714 522.872 59.7714 524.12C59.7714 525.368 59.5234 526.456 59.0274 527.384C58.5314 528.296 57.8354 529 56.9394 529.496C56.0434 529.992 54.9874 530.24 53.7714 530.24ZM53.7714 527.96C54.6674 527.96 55.3874 527.64 55.9314 527C56.4754 526.344 56.7474 525.384 56.7474 524.12C56.7474 522.84 56.4754 521.888 55.9314 521.264C55.3874 520.624 54.6674 520.304 53.7714 520.304C52.8754 520.304 52.1554 520.624 51.6114 521.264C51.0674 521.888 50.7954 522.84 50.7954 524.12C50.7954 525.384 51.0674 526.344 51.6114 527C52.1554 527.64 52.8754 527.96 53.7714 527.96ZM62.2475 534.32V518.264H65.1755V520.136C65.5115 519.496 66.0155 518.984 66.6875 518.6C67.3755 518.216 68.1515 518.024 69.0155 518.024C70.0395 518.024 70.9355 518.272 71.7035 518.768C72.4875 519.264 73.0955 519.968 73.5275 520.88C73.9595 521.776 74.1755 522.856 74.1755 524.12C74.1755 525.368 73.9595 526.456 73.5275 527.384C73.0955 528.296 72.4955 529 71.7275 529.496C70.9595 529.992 70.0555 530.24 69.0155 530.24C68.1835 530.24 67.4315 530.064 66.7595 529.712C66.1035 529.344 65.5995 528.856 65.2475 528.248V534.32H62.2475ZM68.1755 527.96C69.0715 527.96 69.7915 527.64 70.3355 527C70.8795 526.344 71.1515 525.384 71.1515 524.12C71.1515 522.84 70.8795 521.888 70.3355 521.264C69.7915 520.624 69.0715 520.304 68.1755 520.304C67.2795 520.304 66.5595 520.624 66.0155 521.264C65.4715 521.888 65.1995 522.84 65.1995 524.12C65.1995 525.384 65.4715 526.344 66.0155 527C66.5595 527.64 67.2795 527.96 68.1755 527.96ZM80.9341 530.24C79.9421 530.24 79.0141 530.12 78.1501 529.88C77.2861 529.64 76.5661 529.296 75.9901 528.848L76.7581 526.88C77.3501 527.28 78.0141 527.592 78.7501 527.816C79.4861 528.024 80.2221 528.128 80.9581 528.128C81.7261 528.128 82.2941 528 82.6621 527.744C83.0461 527.472 83.2381 527.12 83.2381 526.688C83.2381 526.016 82.7421 525.584 81.7501 525.392L79.3501 524.936C77.3181 524.552 76.3021 523.496 76.3021 521.768C76.3021 521 76.5101 520.336 76.9261 519.776C77.3581 519.216 77.9501 518.784 78.7021 518.48C79.4541 518.176 80.3181 518.024 81.2941 518.024C82.1261 518.024 82.9261 518.144 83.6941 518.384C84.4621 518.608 85.1181 518.952 85.6621 519.416L84.8461 521.384C84.3821 521 83.8221 520.696 83.1661 520.472C82.5261 520.248 81.9101 520.136 81.3181 520.136C80.5341 520.136 79.9501 520.272 79.5661 520.544C79.1981 520.816 79.0141 521.176 79.0141 521.624C79.0141 522.328 79.4701 522.76 80.3821 522.92L82.7821 523.376C83.8221 523.568 84.6061 523.92 85.1341 524.432C85.6781 524.944 85.9501 525.632 85.9501 526.496C85.9501 527.664 85.4941 528.584 84.5821 529.256C83.6701 529.912 82.4541 530.24 80.9341 530.24ZM92.6529 530.24C91.6609 530.24 90.7329 530.12 89.8689 529.88C89.0049 529.64 88.2849 529.296 87.7089 528.848L88.4769 526.88C89.0689 527.28 89.7329 527.592 90.4689 527.816C91.2049 528.024 91.9409 528.128 92.6769 528.128C93.4449 528.128 94.0129 528 94.3809 527.744C94.7649 527.472 94.9569 527.12 94.9569 526.688C94.9569 526.016 94.4609 525.584 93.4689 525.392L91.0689 524.936C89.0369 524.552 88.0209 523.496 88.0209 521.768C88.0209 521 88.2289 520.336 88.6449 519.776C89.0769 519.216 89.6689 518.784 90.4209 518.48C91.1729 518.176 92.0369 518.024 93.0129 518.024C93.8449 518.024 94.6449 518.144 95.4129 518.384C96.1809 518.608 96.8369 518.952 97.3809 519.416L96.5649 521.384C96.1009 521 95.5409 520.696 94.8849 520.472C94.2449 520.248 93.6289 520.136 93.0369 520.136C92.2529 520.136 91.6689 520.272 91.2849 520.544C90.9169 520.816 90.7329 521.176 90.7329 521.624C90.7329 522.328 91.1889 522.76 92.1009 522.92L94.5009 523.376C95.5409 523.568 96.3249 523.92 96.8529 524.432C97.3969 524.944 97.6689 525.632 97.6689 526.496C97.6689 527.664 97.2129 528.584 96.3009 529.256C95.3889 529.912 94.1729 530.24 92.6529 530.24ZM101.158 533.192L99.9344 532.232C100.334 531.832 100.63 531.448 100.822 531.08C101.03 530.728 101.174 530.368 101.254 530H99.6944V526.664H103.054V528.872C103.054 529.688 102.91 530.432 102.622 531.104C102.35 531.792 101.862 532.488 101.158 533.192ZM116.676 530.24C115.684 530.24 114.756 530.12 113.892 529.88C113.028 529.64 112.308 529.296 111.732 528.848L112.5 526.88C113.092 527.28 113.756 527.592 114.492 527.816C115.228 528.024 115.964 528.128 116.7 528.128C117.468 528.128 118.036 528 118.404 527.744C118.788 527.472 118.98 527.12 118.98 526.688C118.98 526.016 118.484 525.584 117.492 525.392L115.092 524.936C113.06 524.552 112.044 523.496 112.044 521.768C112.044 521 112.252 520.336 112.668 519.776C113.1 519.216 113.692 518.784 114.444 518.48C115.196 518.176 116.06 518.024 117.036 518.024C117.868 518.024 118.668 518.144 119.436 518.384C120.204 518.608 120.86 518.952 121.404 519.416L120.588 521.384C120.124 521 119.564 520.696 118.908 520.472C118.268 520.248 117.652 520.136 117.06 520.136C116.276 520.136 115.692 520.272 115.308 520.544C114.94 520.816 114.756 521.176 114.756 521.624C114.756 522.328 115.212 522.76 116.124 522.92L118.524 523.376C119.564 523.568 120.348 523.92 120.876 524.432C121.42 524.944 121.692 525.632 121.692 526.496C121.692 527.664 121.236 528.584 120.324 529.256C119.412 529.912 118.196 530.24 116.676 530.24ZM129.883 530.24C128.555 530.24 127.411 529.992 126.451 529.496C125.491 529 124.747 528.296 124.219 527.384C123.707 526.472 123.451 525.392 123.451 524.144C123.451 522.928 123.699 521.864 124.195 520.952C124.707 520.04 125.403 519.328 126.283 518.816C127.179 518.288 128.195 518.024 129.331 518.024C130.995 518.024 132.307 518.552 133.267 519.608C134.243 520.664 134.731 522.104 134.731 523.928V524.816H126.331C126.555 526.912 127.755 527.96 129.931 527.96C130.587 527.96 131.243 527.864 131.899 527.672C132.555 527.464 133.155 527.144 133.699 526.712L134.539 528.728C133.979 529.192 133.275 529.56 132.427 529.832C131.579 530.104 130.731 530.24 129.883 530.24ZM129.451 520.064C128.571 520.064 127.859 520.336 127.315 520.88C126.771 521.424 126.443 522.16 126.331 523.088H132.235C132.171 522.112 131.899 521.368 131.419 520.856C130.955 520.328 130.299 520.064 129.451 520.064ZM137.107 534.32V518.264H140.035V520.136C140.371 519.496 140.875 518.984 141.547 518.6C142.235 518.216 143.011 518.024 143.875 518.024C144.899 518.024 145.795 518.272 146.563 518.768C147.347 519.264 147.955 519.968 148.387 520.88C148.819 521.776 149.035 522.856 149.035 524.12C149.035 525.368 148.819 526.456 148.387 527.384C147.955 528.296 147.355 529 146.587 529.496C145.819 529.992 144.915 530.24 143.875 530.24C143.043 530.24 142.291 530.064 141.619 529.712C140.963 529.344 140.459 528.856 140.107 528.248V534.32H137.107ZM143.035 527.96C143.931 527.96 144.651 527.64 145.195 527C145.739 526.344 146.011 525.384 146.011 524.12C146.011 522.84 145.739 521.888 145.195 521.264C144.651 520.624 143.931 520.304 143.035 520.304C142.139 520.304 141.419 520.624 140.875 521.264C140.331 521.888 140.059 522.84 140.059 524.12C140.059 525.384 140.331 526.344 140.875 527C141.419 527.64 142.139 527.96 143.035 527.96ZM157.282 530.24C155.954 530.24 154.81 529.992 153.85 529.496C152.89 529 152.146 528.296 151.618 527.384C151.106 526.472 150.85 525.392 150.85 524.144C150.85 522.928 151.098 521.864 151.594 520.952C152.106 520.04 152.802 519.328 153.682 518.816C154.578 518.288 155.594 518.024 156.73 518.024C158.394 518.024 159.706 518.552 160.666 519.608C161.642 520.664 162.13 522.104 162.13 523.928V524.816H153.73C153.954 526.912 155.154 527.96 157.33 527.96C157.986 527.96 158.642 527.864 159.298 527.672C159.954 527.464 160.554 527.144 161.098 526.712L161.938 528.728C161.378 529.192 160.674 529.56 159.826 529.832C158.978 530.104 158.13 530.24 157.282 530.24ZM156.85 520.064C155.97 520.064 155.258 520.336 154.714 520.88C154.17 521.424 153.842 522.16 153.73 523.088H159.634C159.57 522.112 159.298 521.368 158.818 520.856C158.354 520.328 157.698 520.064 156.85 520.064ZM164.505 530V518.264H167.433V520.328C168.009 518.936 169.241 518.168 171.129 518.024L172.041 517.952L172.233 520.496L170.505 520.664C168.537 520.856 167.553 521.864 167.553 523.688V530H164.505ZM179.959 530.24C176.855 530.24 175.303 528.704 175.303 525.632V520.52H173.047V518.264H175.303V514.76H178.303V518.264H181.855V520.52H178.303V525.464C178.303 526.232 178.471 526.808 178.807 527.192C179.143 527.576 179.687 527.768 180.439 527.768C180.663 527.768 180.895 527.744 181.135 527.696C181.375 527.632 181.623 527.568 181.879 527.504L182.335 529.712C182.047 529.872 181.679 530 181.231 530.096C180.799 530.192 180.375 530.24 179.959 530.24ZM183.602 515.744V512.816H186.962V515.744H183.602ZM183.794 530V518.264H186.794V530H183.794ZM189.912 530V518.264H192.84V520.088C193.24 519.416 193.776 518.904 194.448 518.552C195.136 518.2 195.904 518.024 196.752 518.024C199.52 518.024 200.904 519.632 200.904 522.848V530H197.904V522.992C197.904 522.08 197.728 521.416 197.376 521C197.04 520.584 196.512 520.376 195.792 520.376C194.912 520.376 194.208 520.656 193.68 521.216C193.168 521.76 192.912 522.488 192.912 523.4V530H189.912ZM204.889 534.32L207.049 529.52L202.177 518.264H205.369L208.657 526.472L212.017 518.264H215.041L207.985 534.32H204.889ZM220.096 530.24C219.248 530.24 218.488 530.08 217.816 529.76C217.16 529.424 216.64 528.976 216.256 528.416C215.888 527.856 215.704 527.224 215.704 526.52C215.704 525.656 215.928 524.976 216.376 524.48C216.824 523.968 217.552 523.6 218.56 523.376C219.568 523.152 220.92 523.04 222.616 523.04H223.456V522.536C223.456 521.736 223.28 521.16 222.928 520.808C222.576 520.456 221.984 520.28 221.152 520.28C220.496 520.28 219.824 520.384 219.136 520.592C218.448 520.784 217.752 521.088 217.048 521.504L216.184 519.464C216.6 519.176 217.088 518.928 217.648 518.72C218.224 518.496 218.824 518.328 219.448 518.216C220.088 518.088 220.688 518.024 221.248 518.024C222.96 518.024 224.232 518.424 225.064 519.224C225.896 520.008 226.312 521.232 226.312 522.896V530H223.504V528.128C223.232 528.784 222.8 529.304 222.208 529.688C221.616 530.056 220.912 530.24 220.096 530.24ZM220.72 528.176C221.504 528.176 222.152 527.904 222.664 527.36C223.192 526.816 223.456 526.128 223.456 525.296V524.768H222.64C221.136 524.768 220.088 524.888 219.496 525.128C218.92 525.352 218.632 525.768 218.632 526.376C218.632 526.904 218.816 527.336 219.184 527.672C219.552 528.008 220.064 528.176 220.72 528.176ZM241.61 530.24C240.282 530.24 239.138 529.992 238.178 529.496C237.218 529 236.474 528.296 235.946 527.384C235.434 526.472 235.178 525.392 235.178 524.144C235.178 522.928 235.426 521.864 235.922 520.952C236.434 520.04 237.13 519.328 238.01 518.816C238.906 518.288 239.922 518.024 241.058 518.024C242.722 518.024 244.034 518.552 244.994 519.608C245.97 520.664 246.458 522.104 246.458 523.928V524.816H238.058C238.282 526.912 239.482 527.96 241.658 527.96C242.314 527.96 242.97 527.864 243.626 527.672C244.282 527.464 244.882 527.144 245.426 526.712L246.266 528.728C245.706 529.192 245.002 529.56 244.154 529.832C243.306 530.104 242.458 530.24 241.61 530.24ZM241.178 520.064C240.298 520.064 239.586 520.336 239.042 520.88C238.498 521.424 238.17 522.16 238.058 523.088H243.962C243.898 522.112 243.626 521.368 243.146 520.856C242.682 520.328 242.026 520.064 241.178 520.064ZM252.102 530L247.014 518.264H250.206L253.47 526.472L256.854 518.264H259.854L254.694 530H252.102ZM266.852 530.24C265.524 530.24 264.38 529.992 263.42 529.496C262.46 529 261.716 528.296 261.188 527.384C260.676 526.472 260.42 525.392 260.42 524.144C260.42 522.928 260.668 521.864 261.164 520.952C261.676 520.04 262.372 519.328 263.252 518.816C264.148 518.288 265.164 518.024 266.3 518.024C267.964 518.024 269.276 518.552 270.236 519.608C271.212 520.664 271.7 522.104 271.7 523.928V524.816H263.3C263.524 526.912 264.724 527.96 266.9 527.96C267.556 527.96 268.212 527.864 268.868 527.672C269.524 527.464 270.124 527.144 270.668 526.712L271.508 528.728C270.948 529.192 270.244 529.56 269.396 529.832C268.548 530.104 267.7 530.24 266.852 530.24ZM266.42 520.064C265.54 520.064 264.828 520.336 264.284 520.88C263.74 521.424 263.412 522.16 263.3 523.088H269.204C269.14 522.112 268.868 521.368 268.388 520.856C267.924 520.328 267.268 520.064 266.42 520.064ZM274.076 530V518.264H277.004V520.088C277.404 519.416 277.94 518.904 278.612 518.552C279.3 518.2 280.068 518.024 280.916 518.024C283.684 518.024 285.068 519.632 285.068 522.848V530H282.068V522.992C282.068 522.08 281.892 521.416 281.54 521C281.204 520.584 280.676 520.376 279.956 520.376C279.076 520.376 278.372 520.656 277.844 521.216C277.332 521.76 277.076 522.488 277.076 523.4V530H274.076ZM293.491 530.24C290.387 530.24 288.835 528.704 288.835 525.632V520.52H286.579V518.264H288.835V514.76H291.835V518.264H295.387V520.52H291.835V525.464C291.835 526.232 292.003 526.808 292.339 527.192C292.675 527.576 293.219 527.768 293.971 527.768C294.195 527.768 294.427 527.744 294.667 527.696C294.907 527.632 295.155 527.568 295.411 527.504L295.867 529.712C295.579 529.872 295.211 530 294.763 530.096C294.331 530.192 293.907 530.24 293.491 530.24ZM304.85 534.32L307.01 529.52L302.138 518.264H305.33L308.618 526.472L311.978 518.264H315.002L307.946 534.32H304.85ZM320.057 530.24C319.209 530.24 318.449 530.08 317.777 529.76C317.121 529.424 316.601 528.976 316.217 528.416C315.849 527.856 315.665 527.224 315.665 526.52C315.665 525.656 315.889 524.976 316.337 524.48C316.785 523.968 317.513 523.6 318.521 523.376C319.529 523.152 320.881 523.04 322.577 523.04H323.417V522.536C323.417 521.736 323.241 521.16 322.889 520.808C322.537 520.456 321.945 520.28 321.113 520.28C320.457 520.28 319.785 520.384 319.097 520.592C318.409 520.784 317.713 521.088 317.009 521.504L316.145 519.464C316.561 519.176 317.049 518.928 317.609 518.72C318.185 518.496 318.785 518.328 319.409 518.216C320.049 518.088 320.649 518.024 321.209 518.024C322.921 518.024 324.193 518.424 325.025 519.224C325.857 520.008 326.273 521.232 326.273 522.896V530H323.465V528.128C323.193 528.784 322.761 529.304 322.169 529.688C321.577 530.056 320.873 530.24 320.057 530.24ZM320.681 528.176C321.465 528.176 322.113 527.904 322.625 527.36C323.153 526.816 323.417 526.128 323.417 525.296V524.768H322.601C321.097 524.768 320.049 524.888 319.457 525.128C318.881 525.352 318.593 525.768 318.593 526.376C318.593 526.904 318.777 527.336 319.145 527.672C319.513 528.008 320.025 528.176 320.681 528.176ZM329.318 530V518.264H332.246V520.088C332.646 519.416 333.182 518.904 333.854 518.552C334.542 518.2 335.31 518.024 336.158 518.024C338.926 518.024 340.31 519.632 340.31 522.848V530H337.31V522.992C337.31 522.08 337.134 521.416 336.782 521C336.446 520.584 335.918 520.376 335.198 520.376C334.318 520.376 333.614 520.656 333.086 521.216C332.574 521.76 332.318 522.488 332.318 523.4V530H329.318ZM348.829 534.56C347.741 534.56 346.717 534.432 345.757 534.176C344.813 533.936 343.981 533.56 343.261 533.048L344.125 530.96C344.797 531.408 345.517 531.736 346.285 531.944C347.053 532.168 347.821 532.28 348.589 532.28C350.733 532.28 351.805 531.248 351.805 529.184V527.576C351.469 528.232 350.949 528.752 350.245 529.136C349.557 529.52 348.789 529.712 347.941 529.712C346.885 529.712 345.965 529.472 345.181 528.992C344.397 528.496 343.789 527.808 343.357 526.928C342.925 526.048 342.709 525.024 342.709 523.856C342.709 522.688 342.925 521.672 343.357 520.808C343.789 519.928 344.397 519.248 345.181 518.768C345.965 518.272 346.885 518.024 347.941 518.024C348.821 518.024 349.605 518.224 350.293 518.624C350.981 519.008 351.485 519.528 351.805 520.184V518.264H354.733V528.824C354.733 530.728 354.229 532.16 353.221 533.12C352.213 534.08 350.749 534.56 348.829 534.56ZM348.757 527.432C349.685 527.432 350.421 527.112 350.965 526.472C351.509 525.832 351.781 524.96 351.781 523.856C351.781 522.752 351.509 521.888 350.965 521.264C350.421 520.624 349.685 520.304 348.757 520.304C347.829 520.304 347.093 520.624 346.549 521.264C346.005 521.888 345.733 522.752 345.733 523.856C345.733 524.96 346.005 525.832 346.549 526.472C347.093 527.112 347.829 527.432 348.757 527.432ZM362.774 530L370.43 513.08H372.95L380.606 530H377.486L375.806 526.088H367.55L365.894 530H362.774ZM371.654 516.416L368.606 523.64H374.75L371.702 516.416H371.654ZM382.169 530V518.264H385.097V520.088C385.497 519.416 386.033 518.904 386.705 518.552C387.393 518.2 388.161 518.024 389.009 518.024C391.777 518.024 393.161 519.632 393.161 522.848V530H390.161V522.992C390.161 522.08 389.985 521.416 389.633 521C389.297 520.584 388.769 520.376 388.049 520.376C387.169 520.376 386.465 520.656 385.937 521.216C385.425 521.76 385.169 522.488 385.169 523.4V530H382.169ZM400.72 530.24C399.696 530.24 398.792 529.992 398.008 529.496C397.24 529 396.64 528.296 396.208 527.384C395.776 526.456 395.56 525.368 395.56 524.12C395.56 522.856 395.776 521.776 396.208 520.88C396.64 519.968 397.24 519.264 398.008 518.768C398.792 518.272 399.696 518.024 400.72 518.024C401.552 518.024 402.304 518.208 402.976 518.576C403.648 518.944 404.152 519.432 404.488 520.04V513.08H407.488V530H404.56V528.056C404.24 528.728 403.736 529.264 403.048 529.664C402.36 530.048 401.584 530.24 400.72 530.24ZM401.56 527.96C402.456 527.96 403.176 527.64 403.72 527C404.264 526.344 404.536 525.384 404.536 524.12C404.536 522.84 404.264 521.888 403.72 521.264C403.176 520.624 402.456 520.304 401.56 520.304C400.664 520.304 399.944 520.624 399.4 521.264C398.856 521.888 398.584 522.84 398.584 524.12C398.584 525.384 398.856 526.344 399.4 527C399.944 527.64 400.664 527.96 401.56 527.96ZM414.463 530.24C413.615 530.24 412.855 530.08 412.183 529.76C411.527 529.424 411.007 528.976 410.623 528.416C410.255 527.856 410.071 527.224 410.071 526.52C410.071 525.656 410.295 524.976 410.743 524.48C411.191 523.968 411.919 523.6 412.927 523.376C413.935 523.152 415.287 523.04 416.983 523.04H417.823V522.536C417.823 521.736 417.647 521.16 417.295 520.808C416.943 520.456 416.351 520.28 415.519 520.28C414.863 520.28 414.191 520.384 413.503 520.592C412.815 520.784 412.119 521.088 411.415 521.504L410.551 519.464C410.967 519.176 411.455 518.928 412.015 518.72C412.591 518.496 413.191 518.328 413.815 518.216C414.455 518.088 415.055 518.024 415.615 518.024C417.327 518.024 418.599 518.424 419.431 519.224C420.263 520.008 420.679 521.232 420.679 522.896V530H417.871V528.128C417.599 528.784 417.167 529.304 416.575 529.688C415.983 530.056 415.279 530.24 414.463 530.24ZM415.087 528.176C415.871 528.176 416.519 527.904 417.031 527.36C417.559 526.816 417.823 526.128 417.823 525.296V524.768H417.007C415.503 524.768 414.455 524.888 413.863 525.128C413.287 525.352 412.999 525.768 412.999 526.376C412.999 526.904 413.183 527.336 413.551 527.672C413.919 528.008 414.431 528.176 415.087 528.176ZM435.617 530.24C434.385 530.24 433.313 529.992 432.401 529.496C431.489 528.984 430.785 528.264 430.289 527.336C429.793 526.408 429.545 525.32 429.545 524.072C429.545 522.824 429.793 521.752 430.289 520.856C430.785 519.944 431.489 519.248 432.401 518.768C433.313 518.272 434.385 518.024 435.617 518.024C436.369 518.024 437.113 518.144 437.849 518.384C438.585 518.624 439.193 518.96 439.673 519.392L438.785 521.48C438.369 521.112 437.897 520.832 437.369 520.64C436.857 520.448 436.361 520.352 435.881 520.352C434.841 520.352 434.033 520.68 433.457 521.336C432.897 521.976 432.617 522.896 432.617 524.096C432.617 525.28 432.897 526.216 433.457 526.904C434.033 527.576 434.841 527.912 435.881 527.912C436.345 527.912 436.841 527.816 437.369 527.624C437.897 527.432 438.369 527.144 438.785 526.76L439.673 528.872C439.193 529.288 438.577 529.624 437.825 529.88C437.089 530.12 436.353 530.24 435.617 530.24ZM445.307 530.24C444.459 530.24 443.699 530.08 443.027 529.76C442.371 529.424 441.851 528.976 441.467 528.416C441.099 527.856 440.915 527.224 440.915 526.52C440.915 525.656 441.139 524.976 441.587 524.48C442.035 523.968 442.763 523.6 443.771 523.376C444.779 523.152 446.131 523.04 447.827 523.04H448.667V522.536C448.667 521.736 448.491 521.16 448.139 520.808C447.787 520.456 447.195 520.28 446.363 520.28C445.707 520.28 445.035 520.384 444.347 520.592C443.659 520.784 442.963 521.088 442.259 521.504L441.395 519.464C441.811 519.176 442.299 518.928 442.859 518.72C443.435 518.496 444.035 518.328 444.659 518.216C445.299 518.088 445.899 518.024 446.459 518.024C448.171 518.024 449.443 518.424 450.275 519.224C451.107 520.008 451.523 521.232 451.523 522.896V530H448.715V528.128C448.443 528.784 448.011 529.304 447.419 529.688C446.827 530.056 446.123 530.24 445.307 530.24ZM445.931 528.176C446.715 528.176 447.363 527.904 447.875 527.36C448.403 526.816 448.667 526.128 448.667 525.296V524.768H447.851C446.347 524.768 445.299 524.888 444.707 525.128C444.131 525.352 443.843 525.768 443.843 526.376C443.843 526.904 444.027 527.336 444.395 527.672C444.763 528.008 445.275 528.176 445.931 528.176ZM454.568 530V518.264H457.496V520.328C458.072 518.936 459.304 518.168 461.192 518.024L462.104 517.952L462.296 520.496L460.568 520.664C458.6 520.856 457.616 521.864 457.616 523.688V530H454.568ZM463.774 515.744V512.816H467.134V515.744H463.774ZM463.966 530V518.264H466.966V530H463.966ZM481.928 530.24C478.824 530.24 477.272 528.704 477.272 525.632V520.52H475.016V518.264H477.272V514.76H480.272V518.264H483.824V520.52H480.272V525.464C480.272 526.232 480.44 526.808 480.776 527.192C481.112 527.576 481.656 527.768 482.408 527.768C482.632 527.768 482.864 527.744 483.104 527.696C483.344 527.632 483.592 527.568 483.848 527.504L484.304 529.712C484.016 529.872 483.648 530 483.2 530.096C482.768 530.192 482.344 530.24 481.928 530.24ZM485.571 515.744V512.816H488.931V515.744H485.571ZM485.763 530V518.264H488.763V530H485.763ZM496.392 530.24C495.368 530.24 494.464 529.992 493.68 529.496C492.912 529 492.312 528.296 491.88 527.384C491.448 526.456 491.232 525.368 491.232 524.12C491.232 522.856 491.448 521.776 491.88 520.88C492.312 519.968 492.912 519.264 493.68 518.768C494.464 518.272 495.368 518.024 496.392 518.024C497.224 518.024 497.976 518.208 498.648 518.576C499.32 518.944 499.824 519.432 500.16 520.04V513.08H503.16V530H500.232V528.056C499.912 528.728 499.408 529.264 498.72 529.664C498.032 530.048 497.256 530.24 496.392 530.24ZM497.232 527.96C498.128 527.96 498.848 527.64 499.392 527C499.936 526.344 500.208 525.384 500.208 524.12C500.208 522.84 499.936 521.888 499.392 521.264C498.848 520.624 498.128 520.304 497.232 520.304C496.336 520.304 495.616 520.624 495.072 521.264C494.528 521.888 494.256 522.84 494.256 524.12C494.256 525.384 494.528 526.344 495.072 527C495.616 527.64 496.336 527.96 497.232 527.96ZM510.135 530.24C509.287 530.24 508.527 530.08 507.855 529.76C507.199 529.424 506.679 528.976 506.295 528.416C505.927 527.856 505.743 527.224 505.743 526.52C505.743 525.656 505.967 524.976 506.415 524.48C506.863 523.968 507.591 523.6 508.599 523.376C509.607 523.152 510.959 523.04 512.655 523.04H513.495V522.536C513.495 521.736 513.319 521.16 512.967 520.808C512.615 520.456 512.023 520.28 511.191 520.28C510.535 520.28 509.863 520.384 509.175 520.592C508.487 520.784 507.791 521.088 507.087 521.504L506.223 519.464C506.639 519.176 507.127 518.928 507.687 518.72C508.263 518.496 508.863 518.328 509.487 518.216C510.127 518.088 510.727 518.024 511.287 518.024C512.999 518.024 514.271 518.424 515.103 519.224C515.935 520.008 516.351 521.232 516.351 522.896V530H513.543V528.128C513.271 528.784 512.839 529.304 512.247 529.688C511.655 530.056 510.951 530.24 510.135 530.24ZM510.759 528.176C511.543 528.176 512.191 527.904 512.703 527.36C513.231 526.816 513.495 526.128 513.495 525.296V524.768H512.679C511.175 524.768 510.127 524.888 509.535 525.128C508.959 525.352 508.671 525.768 508.671 526.376C508.671 526.904 508.855 527.336 509.223 527.672C509.591 528.008 510.103 528.176 510.759 528.176ZM519.396 530V513.08H522.396V523.256H522.444L527.172 518.264H530.796L525.468 523.88L531.132 530H527.46L522.444 524.768H522.396V530H519.396ZM542.596 530.24C541.748 530.24 540.988 530.08 540.316 529.76C539.66 529.424 539.14 528.976 538.756 528.416C538.388 527.856 538.204 527.224 538.204 526.52C538.204 525.656 538.428 524.976 538.876 524.48C539.324 523.968 540.052 523.6 541.06 523.376C542.068 523.152 543.42 523.04 545.116 523.04H545.956V522.536C545.956 521.736 545.78 521.16 545.428 520.808C545.076 520.456 544.484 520.28 543.652 520.28C542.996 520.28 542.324 520.384 541.636 520.592C540.948 520.784 540.252 521.088 539.548 521.504L538.684 519.464C539.1 519.176 539.588 518.928 540.148 518.72C540.724 518.496 541.324 518.328 541.948 518.216C542.588 518.088 543.188 518.024 543.748 518.024C545.46 518.024 546.732 518.424 547.564 519.224C548.396 520.008 548.812 521.232 548.812 522.896V530H546.004V528.128C545.732 528.784 545.3 529.304 544.708 529.688C544.116 530.056 543.412 530.24 542.596 530.24ZM543.22 528.176C544.004 528.176 544.652 527.904 545.164 527.36C545.692 526.816 545.956 526.128 545.956 525.296V524.768H545.14C543.636 524.768 542.588 524.888 541.996 525.128C541.42 525.352 541.132 525.768 541.132 526.376C541.132 526.904 541.316 527.336 541.684 527.672C542.052 528.008 542.564 528.176 543.22 528.176ZM556.369 530.24C555.345 530.24 554.441 529.992 553.657 529.496C552.889 529 552.289 528.296 551.857 527.384C551.425 526.456 551.209 525.368 551.209 524.12C551.209 522.856 551.425 521.776 551.857 520.88C552.289 519.968 552.889 519.264 553.657 518.768C554.441 518.272 555.345 518.024 556.369 518.024C557.201 518.024 557.953 518.208 558.625 518.576C559.297 518.944 559.801 519.432 560.137 520.04V513.08H563.137V530H560.209V528.056C559.889 528.728 559.385 529.264 558.697 529.664C558.009 530.048 557.233 530.24 556.369 530.24ZM557.209 527.96C558.105 527.96 558.825 527.64 559.369 527C559.913 526.344 560.185 525.384 560.185 524.12C560.185 522.84 559.913 521.888 559.369 521.264C558.825 520.624 558.105 520.304 557.209 520.304C556.313 520.304 555.593 520.624 555.049 521.264C554.505 521.888 554.233 522.84 554.233 524.12C554.233 525.384 554.505 526.344 555.049 527C555.593 527.64 556.313 527.96 557.209 527.96ZM570.112 530.24C569.264 530.24 568.504 530.08 567.832 529.76C567.176 529.424 566.656 528.976 566.271 528.416C565.904 527.856 565.72 527.224 565.72 526.52C565.72 525.656 565.944 524.976 566.392 524.48C566.84 523.968 567.568 523.6 568.576 523.376C569.584 523.152 570.936 523.04 572.632 523.04H573.472V522.536C573.472 521.736 573.296 521.16 572.944 520.808C572.592 520.456 572 520.28 571.168 520.28C570.512 520.28 569.84 520.384 569.152 520.592C568.464 520.784 567.768 521.088 567.064 521.504L566.2 519.464C566.616 519.176 567.104 518.928 567.664 518.72C568.24 518.496 568.84 518.328 569.464 518.216C570.104 518.088 570.704 518.024 571.264 518.024C572.976 518.024 574.248 518.424 575.08 519.224C575.912 520.008 576.328 521.232 576.328 522.896V530H573.52V528.128C573.248 528.784 572.816 529.304 572.224 529.688C571.632 530.056 570.928 530.24 570.112 530.24ZM570.736 528.176C571.52 528.176 572.168 527.904 572.68 527.36C573.208 526.816 573.472 526.128 573.472 525.296V524.768H572.656C571.152 524.768 570.104 524.888 569.512 525.128C568.936 525.352 568.648 525.768 568.648 526.376C568.648 526.904 568.832 527.336 569.2 527.672C569.568 528.008 570.08 528.176 570.736 528.176Z" fill="#797979"/>
<path d="M56.1619 583.216C54.4979 583.216 53.0739 582.864 51.8899 582.16C50.7059 581.456 49.7939 580.456 49.1539 579.16C48.5299 577.864 48.2179 576.32 48.2179 574.528C48.2179 572.752 48.5299 571.216 49.1539 569.92C49.7939 568.624 50.7059 567.624 51.8899 566.92C53.0739 566.216 54.4979 565.864 56.1619 565.864C57.3299 565.864 58.4019 566.048 59.3779 566.416C60.3699 566.784 61.2099 567.32 61.8979 568.024L61.1299 569.632C60.3939 568.944 59.6259 568.448 58.8259 568.144C58.0419 567.824 57.1699 567.664 56.2099 567.664C54.3059 567.664 52.8499 568.264 51.8419 569.464C50.8339 570.664 50.3299 572.352 50.3299 574.528C50.3299 576.72 50.8339 578.416 51.8419 579.616C52.8499 580.816 54.3059 581.416 56.2099 581.416C57.1699 581.416 58.0419 581.264 58.8259 580.96C59.6259 580.64 60.3939 580.136 61.1299 579.448L61.8979 581.056C61.2099 581.744 60.3699 582.28 59.3779 582.664C58.4019 583.032 57.3299 583.216 56.1619 583.216ZM68.7306 583.216C67.5946 583.216 66.6106 582.968 65.7786 582.472C64.9466 581.976 64.2986 581.28 63.8346 580.384C63.3866 579.472 63.1626 578.4 63.1626 577.168C63.1626 575.936 63.3866 574.872 63.8346 573.976C64.2986 573.064 64.9466 572.36 65.7786 571.864C66.6106 571.368 67.5946 571.12 68.7306 571.12C69.8506 571.12 70.8266 571.368 71.6586 571.864C72.5066 572.36 73.1546 573.064 73.6026 573.976C74.0666 574.872 74.2986 575.936 74.2986 577.168C74.2986 578.4 74.0666 579.472 73.6026 580.384C73.1546 581.28 72.5066 581.976 71.6586 582.472C70.8266 582.968 69.8506 583.216 68.7306 583.216ZM68.7306 581.656C69.8186 581.656 70.6906 581.272 71.3466 580.504C72.0026 579.72 72.3306 578.608 72.3306 577.168C72.3306 575.712 72.0026 574.6 71.3466 573.832C70.6906 573.064 69.8186 572.68 68.7306 572.68C67.6266 572.68 66.7466 573.064 66.0906 573.832C65.4506 574.6 65.1306 575.712 65.1306 577.168C65.1306 578.608 65.4506 579.72 66.0906 580.504C66.7466 581.272 67.6266 581.656 68.7306 581.656ZM83.1225 583.216C82.1945 583.216 81.3785 583.008 80.6745 582.592C79.9865 582.176 79.4665 581.608 79.1145 580.888V583H77.2185V566.08H79.1625V573.352C79.4985 572.664 80.0185 572.12 80.7225 571.72C81.4265 571.32 82.2265 571.12 83.1225 571.12C84.1625 571.12 85.0665 571.368 85.8345 571.864C86.6185 572.344 87.2185 573.04 87.6345 573.952C88.0665 574.848 88.2825 575.92 88.2825 577.168C88.2825 578.4 88.0665 579.472 87.6345 580.384C87.2185 581.28 86.6185 581.976 85.8345 582.472C85.0665 582.968 84.1625 583.216 83.1225 583.216ZM82.7145 581.656C83.8025 581.656 84.6745 581.272 85.3305 580.504C85.9865 579.72 86.3145 578.608 86.3145 577.168C86.3145 575.712 85.9865 574.6 85.3305 573.832C84.6745 573.064 83.8025 572.68 82.7145 572.68C81.6265 572.68 80.7545 573.064 80.0985 573.832C79.4425 574.6 79.1145 575.712 79.1145 577.168C79.1145 578.608 79.4425 579.72 80.0985 580.504C80.7545 581.272 81.6265 581.656 82.7145 581.656ZM94.8827 583.216C94.0827 583.216 93.3627 583.064 92.7227 582.76C92.0987 582.44 91.6027 582.008 91.2347 581.464C90.8667 580.92 90.6827 580.312 90.6827 579.64C90.6827 578.792 90.8987 578.12 91.3307 577.624C91.7787 577.128 92.5067 576.776 93.5147 576.568C94.5387 576.344 95.9307 576.232 97.6907 576.232H98.4587V575.488C98.4587 574.496 98.2507 573.784 97.8347 573.352C97.4347 572.904 96.7867 572.68 95.8907 572.68C95.1867 572.68 94.5067 572.784 93.8507 572.992C93.1947 573.184 92.5227 573.504 91.8347 573.952L91.1627 572.536C91.7707 572.104 92.5067 571.76 93.3707 571.504C94.2507 571.248 95.0907 571.12 95.8907 571.12C97.3947 571.12 98.5067 571.488 99.2267 572.224C99.9627 572.96 100.331 574.104 100.331 575.656V583H98.5067V580.984C98.2027 581.672 97.7307 582.216 97.0907 582.616C96.4667 583.016 95.7307 583.216 94.8827 583.216ZM95.1947 581.752C96.1547 581.752 96.9387 581.424 97.5467 580.768C98.1547 580.096 98.4587 579.248 98.4587 578.224V577.504H97.7147C96.4187 577.504 95.3947 577.568 94.6427 577.696C93.9067 577.808 93.3867 578.016 93.0827 578.32C92.7947 578.608 92.6507 579.008 92.6507 579.52C92.6507 580.176 92.8747 580.712 93.3227 581.128C93.7867 581.544 94.4107 581.752 95.1947 581.752ZM107.513 583.216C106.329 583.216 105.433 582.872 104.825 582.184C104.233 581.48 103.937 580.464 103.937 579.136V566.08H105.881V578.992C105.881 580.704 106.561 581.56 107.921 581.56C108.321 581.56 108.681 581.512 109.001 581.416L108.953 583.048C108.457 583.16 107.977 583.216 107.513 583.216ZM114.711 583.216C113.911 583.216 113.191 583.064 112.551 582.76C111.927 582.44 111.431 582.008 111.063 581.464C110.695 580.92 110.511 580.312 110.511 579.64C110.511 578.792 110.727 578.12 111.159 577.624C111.607 577.128 112.335 576.776 113.343 576.568C114.367 576.344 115.759 576.232 117.519 576.232H118.287V575.488C118.287 574.496 118.079 573.784 117.663 573.352C117.263 572.904 116.615 572.68 115.719 572.68C115.015 572.68 114.335 572.784 113.679 572.992C113.023 573.184 112.351 573.504 111.663 573.952L110.991 572.536C111.599 572.104 112.335 571.76 113.199 571.504C114.079 571.248 114.919 571.12 115.719 571.12C117.223 571.12 118.335 571.488 119.055 572.224C119.791 572.96 120.159 574.104 120.159 575.656V583H118.335V580.984C118.031 581.672 117.559 582.216 116.919 582.616C116.295 583.016 115.559 583.216 114.711 583.216ZM115.023 581.752C115.983 581.752 116.767 581.424 117.375 580.768C117.983 580.096 118.287 579.248 118.287 578.224V577.504H117.543C116.247 577.504 115.223 577.568 114.471 577.696C113.735 577.808 113.215 578.016 112.911 578.32C112.623 578.608 112.479 579.008 112.479 579.52C112.479 580.176 112.703 580.712 113.151 581.128C113.615 581.544 114.239 581.752 115.023 581.752ZM123.765 583V566.08H125.709V573.256C126.093 572.552 126.629 572.024 127.317 571.672C128.021 571.304 128.805 571.12 129.669 571.12C132.437 571.12 133.821 572.656 133.821 575.728V583H131.877V575.848C131.877 574.76 131.661 573.968 131.229 573.472C130.813 572.96 130.141 572.704 129.213 572.704C128.141 572.704 127.285 573.04 126.645 573.712C126.021 574.368 125.709 575.248 125.709 576.352V583H123.765ZM147.698 583.216C144.898 583.216 143.498 581.672 143.498 578.584V571.336H145.442V578.56C145.442 579.6 145.65 580.368 146.066 580.864C146.498 581.36 147.17 581.608 148.082 581.608C149.074 581.608 149.882 581.28 150.506 580.624C151.13 579.952 151.442 579.064 151.442 577.96V571.336H153.386V583H151.49V581.032C151.122 581.736 150.602 582.28 149.93 582.664C149.274 583.032 148.53 583.216 147.698 583.216ZM157.023 583V571.336H158.919V573.328C159.303 572.592 159.847 572.04 160.551 571.672C161.255 571.304 162.047 571.12 162.927 571.12C165.695 571.12 167.079 572.656 167.079 575.728V583H165.135V575.848C165.135 574.76 164.919 573.968 164.487 573.472C164.071 572.96 163.399 572.704 162.471 572.704C161.399 572.704 160.543 573.04 159.903 573.712C159.279 574.368 158.967 575.248 158.967 576.352V583H157.023ZM175.344 583.216C173.968 583.216 172.936 582.856 172.248 582.136C171.56 581.4 171.216 580.344 171.216 578.968V572.848H168.936V571.336H171.216V567.76H173.16V571.336H176.856V572.848H173.16V578.776C173.16 579.688 173.352 580.384 173.736 580.864C174.12 581.328 174.744 581.56 175.608 581.56C175.864 581.56 176.12 581.528 176.376 581.464C176.632 581.4 176.864 581.336 177.072 581.272L177.408 582.76C177.2 582.872 176.896 582.976 176.496 583.072C176.096 583.168 175.712 583.216 175.344 583.216ZM183.182 583.216C180.382 583.216 178.982 581.672 178.982 578.584V571.336H180.926V578.56C180.926 579.6 181.134 580.368 181.55 580.864C181.982 581.36 182.654 581.608 183.566 581.608C184.558 581.608 185.366 581.28 185.99 580.624C186.614 579.952 186.926 579.064 186.926 577.96V571.336H188.87V583H186.974V581.032C186.606 581.736 186.086 582.28 185.414 582.664C184.758 583.032 184.014 583.216 183.182 583.216ZM192.508 583V566.08H194.452V576.52H194.5L199.9 571.336H202.372L196.516 576.952L202.876 583H200.404L194.5 577.528H194.452V583H192.508ZM210.72 583V571.336H212.616V573.304C212.968 572.6 213.456 572.064 214.08 571.696C214.704 571.312 215.432 571.12 216.264 571.12C218.088 571.12 219.256 571.912 219.768 573.496C220.12 572.76 220.64 572.184 221.328 571.768C222.016 571.336 222.808 571.12 223.704 571.12C226.296 571.12 227.592 572.656 227.592 575.728V583H225.648V575.824C225.648 574.752 225.456 573.968 225.072 573.472C224.704 572.96 224.088 572.704 223.224 572.704C222.28 572.704 221.528 573.04 220.968 573.712C220.408 574.384 220.128 575.28 220.128 576.4V583H218.184V575.824C218.184 574.752 217.992 573.968 217.608 573.472C217.24 572.96 216.624 572.704 215.76 572.704C214.8 572.704 214.04 573.04 213.48 573.712C212.936 574.384 212.664 575.28 212.664 576.4V583H210.72ZM236.482 583.216C234.642 583.216 233.186 582.68 232.114 581.608C231.042 580.52 230.506 579.048 230.506 577.192C230.506 575.992 230.746 574.936 231.226 574.024C231.706 573.096 232.362 572.384 233.194 571.888C234.042 571.376 235.018 571.12 236.122 571.12C237.706 571.12 238.946 571.632 239.842 572.656C240.738 573.664 241.186 575.056 241.186 576.832V577.576H232.402C232.466 578.904 232.85 579.92 233.554 580.624C234.258 581.312 235.234 581.656 236.482 581.656C237.186 581.656 237.858 581.552 238.498 581.344C239.138 581.12 239.746 580.76 240.322 580.264L240.994 581.632C240.466 582.128 239.794 582.52 238.978 582.808C238.162 583.08 237.33 583.216 236.482 583.216ZM236.17 572.56C235.066 572.56 234.194 572.904 233.554 573.592C232.914 574.28 232.538 575.184 232.426 576.304H239.506C239.458 575.12 239.146 574.2 238.57 573.544C238.01 572.888 237.21 572.56 236.17 572.56ZM244 583V571.336H245.896V573.328C246.28 572.592 246.824 572.04 247.528 571.672C248.232 571.304 249.024 571.12 249.904 571.12C252.672 571.12 254.056 572.656 254.056 575.728V583H252.112V575.848C252.112 574.76 251.896 573.968 251.464 573.472C251.048 572.96 250.376 572.704 249.448 572.704C248.376 572.704 247.52 573.04 246.88 573.712C246.256 574.368 245.944 575.248 245.944 576.352V583H244ZM262.584 583.216C261.416 583.216 260.408 582.968 259.56 582.472C258.712 581.96 258.056 581.248 257.592 580.336C257.144 579.408 256.92 578.328 256.92 577.096C256.92 575.24 257.424 573.784 258.432 572.728C259.44 571.656 260.824 571.12 262.584 571.12C263.304 571.12 264.016 571.248 264.72 571.504C265.424 571.76 266.008 572.12 266.472 572.584L265.8 574C265.336 573.552 264.824 573.224 264.264 573.016C263.72 572.808 263.2 572.704 262.704 572.704C261.488 572.704 260.552 573.088 259.896 573.856C259.24 574.608 258.912 575.696 258.912 577.12C258.912 578.512 259.24 579.616 259.896 580.432C260.552 581.232 261.488 581.632 262.704 581.632C263.2 581.632 263.72 581.528 264.264 581.32C264.824 581.112 265.336 580.776 265.8 580.312L266.472 581.728C266.008 582.192 265.416 582.56 264.696 582.832C263.992 583.088 263.288 583.216 262.584 583.216ZM272.328 583.216C271.528 583.216 270.808 583.064 270.168 582.76C269.544 582.44 269.048 582.008 268.68 581.464C268.312 580.92 268.128 580.312 268.128 579.64C268.128 578.792 268.344 578.12 268.776 577.624C269.224 577.128 269.952 576.776 270.96 576.568C271.984 576.344 273.376 576.232 275.136 576.232H275.904V575.488C275.904 574.496 275.696 573.784 275.28 573.352C274.88 572.904 274.232 572.68 273.336 572.68C272.632 572.68 271.952 572.784 271.296 572.992C270.64 573.184 269.968 573.504 269.28 573.952L268.608 572.536C269.216 572.104 269.952 571.76 270.816 571.504C271.696 571.248 272.536 571.12 273.336 571.12C274.84 571.12 275.952 571.488 276.672 572.224C277.408 572.96 277.776 574.104 277.776 575.656V583H275.952V580.984C275.648 581.672 275.176 582.216 274.536 582.616C273.912 583.016 273.176 583.216 272.328 583.216ZM272.64 581.752C273.6 581.752 274.384 581.424 274.992 580.768C275.6 580.096 275.904 579.248 275.904 578.224V577.504H275.16C273.864 577.504 272.84 577.568 272.088 577.696C271.352 577.808 270.832 578.016 270.528 578.32C270.24 578.608 270.096 579.008 270.096 579.52C270.096 580.176 270.32 580.712 270.768 581.128C271.232 581.544 271.856 581.752 272.64 581.752ZM281.383 583V571.336H283.279V573.424C283.903 572.016 285.183 571.24 287.119 571.096L287.815 571.024L287.959 572.704L286.735 572.848C285.631 572.944 284.791 573.296 284.215 573.904C283.639 574.496 283.351 575.312 283.351 576.352V583H281.383ZM289.744 568.432V566.248H292.144V568.432H289.744ZM289.984 583V571.336H291.928V583H289.984ZM306.166 583.216C305.126 583.216 304.214 582.968 303.43 582.472C302.662 581.976 302.062 581.28 301.63 580.384C301.214 579.472 301.006 578.4 301.006 577.168C301.006 575.92 301.214 574.848 301.63 573.952C302.062 573.04 302.662 572.344 303.43 571.864C304.214 571.368 305.126 571.12 306.166 571.12C307.078 571.12 307.878 571.32 308.566 571.72C309.27 572.12 309.79 572.672 310.126 573.376V566.08H312.07V583H310.174V580.864C309.838 581.6 309.318 582.176 308.614 582.592C307.91 583.008 307.094 583.216 306.166 583.216ZM306.574 581.656C307.662 581.656 308.534 581.272 309.19 580.504C309.846 579.72 310.174 578.608 310.174 577.168C310.174 575.712 309.846 574.6 309.19 573.832C308.534 573.064 307.662 572.68 306.574 572.68C305.47 572.68 304.59 573.064 303.934 573.832C303.294 574.6 302.974 575.712 302.974 577.168C302.974 578.608 303.294 579.72 303.934 580.504C304.59 581.272 305.47 581.656 306.574 581.656ZM320.975 583.216C319.135 583.216 317.679 582.68 316.607 581.608C315.535 580.52 314.999 579.048 314.999 577.192C314.999 575.992 315.239 574.936 315.719 574.024C316.199 573.096 316.855 572.384 317.687 571.888C318.535 571.376 319.511 571.12 320.615 571.12C322.199 571.12 323.439 571.632 324.335 572.656C325.231 573.664 325.679 575.056 325.679 576.832V577.576H316.895C316.959 578.904 317.343 579.92 318.047 580.624C318.751 581.312 319.727 581.656 320.975 581.656C321.679 581.656 322.351 581.552 322.991 581.344C323.631 581.12 324.239 580.76 324.815 580.264L325.487 581.632C324.959 582.128 324.287 582.52 323.471 582.808C322.655 583.08 321.823 583.216 320.975 583.216ZM320.663 572.56C319.559 572.56 318.687 572.904 318.047 573.592C317.407 574.28 317.031 575.184 316.919 576.304H323.999C323.951 575.12 323.639 574.2 323.063 573.544C322.503 572.888 321.703 572.56 320.663 572.56ZM328.492 583V571.336H330.388V573.328C330.772 572.592 331.316 572.04 332.02 571.672C332.724 571.304 333.516 571.12 334.396 571.12C337.164 571.12 338.548 572.656 338.548 575.728V583H336.604V575.848C336.604 574.76 336.388 573.968 335.956 573.472C335.54 572.96 334.868 572.704 333.94 572.704C332.868 572.704 332.012 573.04 331.372 573.712C330.748 574.368 330.436 575.248 330.436 576.352V583H328.492ZM347.293 587.536C346.285 587.536 345.333 587.4 344.437 587.128C343.557 586.872 342.773 586.48 342.085 585.952L342.733 584.536C343.453 585.048 344.165 585.416 344.869 585.64C345.589 585.864 346.365 585.976 347.197 585.976C349.501 585.976 350.653 584.792 350.653 582.424V580.36C350.317 581.096 349.789 581.68 349.069 582.112C348.365 582.528 347.557 582.736 346.645 582.736C345.573 582.736 344.645 582.488 343.861 581.992C343.077 581.496 342.469 580.816 342.037 579.952C341.621 579.072 341.413 578.056 341.413 576.904C341.413 575.752 341.621 574.744 342.037 573.88C342.469 573 343.077 572.32 343.861 571.84C344.645 571.36 345.573 571.12 346.645 571.12C347.557 571.12 348.365 571.328 349.069 571.744C349.789 572.16 350.317 572.728 350.653 573.448V571.336H352.549V582.16C352.549 583.952 352.101 585.296 351.205 586.192C350.325 587.088 349.021 587.536 347.293 587.536ZM347.005 581.152C348.125 581.152 349.013 580.768 349.669 580C350.325 579.232 350.653 578.2 350.653 576.904C350.653 575.608 350.325 574.584 349.669 573.832C349.013 573.064 348.125 572.68 347.005 572.68C345.901 572.68 345.021 573.064 344.365 573.832C343.709 574.584 343.381 575.608 343.381 576.904C343.381 578.2 343.709 579.232 344.365 580C345.021 580.768 345.901 581.152 347.005 581.152ZM359.867 583.216C359.067 583.216 358.347 583.064 357.707 582.76C357.083 582.44 356.587 582.008 356.219 581.464C355.851 580.92 355.667 580.312 355.667 579.64C355.667 578.792 355.883 578.12 356.315 577.624C356.763 577.128 357.491 576.776 358.499 576.568C359.523 576.344 360.915 576.232 362.675 576.232H363.443V575.488C363.443 574.496 363.235 573.784 362.819 573.352C362.419 572.904 361.771 572.68 360.875 572.68C360.171 572.68 359.491 572.784 358.835 572.992C358.179 573.184 357.507 573.504 356.819 573.952L356.147 572.536C356.755 572.104 357.491 571.76 358.355 571.504C359.235 571.248 360.075 571.12 360.875 571.12C362.379 571.12 363.491 571.488 364.211 572.224C364.947 572.96 365.315 574.104 365.315 575.656V583H363.491V580.984C363.187 581.672 362.715 582.216 362.075 582.616C361.451 583.016 360.715 583.216 359.867 583.216ZM360.179 581.752C361.139 581.752 361.923 581.424 362.531 580.768C363.139 580.096 363.443 579.248 363.443 578.224V577.504H362.699C361.403 577.504 360.379 577.568 359.627 577.696C358.891 577.808 358.371 578.016 358.067 578.32C357.779 578.608 357.635 579.008 357.635 579.52C357.635 580.176 357.859 580.712 358.307 581.128C358.771 581.544 359.395 581.752 360.179 581.752ZM368.922 583V571.336H370.818V573.328C371.202 572.592 371.746 572.04 372.45 571.672C373.154 571.304 373.946 571.12 374.826 571.12C377.594 571.12 378.978 572.656 378.978 575.728V583H377.034V575.848C377.034 574.76 376.818 573.968 376.386 573.472C375.97 572.96 375.298 572.704 374.37 572.704C373.298 572.704 372.442 573.04 371.802 573.712C371.178 574.368 370.866 575.248 370.866 576.352V583H368.922ZM388.726 583V566.08H390.67V576.52H390.718L396.118 571.336H398.59L392.734 576.952L399.094 583H396.622L390.718 577.528H390.67V583H388.726ZM404.281 583.216C403.481 583.216 402.761 583.064 402.121 582.76C401.497 582.44 401.001 582.008 400.633 581.464C400.265 580.92 400.081 580.312 400.081 579.64C400.081 578.792 400.297 578.12 400.729 577.624C401.177 577.128 401.905 576.776 402.913 576.568C403.937 576.344 405.329 576.232 407.089 576.232H407.857V575.488C407.857 574.496 407.649 573.784 407.233 573.352C406.833 572.904 406.185 572.68 405.289 572.68C404.585 572.68 403.905 572.784 403.249 572.992C402.593 573.184 401.921 573.504 401.233 573.952L400.561 572.536C401.169 572.104 401.905 571.76 402.769 571.504C403.649 571.248 404.489 571.12 405.289 571.12C406.793 571.12 407.905 571.488 408.625 572.224C409.361 572.96 409.729 574.104 409.729 575.656V583H407.905V580.984C407.601 581.672 407.129 582.216 406.489 582.616C405.865 583.016 405.129 583.216 404.281 583.216ZM404.593 581.752C405.553 581.752 406.337 581.424 406.945 580.768C407.553 580.096 407.857 579.248 407.857 578.224V577.504H407.113C405.817 577.504 404.793 577.568 404.041 577.696C403.305 577.808 402.785 578.016 402.481 578.32C402.193 578.608 402.049 579.008 402.049 579.52C402.049 580.176 402.273 580.712 402.721 581.128C403.185 581.544 403.809 581.752 404.593 581.752ZM418.016 583.216C416.64 583.216 415.608 582.856 414.92 582.136C414.232 581.4 413.888 580.344 413.888 578.968V572.848H411.608V571.336H413.888V567.76H415.832V571.336H419.528V572.848H415.832V578.776C415.832 579.688 416.024 580.384 416.408 580.864C416.792 581.328 417.416 581.56 418.28 581.56C418.536 581.56 418.792 581.528 419.048 581.464C419.304 581.4 419.536 581.336 419.744 581.272L420.08 582.76C419.872 582.872 419.568 582.976 419.168 583.072C418.768 583.168 418.384 583.216 418.016 583.216ZM425.398 583.216C424.598 583.216 423.878 583.064 423.238 582.76C422.614 582.44 422.118 582.008 421.75 581.464C421.382 580.92 421.198 580.312 421.198 579.64C421.198 578.792 421.414 578.12 421.846 577.624C422.294 577.128 423.022 576.776 424.03 576.568C425.054 576.344 426.446 576.232 428.206 576.232H428.974V575.488C428.974 574.496 428.766 573.784 428.35 573.352C427.95 572.904 427.302 572.68 426.406 572.68C425.702 572.68 425.022 572.784 424.366 572.992C423.71 573.184 423.038 573.504 422.35 573.952L421.678 572.536C422.286 572.104 423.022 571.76 423.886 571.504C424.766 571.248 425.606 571.12 426.406 571.12C427.91 571.12 429.022 571.488 429.742 572.224C430.478 572.96 430.846 574.104 430.846 575.656V583H429.022V580.984C428.718 581.672 428.246 582.216 427.606 582.616C426.982 583.016 426.246 583.216 425.398 583.216ZM425.71 581.752C426.67 581.752 427.454 581.424 428.062 580.768C428.67 580.096 428.974 579.248 428.974 578.224V577.504H428.23C426.934 577.504 425.91 577.568 425.158 577.696C424.422 577.808 423.902 578.016 423.598 578.32C423.31 578.608 423.166 579.008 423.166 579.52C423.166 580.176 423.39 580.712 423.838 581.128C424.302 581.544 424.926 581.752 425.71 581.752ZM440.617 583V566.08H442.561V576.52H442.609L448.009 571.336H450.481L444.625 576.952L450.985 583H448.513L442.609 577.528H442.561V583H440.617ZM456.745 583.216C453.945 583.216 452.545 581.672 452.545 578.584V571.336H454.489V578.56C454.489 579.6 454.697 580.368 455.113 580.864C455.545 581.36 456.217 581.608 457.129 581.608C458.121 581.608 458.929 581.28 459.553 580.624C460.177 579.952 460.489 579.064 460.489 577.96V571.336H462.433V583H460.537V581.032C460.169 581.736 459.649 582.28 458.977 582.664C458.321 583.032 457.577 583.216 456.745 583.216ZM466.07 583V571.336H467.966V573.328C468.35 572.592 468.894 572.04 469.598 571.672C470.302 571.304 471.094 571.12 471.974 571.12C474.742 571.12 476.126 572.656 476.126 575.728V583H474.182V575.848C474.182 574.76 473.966 573.968 473.534 573.472C473.118 572.96 472.446 572.704 471.518 572.704C470.446 572.704 469.59 573.04 468.95 573.712C468.326 574.368 468.014 575.248 468.014 576.352V583H466.07ZM484.655 583.216C483.487 583.216 482.479 582.968 481.631 582.472C480.783 581.96 480.127 581.248 479.663 580.336C479.215 579.408 478.991 578.328 478.991 577.096C478.991 575.24 479.495 573.784 480.503 572.728C481.511 571.656 482.895 571.12 484.655 571.12C485.375 571.12 486.087 571.248 486.791 571.504C487.495 571.76 488.079 572.12 488.543 572.584L487.871 574C487.407 573.552 486.895 573.224 486.335 573.016C485.791 572.808 485.271 572.704 484.775 572.704C483.559 572.704 482.623 573.088 481.967 573.856C481.311 574.608 480.983 575.696 480.983 577.12C480.983 578.512 481.311 579.616 481.967 580.432C482.623 581.232 483.559 581.632 484.775 581.632C485.271 581.632 485.791 581.528 486.335 581.32C486.895 581.112 487.407 580.776 487.871 580.312L488.543 581.728C488.079 582.192 487.487 582.56 486.767 582.832C486.063 583.088 485.359 583.216 484.655 583.216ZM490.58 568.432V566.248H492.98V568.432H490.58ZM490.82 583V571.336H492.764V583H490.82ZM506.138 583.216C504.954 583.216 504.058 582.872 503.45 582.184C502.858 581.48 502.562 580.464 502.562 579.136V566.08H504.506V578.992C504.506 580.704 505.186 581.56 506.546 581.56C506.946 581.56 507.306 581.512 507.626 581.416L507.578 583.048C507.082 583.16 506.602 583.216 506.138 583.216ZM513.336 583.216C512.536 583.216 511.816 583.064 511.176 582.76C510.552 582.44 510.056 582.008 509.688 581.464C509.32 580.92 509.136 580.312 509.136 579.64C509.136 578.792 509.352 578.12 509.784 577.624C510.232 577.128 510.96 576.776 511.968 576.568C512.992 576.344 514.384 576.232 516.144 576.232H516.912V575.488C516.912 574.496 516.704 573.784 516.288 573.352C515.888 572.904 515.24 572.68 514.344 572.68C513.64 572.68 512.96 572.784 512.304 572.992C511.648 573.184 510.976 573.504 510.288 573.952L509.616 572.536C510.224 572.104 510.96 571.76 511.824 571.504C512.704 571.248 513.544 571.12 514.344 571.12C515.848 571.12 516.96 571.488 517.68 572.224C518.416 572.96 518.784 574.104 518.784 575.656V583H516.96V580.984C516.656 581.672 516.184 582.216 515.544 582.616C514.92 583.016 514.184 583.216 513.336 583.216ZM513.648 581.752C514.608 581.752 515.392 581.424 516 580.768C516.608 580.096 516.912 579.248 516.912 578.224V577.504H516.168C514.872 577.504 513.848 577.568 513.096 577.696C512.36 577.808 511.84 578.016 511.536 578.32C511.248 578.608 511.104 579.008 511.104 579.52C511.104 580.176 511.328 580.712 511.776 581.128C512.24 581.544 512.864 581.752 513.648 581.752ZM522.15 568.432V566.248H524.55V568.432H522.15ZM522.39 583V571.336H524.334V583H522.39ZM527.969 583V571.336H529.865V573.328C530.249 572.592 530.793 572.04 531.497 571.672C532.201 571.304 532.993 571.12 533.873 571.12C536.641 571.12 538.025 572.656 538.025 575.728V583H536.081V575.848C536.081 574.76 535.865 573.968 535.433 573.472C535.017 572.96 534.345 572.704 533.417 572.704C532.345 572.704 531.489 573.04 530.849 573.712C530.225 574.368 529.913 575.248 529.913 576.352V583H527.969ZM541.297 583V580.552H543.745V583H541.297Z" fill="#797979"/>
<g opacity="0.3">
<path opacity="0.3" d="M247 145.62C247 145.99 246.89 146.352 246.684 146.66C246.478 146.968 246.186 147.207 245.843 147.349C245.501 147.49 245.125 147.526 244.761 147.453C244.398 147.38 244.065 147.201 243.804 146.939C243.543 146.676 243.366 146.342 243.295 145.979C243.224 145.615 243.262 145.239 243.405 144.897C243.548 144.556 243.79 144.265 244.098 144.06C244.407 143.856 244.77 143.748 245.14 143.75C245.385 143.75 245.628 143.798 245.854 143.893C246.08 143.987 246.286 144.125 246.459 144.298C246.632 144.472 246.768 144.678 246.861 144.905C246.954 145.132 247.001 145.375 247 145.62Z" fill="#797979"/>
<path opacity="0.3" d="M118.97 217.45C119.699 217.45 120.29 216.859 120.29 216.13C120.29 215.401 119.699 214.81 118.97 214.81C118.241 214.81 117.65 215.401 117.65 216.13C117.65 216.859 118.241 217.45 118.97 217.45Z" fill="#797979"/>
<path opacity="0.3" d="M337.05 410.219C338.094 410.219 338.94 409.373 338.94 408.329C338.94 407.286 338.094 406.439 337.05 406.439C336.006 406.439 335.16 407.286 335.16 408.329C335.16 409.373 336.006 410.219 337.05 410.219Z" fill="#797979"/>
<path opacity="0.3" d="M382.5 333.32C383.229 333.32 383.82 332.729 383.82 332C383.82 331.271 383.229 330.68 382.5 330.68C381.771 330.68 381.18 331.271 381.18 332C381.18 332.729 381.771 333.32 382.5 333.32Z" fill="#797979"/>
<path opacity="0.3" d="M470.17 95.6198C470.17 95.8809 470.092 96.1361 469.947 96.3532C469.802 96.5702 469.596 96.7394 469.355 96.8393C469.114 96.9392 468.848 96.9654 468.592 96.9144C468.336 96.8635 468.101 96.7378 467.916 96.5532C467.732 96.3686 467.606 96.1334 467.555 95.8773C467.504 95.6213 467.53 95.3559 467.63 95.1147C467.73 94.8735 467.899 94.6673 468.116 94.5223C468.333 94.3772 468.589 94.2998 468.85 94.2998C469.2 94.2998 469.536 94.4389 469.783 94.6864C470.031 94.934 470.17 95.2697 470.17 95.6198Z" fill="#797979"/>
<path opacity="0.3" d="M218.75 68.9997C218.75 69.2608 218.672 69.516 218.527 69.733C218.382 69.9501 218.176 70.1193 217.935 70.2192C217.694 70.3191 217.428 70.3453 217.172 70.2943C216.916 70.2434 216.681 70.1177 216.496 69.9331C216.312 69.7485 216.186 69.5133 216.135 69.2572C216.084 69.0012 216.11 68.7357 216.21 68.4945C216.31 68.2533 216.479 68.0472 216.697 67.9021C216.914 67.7571 217.169 67.6797 217.43 67.6797C217.779 67.6823 218.113 67.8222 218.36 68.0692C218.607 68.3162 218.747 68.6504 218.75 68.9997Z" fill="#797979"/>
<path opacity="0.3" d="M323.7 138.26C324.429 138.26 325.02 137.669 325.02 136.94C325.02 136.211 324.429 135.62 323.7 135.62C322.971 135.62 322.38 136.211 322.38 136.94C322.38 137.669 322.971 138.26 323.7 138.26Z" fill="#797979"/>
</g>
<path d="M187.23 138.269C199.33 138.269 209.14 128.46 209.14 116.359C209.14 104.259 199.33 94.4492 187.23 94.4492C175.129 94.4492 165.32 104.259 165.32 116.359C165.32 128.46 175.129 138.269 187.23 138.269Z" fill="#797979"/>
<path opacity="0.7" d="M187.23 138.269C199.33 138.269 209.14 128.46 209.14 116.359C209.14 104.259 199.33 94.4492 187.23 94.4492C175.129 94.4492 165.32 104.259 165.32 116.359C165.32 128.46 175.129 138.269 187.23 138.269Z" fill="white"/>
<path opacity="0.2" d="M179.68 99.8302C176.696 99.821 173.742 100.423 171 101.6C167.63 105.304 165.63 110.05 165.332 115.049C165.034 120.048 166.457 124.998 169.364 129.075C172.27 133.153 176.486 136.112 181.308 137.462C186.13 138.811 191.269 138.468 195.87 136.49C198.722 133.347 200.601 129.443 201.277 125.253C201.953 121.062 201.398 116.766 199.679 112.885C197.961 109.003 195.152 105.705 191.595 103.389C188.038 101.074 183.885 99.8408 179.64 99.8402L179.68 99.8302Z" fill="#797979"/>
<path opacity="0.2" d="M177.5 105.62C177.5 106.016 177.383 106.402 177.163 106.731C176.943 107.06 176.631 107.316 176.265 107.468C175.9 107.619 175.498 107.659 175.11 107.582C174.722 107.505 174.365 107.314 174.086 107.034C173.806 106.755 173.616 106.398 173.538 106.01C173.461 105.622 173.501 105.22 173.652 104.855C173.804 104.489 174.06 104.177 174.389 103.957C174.718 103.737 175.104 103.62 175.5 103.62C176.03 103.62 176.539 103.831 176.914 104.206C177.289 104.581 177.5 105.09 177.5 105.62Z" fill="#797979"/>
<path opacity="0.2" d="M201.06 103.62C201.06 104.016 200.943 104.402 200.723 104.731C200.503 105.06 200.191 105.316 199.825 105.468C199.46 105.619 199.058 105.659 198.67 105.582C198.282 105.505 197.925 105.314 197.646 105.034C197.366 104.755 197.175 104.398 197.098 104.01C197.021 103.622 197.061 103.22 197.212 102.855C197.363 102.489 197.62 102.177 197.949 101.957C198.278 101.737 198.664 101.62 199.06 101.62C199.59 101.62 200.099 101.831 200.474 102.206C200.849 102.581 201.06 103.09 201.06 103.62Z" fill="#797979"/>
<path opacity="0.2" d="M197.06 117.9C197.06 118.549 196.868 119.183 196.507 119.722C196.147 120.262 195.635 120.682 195.035 120.93C194.436 121.179 193.776 121.244 193.14 121.117C192.504 120.991 191.919 120.678 191.461 120.219C191.002 119.761 190.69 119.176 190.563 118.54C190.436 117.904 190.501 117.244 190.75 116.645C190.998 116.046 191.418 115.533 191.958 115.173C192.497 114.812 193.131 114.62 193.78 114.62C194.65 114.62 195.484 114.966 196.099 115.581C196.714 116.196 197.06 117.03 197.06 117.9Z" fill="#797979"/>
<path opacity="0.2" d="M186.64 127.25C186.64 128.116 186.383 128.963 185.902 129.684C185.42 130.404 184.736 130.965 183.936 131.297C183.136 131.628 182.255 131.715 181.405 131.546C180.556 131.377 179.775 130.96 179.163 130.347C178.55 129.735 178.133 128.954 177.964 128.105C177.795 127.255 177.882 126.374 178.213 125.574C178.545 124.774 179.106 124.09 179.826 123.608C180.547 123.127 181.394 122.87 182.26 122.87C183.422 122.87 184.536 123.332 185.357 124.153C186.178 124.974 186.64 126.088 186.64 127.25Z" fill="#797979"/>
<path d="M446.9 380.646C449.339 370.31 442.938 359.953 432.601 357.513C422.265 355.074 411.908 361.475 409.468 371.812C407.028 382.148 413.43 392.505 423.767 394.945C434.103 397.384 444.46 390.983 446.9 380.646Z" fill="#797979"/>
<path opacity="0.3" d="M446.9 380.646C449.339 370.31 442.938 359.953 432.601 357.513C422.265 355.074 411.908 361.475 409.468 371.812C407.028 382.148 413.43 392.505 423.767 394.945C434.103 397.384 444.46 390.983 446.9 380.646Z" fill="white"/>
<path opacity="0.4" d="M440.33 361.339C436.067 360.053 431.489 360.286 427.38 362C423.27 363.713 419.882 366.801 417.796 370.735C415.71 374.669 415.054 379.205 415.941 383.569C416.829 387.932 419.203 391.852 422.66 394.659C424.453 395.204 426.316 395.48 428.19 395.479C432.16 395.479 436.032 394.249 439.275 391.959C442.519 389.67 444.974 386.433 446.304 382.692C447.634 378.952 447.774 374.891 446.704 371.068C445.635 367.245 443.408 363.847 440.33 361.339Z" fill="#797979"/>
<path d="M409.83 382C389.3 391.66 404.61 399.11 433.54 388.71C460.33 379.08 470.54 366.94 446.54 370.71C447.83 375.76 414.28 388.83 409.83 382Z" fill="#797979"/>
<path opacity="0.2" d="M440.1 187.83C413.21 206 378.4 230 368.79 287.64H366.74C376.09 230.64 409.63 206.07 436.53 187.83H440.1Z" fill="black"/>
<path d="M301 368.271C284 368.271 267.19 360.601 259 348.081C253.95 340.341 248.08 324.131 265.56 302.501L267.11 303.761C254.75 319.061 252.47 334.411 260.68 346.991C270.68 362.291 294.27 369.991 314.41 364.511C335.04 358.901 347.56 340.961 348.77 315.291C352.9 227.481 399.55 200.431 433.61 180.681C454.78 168.411 470.07 159.551 466.71 140.841C466.24 138.251 465.21 136.461 463.54 135.361C459.19 132.491 450.69 134.481 440.85 136.771C421.54 141.271 395.1 147.431 379.35 120.641L381.08 119.641C396.08 145.171 420.65 139.441 440.4 134.841C450.69 132.451 459.57 130.381 464.64 133.711C466.79 135.121 468.11 137.351 468.64 140.511C472.25 160.591 455.64 170.231 434.59 182.431C400.92 201.951 354.82 228.681 350.74 315.431C349.48 342.031 336.42 360.641 314.9 366.491C310.366 367.698 305.692 368.297 301 368.271Z" fill="#797979"/>
<path opacity="0.2" d="M301 368.271C284 368.271 267.19 360.601 259 348.081C253.95 340.341 248.08 324.131 265.56 302.501L267.11 303.761C254.75 319.061 252.47 334.411 260.68 346.991C270.68 362.291 294.27 369.991 314.41 364.511C335.04 358.901 347.56 340.961 348.77 315.291C352.9 227.481 399.55 200.431 433.61 180.681C454.78 168.411 470.07 159.551 466.71 140.841C466.24 138.251 465.21 136.461 463.54 135.361C459.19 132.491 450.69 134.481 440.85 136.771C421.54 141.271 395.1 147.431 379.35 120.641L381.08 119.641C396.08 145.171 420.65 139.441 440.4 134.841C450.69 132.451 459.57 130.381 464.64 133.711C466.79 135.121 468.11 137.351 468.64 140.511C472.25 160.591 455.64 170.231 434.59 182.431C400.92 201.951 354.82 228.681 350.74 315.431C349.48 342.031 336.42 360.641 314.9 366.491C310.366 367.698 305.692 368.297 301 368.271Z" fill="white"/>
<path d="M358.76 97C363.368 97.0266 367.945 97.7446 372.34 99.13C372.34 99.13 383.34 117.9 384.64 122.2C384.18 126.44 377.03 133.39 377.03 133.39L358.76 97Z" fill="#797979"/>
<path opacity="0.3" d="M358.76 97C363.368 97.0266 367.945 97.7446 372.34 99.13C372.34 99.13 383.34 117.9 384.64 122.2C384.18 126.44 377.03 133.39 377.03 133.39L358.76 97Z" fill="white"/>
<path d="M391.34 188.13C387.104 182.951 383.241 177.477 379.78 171.75C378.94 170.303 378.143 168.83 377.39 167.33C376.96 166.48 376.55 165.63 376.15 164.77C375.625 163.933 375.218 163.028 374.94 162.08C373.74 149.41 378.08 140.08 373.94 129.91L357.46 136.35C357.46 136.35 358.86 154.47 362.06 165.35C364.06 172.08 368.54 177.9 372.87 183.29C374.22 184.97 375.52 186.7 376.87 188.39C378.22 190.08 379.58 191.45 380.87 193.04C382.82 195.45 383.46 197.76 381.99 200.6L381.74 201.05C381.32 201.79 383.28 202.63 384.52 201.05C386.52 198.47 386.24 198.63 387.98 196.43C389.04 195.1 390.25 193.65 391.3 192.43C391.806 191.83 392.088 191.072 392.095 190.287C392.102 189.502 391.835 188.739 391.34 188.13Z" fill="#797979"/>
<path opacity="0.7" d="M391.34 188.13C387.104 182.951 383.241 177.477 379.78 171.75C378.94 170.303 378.143 168.83 377.39 167.33C376.96 166.48 376.55 165.63 376.15 164.77C375.625 163.933 375.218 163.028 374.94 162.08C373.74 149.41 378.08 140.08 373.94 129.91L357.46 136.35C357.46 136.35 358.86 154.47 362.06 165.35C364.06 172.08 368.54 177.9 372.87 183.29C374.22 184.97 375.52 186.7 376.87 188.39C378.22 190.08 379.58 191.45 380.87 193.04C382.82 195.45 383.46 197.76 381.99 200.6L381.74 201.05C381.32 201.79 383.28 202.63 384.52 201.05C386.52 198.47 386.24 198.63 387.98 196.43C389.04 195.1 390.25 193.65 391.3 192.43C391.806 191.83 392.088 191.072 392.095 190.287C392.102 189.502 391.835 188.739 391.34 188.13Z" fill="white"/>
<path opacity="0.3" d="M387.31 182.92C384.695 185.723 381.792 188.244 378.65 190.44C379.08 190.92 379.5 191.44 379.93 191.9C383.076 189.775 385.933 187.25 388.43 184.39L387.31 182.92Z" fill="#797979"/>
<path opacity="0.3" d="M391.34 188.13L391.22 187.99C390.451 188.873 390.003 189.99 389.95 191.16C389.886 191.963 390.016 192.769 390.33 193.51L391.28 192.38C391.777 191.786 392.054 191.04 392.065 190.266C392.076 189.492 391.82 188.738 391.34 188.13Z" fill="#797979"/>
<path d="M354.84 109C353.054 111.675 350.91 114.094 348.47 116.19C347.117 117.356 345.634 118.363 344.05 119.19C343.218 119.616 342.356 119.981 341.47 120.28L340.79 120.5L340.57 120.56L340.1 120.69C339.811 120.759 339.517 120.806 339.22 120.83C338.376 120.895 337.528 120.817 336.71 120.6C335.679 120.307 334.69 119.88 333.77 119.33C333.03 118.897 332.312 118.427 331.62 117.92C330.37 116.99 329.174 115.988 328.04 114.92C325.853 112.847 323.845 110.593 322.04 108.18C321.692 107.71 321.52 107.133 321.552 106.55C321.584 105.966 321.819 105.412 322.216 104.983C322.613 104.554 323.147 104.277 323.727 104.199C324.306 104.122 324.895 104.25 325.39 104.56H325.47C327.83 106.06 330.21 107.64 332.53 109.05C333.71 109.74 334.85 110.44 335.98 110.98C336.496 111.25 337.027 111.491 337.57 111.7C337.909 111.849 338.271 111.938 338.64 111.96C338.7 111.96 338.64 111.89 338.27 111.9C338.154 111.893 338.037 111.893 337.92 111.9L337.7 111.95L338.03 111.78C338.475 111.541 338.905 111.277 339.32 110.99C340.215 110.359 341.052 109.65 341.82 108.87C343.567 107.039 345.203 105.106 346.72 103.08C347.551 102.15 348.7 101.565 349.94 101.438C351.181 101.311 352.424 101.653 353.425 102.395C354.427 103.138 355.115 104.228 355.355 105.452C355.594 106.676 355.368 107.945 354.72 109.01L354.84 109Z" fill="#797979"/>
<path opacity="0.7" d="M354.84 109C353.054 111.675 350.91 114.094 348.47 116.19C347.117 117.356 345.634 118.363 344.05 119.19C343.218 119.616 342.356 119.981 341.47 120.28L340.79 120.5L340.57 120.56L340.1 120.69C339.811 120.759 339.517 120.806 339.22 120.83C338.376 120.895 337.528 120.817 336.71 120.6C335.679 120.307 334.69 119.88 333.77 119.33C333.03 118.897 332.312 118.427 331.62 117.92C330.37 116.99 329.174 115.988 328.04 114.92C325.853 112.847 323.845 110.593 322.04 108.18C321.692 107.71 321.52 107.133 321.552 106.55C321.584 105.966 321.819 105.412 322.216 104.983C322.613 104.554 323.147 104.277 323.727 104.199C324.306 104.122 324.895 104.25 325.39 104.56H325.47C327.83 106.06 330.21 107.64 332.53 109.05C333.71 109.74 334.85 110.44 335.98 110.98C336.496 111.25 337.027 111.491 337.57 111.7C337.909 111.849 338.271 111.938 338.64 111.96C338.7 111.96 338.64 111.89 338.27 111.9C338.154 111.893 338.037 111.893 337.92 111.9L337.7 111.95L338.03 111.78C338.475 111.541 338.905 111.277 339.32 110.99C340.215 110.359 341.052 109.65 341.82 108.87C343.567 107.039 345.203 105.106 346.72 103.08C347.551 102.15 348.7 101.565 349.94 101.438C351.181 101.311 352.424 101.653 353.425 102.395C354.427 103.138 355.115 104.228 355.355 105.452C355.594 106.676 355.368 107.945 354.72 109.01L354.84 109Z" fill="white"/>
<path d="M318.29 102.421L319.46 104.421C319.46 104.421 320.35 107.041 322.14 107.521L327 105.951L326.75 105.541C326.13 104.601 326.2 102.771 326.41 101.251C326.62 99.7306 325.84 99.6806 325.26 100.061C324.849 100.533 324.561 101.1 324.42 101.711C324.182 101.38 323.917 101.069 323.63 100.781L322.15 99.3006C321.84 98.9971 321.426 98.8222 320.992 98.8111C320.558 98.8 320.136 98.9534 319.81 99.2406L318.61 100.311C318.325 100.574 318.139 100.926 318.081 101.31C318.022 101.693 318.096 102.085 318.29 102.421Z" fill="#797979"/>
<path opacity="0.7" d="M318.29 102.421L319.46 104.421C319.46 104.421 320.35 107.041 322.14 107.521L327 105.951L326.75 105.541C326.13 104.601 326.2 102.771 326.41 101.251C326.62 99.7306 325.84 99.6806 325.26 100.061C324.849 100.533 324.561 101.1 324.42 101.711C324.182 101.38 323.917 101.069 323.63 100.781L322.15 99.3006C321.84 98.9971 321.426 98.8222 320.992 98.8111C320.558 98.8 320.136 98.9534 319.81 99.2406L318.61 100.311C318.325 100.574 318.139 100.926 318.081 101.31C318.022 101.693 318.096 102.085 318.29 102.421Z" fill="white"/>
<path d="M363.67 95.2204C358.279 96.6493 353.116 98.8272 348.33 101.69C347.583 102.158 346.998 102.842 346.651 103.652C346.304 104.461 346.213 105.358 346.39 106.22C348.32 115.66 352.71 128.3 357.45 136.35L379.56 127.2C379.71 123.3 374.34 110.68 368.87 98.4805C367.89 96.2905 366 94.6604 363.67 95.2204Z" fill="#797979"/>
<path opacity="0.8" d="M363.67 95.2204C358.279 96.6493 353.116 98.8272 348.33 101.69C347.583 102.158 346.998 102.842 346.651 103.652C346.304 104.461 346.213 105.358 346.39 106.22C348.32 115.66 352.71 128.3 357.45 136.35L379.56 127.2C379.71 123.3 374.34 110.68 368.87 98.4805C367.89 96.2905 366 94.6604 363.67 95.2204Z" fill="white"/>
<path opacity="0.3" d="M372.3 106.21L367.91 104.74C368.91 107.31 372.44 110.56 374.91 112.47C374.11 110.47 373.22 108.37 372.3 106.21Z" fill="#797979"/>
<path d="M362.22 85.3204C360.39 81.8404 356.44 80.0904 351.7 80.4804C347.7 80.8204 344.16 84.9004 344.58 87.1004C345 89.3004 348.36 90.2404 349 91.0004L346.23 93.0004C345.902 93.2372 345.625 93.538 345.416 93.8846C345.207 94.2313 345.071 94.6166 345.015 95.0174C344.959 95.4182 344.984 95.8261 345.09 96.2168C345.196 96.6074 345.38 96.9726 345.63 97.2904C346.8 98.7704 348.34 100.29 349.23 101.41C356.89 101.21 362.56 98.2904 364.61 95.4804C363.84 91.9204 364 88.7804 362.22 85.3204Z" fill="#797979"/>
<path opacity="0.8" d="M362.22 85.3204C360.39 81.8404 356.44 80.0904 351.7 80.4804C347.7 80.8204 344.16 84.9004 344.58 87.1004C345 89.3004 348.36 90.2404 349 91.0004L346.23 93.0004C345.902 93.2372 345.625 93.538 345.416 93.8846C345.207 94.2313 345.071 94.6166 345.015 95.0174C344.959 95.4182 344.984 95.8261 345.09 96.2168C345.196 96.6074 345.38 96.9726 345.63 97.2904C346.8 98.7704 348.34 100.29 349.23 101.41C356.89 101.21 362.56 98.2904 364.61 95.4804C363.84 91.9204 364 88.7804 362.22 85.3204Z" fill="white"/>
<path d="M358.46 87.4801C359.004 88.8747 359.122 90.3992 358.8 91.861C358.477 93.3227 357.729 94.656 356.648 95.6924C355.568 96.7287 354.205 97.4216 352.731 97.6834C351.258 97.9453 349.739 97.7643 348.368 97.1633C346.997 96.5624 345.835 95.5685 345.029 94.3073C344.223 93.0461 343.809 91.5742 343.839 90.0776C343.869 88.581 344.342 87.127 345.199 85.8993C346.055 84.6716 347.256 83.7253 348.65 83.1801C350.521 82.4511 352.606 82.4945 354.445 83.3007C356.284 84.1069 357.728 85.6101 358.46 87.4801Z" fill="#263238"/>
<path d="M423.39 177.6C423.28 174.31 423.13 174.6 423.04 171.83C422.98 170.13 422.97 168.24 422.96 166.61C422.957 165.836 422.686 165.087 422.194 164.489C421.702 163.892 421.019 163.482 420.26 163.33C418.94 163.06 417.61 162.81 416.26 162.53C414.53 162.16 412.82 161.76 411.13 161.27C409.81 160.89 408.51 160.47 407.22 160C405.93 159.53 404.48 159 403.14 158.38C401.56 157.71 400 156.99 398.46 156.24C396.73 155.42 395.02 154.56 393.31 153.69C386.73 142.8 386.59 135.62 379.53 127.2L364.37 134.06C364.37 134.06 375.51 153.82 383.09 162.2C387.46 167.02 394.31 169.2 400.42 170.78C404.83 171.91 409.3 172.78 413.77 173.61C415.51 173.93 417.4 174.05 418.9 175.09C420.01 175.941 420.771 177.168 421.04 178.54C421.107 178.82 421.167 179.1 421.22 179.38C421.41 180.22 423.46 179.58 423.39 177.6Z" fill="#797979"/>
<path opacity="0.8" d="M423.39 177.6C423.28 174.31 423.13 174.6 423.04 171.83C422.98 170.13 422.97 168.24 422.96 166.61C422.957 165.836 422.686 165.087 422.194 164.489C421.702 163.892 421.019 163.482 420.26 163.33C418.94 163.06 417.61 162.81 416.26 162.53C414.53 162.16 412.82 161.76 411.13 161.27C409.81 160.89 408.51 160.47 407.22 160C405.93 159.53 404.48 159 403.14 158.38C401.56 157.71 400 156.99 398.46 156.24C396.73 155.42 395.02 154.56 393.31 153.69C386.73 142.8 386.59 135.62 379.53 127.2L364.37 134.06C364.37 134.06 375.51 153.82 383.09 162.2C387.46 167.02 394.31 169.2 400.42 170.78C404.83 171.91 409.3 172.78 413.77 173.61C415.51 173.93 417.4 174.05 418.9 175.09C420.01 175.941 420.771 177.168 421.04 178.54C421.107 178.82 421.167 179.1 421.22 179.38C421.41 180.22 423.46 179.58 423.39 177.6Z" fill="white"/>
<path opacity="0.3" d="M415.7 162.4C415.1 162.27 414.5 162.14 413.89 161.99C413.94 165.45 412.32 171.41 411.73 173.22L413.63 173.58C414.875 169.978 415.573 166.209 415.7 162.4Z" fill="#797979"/>
<path opacity="0.3" d="M423 166.611C422.997 165.838 422.728 165.09 422.238 164.492C421.748 163.895 421.067 163.485 420.31 163.331L419.31 163.141C419.471 164.277 420.052 165.312 420.94 166.041C421.511 166.568 422.195 166.958 422.94 167.181C423 167.001 423 166.801 423 166.611Z" fill="#797979"/>
<path d="M357.05 87.5403C357.45 89.0603 355.75 90.6503 354.4 89.3403C353.14 87.9894 351.761 86.7544 350.28 85.6503C348.89 84.7803 350.74 83.2603 352.93 83.8503C353.865 84.0851 354.728 84.5437 355.446 85.1865C356.164 85.8294 356.714 86.6372 357.05 87.5403Z" fill="white"/>
<path d="M357.16 135.861C356.46 136.121 357.74 137.321 357.74 137.321C357.74 137.321 371.74 132.531 380.24 127.601C380.261 127.302 380.21 127.003 380.091 126.728C379.973 126.453 379.791 126.211 379.56 126.021C372.285 129.721 364.807 133.006 357.16 135.861Z" fill="#797979"/>
<path opacity="0.5" d="M357.16 135.861C356.46 136.121 357.74 137.321 357.74 137.321C357.74 137.321 371.74 132.531 380.24 127.601C380.261 127.302 380.21 127.003 380.091 126.728C379.973 126.453 379.791 126.211 379.56 126.021C372.285 129.721 364.807 133.006 357.16 135.861Z" fill="white"/>
<path d="M367.46 94.5609C370.22 95.9609 372.81 97.4309 375.46 99.0609C376.75 99.8809 378.03 100.711 379.3 101.611C380.57 102.511 381.83 103.431 383.1 104.471L383.57 104.861L384.16 105.401C384.512 105.715 384.846 106.049 385.16 106.401C385.48 106.751 385.75 107.091 386.01 107.401C386.27 107.711 386.55 108.081 386.78 108.401C387.712 109.686 388.573 111.022 389.36 112.401C390.91 115.075 392.247 117.867 393.36 120.751C393.566 121.296 393.576 121.895 393.39 122.447C393.204 122.999 392.832 123.469 392.339 123.778C391.845 124.086 391.259 124.215 390.682 124.14C390.104 124.066 389.57 123.794 389.17 123.371L389.12 123.311C387.12 121.181 385.19 118.941 383.25 116.851C381.31 114.761 379.34 112.641 377.71 111.711C375.44 110.301 372.91 108.891 370.4 107.511L362.84 103.311C361.668 102.69 360.79 101.629 360.4 100.362C360.01 99.0939 360.14 97.7231 360.76 96.5509C361.381 95.3786 362.442 94.5009 363.709 94.1108C364.977 93.7207 366.348 93.8503 367.52 94.4709L367.46 94.5609Z" fill="#797979"/>
<path opacity="0.8" d="M367.46 94.5609C370.22 95.9609 372.81 97.4309 375.46 99.0609C376.75 99.8809 378.03 100.711 379.3 101.611C380.57 102.511 381.83 103.431 383.1 104.471L383.57 104.861L384.16 105.401C384.512 105.715 384.846 106.049 385.16 106.401C385.48 106.751 385.75 107.091 386.01 107.401C386.27 107.711 386.55 108.081 386.78 108.401C387.712 109.686 388.573 111.022 389.36 112.401C390.91 115.075 392.247 117.867 393.36 120.751C393.566 121.296 393.576 121.895 393.39 122.447C393.204 122.999 392.832 123.469 392.339 123.778C391.845 124.086 391.259 124.215 390.682 124.14C390.104 124.066 389.57 123.794 389.17 123.371L389.12 123.311C387.12 121.181 385.19 118.941 383.25 116.851C381.31 114.761 379.34 112.641 377.71 111.711C375.44 110.301 372.91 108.891 370.4 107.511L362.84 103.311C361.668 102.69 360.79 101.629 360.4 100.362C360.01 99.0939 360.14 97.7231 360.76 96.5509C361.381 95.3786 362.442 94.5009 363.709 94.1108C364.977 93.7207 366.348 93.8503 367.52 94.4709L367.46 94.5609Z" fill="white"/>
<path d="M395.73 125.741L394.88 123.611C394.88 123.611 394.41 120.891 392.72 120.131L387.72 120.921L387.89 121.361C388.35 122.361 388 124.191 387.55 125.651C387.1 127.111 387.86 127.301 388.5 127.011C388.86 126.851 389.21 126.201 389.59 125.511C389.776 125.858 389.987 126.193 390.22 126.511L391.45 128.201C391.707 128.551 392.087 128.791 392.514 128.873C392.94 128.954 393.382 128.871 393.75 128.641L395.11 127.771C395.428 127.553 395.663 127.233 395.776 126.865C395.888 126.496 395.872 126.099 395.73 125.741Z" fill="#797979"/>
<path opacity="0.8" d="M395.73 125.741L394.88 123.611C394.88 123.611 394.41 120.891 392.72 120.131L387.72 120.921L387.89 121.361C388.35 122.361 388 124.191 387.55 125.651C387.1 127.111 387.86 127.301 388.5 127.011C388.86 126.851 389.21 126.201 389.59 125.511C389.776 125.858 389.987 126.193 390.22 126.511L391.45 128.201C391.707 128.551 392.087 128.791 392.514 128.873C392.94 128.954 393.382 128.871 393.75 128.641L395.11 127.771C395.428 127.553 395.663 127.233 395.776 126.865C395.888 126.496 395.872 126.099 395.73 125.741Z" fill="white"/>
<path opacity="0.3" d="M363.24 106.061L362.02 106.161L354.53 124.241C354.939 124.27 355.351 124.236 355.75 124.141C355.75 124.141 365.51 120.501 368.46 119.141C366.48 115.051 363.24 106.061 363.24 106.061Z" fill="#797979"/>
<path d="M349.57 110.8C350.48 115.526 352.17 120.068 354.57 124.24C358.23 122.98 364.33 120.6 367.29 119.24C365.301 114.975 363.535 110.609 362 106.16C358.87 106.37 352 109 349.57 110.8Z" fill="white"/>
<path opacity="0.3" d="M357 114.711C356.854 115.2 356.566 115.634 356.173 115.96C355.779 116.285 355.298 116.486 354.791 116.538C354.283 116.59 353.771 116.49 353.32 116.251C352.869 116.012 352.499 115.645 352.257 115.196C352.015 114.746 351.911 114.235 351.96 113.727C352.008 113.219 352.206 112.737 352.529 112.341C352.851 111.946 353.284 111.655 353.772 111.505C354.26 111.355 354.781 111.354 355.27 111.501C355.925 111.697 356.475 112.146 356.799 112.748C357.124 113.349 357.196 114.055 357 114.711Z" fill="#797979"/>
<path opacity="0.6" d="M358.91 111.271C358.871 111.438 358.783 111.589 358.656 111.705C358.53 111.82 358.371 111.895 358.202 111.919C358.032 111.943 357.859 111.915 357.705 111.839C357.552 111.763 357.425 111.642 357.341 111.493C357.257 111.343 357.22 111.172 357.236 111.001C357.251 110.83 357.318 110.668 357.427 110.536C357.536 110.404 357.683 110.308 357.848 110.261C358.012 110.213 358.187 110.217 358.35 110.271C358.553 110.336 358.723 110.475 358.827 110.66C358.931 110.846 358.961 111.064 358.91 111.271Z" fill="#797979"/>
<path opacity="0.6" d="M361.15 110.4C361.127 110.516 361.079 110.626 361.011 110.723C360.943 110.819 360.855 110.901 360.753 110.961C360.652 111.022 360.538 111.061 360.421 111.075C360.303 111.09 360.184 111.08 360.071 111.045C359.958 111.011 359.853 110.954 359.763 110.876C359.673 110.799 359.601 110.704 359.55 110.597C359.499 110.49 359.471 110.374 359.467 110.256C359.464 110.138 359.485 110.02 359.53 109.91C359.562 109.804 359.615 109.706 359.685 109.621C359.755 109.535 359.841 109.464 359.939 109.412C360.036 109.36 360.143 109.328 360.253 109.317C360.363 109.307 360.474 109.318 360.58 109.35C360.794 109.415 360.974 109.562 361.081 109.758C361.187 109.955 361.212 110.185 361.15 110.4Z" fill="#797979"/>
<path opacity="0.5" d="M364.29 118.19L355.04 121.84L354.49 120.02L363.73 116.37L364.29 118.19Z" fill="#797979"/>
<path opacity="0.2" d="M313.26 257.17C313.239 262.992 312.676 268.801 311.58 274.52C310.4 279.66 308.567 283.42 306.08 285.8C304.922 286.949 303.546 287.857 302.034 288.47C300.521 289.083 298.902 289.389 297.27 289.37C292.13 289.37 288.207 286.566 285.5 280.96C285.024 279.952 284.62 278.913 284.29 277.85C278.574 282.759 273.251 288.109 268.37 293.85L263.06 300.11C265.918 303.006 269.215 305.432 272.83 307.3C279.057 310.52 287.23 312.133 297.35 312.14C299.13 312.14 300.85 312.09 302.52 311.99C308.643 302.93 313.709 293.2 317.62 282.99L332.47 244.27L313.26 257.17Z" fill="black"/>
<path d="M179.39 310L196.89 327.5L245.89 281.33C229 274.88 196.16 293.19 179.39 310Z" fill="#263238"/>
<path d="M240.42 371C234.83 365.4 222.92 353.5 222.92 353.5L269.09 304.5C275.5 321.35 257.19 354.22 240.42 371Z" fill="#263238"/>
<path d="M307.4 260.7L326.49 223.89L289.68 243C277.856 249.132 266.939 256.872 257.24 266L194.49 325.07L225.32 355.9L284.39 293.15C293.522 283.448 301.266 272.527 307.4 260.7Z" fill="#797979"/>
<path opacity="0.6" d="M307.4 260.7L326.49 223.89L289.68 243C277.856 249.132 266.939 256.872 257.24 266L194.49 325.07L225.32 355.9L284.39 293.15C293.522 283.448 301.266 272.527 307.4 260.7Z" fill="white"/>
<path d="M268.2 295.079C275.325 295.079 281.1 289.304 281.1 282.179C281.1 275.055 275.325 269.279 268.2 269.279C261.076 269.279 255.3 275.055 255.3 282.179C255.3 289.304 261.076 295.079 268.2 295.079Z" fill="white"/>
<path d="M268.2 290.47C272.778 290.47 276.49 286.758 276.49 282.18C276.49 277.601 272.778 273.89 268.2 273.89C263.621 273.89 259.91 277.601 259.91 282.18C259.91 286.758 263.621 290.47 268.2 290.47Z" fill="#797979"/>
<path opacity="0.3" d="M235.75 344.82L205.56 314.63L230.28 291.37L259.01 320.11L235.75 344.82Z" fill="#797979"/>
<path d="M186.22 337.62C163.62 339.45 156.13 353.92 153.57 373.15C152.27 382.96 151.69 392.89 143.46 398.63C142.965 398.967 142.592 399.454 142.398 400.021C142.203 400.587 142.197 401.201 142.38 401.77C142.564 402.34 142.927 402.835 143.416 403.181C143.904 403.527 144.492 403.706 145.09 403.69C175.43 402.74 189.58 387.89 191.36 381.69C190.893 384.931 190.057 388.108 188.87 391.16C188.652 391.699 188.609 392.292 188.748 392.857C188.887 393.421 189.2 393.927 189.643 394.302C190.087 394.678 190.637 394.904 191.217 394.949C191.796 394.993 192.375 394.854 192.87 394.55C201.38 389.22 212.06 379.4 212.77 363.47C206.51 354.6 186.22 337.62 186.22 337.62Z" fill="#797979"/>
<path opacity="0.2" d="M186.22 337.62C163.62 339.45 156.13 353.92 153.57 373.15C152.27 382.96 151.69 392.89 143.46 398.63C142.965 398.967 142.592 399.454 142.398 400.021C142.203 400.587 142.197 401.201 142.38 401.77C142.564 402.34 142.927 402.835 143.416 403.181C143.904 403.527 144.492 403.706 145.09 403.69C175.43 402.74 189.58 387.89 191.36 381.69C190.893 384.931 190.057 388.108 188.87 391.16C188.652 391.699 188.609 392.292 188.748 392.857C188.887 393.421 189.2 393.927 189.643 394.302C190.087 394.678 190.637 394.904 191.217 394.949C191.796 394.993 192.375 394.854 192.87 394.55C201.38 389.22 212.06 379.4 212.77 363.47C206.51 354.6 186.22 337.62 186.22 337.62Z" fill="white"/>
<path d="M216.28 370.3L180.08 334.1L199.36 329.93L220.45 351.02L216.28 370.3Z" fill="#797979"/>
</svg>
