<svg width="8" height="8" viewBox="0 0 8 8" fill="none" xmlns="http://www.w3.org/2000/svg">
<path d="M4.00002 7.1829C3.98408 7.18288 3.96835 7.17935 3.95394 7.17255C3.93953 7.16574 3.9268 7.15584 3.91667 7.14354L0.240991 2.68517C0.227958 2.66935 0.219688 2.65016 0.217145 2.62983C0.214601 2.6095 0.217889 2.58886 0.226624 2.57032C0.23536 2.55179 0.249184 2.53611 0.266485 2.52513C0.283785 2.51415 0.303851 2.50831 0.324342 2.5083H7.67569C7.69619 2.50831 7.71625 2.51415 7.73355 2.52513C7.75085 2.53611 7.76468 2.55179 7.77341 2.57032C7.78215 2.58886 7.78544 2.6095 7.78289 2.62983C7.78035 2.65016 7.77208 2.66935 7.75905 2.68517L4.08337 7.14354C4.07324 7.15584 4.06051 7.16574 4.0461 7.17255C4.03169 7.17935 4.01595 7.18288 4.00002 7.1829ZM0.55364 2.72452L4.00002 6.90484L7.4464 2.72452H0.55364Z" fill="#3D3D3D"/>
<path d="M4.00012 7.18279C3.97864 7.18279 3.95764 7.1764 3.93981 7.16442C3.92198 7.15244 3.90813 7.13543 3.90001 7.11554L2.07785 2.65727C2.07114 2.64086 2.06858 2.62304 2.07039 2.6054C2.07219 2.58776 2.07831 2.57083 2.0882 2.55611C2.09809 2.54139 2.11145 2.52933 2.12711 2.52099C2.14276 2.51266 2.16022 2.5083 2.17795 2.5083H5.82228C5.84001 2.5083 5.85747 2.51266 5.87313 2.52099C5.88878 2.52933 5.90214 2.54139 5.91203 2.55611C5.92192 2.57083 5.92804 2.58776 5.92985 2.6054C5.93165 2.62304 5.92909 2.64086 5.92239 2.65727L4.10022 7.11554C4.0921 7.13543 4.07825 7.15244 4.06042 7.16442C4.04259 7.1764 4.02159 7.18279 4.00012 7.18279ZM2.33893 2.72441L4.00012 6.78927L5.66131 2.72441H2.33893Z" fill="#3D3D3D"/>
<path d="M7.67574 2.72441H0.324389C0.304632 2.7244 0.285254 2.71899 0.26836 2.70874C0.251466 2.6985 0.237703 2.68382 0.228565 2.6663C0.219428 2.64878 0.215265 2.6291 0.21653 2.60938C0.217795 2.58966 0.224439 2.57067 0.235741 2.55446L1.41628 0.863653C1.42624 0.849372 1.4395 0.837708 1.45493 0.829652C1.47037 0.821596 1.48752 0.817387 1.50493 0.817383H6.4952C6.51261 0.817387 6.52976 0.821596 6.5452 0.829652C6.56063 0.837708 6.57389 0.849372 6.58385 0.863653L7.76439 2.55446C7.77569 2.57067 7.78233 2.58966 7.7836 2.60938C7.78486 2.6291 7.7807 2.64878 7.77156 2.6663C7.76243 2.68382 7.74866 2.6985 7.73177 2.70874C7.71488 2.71899 7.6955 2.7244 7.67574 2.72441ZM0.531741 2.50819H7.46839L6.43888 1.0336H1.56125L0.531741 2.50819Z" fill="#3D3D3D"/>
<path d="M5.82234 2.72441H2.17801C2.15982 2.72434 2.14193 2.71968 2.12601 2.71086C2.1101 2.70204 2.09666 2.68934 2.08696 2.67394C2.07726 2.65855 2.0716 2.64095 2.07051 2.62279C2.06942 2.60462 2.07293 2.58648 2.08072 2.57003L2.88223 0.879221C2.89096 0.860783 2.90473 0.845193 2.92195 0.83425C2.93916 0.823308 2.95913 0.81746 2.97953 0.817383H5.02082C5.04122 0.81746 5.06119 0.823308 5.0784 0.83425C5.09562 0.845193 5.10939 0.860783 5.11812 0.879221L5.91963 2.57003C5.92742 2.58648 5.93093 2.60462 5.92984 2.62279C5.92875 2.64095 5.92309 2.65855 5.91339 2.67394C5.90369 2.68934 5.89025 2.70204 5.87434 2.71086C5.85842 2.71968 5.84053 2.72434 5.82234 2.72441ZM2.34893 2.50819H5.65142L4.9525 1.0336H3.04785L2.34893 2.50819Z" fill="#3D3D3D"/>
</svg>
