<svg id="Layer_1" data-name="Layer 1" xmlns="http://www.w3.org/2000/svg" viewBox="0 0 74 74"><defs><style>.cls-1{fill:#3d8aed;fill-rule:evenodd;}.cls-2{fill:#fff;}</style></defs><title>Free</title><path class="cls-1" d="M0,40.292,40-.208H74l-74,74Z" transform="translate(0 0.208)"/><path class="cls-2" d="M18.3926,43.37761a5.37389,5.37389,0,0,1-4.01639,1.8442,5.9959,5.9959,0,0,1-4.005-1.99131,6.9045,6.9045,0,0,1-1.731-2.6361A4.64305,4.64305,0,0,1,8.527,37.8792a5.62787,5.62787,0,0,1,1.55-2.5456,6.39439,6.39439,0,0,1,1.8215-1.30109,4.5636,4.5636,0,0,1,1.946-.47521l.38459,1.1088a5.14559,5.14559,0,0,0-1.8102.4299,5.24166,5.24166,0,0,0-1.516,1.0861A3.63362,3.63362,0,0,0,9.681,39.12371a5.07322,5.07322,0,0,0,1.6744,3.12249,4.98434,4.98434,0,0,0,3.1679,1.6745,4.00584,4.00584,0,0,0,3.066-1.3916,7.42183,7.42183,0,0,0,1.516-2.17219l-2.3645-2.3646-2.0252,2.0251-.73539-.73531,2.82849-2.8285,3.6882,3.6883a5.27659,5.27659,0,0,1-.4751,1.0635,9.73745,9.73745,0,0,1-.74679,1.1314A8.65516,8.65516,0,0,1,18.3926,43.37761Zm4.3398-4.54341-5.4985-5.4985.8938-.8938.9843.9843a2.75173,2.75173,0,0,1,.7127-2.9076l.2942-.362.8598.7241-.5091.64481a2.523,2.523,0,0,0-.6901,1.68579,2.24074,2.24074,0,0,0,.7467,1.5613l3.1339,3.13391Zm5.8323-5.6288a3.31394,3.31394,0,0,1-1.2331.80331,2.6084,2.6084,0,0,1-1.3124.09049,2.12085,2.12085,0,0,1-1.12009-.5996,1.976,1.976,0,0,1-.64491-1.2558,2.62879,2.62879,0,0,1,.5318-1.5274,13.62142,13.62142,0,0,1,1.8102-2.1269l.362-.3621-.3507-.35069a2.011,2.011,0,0,0-1.3011-.71281,1.65905,1.65905,0,0,0-1.2332.5997,4.47053,4.47053,0,0,0-.8146,1.1087,5.11592,5.11592,0,0,0-.4978,1.4029l-.9843-.3507a4.95207,4.95207,0,0,1,.5544-1.5274,6.01528,6.01528,0,0,1,1.0069-1.3689,2.98941,2.98941,0,0,1,2.0931-1.0522,3.12034,3.12034,0,0,1,2.1382,1.0974l3.462,3.462-.85981.8599-.95039-.9504a2.39921,2.39921,0,0,1,.10189,1.4368A2.66734,2.66734,0,0,1,28.5647,33.2054Zm-.543-.8372a2.04124,2.04124,0,0,0,.6449-1.5726,2.43181,2.43181,0,0,0-.76939-1.6291l-.33941-.3395-.3507.3508a12.81915,12.81915,0,0,0-1.3576,1.5386,1.85638,1.85638,0,0,0-.4413,1.0296,1.08107,1.08107,0,0,0,.3621.7693,1.39651,1.39651,0,0,0,1.0748.4412A1.79992,1.79992,0,0,0,28.0217,32.3682Zm7.0176-5.6373a2.728,2.728,0,0,1-1.96859.9504,2.97965,2.97965,0,0,1-1.9799-1.007l-2.885-2.885L27.131,24.86411l-.71279-.7127L27.493,23.0766l-1.6857-1.6858.91641-.9164,1.68579,1.6858,1.7423-1.7423.7127.7127-1.7423,1.7423,2.7945,2.7945a2.18625,2.18625,0,0,0,1.2558.7128,1.53176,1.53176,0,0,0,1.2106-.5544,2.10208,2.10208,0,0,0,.31681-.4073q.13575-.2262.23759-.4186l.8598.5431a2.63366,2.63366,0,0,1-.2828.577A3.28962,3.28962,0,0,1,35.0393,26.7309Zm-5.3332-8.6053-1.02949-1.0295,1.13129-1.1314,1.02961,1.02951Zm6.9806,6.7543-5.4985-5.4985.9164-.9164,5.4985,5.4985Zm4.5868-4.3832a5.74114,5.74114,0,0,1-1.4029,1.04091,3.6707,3.6707,0,0,1-1.45949.44119l-.3507-.939a3.95142,3.95142,0,0,0,1.38029-.4073,5.00136,5.00136,0,0,0,1.154-.8599,2.33808,2.33808,0,0,0,.7354-1.2105,1.06761,1.06761,0,0,0-.3168-.973.87132.87132,0,0,0-.7128-.2829,2.124,2.124,0,0,0-.973.3847l-1.2558.80331q-1.70835,1.09738-2.851-.04531a2.03448,2.03448,0,0,1-.611-1.7875,3.56867,3.56867,0,0,1,1.1088-2.0139,4.50453,4.50453,0,0,1,1.2558-.8938,3.00241,3.00241,0,0,1,1.3689-.3507l.3395.9504a3.12657,3.12657,0,0,0-1.2332.3054,3.291,3.291,0,0,0-1.0296.6902,2.2248,2.2248,0,0,0-.7128,1.21051,1.10915,1.10915,0,0,0,.3281.98429q.6336.6336,1.6518-.0226l1.24461-.8146a3.2404,3.2404,0,0,1,1.60649-.58829,1.68453,1.68453,0,0,1,1.30111.55439,1.99477,1.99477,0,0,1,.59959,1.7989A3.79273,3.79273,0,0,1,41.2735,20.4967Z" transform="translate(0 0.208)"/></svg>