<svg id="Layer_1" data-name="Layer 1" xmlns="http://www.w3.org/2000/svg" viewBox="0 0 1920 531"><defs><style>.cls-1,.cls-2{fill:#99c2ff;fill-rule:evenodd;}.cls-1{fill-opacity:0.2;}.cls-2{fill-opacity:0.3;}</style></defs><title>home-bg</title><path class="cls-1" d="M1920,1080V640.49s-73.94-56.4-138-74c-54.46-15-91.12-21.35-149.25-14.9-40.7,4.52-65.11,16.73-92.28,30.33-15.07,7.53-31,15.49-51,22.81-20.35,7.45-36.84,15.21-52.42,22.55-29.55,13.92-55.83,26.3-99.07,32.07-69.79,9.32-114.9-.84-179-15.28l-16-3.59c-37.19-8.28-62.5-19.92-88-31.65-24.26-11.16-48.71-22.4-83.74-30.92-10.29-2.51-20.08-5-29.5-7.35-61-15.41-106.72-27-176.75-19-41.43,4.72-66.92,20.3-92.53,35.95-25,15.3-50.19,30.68-90.47,36.06-75.36,10.06-123.86-.42-193.65-15.51l-15.6-3.36c-28.77-6.17-49.56-16.53-69.53-26.49-26.3-13.11-51.17-25.5-91-26.65C114.27,548.77,0,640.49,0,640.49V1080Z" transform="translate(0 -549)"/><path class="cls-2" d="M1920,1080V813s-42.34-23.7-69-39.28c-18.58-10.87-32.52-21.64-45.75-31.86-22.09-17.07-42.21-32.61-78.73-44.58-38-12.46-70.89-10.88-104.86-9.24-28.52,1.37-57.82,2.79-91.65-4-39.65-8-66.83-23.28-93.3-38.16-31.06-17.47-61.12-34.37-109.2-38.28-62.75-5.1-105.24,11.49-151.36,29.5-30.24,11.81-62,24.23-102.14,31.54-33.75,6.16-62.34,8.34-89.87,10.43-37.76,2.88-73.53,5.6-117.88,18.24-24.46,7-41.83,15.56-58.93,24-19.05,9.42-37.76,18.67-65.57,25.34-35,8.4-62.93,8.73-92.32,9.08-22,.26-44.79.53-71.93,4.2-29.19,3.94-52.2,10.74-74.29,17.28-30.8,9.1-59.8,17.68-101.21,17.22-55.29-.62-91.1-25.83-126.15-50.51-37.44-26.37-74-52.13-132.6-46.63C81.57,703.06,0,746.64,0,746.64V1080Z" transform="translate(0 -549)"/></svg>