<svg width="745" height="720" viewBox="0 0 745 720" fill="none" xmlns="http://www.w3.org/2000/svg">
<path fill-rule="evenodd" clip-rule="evenodd" d="M745 -452H216.695C216.695 -452 148.892 -402.705 127.748 -360C109.777 -323.701 102.083 -299.255 109.84 -260.5C115.271 -233.364 129.946 -217.097 146.298 -198.973C155.351 -188.938 164.918 -178.334 173.714 -165C182.669 -151.426 192.006 -140.433 200.829 -130.044C217.558 -110.347 232.442 -92.8235 239.379 -64C250.577 -17.4759 238.362 12.6023 221.007 55.3408C219.6 58.8055 218.16 62.3534 216.695 66C206.736 90.7927 192.748 107.665 178.647 124.673C165.236 140.849 151.723 157.148 141.478 180.5C138.468 187.363 135.498 193.886 132.64 200.165C114.12 240.847 100.251 271.312 109.84 318C115.513 345.621 134.239 362.613 153.057 379.687C171.45 396.377 189.932 413.146 196.398 440C208.495 490.238 195.891 522.575 177.756 569.099C176.435 572.487 175.086 575.95 173.714 579.5C166.303 598.682 153.845 612.542 141.881 625.854C126.122 643.388 111.22 659.968 109.84 686.5C106.442 751.823 216.695 828 216.695 828H745L745 -452Z" fill="#99C2FF" fill-opacity="0.3"/>
<path fill-rule="evenodd" clip-rule="evenodd" d="M745 -452H380.902C380.902 -452 348.592 -423.775 327.337 -406C312.515 -393.605 297.832 -384.312 283.891 -375.49C260.623 -360.765 239.424 -347.35 223.102 -323C206.107 -297.645 208.268 -275.747 210.503 -253.098C212.379 -234.09 214.307 -214.553 205.006 -192C194.104 -165.564 173.262 -147.443 152.971 -129.802C129.155 -109.096 106.1 -89.0518 100.771 -57C93.8161 -15.1668 116.441 13.1587 141.002 43.9081C157.104 64.0672 174.038 85.2681 184.014 112C192.411 134.499 195.379 153.56 198.236 171.914C202.156 197.09 205.868 220.936 223.102 250.5C232.608 266.806 244.321 278.385 255.855 289.787C268.699 302.484 281.32 314.961 290.421 333.5C301.867 356.815 302.319 375.452 302.795 395.047C303.151 409.708 303.52 424.905 308.517 443C313.89 462.458 323.172 477.801 332.081 492.528C344.5 513.058 356.195 532.39 355.567 560C354.729 596.862 320.35 620.731 286.696 644.097C250.739 669.062 215.609 693.452 223.102 732.5C230.993 773.621 290.421 828 290.421 828H745L745 -452Z" fill="#99C2FF" fill-opacity="0.4"/>
<path fill-rule="evenodd" clip-rule="evenodd" d="M745 -452H459.687C459.687 -452 445.123 -385.362 428.621 -346.5C418.835 -323.454 405.356 -308.667 392.343 -294.389C376.058 -276.522 360.501 -259.453 353.818 -228C342.256 -173.579 356.282 -135.809 373.687 -88.9417C377.339 -79.1077 381.14 -68.873 384.884 -58C392.215 -36.7126 399.993 -21.8084 407.973 -6.51947C414.761 6.48645 421.695 19.7708 428.621 37.5C432.484 47.3884 436.363 55.9733 440.015 64.0587C449.499 85.0511 457.461 102.676 459.687 131C462.485 166.605 447.003 189.952 431.151 213.857C416.602 235.798 401.74 258.209 400.417 291C399.302 318.607 406.848 339.032 414.42 359.527C421.858 379.66 429.321 399.86 428.621 427C428.007 450.818 421.158 468.371 414.363 485.784C407.254 504.003 400.204 522.07 400.417 547C400.788 590.492 414.1 617.852 429.472 649.444C436.322 663.521 443.58 678.44 450.285 696C470.408 748.703 506.694 828 506.694 828H745V-452Z" fill="#99C2FF" fill-opacity="0.5"/>
</svg>
