<svg width="200" height="200" viewBox="0 0 200 200" fill="none" xmlns="http://www.w3.org/2000/svg">
<path d="M36.444 43.524C47.6 19.744 87.268 23.096 102.572 39.82C117.876 56.544 122.852 67.26 136.656 61.02C150.46 54.78 168.064 56.444 169.056 76.288C170.048 96.132 153.908 119.6 128.236 126.524C102.564 133.448 102.572 158.028 68.596 153.072C50.072 150.372 49.652 130.328 52.268 113.752C54.884 97.176 23.496 71.1 36.444 43.524Z" fill="#407BFF"/>
<path opacity="0.9" d="M36.444 43.524C47.6 19.744 87.268 23.096 102.572 39.82C117.876 56.544 122.852 67.26 136.656 61.02C150.46 54.78 168.064 56.444 169.056 76.288C170.048 96.132 153.908 119.6 128.236 126.524C102.564 133.448 102.572 158.028 68.596 153.072C50.072 150.372 49.652 130.328 52.268 113.752C54.884 97.176 23.496 71.1 36.444 43.524Z" fill="white"/>
<path d="M100 171.024C142.833 171.024 177.556 168.997 177.556 166.496C177.556 163.995 142.833 161.968 100 161.968C57.167 161.968 22.444 163.995 22.444 166.496C22.444 168.997 57.167 171.024 100 171.024Z" fill="#F5F5F5"/>
<path d="M79.744 94.4H163.088C163.312 94.4 163.534 94.4442 163.742 94.53C163.949 94.6159 164.137 94.7417 164.296 94.9003C164.454 95.0589 164.58 95.2472 164.666 95.4544C164.752 95.6616 164.796 95.8837 164.796 96.108V156.4H78.036V96.124C78.0339 95.8984 78.0765 95.6745 78.1614 95.4655C78.2463 95.2564 78.3717 95.0662 78.5306 94.9059C78.6894 94.7456 78.8784 94.6184 79.0867 94.5315C79.2949 94.4447 79.5183 94.4 79.744 94.4Z" fill="#263238"/>
<path d="M163.088 98.244H79.744V151.512H163.088V98.244Z" fill="#407BFF"/>
<path opacity="0.2" d="M120.656 97.312C121.116 97.312 121.488 96.9395 121.488 96.48C121.488 96.0205 121.116 95.648 120.656 95.648C120.197 95.648 119.824 96.0205 119.824 96.48C119.824 96.9395 120.197 97.312 120.656 97.312Z" fill="white"/>
<path opacity="0.2" d="M122.38 97.104C122.725 97.104 123.004 96.8246 123.004 96.48C123.004 96.1354 122.725 95.856 122.38 95.856C122.035 95.856 121.756 96.1354 121.756 96.48C121.756 96.8246 122.035 97.104 122.38 97.104Z" fill="white"/>
<path opacity="0.2" d="M121.756 152.604C121.647 152.566 121.532 152.545 121.416 152.544C121.2 152.544 120.989 152.608 120.809 152.728C120.63 152.848 120.49 153.019 120.407 153.218C120.324 153.418 120.303 153.637 120.345 153.849C120.387 154.061 120.491 154.255 120.644 154.408C120.797 154.561 120.991 154.665 121.203 154.707C121.415 154.749 121.634 154.728 121.834 154.645C122.033 154.562 122.204 154.422 122.324 154.243C122.444 154.063 122.508 153.852 122.508 153.636C122.51 153.616 122.51 153.596 122.508 153.576C122.299 153.509 122.116 153.38 121.982 153.206C121.847 153.033 121.769 152.823 121.756 152.604Z" fill="white"/>
<path d="M171.264 155.552V156.352C171.263 156.6 171.182 156.841 171.034 157.04C170.885 157.238 170.677 157.384 170.44 157.456L164.4 159.224C163.65 159.448 162.871 159.561 162.088 159.56H80.752C79.9704 159.561 79.193 159.447 78.444 159.224L72.4 157.44C72.162 157.369 71.953 157.223 71.804 157.025C71.6549 156.826 71.5736 156.584 71.572 156.336V155.536L171.264 155.552Z" fill="#263238"/>
<path opacity="0.2" d="M171.264 155.552V156.352C171.263 156.6 171.182 156.841 171.034 157.04C170.885 157.238 170.677 157.384 170.44 157.456L164.4 159.224C163.65 159.448 162.871 159.561 162.088 159.56H80.752C79.9704 159.561 79.193 159.447 78.444 159.224L72.4 157.44C72.162 157.369 71.953 157.223 71.804 157.025C71.6549 156.826 71.5736 156.584 71.572 156.336V155.536L171.264 155.552Z" fill="white"/>
<path opacity="0.2" d="M171.264 155.552V156.352C171.264 156.559 171.207 156.763 171.1 156.94H71.736C71.6289 156.763 71.5722 156.559 71.572 156.352V155.552H171.264Z" fill="white"/>
<path opacity="0.2" d="M128.432 155.552V155.896C128.432 155.941 128.423 155.985 128.406 156.026C128.389 156.067 128.364 156.105 128.332 156.136C128.301 156.168 128.263 156.193 128.222 156.21C128.181 156.227 128.137 156.236 128.092 156.236H114.748C114.703 156.237 114.658 156.228 114.617 156.211C114.575 156.194 114.537 156.169 114.505 156.138C114.473 156.106 114.448 156.069 114.43 156.027C114.413 155.986 114.404 155.941 114.404 155.896V155.552H128.432Z" fill="black"/>
<path opacity="0.1" d="M163.088 98.244C163.088 98.244 151.564 144 79.744 151.512V98.244H163.088Z" fill="white"/>
<path d="M155.2 77.388V127.492L146.856 135.836H113.864C113.523 135.835 113.197 135.699 112.956 135.457C112.715 135.216 112.58 134.889 112.58 134.548V77.388C112.58 77.0471 112.715 76.7201 112.956 76.4787C113.197 76.2372 113.523 76.1011 113.864 76.1H153.904C154.074 76.0989 154.242 76.1315 154.399 76.1957C154.557 76.26 154.699 76.3547 154.82 76.4744C154.94 76.5941 155.036 76.7365 155.101 76.8932C155.166 77.05 155.2 77.2182 155.2 77.388Z" fill="#407BFF"/>
<path opacity="0.6" d="M155.2 79.576V127.492L146.856 135.836H113.864C113.523 135.835 113.197 135.699 112.956 135.457C112.715 135.216 112.58 134.889 112.58 134.548V79.576H155.2Z" fill="white"/>
<path opacity="0.6" d="M154.08 77.692C154.081 77.8156 154.045 77.9366 153.977 78.0398C153.909 78.1429 153.812 78.2235 153.698 78.2713C153.584 78.3192 153.458 78.3321 153.337 78.3085C153.215 78.2849 153.104 78.2258 153.016 78.1387C152.929 78.0515 152.869 77.9404 152.844 77.8192C152.82 77.6981 152.832 77.5724 152.879 77.4581C152.926 77.3439 153.006 77.2462 153.109 77.1774C153.212 77.1087 153.332 77.072 153.456 77.072C153.538 77.0715 153.619 77.0871 153.694 77.118C153.77 77.149 153.839 77.1945 153.897 77.2522C153.955 77.3098 154.001 77.3783 154.032 77.4538C154.064 77.5293 154.08 77.6102 154.08 77.692Z" fill="white"/>
<path opacity="0.6" d="M151.704 77.692C151.704 77.8146 151.668 77.9345 151.6 78.0365C151.531 78.1384 151.435 78.2179 151.321 78.2648C151.208 78.3117 151.083 78.324 150.963 78.3001C150.843 78.2762 150.732 78.2171 150.646 78.1304C150.559 78.0437 150.5 77.9332 150.476 77.813C150.452 77.6927 150.464 77.568 150.511 77.4547C150.558 77.3414 150.638 77.2446 150.74 77.1765C150.842 77.1084 150.961 77.072 151.084 77.072C151.166 77.0715 151.246 77.0871 151.322 77.1181C151.397 77.1491 151.466 77.1947 151.524 77.2524C151.581 77.3101 151.627 77.3786 151.658 77.4541C151.689 77.5296 151.705 77.6104 151.704 77.692Z" fill="white"/>
<path opacity="0.6" d="M149.332 77.692C149.333 77.8158 149.297 77.9369 149.229 78.0402C149.16 78.1434 149.063 78.224 148.949 78.2717C148.834 78.3195 148.709 78.3321 148.587 78.3082C148.466 78.2842 148.354 78.2247 148.267 78.1372C148.179 78.0497 148.12 77.9382 148.096 77.8168C148.072 77.6953 148.085 77.5695 148.132 77.4554C148.18 77.3412 148.261 77.2438 148.364 77.1755C148.467 77.1072 148.588 77.0712 148.712 77.072C148.876 77.072 149.034 77.1373 149.15 77.2536C149.267 77.3699 149.332 77.5276 149.332 77.692Z" fill="white"/>
<path d="M138.48 83.436H115.64C115.534 83.436 115.432 83.3939 115.357 83.3188C115.282 83.2438 115.24 83.1421 115.24 83.036C115.24 82.9299 115.282 82.8282 115.357 82.7532C115.432 82.6781 115.534 82.636 115.64 82.636H138.48C138.586 82.636 138.688 82.6781 138.763 82.7532C138.838 82.8282 138.88 82.9299 138.88 83.036C138.88 83.1421 138.838 83.2438 138.763 83.3188C138.688 83.3939 138.586 83.436 138.48 83.436Z" fill="#407BFF"/>
<path d="M132.024 85.624H115.624C115.518 85.624 115.416 85.5819 115.341 85.5068C115.266 85.4318 115.224 85.3301 115.224 85.224C115.224 85.1179 115.266 85.0162 115.341 84.9412C115.416 84.8661 115.518 84.824 115.624 84.824H132.024C132.13 84.824 132.232 84.8661 132.307 84.9412C132.382 85.0162 132.424 85.1179 132.424 85.224C132.424 85.3301 132.382 85.4318 132.307 85.5068C132.232 85.5819 132.13 85.624 132.024 85.624Z" fill="#407BFF"/>
<path d="M149.732 119.408H120.532C120.426 119.408 120.324 119.366 120.249 119.291C120.174 119.216 120.132 119.114 120.132 119.008C120.132 118.902 120.174 118.8 120.249 118.725C120.324 118.65 120.426 118.608 120.532 118.608H149.732C149.838 118.608 149.94 118.65 150.015 118.725C150.09 118.8 150.132 118.902 150.132 119.008C150.132 119.114 150.09 119.216 150.015 119.291C149.94 119.366 149.838 119.408 149.732 119.408Z" fill="#407BFF"/>
<path d="M144.848 128.148H115.648C115.542 128.148 115.44 128.106 115.365 128.031C115.29 127.956 115.248 127.854 115.248 127.748C115.248 127.642 115.29 127.54 115.365 127.465C115.44 127.39 115.542 127.348 115.648 127.348H144.848C144.954 127.348 145.056 127.39 145.131 127.465C145.206 127.54 145.248 127.642 145.248 127.748C145.248 127.854 145.206 127.956 145.131 128.031C145.056 128.106 144.954 128.148 144.848 128.148Z" fill="#407BFF"/>
<path d="M149.732 121.6H115.64C115.534 121.6 115.432 121.558 115.357 121.483C115.282 121.408 115.24 121.306 115.24 121.2C115.24 121.094 115.282 120.992 115.357 120.917C115.432 120.842 115.534 120.8 115.64 120.8H149.732C149.838 120.8 149.94 120.842 150.015 120.917C150.09 120.992 150.132 121.094 150.132 121.2C150.132 121.306 150.09 121.408 150.015 121.483C149.94 121.558 149.838 121.6 149.732 121.6Z" fill="#407BFF"/>
<path d="M149.732 123.78H115.64C115.534 123.78 115.432 123.738 115.357 123.663C115.282 123.588 115.24 123.486 115.24 123.38C115.24 123.274 115.282 123.172 115.357 123.097C115.432 123.022 115.534 122.98 115.64 122.98H149.732C149.838 122.98 149.94 123.022 150.015 123.097C150.09 123.172 150.132 123.274 150.132 123.38C150.132 123.486 150.09 123.588 150.015 123.663C149.94 123.738 149.838 123.78 149.732 123.78Z" fill="#407BFF"/>
<path d="M149.732 125.964H115.64C115.534 125.964 115.432 125.922 115.357 125.847C115.282 125.772 115.24 125.67 115.24 125.564C115.24 125.458 115.282 125.356 115.357 125.281C115.432 125.206 115.534 125.164 115.64 125.164H149.732C149.838 125.164 149.94 125.206 150.015 125.281C150.09 125.356 150.132 125.458 150.132 125.564C150.132 125.67 150.09 125.772 150.015 125.847C149.94 125.922 149.838 125.964 149.732 125.964Z" fill="#407BFF"/>
<path opacity="0.5" d="M155.192 127.492L146.848 135.836V127.492H155.192Z" fill="#407BFF"/>
<path opacity="0.4" d="M155.192 79.576H152.836V127.492H155.192V79.576Z" fill="black"/>
<path d="M154 104.612C153.77 104.612 153.549 104.521 153.386 104.358C153.223 104.195 153.132 103.974 153.132 103.744V98.848C153.137 98.6213 153.231 98.4056 153.393 98.2471C153.555 98.0886 153.773 97.9999 154 98C154.114 98 154.227 98.0224 154.332 98.0661C154.437 98.1097 154.533 98.1736 154.614 98.2542C154.694 98.3348 154.758 98.4305 154.802 98.5358C154.846 98.6411 154.868 98.754 154.868 98.868V103.764C154.863 103.991 154.769 104.206 154.607 104.365C154.445 104.523 154.227 104.612 154 104.612Z" fill="#407BFF"/>
<path d="M149.732 107.408H120.532C120.426 107.408 120.324 107.366 120.249 107.291C120.174 107.216 120.132 107.114 120.132 107.008C120.132 106.902 120.174 106.8 120.249 106.725C120.324 106.65 120.426 106.608 120.532 106.608H149.732C149.838 106.608 149.94 106.65 150.015 106.725C150.09 106.8 150.132 106.902 150.132 107.008C150.132 107.114 150.09 107.216 150.015 107.291C149.94 107.366 149.838 107.408 149.732 107.408Z" fill="#407BFF"/>
<path d="M144.848 116.148H115.648C115.542 116.148 115.44 116.106 115.365 116.031C115.29 115.956 115.248 115.854 115.248 115.748C115.248 115.642 115.29 115.54 115.365 115.465C115.44 115.39 115.542 115.348 115.648 115.348H144.848C144.954 115.348 145.056 115.39 145.131 115.465C145.206 115.54 145.248 115.642 145.248 115.748C145.248 115.854 145.206 115.956 145.131 116.031C145.056 116.106 144.954 116.148 144.848 116.148Z" fill="#407BFF"/>
<path d="M149.732 109.6H115.64C115.534 109.6 115.432 109.558 115.357 109.483C115.282 109.408 115.24 109.306 115.24 109.2C115.24 109.094 115.282 108.992 115.357 108.917C115.432 108.842 115.534 108.8 115.64 108.8H149.732C149.838 108.8 149.94 108.842 150.015 108.917C150.09 108.992 150.132 109.094 150.132 109.2C150.132 109.306 150.09 109.408 150.015 109.483C149.94 109.558 149.838 109.6 149.732 109.6Z" fill="#407BFF"/>
<path d="M149.732 111.78H115.64C115.534 111.78 115.432 111.738 115.357 111.663C115.282 111.588 115.24 111.486 115.24 111.38C115.24 111.274 115.282 111.172 115.357 111.097C115.432 111.022 115.534 110.98 115.64 110.98H149.732C149.838 110.98 149.94 111.022 150.015 111.097C150.09 111.172 150.132 111.274 150.132 111.38C150.132 111.486 150.09 111.588 150.015 111.663C149.94 111.738 149.838 111.78 149.732 111.78Z" fill="#407BFF"/>
<path d="M149.732 113.964H115.64C115.534 113.964 115.432 113.922 115.357 113.847C115.282 113.772 115.24 113.67 115.24 113.564C115.24 113.458 115.282 113.356 115.357 113.281C115.432 113.206 115.534 113.164 115.64 113.164H149.732C149.838 113.164 149.94 113.206 150.015 113.281C150.09 113.356 150.132 113.458 150.132 113.564C150.132 113.67 150.09 113.772 150.015 113.847C149.94 113.922 149.838 113.964 149.732 113.964Z" fill="#407BFF"/>
<path d="M149.728 88.228H115.536V100.988H149.728V88.228Z" fill="#407BFF"/>
<path opacity="0.2" d="M115.536 98.94H116.468V96.62H117.54V92.04H119.036V94.86H121.092V98.608H123.544V95.996H125.572L126.912 94.652V91.544H127.732V95.996H129.796V97.58H131.932V89.5L132.524 88.908V91.124H133.888V92.12L135.196 93.432V95.796H137.076V93.924H141.98V92.528H143.088V90.088H143.484V93.924H144.108L145.52 92.512H146.848V91.236H147.52V92.528H148.388V97.816H149.332V95.176L149.732 95.2V88.228H115.536V98.94Z" fill="black"/>
<path d="M149.732 103.008H140.532C140.426 103.008 140.324 102.966 140.249 102.891C140.174 102.816 140.132 102.714 140.132 102.608C140.132 102.502 140.174 102.4 140.249 102.325C140.324 102.25 140.426 102.208 140.532 102.208H149.732C149.838 102.208 149.94 102.25 150.015 102.325C150.09 102.4 150.132 102.502 150.132 102.608C150.132 102.714 150.09 102.816 150.015 102.891C149.94 102.966 149.838 103.008 149.732 103.008Z" fill="#407BFF"/>
<path opacity="0.2" d="M129.08 76.1V117.508L122.8 123.804H112.58V77.404C112.58 77.0631 112.715 76.7361 112.956 76.4947C113.197 76.2533 113.523 76.1171 113.864 76.116L129.08 76.1Z" fill="black"/>
<path opacity="0.4" d="M154 104.612C153.77 104.612 153.549 104.521 153.386 104.358C153.223 104.195 153.132 103.974 153.132 103.744V98.848C153.137 98.6213 153.231 98.4056 153.393 98.2471C153.555 98.0886 153.773 97.9999 154 98C154.114 98 154.227 98.0224 154.332 98.0661C154.437 98.1097 154.533 98.1736 154.614 98.2542C154.694 98.3348 154.758 98.4305 154.802 98.5358C154.846 98.6411 154.868 98.754 154.868 98.868V103.764C154.863 103.991 154.769 104.206 154.607 104.365C154.445 104.523 154.227 104.612 154 104.612Z" fill="white"/>
<path d="M104.696 83.632V133.736L96.352 142.08H63.368C63.0271 142.079 62.7005 141.943 62.4598 141.701C62.2191 141.46 62.084 141.133 62.084 140.792V83.632C62.084 83.2911 62.2191 82.9641 62.4598 82.7227C62.7005 82.4812 63.0271 82.3451 63.368 82.344H103.408C103.75 82.344 104.077 82.4797 104.319 82.7213C104.56 82.9628 104.696 83.2904 104.696 83.632Z" fill="#407BFF"/>
<path opacity="0.6" d="M104.696 85.824V133.74L96.352 142.084H63.368C63.0271 142.083 62.7005 141.947 62.4598 141.705C62.2191 141.464 62.084 141.137 62.084 140.796V85.824H104.696Z" fill="white"/>
<path opacity="0.6" d="M103.6 83.94C103.601 84.0636 103.565 84.1846 103.497 84.2878C103.429 84.3909 103.332 84.4715 103.218 84.5194C103.104 84.5672 102.978 84.5801 102.857 84.5565C102.735 84.5329 102.624 84.4738 102.536 84.3867C102.449 84.2996 102.389 84.1884 102.364 84.0672C102.34 83.9461 102.352 83.8204 102.399 83.7062C102.446 83.5919 102.526 83.4942 102.629 83.4255C102.732 83.3567 102.852 83.32 102.976 83.32C103.058 83.3195 103.139 83.3351 103.214 83.3661C103.29 83.397 103.359 83.4426 103.417 83.5002C103.475 83.5578 103.521 83.6263 103.552 83.7018C103.584 83.7773 103.6 83.8583 103.6 83.94Z" fill="white"/>
<path opacity="0.6" d="M101.2 83.94C101.201 84.0638 101.165 84.185 101.097 84.2882C101.028 84.3914 100.931 84.472 100.817 84.5197C100.702 84.5675 100.577 84.5801 100.455 84.5562C100.334 84.5322 100.222 84.4727 100.135 84.3852C100.047 84.2977 99.9877 84.1862 99.9638 84.0648C99.9398 83.9433 99.9525 83.8175 100 83.7034C100.048 83.5892 100.129 83.4918 100.232 83.4235C100.335 83.3552 100.456 83.3192 100.58 83.32C100.662 83.3195 100.742 83.3352 100.818 83.3661C100.893 83.3971 100.962 83.4427 101.02 83.5004C101.077 83.5581 101.123 83.6267 101.154 83.7021C101.185 83.7776 101.201 83.8584 101.2 83.94Z" fill="white"/>
<path opacity="0.6" d="M98.836 83.94C98.8368 84.0636 98.8009 84.1846 98.7328 84.2878C98.6647 84.3909 98.5675 84.4715 98.4536 84.5194C98.3396 84.5672 98.214 84.5801 98.0927 84.5565C97.9714 84.5329 97.8599 84.4738 97.7722 84.3867C97.6845 84.2996 97.6247 84.1884 97.6003 84.0672C97.5759 83.9461 97.588 83.8204 97.6351 83.7062C97.6822 83.5919 97.7622 83.4942 97.8649 83.4255C97.9676 83.3567 98.0884 83.32 98.212 83.32C98.2938 83.3195 98.3748 83.3351 98.4505 83.3661C98.5262 83.397 98.595 83.4426 98.653 83.5002C98.711 83.5578 98.757 83.6263 98.7884 83.7018C98.8198 83.7773 98.836 83.8583 98.836 83.94Z" fill="white"/>
<path d="M72.24 89.9H65.144C65.0379 89.9 64.9362 89.8579 64.8612 89.7828C64.7862 89.7078 64.744 89.6061 64.744 89.5C64.744 89.3939 64.7862 89.2922 64.8612 89.2172C64.9362 89.1421 65.0379 89.1 65.144 89.1H72.24C72.3461 89.1 72.4478 89.1421 72.5229 89.2172C72.5979 89.2922 72.64 89.3939 72.64 89.5C72.64 89.6061 72.5979 89.7078 72.5229 89.7828C72.4478 89.8579 72.3461 89.9 72.24 89.9Z" fill="#407BFF"/>
<path d="M75.6 92.084H65.16C65.0539 92.084 64.9522 92.0419 64.8771 91.9668C64.8021 91.8918 64.76 91.7901 64.76 91.684C64.76 91.5779 64.8021 91.4762 64.8771 91.4012C64.9522 91.3261 65.0539 91.284 65.16 91.284H75.6C75.7061 91.284 75.8078 91.3261 75.8828 91.4012C75.9578 91.4762 76 91.5779 76 91.684C76 91.7901 75.9578 91.8918 75.8828 91.9668C75.8078 92.0419 75.7061 92.084 75.6 92.084Z" fill="#407BFF"/>
<path d="M72.356 94.268H65.156C65.0499 94.268 64.9482 94.2259 64.8732 94.1508C64.7981 94.0758 64.756 93.9741 64.756 93.868C64.756 93.7619 64.7981 93.6602 64.8732 93.5852C64.9482 93.5101 65.0499 93.468 65.156 93.468H72.356C72.4621 93.468 72.5638 93.5101 72.6388 93.5852C72.7138 93.6602 72.756 93.7619 72.756 93.868C72.756 93.9741 72.7138 94.0758 72.6388 94.1508C72.5638 94.2259 72.4621 94.268 72.356 94.268Z" fill="#407BFF"/>
<path d="M99.232 130.056H70.032C69.9259 130.056 69.8242 130.014 69.7492 129.939C69.6741 129.864 69.632 129.762 69.632 129.656C69.632 129.55 69.6741 129.448 69.7492 129.373C69.8242 129.298 69.9259 129.256 70.032 129.256H99.232C99.3381 129.256 99.4398 129.298 99.5148 129.373C99.5899 129.448 99.632 129.55 99.632 129.656C99.632 129.762 99.5899 129.864 99.5148 129.939C99.4398 130.014 99.3381 130.056 99.232 130.056Z" fill="#407BFF"/>
<path d="M83.232 132.24H65.144C65.0379 132.24 64.9362 132.198 64.8612 132.123C64.7862 132.048 64.744 131.946 64.744 131.84C64.744 131.734 64.7862 131.632 64.8612 131.557C64.9362 131.482 65.0379 131.44 65.144 131.44H83.232C83.3381 131.44 83.4398 131.482 83.5148 131.557C83.5899 131.632 83.632 131.734 83.632 131.84C83.632 131.946 83.5899 132.048 83.5148 132.123C83.4398 132.198 83.3381 132.24 83.232 132.24Z" fill="#407BFF"/>
<path opacity="0.5" d="M104.696 133.74L96.352 142.084V133.74H104.696Z" fill="#407BFF"/>
<path opacity="0.4" d="M104.696 85.824H102.34V133.74H104.696V85.824Z" fill="black"/>
<path d="M103.516 130.46C103.286 130.46 103.065 130.369 102.902 130.206C102.739 130.043 102.648 129.822 102.648 129.592V124.696C102.648 124.466 102.739 124.245 102.902 124.082C103.065 123.919 103.286 123.828 103.516 123.828C103.63 123.828 103.743 123.85 103.848 123.894C103.953 123.938 104.049 124.002 104.13 124.082C104.21 124.163 104.274 124.259 104.318 124.364C104.362 124.469 104.384 124.582 104.384 124.696V129.6C104.382 129.829 104.29 130.048 104.127 130.209C103.964 130.37 103.745 130.46 103.516 130.46Z" fill="#407BFF"/>
<path d="M99.232 89.9H93.74C93.6339 89.9 93.5322 89.8579 93.4572 89.7828C93.3821 89.7078 93.34 89.6061 93.34 89.5C93.34 89.3939 93.3821 89.2922 93.4572 89.2172C93.5322 89.1421 93.6339 89.1 93.74 89.1H99.232C99.3381 89.1 99.4398 89.1421 99.5148 89.2172C99.5898 89.2922 99.632 89.3939 99.632 89.5C99.632 89.6061 99.5898 89.7078 99.5148 89.7828C99.4398 89.8579 99.3381 89.9 99.232 89.9Z" fill="#407BFF"/>
<path d="M99.232 92.084H96.4C96.2939 92.084 96.1922 92.0419 96.1172 91.9668C96.0421 91.8918 96 91.7901 96 91.684C96 91.5779 96.0421 91.4762 96.1172 91.4012C96.1922 91.3261 96.2939 91.284 96.4 91.284H99.24C99.3461 91.284 99.4478 91.3261 99.5229 91.4012C99.5979 91.4762 99.64 91.5779 99.64 91.684C99.64 91.7901 99.5979 91.8918 99.5229 91.9668C99.4478 92.0419 99.3461 92.084 99.24 92.084H99.232Z" fill="#407BFF"/>
<path d="M99.232 100.056H70.032C69.9259 100.056 69.8242 100.014 69.7492 99.9388C69.6741 99.8638 69.632 99.7621 69.632 99.656C69.632 99.5499 69.6741 99.4482 69.7492 99.3732C69.8242 99.2981 69.9259 99.256 70.032 99.256H99.232C99.3381 99.256 99.4398 99.2981 99.5148 99.3732C99.5899 99.4482 99.632 99.5499 99.632 99.656C99.632 99.7621 99.5899 99.8638 99.5148 99.9388C99.4398 100.014 99.3381 100.056 99.232 100.056Z" fill="#407BFF"/>
<path d="M99.232 102.24H65.144C65.0379 102.24 64.9362 102.198 64.8612 102.123C64.7862 102.048 64.744 101.946 64.744 101.84C64.744 101.734 64.7862 101.632 64.8612 101.557C64.9362 101.482 65.0379 101.44 65.144 101.44H99.232C99.3381 101.44 99.4398 101.482 99.5148 101.557C99.5899 101.632 99.632 101.734 99.632 101.84C99.632 101.946 99.5899 102.048 99.5148 102.123C99.4398 102.198 99.3381 102.24 99.232 102.24Z" fill="#407BFF"/>
<path d="M79.232 104.424H65.144C65.0379 104.424 64.9362 104.382 64.8612 104.307C64.7862 104.232 64.744 104.13 64.744 104.024C64.744 103.918 64.7862 103.816 64.8612 103.741C64.9362 103.666 65.0379 103.624 65.144 103.624H79.232C79.3381 103.624 79.4398 103.666 79.5149 103.741C79.5899 103.816 79.632 103.918 79.632 104.024C79.632 104.13 79.5899 104.232 79.5149 104.307C79.4398 104.382 79.3381 104.424 79.232 104.424Z" fill="#407BFF"/>
<path opacity="0.7" d="M84.232 107.324H70.8V110.924H84.232V107.324Z" fill="#407BFF"/>
<path opacity="0.3" d="M76.884 111.724H70.8V125.016H76.884V111.724Z" fill="#407BFF"/>
<path opacity="0.3" d="M92.016 111.724H85.028V125.016H92.016V111.724Z" fill="#407BFF"/>
<path opacity="0.7" d="M99.232 107.324H85.028V110.924H99.232V107.324Z" fill="#407BFF"/>
<path opacity="0.3" d="M99.236 111.724H92.82V125.016H99.236V111.724Z" fill="#407BFF"/>
<path opacity="0.5" d="M70 111.724H65.144V125.016H70V111.724Z" fill="#407BFF"/>
<path d="M70 107.324H65.144V110.924H70V107.324Z" fill="#407BFF"/>
<path opacity="0.3" d="M84.228 111.724H77.684V125.016H84.228V111.724Z" fill="#407BFF"/>
<path opacity="0.4" d="M103.516 130.46C103.286 130.46 103.065 130.369 102.902 130.206C102.739 130.043 102.648 129.822 102.648 129.592V124.696C102.648 124.466 102.739 124.245 102.902 124.082C103.065 123.919 103.286 123.828 103.516 123.828C103.63 123.828 103.743 123.85 103.848 123.894C103.953 123.938 104.049 124.002 104.13 124.082C104.21 124.163 104.274 124.259 104.318 124.364C104.362 124.469 104.384 124.582 104.384 124.696V129.6C104.382 129.829 104.29 130.048 104.127 130.209C103.964 130.37 103.745 130.46 103.516 130.46Z" fill="white"/>
<path opacity="0.2" d="M104.696 83.632V125.312H80.564C80.2231 125.311 79.8965 125.175 79.6558 124.933C79.4151 124.692 79.28 124.365 79.28 124.024V82.344H103.408C103.75 82.344 104.077 82.4797 104.319 82.7213C104.56 82.9628 104.696 83.2904 104.696 83.632Z" fill="black"/>
<path d="M125.884 60.92V111.024L117.54 119.368H84.556C84.2151 119.367 83.8885 119.231 83.6478 118.989C83.4071 118.748 83.272 118.421 83.272 118.08V60.92C83.272 60.5791 83.4071 60.2521 83.6478 60.0107C83.8885 59.7692 84.2151 59.6331 84.556 59.632H124.596C124.938 59.632 125.265 59.7677 125.507 60.0092C125.748 60.2508 125.884 60.5784 125.884 60.92Z" fill="#407BFF"/>
<path opacity="0.6" d="M125.884 63.108V111.024L117.54 119.368H84.556C84.2151 119.367 83.8885 119.231 83.6478 118.989C83.4071 118.748 83.272 118.421 83.272 118.08V63.108H125.884Z" fill="white"/>
<path opacity="0.6" d="M124.148 61.844C124.49 61.844 124.768 61.5664 124.768 61.224C124.768 60.8816 124.49 60.604 124.148 60.604C123.806 60.604 123.528 60.8816 123.528 61.224C123.528 61.5664 123.806 61.844 124.148 61.844Z" fill="white"/>
<path opacity="0.6" d="M121.772 61.844C122.114 61.844 122.392 61.5664 122.392 61.224C122.392 60.8816 122.114 60.604 121.772 60.604C121.43 60.604 121.152 60.8816 121.152 61.224C121.152 61.5664 121.43 61.844 121.772 61.844Z" fill="white"/>
<path opacity="0.6" d="M120.02 61.224C120.021 61.3477 119.985 61.4689 119.916 61.5722C119.848 61.6754 119.751 61.756 119.637 61.8037C119.522 61.8514 119.397 61.8641 119.275 61.8402C119.154 61.8162 119.042 61.7567 118.955 61.6692C118.867 61.5817 118.808 61.4702 118.784 61.3487C118.76 61.2273 118.773 61.1015 118.82 60.9874C118.868 60.8732 118.949 60.7758 119.052 60.7075C119.155 60.6392 119.276 60.6032 119.4 60.604C119.482 60.6035 119.562 60.6191 119.638 60.6501C119.713 60.6811 119.782 60.7267 119.84 60.7844C119.897 60.8421 119.943 60.9106 119.974 60.9861C120.005 61.0616 120.02 61.1424 120.02 61.224Z" fill="white"/>
<path d="M107.448 67.2H99.3C99.1939 67.2 99.0922 67.1579 99.0172 67.0828C98.9421 67.0078 98.9 66.9061 98.9 66.8C98.9 66.6939 98.9421 66.5922 99.0172 66.5172C99.0922 66.4421 99.1939 66.4 99.3 66.4H107.448C107.554 66.4 107.656 66.4421 107.731 66.5172C107.806 66.5922 107.848 66.6939 107.848 66.8C107.848 66.9061 107.806 67.0078 107.731 67.0828C107.656 67.1579 107.554 67.2 107.448 67.2Z" fill="#407BFF"/>
<path d="M110.8 69.368H95.96C95.8539 69.368 95.7522 69.3258 95.6771 69.2508C95.6021 69.1758 95.56 69.0741 95.56 68.968C95.56 68.8619 95.6021 68.7602 95.6771 68.6851C95.7522 68.6101 95.8539 68.568 95.96 68.568H110.8C110.906 68.568 111.008 68.6101 111.083 68.6851C111.158 68.7602 111.2 68.8619 111.2 68.968C111.2 69.0741 111.158 69.1758 111.083 69.2508C111.008 69.3258 110.906 69.368 110.8 69.368Z" fill="#407BFF"/>
<path d="M107.568 71.556H99.2C99.0939 71.556 98.9922 71.5139 98.9172 71.4388C98.8421 71.3638 98.8 71.2621 98.8 71.156C98.8 71.0499 98.8421 70.9482 98.9172 70.8732C98.9922 70.7981 99.0939 70.756 99.2 70.756H107.6C107.706 70.756 107.808 70.7981 107.883 70.8732C107.958 70.9482 108 71.0499 108 71.156C108 71.2621 107.958 71.3638 107.883 71.4388C107.808 71.5139 107.706 71.556 107.6 71.556H107.568Z" fill="#407BFF"/>
<path d="M120.42 77.34H91.2C91.0939 77.34 90.9922 77.2978 90.9172 77.2228C90.8421 77.1478 90.8 77.0461 90.8 76.94C90.8 76.8339 90.8421 76.7322 90.9172 76.6572C90.9922 76.5821 91.0939 76.54 91.2 76.54H120.4C120.506 76.54 120.608 76.5821 120.683 76.6572C120.758 76.7322 120.8 76.8339 120.8 76.94C120.8 77.0461 120.758 77.1478 120.683 77.2228C120.608 77.2978 120.506 77.34 120.4 77.34H120.42Z" fill="#407BFF"/>
<path d="M115.536 86.08H86.336C86.2299 86.08 86.1282 86.0379 86.0532 85.9628C85.9781 85.8878 85.936 85.7861 85.936 85.68C85.936 85.5739 85.9781 85.4722 86.0532 85.3972C86.1282 85.3221 86.2299 85.28 86.336 85.28H115.536C115.642 85.28 115.744 85.3221 115.819 85.3972C115.894 85.4722 115.936 85.5739 115.936 85.68C115.936 85.7861 115.894 85.8878 115.819 85.9628C115.744 86.0379 115.642 86.08 115.536 86.08Z" fill="#407BFF"/>
<path d="M120.42 79.524H86.328C86.2219 79.524 86.1202 79.4819 86.0452 79.4068C85.9702 79.3318 85.928 79.2301 85.928 79.124C85.928 79.0179 85.9702 78.9162 86.0452 78.8412C86.1202 78.7661 86.2219 78.724 86.328 78.724H120.42C120.526 78.724 120.628 78.7661 120.703 78.8412C120.778 78.9162 120.82 79.0179 120.82 79.124C120.82 79.2301 120.778 79.3318 120.703 79.4068C120.628 79.4819 120.526 79.524 120.42 79.524Z" fill="#407BFF"/>
<path d="M120.42 81.712H86.328C86.2219 81.712 86.1202 81.6699 86.0452 81.5948C85.9702 81.5198 85.928 81.4181 85.928 81.312C85.928 81.2059 85.9702 81.1042 86.0452 81.0292C86.1202 80.9541 86.2219 80.912 86.328 80.912H120.42C120.526 80.912 120.628 80.9541 120.703 81.0292C120.778 81.1042 120.82 81.2059 120.82 81.312C120.82 81.4181 120.778 81.5198 120.703 81.5948C120.628 81.6699 120.526 81.712 120.42 81.712Z" fill="#407BFF"/>
<path d="M120.42 83.896H86.328C86.2219 83.896 86.1202 83.8539 86.0452 83.7788C85.9702 83.7038 85.928 83.6021 85.928 83.496C85.928 83.3899 85.9702 83.2882 86.0452 83.2132C86.1202 83.1381 86.2219 83.096 86.328 83.096H120.42C120.526 83.096 120.628 83.1381 120.703 83.2132C120.778 83.2882 120.82 83.3899 120.82 83.496C120.82 83.6021 120.778 83.7038 120.703 83.7788C120.628 83.8539 120.526 83.896 120.42 83.896Z" fill="#407BFF"/>
<path d="M120.42 99.34H91.2C91.0939 99.34 90.9922 99.2979 90.9172 99.2228C90.8421 99.1478 90.8 99.0461 90.8 98.94C90.8 98.8339 90.8421 98.7322 90.9172 98.6572C90.9922 98.5821 91.0939 98.54 91.2 98.54H120.4C120.506 98.54 120.608 98.5821 120.683 98.6572C120.758 98.7322 120.8 98.8339 120.8 98.94C120.8 99.0461 120.758 99.1478 120.683 99.2228C120.608 99.2979 120.506 99.34 120.4 99.34H120.42Z" fill="#407BFF"/>
<path d="M115.536 108.08H86.336C86.2299 108.08 86.1282 108.038 86.0532 107.963C85.9781 107.888 85.936 107.786 85.936 107.68C85.936 107.574 85.9781 107.472 86.0532 107.397C86.1282 107.322 86.2299 107.28 86.336 107.28H115.536C115.642 107.28 115.744 107.322 115.819 107.397C115.894 107.472 115.936 107.574 115.936 107.68C115.936 107.786 115.894 107.888 115.819 107.963C115.744 108.038 115.642 108.08 115.536 108.08Z" fill="#407BFF"/>
<path d="M120.42 101.524H86.328C86.2219 101.524 86.1202 101.482 86.0452 101.407C85.9702 101.332 85.928 101.23 85.928 101.124C85.928 101.018 85.9702 100.916 86.0452 100.841C86.1202 100.766 86.2219 100.724 86.328 100.724H120.42C120.526 100.724 120.628 100.766 120.703 100.841C120.778 100.916 120.82 101.018 120.82 101.124C120.82 101.23 120.778 101.332 120.703 101.407C120.628 101.482 120.526 101.524 120.42 101.524Z" fill="#407BFF"/>
<path d="M120.42 103.712H86.328C86.2219 103.712 86.1202 103.67 86.0452 103.595C85.9702 103.52 85.928 103.418 85.928 103.312C85.928 103.206 85.9702 103.104 86.0452 103.029C86.1202 102.954 86.2219 102.912 86.328 102.912H120.42C120.526 102.912 120.628 102.954 120.703 103.029C120.778 103.104 120.82 103.206 120.82 103.312C120.82 103.418 120.778 103.52 120.703 103.595C120.628 103.67 120.526 103.712 120.42 103.712Z" fill="#407BFF"/>
<path d="M120.42 105.896H86.328C86.2219 105.896 86.1202 105.854 86.0452 105.779C85.9702 105.704 85.928 105.602 85.928 105.496C85.928 105.39 85.9702 105.288 86.0452 105.213C86.1202 105.138 86.2219 105.096 86.328 105.096H120.42C120.526 105.096 120.628 105.138 120.703 105.213C120.778 105.288 120.82 105.39 120.82 105.496C120.82 105.602 120.778 105.704 120.703 105.779C120.628 105.854 120.526 105.896 120.42 105.896Z" fill="#407BFF"/>
<path d="M120.42 66.304H116.328V71.752H120.42V66.304Z" fill="#407BFF"/>
<path d="M88.6 70.84C89.8526 70.84 90.868 69.8246 90.868 68.572C90.868 67.3194 89.8526 66.304 88.6 66.304C87.3474 66.304 86.332 67.3194 86.332 68.572C86.332 69.8246 87.3474 70.84 88.6 70.84Z" fill="#407BFF"/>
<path d="M86.2 88.94C86.2109 89.0592 86.266 89.1701 86.3544 89.2508C86.4429 89.3315 86.5583 89.3762 86.678 89.3762C86.7977 89.3762 86.9131 89.3315 87.0016 89.2508C87.09 89.1701 87.1451 89.0592 87.156 88.94C87.1621 88.8736 87.1542 88.8066 87.133 88.7433C87.1117 88.6801 87.0775 88.6219 87.0325 88.5727C86.9876 88.5234 86.9328 88.484 86.8718 88.4571C86.8107 88.4301 86.7447 88.4162 86.678 88.4162C86.6113 88.4162 86.5453 88.4301 86.4842 88.4571C86.4232 88.484 86.3684 88.5234 86.3234 88.5727C86.2785 88.6219 86.2443 88.6801 86.223 88.7433C86.2017 88.8066 86.1939 88.8736 86.2 88.94Z" fill="#407BFF"/>
<path d="M86.2 91.124C86.1992 91.2193 86.2268 91.3126 86.2792 91.3922C86.3317 91.4717 86.4066 91.5338 86.4945 91.5707C86.5823 91.6075 86.6792 91.6173 86.7727 91.5989C86.8661 91.5806 86.952 91.5348 87.0194 91.4674C87.0868 91.4 87.1326 91.3141 87.151 91.2206C87.1694 91.1272 87.1595 91.0303 87.1227 90.9424C87.0859 90.8546 87.0237 90.7797 86.9442 90.7272C86.8646 90.6748 86.7713 90.6472 86.676 90.648C86.5498 90.648 86.4287 90.6981 86.3394 90.7874C86.2501 90.8767 86.2 90.9977 86.2 91.124Z" fill="#407BFF"/>
<path d="M86.2 93.312C86.2109 93.4312 86.266 93.5421 86.3544 93.6228C86.4429 93.7035 86.5583 93.7482 86.678 93.7482C86.7977 93.7482 86.9131 93.7035 87.0016 93.6228C87.09 93.5421 87.1451 93.4312 87.156 93.312C87.1621 93.2456 87.1542 93.1786 87.133 93.1153C87.1117 93.0521 87.0775 92.9939 87.0325 92.9447C86.9876 92.8954 86.9328 92.856 86.8718 92.8291C86.8107 92.8021 86.7447 92.7882 86.678 92.7882C86.6113 92.7882 86.5453 92.8021 86.4842 92.8291C86.4232 92.856 86.3684 92.8954 86.3234 92.9447C86.2785 92.9939 86.2443 93.0521 86.223 93.1153C86.2017 93.1786 86.1939 93.2456 86.2 93.312Z" fill="#407BFF"/>
<path d="M86.2 95.496C86.2109 95.6152 86.266 95.7261 86.3544 95.8068C86.4429 95.8875 86.5583 95.9322 86.678 95.9322C86.7977 95.9322 86.9131 95.8875 87.0016 95.8068C87.09 95.7261 87.1451 95.6152 87.156 95.496C87.1621 95.4295 87.1542 95.3626 87.133 95.2993C87.1117 95.2361 87.0775 95.1779 87.0325 95.1286C86.9876 95.0794 86.9328 95.04 86.8718 95.0131C86.8107 94.9861 86.7447 94.9722 86.678 94.9722C86.6113 94.9722 86.5453 94.9861 86.4842 95.0131C86.4232 95.04 86.3684 95.0794 86.3234 95.1286C86.2785 95.1779 86.2443 95.2361 86.223 95.2993C86.2017 95.3626 86.1939 95.4295 86.2 95.496Z" fill="#407BFF"/>
<path d="M93.536 89.34H88.336C88.2299 89.34 88.1282 89.2979 88.0532 89.2228C87.9781 89.1478 87.936 89.0461 87.936 88.94C87.936 88.8339 87.9781 88.7322 88.0532 88.6572C88.1282 88.5821 88.2299 88.54 88.336 88.54H93.536C93.6421 88.54 93.7438 88.5821 93.8188 88.6572C93.8939 88.7322 93.936 88.8339 93.936 88.94C93.936 89.0461 93.8939 89.1478 93.8188 89.2228C93.7438 89.2979 93.6421 89.34 93.536 89.34Z" fill="#407BFF"/>
<path d="M98.42 91.524H88.328C88.2219 91.524 88.1202 91.4819 88.0452 91.4068C87.9701 91.3318 87.928 91.2301 87.928 91.124C87.928 91.0179 87.9701 90.9162 88.0452 90.8412C88.1202 90.7661 88.2219 90.724 88.328 90.724H98.42C98.5261 90.724 98.6278 90.7661 98.7028 90.8412C98.7779 90.9162 98.82 91.0179 98.82 91.124C98.82 91.2301 98.7779 91.3318 98.7028 91.4068C98.6278 91.4819 98.5261 91.524 98.42 91.524Z" fill="#407BFF"/>
<path d="M92.42 93.712H88.328C88.2219 93.712 88.1202 93.6699 88.0452 93.5948C87.9701 93.5198 87.928 93.4181 87.928 93.312C87.928 93.2059 87.9701 93.1042 88.0452 93.0291C88.1202 92.9541 88.2219 92.912 88.328 92.912H92.42C92.5261 92.912 92.6278 92.9541 92.7028 93.0291C92.7778 93.1042 92.82 93.2059 92.82 93.312C92.82 93.4181 92.7778 93.5198 92.7028 93.5948C92.6278 93.6699 92.5261 93.712 92.42 93.712Z" fill="#407BFF"/>
<path d="M96.82 95.896H88.328C88.2219 95.896 88.1202 95.8539 88.0452 95.7788C87.9701 95.7038 87.928 95.6021 87.928 95.496C87.928 95.3899 87.9701 95.2882 88.0452 95.2132C88.1202 95.1381 88.2219 95.096 88.328 95.096H96.82C96.9261 95.096 97.0278 95.1381 97.1028 95.2132C97.1779 95.2882 97.22 95.3899 97.22 95.496C97.22 95.6021 97.1779 95.7038 97.1028 95.7788C97.0278 95.8539 96.9261 95.896 96.82 95.896Z" fill="#407BFF"/>
<path opacity="0.5" d="M125.884 111.024L117.54 119.368V111.024H125.884Z" fill="#407BFF"/>
<path opacity="0.2" d="M120.42 66.304L116.328 71.752H120.42V66.304Z" fill="black"/>
<path opacity="0.2" d="M89.924 67.248H87.272V69.9H89.924V67.248Z" fill="black"/>
<path opacity="0.4" d="M125.88 63.108H123.524V111.024H125.88V63.108Z" fill="black"/>
<path d="M124.704 72.144C124.474 72.144 124.253 72.0525 124.09 71.8898C123.927 71.727 123.836 71.5062 123.836 71.276V66.4C123.836 66.1698 123.927 65.949 124.09 65.7862C124.253 65.6234 124.474 65.532 124.704 65.532C124.934 65.532 125.155 65.6234 125.318 65.7862C125.481 65.949 125.572 66.1698 125.572 66.4V71.296C125.567 71.5227 125.473 71.7384 125.311 71.8969C125.149 72.0554 124.931 72.1441 124.704 72.144Z" fill="#407BFF"/>
<path opacity="0.4" d="M124.704 72.144C124.474 72.144 124.253 72.0525 124.09 71.8898C123.927 71.727 123.836 71.5062 123.836 71.276V66.4C123.836 66.1698 123.927 65.949 124.09 65.7862C124.253 65.6234 124.474 65.532 124.704 65.532C124.934 65.532 125.155 65.6234 125.318 65.7862C125.481 65.949 125.572 66.1698 125.572 66.4V71.296C125.567 71.5227 125.473 71.7384 125.311 71.8969C125.149 72.0554 124.931 72.1441 124.704 72.144Z" fill="white"/>
<path d="M33.532 83.572H47.5C48.0372 83.5731 48.552 83.7872 48.9314 84.1674C49.3109 84.5476 49.524 85.0628 49.524 85.6V99.176C49.524 99.7128 49.3108 100.228 48.9312 100.607C48.5516 100.987 48.0368 101.2 47.5 101.2H41.828L42.44 105.292L39.64 101.2H33.532C33.266 101.201 33.0026 101.149 32.7568 101.047C32.511 100.945 32.2877 100.796 32.0996 100.608C31.9116 100.42 31.7625 100.197 31.661 99.9512C31.5595 99.7054 31.5075 99.4419 31.508 99.176V85.6C31.5075 85.3339 31.5594 85.0702 31.6609 84.8242C31.7624 84.5782 31.9114 84.3546 32.0994 84.1662C32.2874 83.9779 32.5107 83.8284 32.7565 83.7264C33.0023 83.6245 33.2659 83.572 33.532 83.572Z" fill="#407BFF"/>
<path opacity="0.6" d="M33.532 83.572H47.5C48.0372 83.5731 48.552 83.7872 48.9314 84.1674C49.3109 84.5476 49.524 85.0628 49.524 85.6V99.176C49.524 99.7128 49.3108 100.228 48.9312 100.607C48.5516 100.987 48.0368 101.2 47.5 101.2H41.828L42.44 105.292L39.64 101.2H33.532C33.266 101.201 33.0026 101.149 32.7568 101.047C32.511 100.945 32.2877 100.796 32.0996 100.608C31.9116 100.42 31.7625 100.197 31.661 99.9512C31.5595 99.7054 31.5075 99.4419 31.508 99.176V85.6C31.5075 85.3339 31.5594 85.0702 31.6609 84.8242C31.7624 84.5782 31.9114 84.3546 32.0994 84.1662C32.2874 83.9779 32.5107 83.8284 32.7565 83.7264C33.0023 83.6245 33.2659 83.572 33.532 83.572Z" fill="white"/>
<path d="M39.364 89.564V90.648L39.924 90.7C39.9921 91.0559 40.1279 91.3953 40.324 91.7L39.968 92.132L40.732 92.896L41.168 92.54C41.4732 92.735 41.8125 92.8707 42.168 92.94L42.22 93.496H43.3L43.356 92.94C43.7111 92.8692 44.05 92.7336 44.356 92.54L44.788 92.896L45.552 92.132L45.196 91.7C45.3903 91.3944 45.526 91.0553 45.596 90.7L46.152 90.648V89.564L45.596 89.512C45.526 89.1567 45.3903 88.8176 45.196 88.512L45.552 88.08L44.8 87.312L44.368 87.672C44.062 87.4784 43.7231 87.3428 43.368 87.272L43.312 86.712H42.232L42.18 87.272C41.8245 87.3413 41.4852 87.477 41.18 87.672L40.744 87.312L40 88.08L40.356 88.512C40.1599 88.8167 40.0241 89.1561 39.956 89.512L39.364 89.564ZM42.772 88.64C43.0627 88.6392 43.347 88.7247 43.5891 88.8857C43.8311 89.0467 44.0199 89.276 44.1315 89.5444C44.2431 89.8128 44.2725 90.1083 44.216 90.3934C44.1595 90.6785 44.0196 90.9405 43.814 91.146C43.6085 91.3516 43.3465 91.4915 43.0614 91.548C42.7763 91.6045 42.4808 91.5751 42.2124 91.4635C41.944 91.3519 41.7147 91.1631 41.5537 90.9211C41.3927 90.6791 41.3072 90.3947 41.308 90.104C41.309 89.716 41.4636 89.3443 41.7379 89.07C42.0123 88.7956 42.384 88.6411 42.772 88.64Z" fill="#F5F5F5"/>
<path d="M40.064 97.464C40.3484 97.4065 40.6197 97.2967 40.864 97.14L41.204 97.42L41.804 96.82L41.524 96.48C41.6807 96.2357 41.7905 95.9645 41.848 95.68L42.284 95.64V94.8L41.848 94.76C41.7921 94.4751 41.6821 94.2035 41.524 93.96L41.804 93.62L41.204 93.02L40.864 93.3C40.6215 93.14 40.3495 93.0298 40.064 92.976L40.024 92.536H39.176L39.132 92.976C38.8465 93.0298 38.5745 93.14 38.332 93.3L37.996 93.02L37.396 93.62L37.676 93.96C37.5149 94.2024 37.4034 94.4743 37.348 94.76L36.912 94.8V95.648L37.348 95.688C37.405 95.9732 37.5164 96.2448 37.676 96.488L37.396 96.828L37.996 97.428L38.332 97.148C38.5763 97.3047 38.8475 97.4145 39.132 97.472L39.176 97.908H40.024L40.064 97.464ZM38.464 95.232C38.4672 95.0042 38.5378 94.7824 38.6671 94.5948C38.7963 94.4071 38.9782 94.262 39.1899 94.1778C39.4016 94.0935 39.6335 94.0739 39.8563 94.1215C40.0791 94.169 40.2829 94.2816 40.4417 94.4449C40.6006 94.6082 40.7074 94.815 40.7488 95.0391C40.7901 95.2631 40.7641 95.4944 40.674 95.7037C40.5839 95.9129 40.4338 96.0908 40.2426 96.2147C40.0514 96.3387 39.8278 96.4031 39.6 96.4C39.4472 96.4006 39.2958 96.3706 39.1548 96.3119C39.0137 96.2532 38.8858 96.1669 38.7785 96.0582C38.6712 95.9494 38.5867 95.8203 38.5299 95.6784C38.4732 95.5365 38.4453 95.3848 38.448 95.232H38.464Z" fill="#F5F5F5"/>
<path d="M37.856 92.68L38.092 92.964L38.68 92.564L38.5 92.24C38.6712 92.0695 38.8071 91.867 38.9 91.644L39.268 91.68L39.4 90.98L39.044 90.876C39.0395 90.6371 38.9906 90.4011 38.9 90.18L39.184 89.944L38.784 89.356L38.46 89.532C38.2897 89.3606 38.0871 89.2246 37.864 89.132L37.9 88.764L37.2 88.64L37.096 88.992C36.8566 88.9959 36.6202 89.0461 36.4 89.14L36.164 88.856L35.576 89.256L35.752 89.58C35.5823 89.7517 35.4466 89.9539 35.352 90.176L34.984 90.144L34.852 90.844L35.204 90.944C35.2084 91.1846 35.2586 91.4222 35.352 91.644L35.068 91.88L35.468 92.468L35.792 92.288C35.9639 92.4575 36.166 92.5932 36.388 92.688L36.356 93.056L37.056 93.188L37.156 92.832C37.3967 92.8245 37.6339 92.773 37.856 92.68ZM36.172 90.732C36.2192 90.4806 36.3644 90.2582 36.5755 90.1138C36.7867 89.9694 37.0466 89.9148 37.298 89.962C37.5494 90.0092 37.7718 90.1544 37.9162 90.3655C38.0606 90.5767 38.1152 90.8366 38.068 91.088C38.0446 91.2125 37.997 91.3312 37.9277 91.4372C37.8585 91.5433 37.769 91.6347 37.6645 91.7062C37.5599 91.7777 37.4423 91.8279 37.3183 91.854C37.1944 91.88 37.0665 91.8814 36.942 91.858C36.8175 91.8346 36.6988 91.787 36.5928 91.7177C36.4867 91.6485 36.3953 91.559 36.3238 91.4545C36.2523 91.3499 36.2021 91.2323 36.176 91.1083C36.15 90.9844 36.1486 90.8565 36.172 90.732Z" fill="#F5F5F5"/>
<path d="M56.544 133.248C56.544 133.248 57.528 142.104 57.848 143.16C58.168 144.216 62.676 149.856 62.676 149.856L61.4 150.524C61.4 150.524 56.6 145.588 55.836 144.124C55.072 142.66 53.928 135.02 53.928 135.02L56.544 133.248Z" fill="#EBB376"/>
<path d="M55.644 129.304C57.304 130.184 57.848 142.476 57.848 142.476L58.688 143.768L56.136 145.6C55.5216 144.587 54.9867 143.528 54.536 142.432C54.028 141.064 52.824 134.312 52.824 134.312L55.644 129.304Z" fill="#263238"/>
<path opacity="0.1" d="M55.644 129.304C57.304 130.184 57.848 142.476 57.848 142.476L58.688 143.768L56.136 145.6C55.5216 144.587 54.9867 143.528 54.536 142.432C54.028 141.064 52.824 134.312 52.824 134.312L55.644 129.304Z" fill="white"/>
<path d="M55.76 145.588L58.688 143.268L59.316 144.584L56.616 146.508L55.76 145.588Z" fill="#407BFF"/>
<path opacity="0.4" d="M55.76 145.588L58.688 143.268L59.316 144.584L56.616 146.508L55.76 145.588Z" fill="white"/>
<path d="M49.1 145.152L52.092 149.884C58.024 148.504 77.036 145.604 79.368 152.128C82.272 160.232 61.3 166.696 49.696 167.092C38.092 167.488 28.776 160.88 36.116 143.96L49.1 145.152Z" fill="#407BFF"/>
<path opacity="0.2" d="M49.1 145.152L52.092 149.884C58.024 148.504 77.036 145.604 79.368 152.128C82.272 160.232 61.3 166.696 49.696 167.092C38.092 167.488 28.776 160.88 36.116 143.96L49.1 145.152Z" fill="black"/>
<path d="M76 163.6C75.9874 163.608 75.9728 163.612 75.958 163.612C75.9432 163.612 75.9286 163.608 75.916 163.6C75.905 163.592 75.8971 163.581 75.8934 163.567C75.8898 163.554 75.8907 163.54 75.896 163.528C75.932 163.396 76.316 162.28 76.696 162.164C76.7372 162.154 76.7804 162.155 76.8212 162.167C76.862 162.179 76.8988 162.201 76.928 162.232C76.9824 162.277 77.024 162.335 77.0486 162.401C77.0731 162.467 77.0799 162.539 77.068 162.608C77.0038 162.816 76.8767 162.999 76.704 163.132C76.4846 163.31 76.2489 163.467 76 163.6ZM76.1 163.384C76.462 163.224 76.7554 162.94 76.928 162.584C76.9374 162.536 76.933 162.487 76.9153 162.441C76.8976 162.396 76.8673 162.357 76.828 162.328C76.817 162.315 76.8025 162.305 76.7862 162.3C76.7698 162.295 76.7524 162.295 76.736 162.3C76.7046 162.314 76.675 162.331 76.648 162.352C76.4089 162.657 76.2261 163.003 76.108 163.372L76.1 163.384Z" fill="#407BFF"/>
<path d="M76 163.6C75.9876 163.606 75.9735 163.607 75.9602 163.604C75.9469 163.6 75.9354 163.592 75.928 163.58C75.892 163.548 75.356 162.872 75.444 162.416C75.454 162.359 75.4755 162.305 75.5072 162.257C75.5388 162.209 75.5799 162.168 75.628 162.136C75.6686 162.097 75.7211 162.073 75.7771 162.068C75.8331 162.063 75.8891 162.077 75.936 162.108C76.22 162.304 76.184 163.212 76.048 163.552V163.588L76 163.6ZM75.696 162.276C75.6484 162.318 75.616 162.374 75.604 162.436C75.6183 162.777 75.7433 163.104 75.96 163.368C76.048 162.968 76.02 162.348 75.856 162.232C75.856 162.232 75.804 162.196 75.72 162.256L75.696 162.276Z" fill="#407BFF"/>
<path d="M55.6 165.488C55.6073 165.475 55.6186 165.464 55.6322 165.458C55.6458 165.451 55.6612 165.449 55.676 165.452C55.6892 165.454 55.7015 165.46 55.7109 165.469C55.7203 165.479 55.7263 165.491 55.728 165.504C55.756 165.636 55.96 166.8 55.676 167.104C55.6461 167.134 55.6085 167.154 55.5675 167.163C55.5264 167.173 55.4837 167.17 55.444 167.156C55.375 167.143 55.3105 167.112 55.2572 167.067C55.2038 167.021 55.1634 166.962 55.14 166.896C55.0946 166.684 55.117 166.463 55.204 166.264C55.3101 165.993 55.4428 165.733 55.6 165.488ZM55.6 165.724C55.3609 166.038 55.2405 166.426 55.26 166.82C55.2749 166.866 55.3027 166.908 55.3403 166.939C55.3779 166.97 55.4236 166.99 55.472 166.996C55.4873 167.003 55.5048 167.006 55.5215 167.002C55.5382 166.998 55.5531 166.989 55.564 166.976C55.5874 166.951 55.6051 166.921 55.616 166.888C55.6886 166.504 55.6914 166.109 55.624 165.724H55.6Z" fill="#407BFF"/>
<path d="M63.204 159.616L58.428 161.316L56.136 162.132L56.724 164.644L58.944 164.168L64.368 163.012L63.204 159.616Z" fill="#EBB376"/>
<path d="M57.348 164.76L56.948 161.8C56.9427 161.761 56.9294 161.723 56.9091 161.688C56.8887 161.654 56.8617 161.624 56.8296 161.601C56.7975 161.577 56.7609 161.561 56.7222 161.551C56.6834 161.542 56.6432 161.541 56.604 161.548L55.144 161.792C55.144 161.792 53.144 161.98 52.744 162.488C51.588 163.98 52.308 170.548 53.08 170.78C53.36 170.864 53.656 170.48 53.78 170.212C54.18 169.364 54.856 167.152 55.188 166.448C55.588 165.628 56.644 165.228 57.124 165.084C57.1946 165.067 57.2564 165.024 57.2977 164.965C57.339 164.905 57.3569 164.832 57.348 164.76Z" fill="#263238"/>
<path d="M55.62 165.464C55.6308 165.457 55.6433 165.454 55.656 165.454C55.6687 165.454 55.6812 165.457 55.692 165.464C55.74 165.464 56.536 165.808 56.68 166.264C56.7152 166.375 56.7051 166.496 56.652 166.6C56.6351 166.654 56.6007 166.7 56.5543 166.732C56.5079 166.764 56.4522 166.779 56.396 166.776C56.056 166.74 55.644 165.928 55.596 165.576V165.54C55.5921 165.526 55.5922 165.512 55.5965 165.498C55.6008 165.485 55.609 165.473 55.62 165.464ZM56.528 166.48C56.5479 166.419 56.5479 166.353 56.528 166.292C56.436 166.012 55.992 165.764 55.764 165.652C55.876 166.032 56.208 166.576 56.408 166.596C56.408 166.596 56.468 166.596 56.512 166.512V166.48H56.528Z" fill="#407BFF"/>
<path opacity="0.2" d="M63.204 159.616L58.428 161.316L58.944 164.168L64.368 163.012L63.204 159.616Z" fill="black"/>
<path d="M59.788 164.6L61.164 164.696L60.244 159.972L58.688 160.836L59.788 164.6Z" fill="#407BFF"/>
<path opacity="0.6" d="M59.788 164.6L61.164 164.696L60.244 159.972L58.688 160.836L59.788 164.6Z" fill="white"/>
<path opacity="0.2" d="M39.872 146.24L47.024 154.172C47.024 154.172 54.932 153.996 64.532 158.688C64.532 158.688 74.832 154.432 75.78 150.896C77.02 146.264 52.092 149.884 52.092 149.884L39.872 146.24Z" fill="black"/>
<path d="M73.416 151.84V153.016C73.416 153.316 73.06 153.44 72.764 153.44H49.28C48.98 153.44 48.616 153.316 48.616 153.016V151.84H73.416Z" fill="#263238"/>
<path opacity="0.4" d="M73.416 151.84V153.016C73.416 153.316 73.06 153.44 72.764 153.44H49.28C48.98 153.44 48.616 153.316 48.616 153.016V151.84H73.416Z" fill="white"/>
<path opacity="0.2" d="M73.416 151.84V153.016C73.416 153.316 73.06 153.44 72.764 153.44H57.276C56.976 153.44 56.616 153.316 56.616 153.016V151.84H73.416Z" fill="black"/>
<path d="M77.344 139.64L74.544 152.32C74.4924 152.523 74.3756 152.703 74.2115 152.833C74.0475 152.963 73.8453 153.036 73.636 153.04H58.372C58.2764 153.038 58.1825 153.014 58.0979 152.97C58.0132 152.926 57.9402 152.862 57.8845 152.784C57.8289 152.706 57.7923 152.617 57.7776 152.522C57.763 152.428 57.7706 152.331 57.8 152.24L60.6 139.656C60.6564 139.464 60.7771 139.298 60.9417 139.185C61.1064 139.072 61.305 139.02 61.504 139.036H76.776C77.2 139.04 77.436 139.228 77.344 139.64Z" fill="#263238"/>
<path opacity="0.4" d="M77.344 139.64L74.544 152.32C74.4924 152.523 74.3755 152.703 74.2115 152.833C74.0475 152.963 73.8453 153.036 73.636 153.04H58.892C58.7963 153.038 58.7024 153.014 58.6176 152.969C58.5328 152.925 58.4595 152.862 58.4033 152.784C58.3471 152.707 58.3096 152.617 58.2938 152.523C58.278 152.428 58.2842 152.332 58.312 152.24L61.112 139.656C61.1698 139.469 61.2887 139.306 61.4497 139.195C61.6106 139.083 61.8044 139.029 62 139.04H76.752C77.2 139.04 77.436 139.228 77.344 139.64Z" fill="white"/>
<path opacity="0.2" d="M69.816 146.084C69.816 147.172 68.652 148.052 67.816 148.052C66.98 148.052 66.456 147.172 66.7 146.084C66.944 144.996 67.792 144.152 68.628 144.12C68.384 145.208 68.904 146.084 69.756 146.084C69.776 146.085 69.796 146.085 69.816 146.084Z" fill="black"/>
<path d="M66.52 165.048L71.52 165.872L73.92 166.268L74.62 163.788L72.448 163.124L67.144 161.512L66.52 165.048Z" fill="#EBB376"/>
<path d="M74.132 163.38L73.052 166.18C73.0347 166.218 73.0256 166.258 73.0253 166.3C73.025 166.341 73.0334 166.382 73.05 166.42C73.0667 166.457 73.0911 166.491 73.1218 166.519C73.1525 166.547 73.1887 166.567 73.228 166.58L74.624 167.072C74.624 167.072 76.452 167.872 77.044 167.616C78.776 166.872 81.324 160.772 80.764 160.2C80.56 159.988 80.112 160.2 79.876 160.356C79.124 160.908 77.452 162.516 76.824 162.968C76.084 163.496 74.956 163.332 74.468 163.228C74.4031 163.21 74.3339 163.215 74.2725 163.243C74.2111 163.271 74.1614 163.319 74.132 163.38Z" fill="#263238"/>
<path opacity="0.2" d="M66.52 165.048L71.52 165.872L72.448 163.124L67.144 161.512L66.52 165.048Z" fill="black"/>
<path d="M71.6 162.608C71.6 162.608 51.2 151.144 44.176 151.472C37.152 151.8 36.124 158 39.028 161.872C41.932 165.744 47.292 166.696 47.292 166.696C47.292 166.696 43.64 161.54 44.168 160.088C44.696 158.636 46.76 160.664 46.76 160.664C46.76 160.664 59.576 164.8 70.8 165.768L71.6 162.608Z" fill="#407BFF"/>
<path d="M71.916 162.292L70.764 161.516L69.28 166.072H71.06L71.916 162.292Z" fill="#407BFF"/>
<path opacity="0.6" d="M71.916 162.292L70.764 161.516L69.28 166.072H71.06L71.916 162.292Z" fill="white"/>
<path d="M36.116 143.96L49.104 145.16C49.104 145.16 51.14 140.944 52.704 139.3C54.268 137.656 55.648 129.3 55.648 129.3C54.5919 128.789 53.5043 128.345 52.392 127.972C49.188 126.898 45.8351 126.334 42.456 126.3H42.4C41.432 126.3 40.872 126.348 40.872 126.348C40.4787 126.613 40.1605 126.976 39.948 127.4C38.556 129.8 37.448 135.4 36.792 139.42C36.348 142.02 36.116 143.96 36.116 143.96Z" fill="#263238"/>
<path opacity="0.2" d="M36.772 139.424C39.636 138.112 43.544 135.892 43.34 133.64C43.12 131.168 41.116 128.68 39.928 127.404C38.536 129.804 37.428 135.404 36.772 139.424Z" fill="black"/>
<path d="M43.088 126.316C43.088 126.316 44.568 131.188 48.616 131.716C52.664 132.244 53.336 128.316 53.336 128.316C53.336 128.316 48.124 125.456 43.088 126.316Z" fill="#263238"/>
<path opacity="0.1" d="M43.088 126.316C43.088 126.316 44.568 131.188 48.616 131.716C52.664 132.244 53.336 128.316 53.336 128.316C53.336 128.316 48.124 125.456 43.088 126.316Z" fill="white"/>
<path d="M43.936 126.452C43.936 126.452 45.844 130.964 49.284 130.964C52.724 130.964 52.832 128.432 52.832 128.432C52.832 128.432 49.392 126.176 43.936 126.452Z" fill="#407BFF"/>
<path opacity="0.4" d="M43.936 126.452C43.936 126.452 45.844 130.964 49.284 130.964C52.724 130.964 52.832 128.432 52.832 128.432C52.832 128.432 49.392 126.176 43.936 126.452Z" fill="white"/>
<path d="M50.164 127.156C50.188 127.956 50.648 128.156 50.648 128.156C50.6878 128.404 50.6702 128.657 50.5965 128.897C50.5229 129.137 50.3951 129.357 50.2232 129.54C50.0513 129.722 49.8397 129.863 49.6047 129.951C49.3698 130.04 49.1177 130.073 48.868 130.048C46.32 129.788 45.516 126.72 45.516 126.72C47.368 125.984 47.784 123.94 47.864 122.72C47.8865 122.403 47.8865 122.085 47.864 121.768L51.328 123.948C51.0355 124.435 50.7775 124.941 50.556 125.464C50.3126 125.996 50.1792 126.571 50.164 127.156Z" fill="#EBB376"/>
<path opacity="0.2" d="M51.116 123.68C50.8745 124.199 50.6687 124.733 50.5 125.28C50.3124 125.831 50.2389 126.415 50.284 126.996C48.336 127.148 47.56 122.848 47.56 122.848V122.82C47.5512 122.502 47.5191 122.185 47.464 121.872L51.116 123.68Z" fill="black"/>
<path d="M53.332 114.072C53.332 114.072 55.876 111.144 52.832 108.692C49.788 106.24 43.776 107.344 42.668 112.884C41.56 118.424 43.068 120.764 43.068 120.764C43.068 120.764 43.068 117.236 44.084 116.208C44.084 116.208 43.78 117.896 44.084 118.908C44.388 119.92 44.084 119.28 44.084 119.28C44.084 119.28 45.02 114.86 49.532 116.128C54.044 117.396 53.332 114.072 53.332 114.072Z" fill="#263238"/>
<path d="M53.94 115.024C57.292 116.048 57.824 118.168 57.016 121.696C56.008 126.096 54.116 128.896 50.216 126.68C44.896 123.692 48.376 113.328 53.94 115.024Z" fill="#EBB376"/>
<path d="M54.908 120.848C55.0222 121.431 55.2062 121.997 55.456 122.536C55.3164 122.645 55.1495 122.713 54.9738 122.732C54.798 122.752 54.6202 122.723 54.46 122.648L54.908 120.848Z" fill="#D58745"/>
<path d="M52.94 119.952C52.86 120.228 52.648 120.412 52.464 120.352C52.28 120.292 52.192 120.032 52.268 119.756C52.344 119.48 52.56 119.296 52.744 119.356C52.928 119.416 53.016 119.672 52.94 119.952Z" fill="#263238"/>
<path d="M52.664 119.348L53.332 119.28C53.332 119.28 52.892 119.704 52.664 119.348Z" fill="#263238"/>
<path d="M56.4 120.856C56.324 121.132 56.112 121.316 55.928 121.256C55.744 121.196 55.656 120.936 55.732 120.66C55.808 120.384 56.024 120.2 56.208 120.26C56.392 120.32 56.48 120.58 56.4 120.856Z" fill="#263238"/>
<path d="M56.128 120.252L56.796 120.184C56.796 120.184 56.352 120.608 56.128 120.252Z" fill="#263238"/>
<path d="M52 117.836C51.9693 117.835 51.9397 117.824 51.9155 117.805C51.8912 117.786 51.8734 117.76 51.8646 117.73C51.8558 117.701 51.8564 117.67 51.8664 117.64C51.8763 117.611 51.895 117.586 51.92 117.568C52.1854 117.42 52.4818 117.336 52.7854 117.324C53.0891 117.311 53.3914 117.37 53.668 117.496C53.7022 117.512 53.7289 117.54 53.7423 117.575C53.7558 117.61 53.755 117.649 53.74 117.684C53.7326 117.702 53.7217 117.718 53.708 117.731C53.6943 117.745 53.678 117.755 53.6601 117.763C53.6422 117.77 53.623 117.773 53.6038 117.773C53.5845 117.772 53.5656 117.768 53.548 117.76C53.3155 117.657 53.0627 117.608 52.8085 117.616C52.5543 117.624 52.3053 117.69 52.08 117.808C52.0575 117.826 52.0291 117.836 52 117.836Z" fill="#263238"/>
<path d="M57.34 119.056C57.3188 119.055 57.2979 119.051 57.2786 119.042C57.2594 119.033 57.2421 119.02 57.228 119.004C57.0999 118.819 56.9313 118.667 56.7351 118.557C56.5389 118.448 56.3203 118.384 56.096 118.372C56.0581 118.373 56.0211 118.36 55.9928 118.334C55.9645 118.309 55.9471 118.274 55.944 118.236C55.9429 118.217 55.9456 118.198 55.9518 118.18C55.9581 118.162 55.9678 118.146 55.9804 118.132C55.9931 118.118 56.0084 118.106 56.0255 118.098C56.0425 118.09 56.0611 118.085 56.08 118.084C56.3497 118.092 56.614 118.162 56.8521 118.289C57.0902 118.416 57.2955 118.596 57.452 118.816C57.4794 118.844 57.4947 118.881 57.4947 118.92C57.4947 118.959 57.4794 118.996 57.452 119.024C57.4363 119.036 57.4184 119.046 57.3992 119.051C57.38 119.057 57.3598 119.058 57.34 119.056Z" fill="#263238"/>
<path d="M48.556 119.556C48.556 119.556 50.956 117.28 51.356 115.084C51.356 115.084 58.824 114.396 57.096 121.236C57.096 121.236 59.572 115.448 53.852 113.56C48.132 111.672 45.6 120.104 47.812 123.52C47.812 123.52 47.064 120.98 48.556 119.556Z" fill="#263238"/>
<path d="M53.688 124.156C53.2419 124.16 52.8092 124.004 52.4691 123.715C52.129 123.426 51.9042 123.025 51.836 122.584C51.8325 122.546 51.8438 122.507 51.8675 122.477C51.8913 122.446 51.9258 122.426 51.964 122.42C52.002 122.417 52.0399 122.428 52.0697 122.452C52.0995 122.476 52.119 122.51 52.124 122.548C52.1796 122.922 52.3701 123.263 52.6597 123.506C52.9494 123.749 53.318 123.878 53.696 123.868C53.7342 123.868 53.7708 123.883 53.7978 123.91C53.8248 123.937 53.84 123.974 53.84 124.012C53.84 124.05 53.8248 124.087 53.7978 124.114C53.7708 124.141 53.7342 124.156 53.696 124.156H53.688Z" fill="#263238"/>
<path d="M47.976 118.884C47.9709 118.906 47.9732 118.929 47.9827 118.949C47.9921 118.969 48.0081 118.986 48.028 118.996H48.052L51.464 119.796C51.4092 120.12 51.4639 120.454 51.6197 120.743C51.7754 121.033 52.0232 121.263 52.324 121.396C52.7151 121.591 53.1641 121.635 53.5859 121.521C54.0076 121.407 54.3727 121.142 54.612 120.776C54.6539 120.705 54.6888 120.63 54.716 120.552C54.7769 120.502 54.8473 120.465 54.9229 120.443C54.9985 120.421 55.0778 120.415 55.156 120.424C55.1986 120.443 55.2364 120.471 55.2668 120.506C55.2973 120.542 55.3195 120.583 55.332 120.628C55.2854 120.948 55.3446 121.275 55.5005 121.559C55.6564 121.843 55.9006 122.068 56.196 122.2C56.5878 122.394 57.0368 122.437 57.4584 122.322C57.8799 122.207 58.2448 121.942 58.484 121.576C58.5871 121.398 58.6512 121.2 58.6721 120.996C58.693 120.791 58.6702 120.584 58.6051 120.389C58.5401 120.194 58.4343 120.015 58.2948 119.864C58.1553 119.712 57.9853 119.593 57.796 119.512C57.4049 119.317 56.9559 119.273 56.5341 119.387C56.1124 119.501 55.7473 119.766 55.508 120.132C55.4661 120.203 55.4313 120.278 55.404 120.356C55.3558 120.306 55.297 120.268 55.232 120.244C55.0831 120.206 54.9253 120.223 54.788 120.292C54.8418 119.967 54.7862 119.634 54.6298 119.344C54.4734 119.055 54.2251 118.825 53.924 118.692C53.5329 118.497 53.0839 118.453 52.6621 118.567C52.2404 118.681 51.8753 118.946 51.636 119.312C51.5814 119.406 51.5371 119.505 51.504 119.608L48.108 118.808C48.0804 118.801 48.0511 118.805 48.0263 118.819C48.0016 118.833 47.9835 118.856 47.976 118.884ZM55.696 120.208C55.9055 119.889 56.2246 119.657 56.593 119.557C56.9614 119.457 57.3537 119.495 57.696 119.664C57.8616 119.735 58.0102 119.84 58.1321 119.973C58.254 120.105 58.3464 120.262 58.4031 120.433C58.4598 120.604 58.4796 120.785 58.4612 120.964C58.4427 121.143 58.3864 121.316 58.296 121.472C58.0865 121.791 57.7672 122.022 57.3986 122.122C57.03 122.221 56.6377 122.182 56.296 122.012C56.1306 121.942 55.982 121.837 55.8601 121.705C55.7382 121.573 55.6458 121.416 55.5891 121.245C55.5324 121.075 55.5125 120.894 55.531 120.715C55.5494 120.536 55.6057 120.363 55.696 120.208ZM51.824 119.408C52.0335 119.089 52.3526 118.857 52.721 118.757C53.0894 118.657 53.4817 118.695 53.824 118.864C53.9896 118.935 54.1382 119.04 54.2601 119.173C54.382 119.305 54.4744 119.462 54.5311 119.633C54.5878 119.804 54.6076 119.985 54.5891 120.164C54.5707 120.343 54.5144 120.516 54.424 120.672C54.2151 120.992 53.8961 121.224 53.5274 121.324C53.1588 121.424 52.7662 121.386 52.424 121.216C52.2583 121.145 52.1096 121.039 51.9877 120.906C51.8658 120.773 51.7734 120.616 51.7167 120.445C51.66 120.274 51.6403 120.092 51.6588 119.913C51.6773 119.734 51.7336 119.56 51.824 119.404V119.408Z" fill="#263238"/>
<g opacity="0.3">
<path opacity="0.3" d="M47.976 118.884C47.9709 118.906 47.9732 118.929 47.9827 118.949C47.9921 118.969 48.0081 118.986 48.028 118.996H48.052L51.464 119.796C51.4092 120.12 51.4639 120.454 51.6197 120.743C51.7754 121.033 52.0232 121.263 52.324 121.396C52.7151 121.591 53.1641 121.635 53.5859 121.521C54.0076 121.407 54.3727 121.142 54.612 120.776C54.6539 120.705 54.6888 120.63 54.716 120.552C54.7769 120.502 54.8473 120.465 54.9229 120.443C54.9985 120.421 55.0778 120.415 55.156 120.424C55.1986 120.443 55.2364 120.471 55.2668 120.506C55.2973 120.542 55.3195 120.583 55.332 120.628C55.2854 120.948 55.3446 121.275 55.5005 121.559C55.6564 121.843 55.9006 122.068 56.196 122.2C56.5878 122.394 57.0368 122.437 57.4584 122.322C57.8799 122.207 58.2448 121.942 58.484 121.576C58.5871 121.398 58.6512 121.2 58.6721 120.996C58.693 120.791 58.6702 120.584 58.6051 120.389C58.5401 120.194 58.4343 120.015 58.2948 119.864C58.1553 119.712 57.9853 119.593 57.796 119.512C57.4049 119.317 56.9559 119.273 56.5341 119.387C56.1124 119.501 55.7473 119.766 55.508 120.132C55.4661 120.203 55.4313 120.278 55.404 120.356C55.3558 120.306 55.297 120.268 55.232 120.244C55.0831 120.206 54.9253 120.223 54.788 120.292C54.8418 119.967 54.7862 119.634 54.6298 119.344C54.4734 119.055 54.2251 118.825 53.924 118.692C53.5329 118.497 53.0839 118.453 52.6621 118.567C52.2404 118.681 51.8753 118.946 51.636 119.312C51.5814 119.406 51.5371 119.505 51.504 119.608L48.108 118.808C48.0804 118.801 48.0511 118.805 48.0263 118.819C48.0016 118.833 47.9835 118.856 47.976 118.884ZM55.696 120.208C55.9055 119.889 56.2246 119.657 56.593 119.557C56.9614 119.457 57.3537 119.495 57.696 119.664C57.8616 119.735 58.0102 119.84 58.1321 119.973C58.254 120.105 58.3464 120.262 58.4031 120.433C58.4598 120.604 58.4796 120.785 58.4612 120.964C58.4427 121.143 58.3864 121.316 58.296 121.472C58.0865 121.791 57.7672 122.022 57.3986 122.122C57.03 122.221 56.6377 122.182 56.296 122.012C56.1306 121.942 55.982 121.837 55.8601 121.705C55.7382 121.573 55.6458 121.416 55.5891 121.245C55.5324 121.075 55.5125 120.894 55.531 120.715C55.5494 120.536 55.6057 120.363 55.696 120.208ZM51.824 119.408C52.0335 119.089 52.3526 118.857 52.721 118.757C53.0894 118.657 53.4817 118.695 53.824 118.864C53.9896 118.935 54.1382 119.04 54.2601 119.173C54.382 119.305 54.4744 119.462 54.5311 119.633C54.5878 119.804 54.6076 119.985 54.5891 120.164C54.5707 120.343 54.5144 120.516 54.424 120.672C54.2151 120.992 53.8961 121.224 53.5274 121.324C53.1588 121.424 52.7662 121.386 52.424 121.216C52.2583 121.145 52.1096 121.039 51.9877 120.906C51.8658 120.773 51.7734 120.616 51.7167 120.445C51.66 120.274 51.6403 120.092 51.6588 119.913C51.6773 119.734 51.7336 119.56 51.824 119.404V119.408Z" fill="white"/>
</g>
<path d="M48.888 120.428C48.9736 120.031 48.8984 119.616 48.6787 119.274C48.4591 118.932 48.1129 118.691 47.716 118.604C46.644 118.4 45.496 120.38 47.924 121.68C48.272 121.868 48.592 121.568 48.888 120.428Z" fill="#EBB376"/>
<path d="M42.4 130.728C42.4 130.728 42.8 139.28 43.524 141.2C44.248 143.12 51.8 150.192 51.8 150.192C51.8 150.192 53.908 149.724 54.256 149.86C54.604 149.996 56.616 151.86 56.616 151.86H50.8L50.292 150.964C50.292 150.964 42.476 145.172 41.616 143.792C40.98 142.772 38.936 132.384 38.936 132.384L42.4 130.728Z" fill="#EBB376"/>
<path d="M40.852 126.352C42.208 125.648 42.852 127.916 43.68 132.504C44.1725 135.404 44.3987 138.343 44.356 141.284L45.516 143.344L42.588 146.04C41.2112 144.71 40.1564 143.083 39.504 141.284C38.6 138.524 36.108 128.828 40.852 126.352Z" fill="#263238"/>
<path opacity="0.1" d="M40.852 126.352C42.208 125.648 42.852 127.916 43.68 132.504C44.1725 135.404 44.3987 138.343 44.356 141.284L45.516 143.344L42.588 146.04C41.2112 144.71 40.1564 143.083 39.504 141.284C38.6 138.524 36.108 128.828 40.852 126.352Z" fill="white"/>
<path d="M41.824 146.04L45.516 142.74L46.388 143.96L43.088 147.2L41.824 146.04Z" fill="#407BFF"/>
<path opacity="0.4" d="M41.824 146.04L45.516 142.74L46.388 143.96L43.088 147.2L41.824 146.04Z" fill="white"/>
</svg>
