<svg width="1280" height="392" viewBox="0 0 1280 392" fill="none" xmlns="http://www.w3.org/2000/svg">
<path fill-rule="evenodd" clip-rule="evenodd" d="M1280 392V292.281C1280 292.281 1170.04 217.739 1096 196C955.905 154.865 874.84 256.123 733 240.702C585.362 224.65 509.869 116.623 362 109.175C219.322 101.99 0 196 0 196V392H1280Z" fill="#99C2FF" fill-opacity="0.3"/>
<path fill-rule="evenodd" clip-rule="evenodd" d="M1280 392V298.951C1280 298.951 1168 203.13 1080 203.13C1025.49 203.13 967.5 242.824 919.5 266.087C871.5 289.349 863.709 314.993 791 317.561C727.533 319.802 689.789 313.754 630.5 287.32C592.318 270.296 578.064 241.182 538.5 229.164C455.068 203.82 396.95 270.099 312 287.32C239.985 301.918 212.57 319.993 139.5 317.561C84.6871 315.736 0 298.951 0 298.951V392H1280Z" fill="#99C2FF" fill-opacity="0.4"/>
<path fill-rule="evenodd" clip-rule="evenodd" d="M1280 392V341.419C1280 341.419 1225.06 330.835 1190 322.452C1153.18 313.648 1133.2 299.903 1096 297.161C1044.71 293.381 1016.74 327.657 965.5 322.452C909.529 316.766 883.047 265.72 827 262.387C776.316 259.373 749.264 286.434 699 297.161C616.334 314.804 569.405 324.548 486 322.452C376.245 319.693 317.155 254.492 207.5 262.387C125.204 268.312 0 322.452 0 322.452V392H1280Z" fill="#99C2FF" fill-opacity="0.5"/>
</svg>
