<svg width="1280" height="720" viewBox="0 0 1280 720" fill="none" xmlns="http://www.w3.org/2000/svg">
<path d="M-3.38978 612.789C-414.24 646.762 -237.268 8.19663 -237.268 8.19663L902.528 -432.716C902.528 -432.716 1581.3 43.4347 1149.28 205.165C1050.3 242.221 985.267 215.073 886.43 252.543C782.782 291.838 744.132 363.177 640.332 402.045C544.054 438.096 486.447 404.138 391.727 443.912C298.705 482.973 278.444 544.116 183.623 578.716C111.383 605.077 67.565 606.922 -3.38978 612.789Z" fill="#99C2FF" fill-opacity="0.4"/>
<path d="M12.3812 653.558C-402.334 677.538 -242.999 -6.61926 -242.999 -6.61926L896.796 -447.532C896.796 -447.532 1598.42 87.6954 1166.24 248.994C1067.22 285.952 1000.57 254.621 901.705 292.031C798.032 331.261 761.127 407.11 657.287 445.874C560.972 481.83 501.625 443.374 407.002 483.399C314.076 522.706 295.463 588.112 200.578 622.546C128.288 648.78 84.0036 649.417 12.3812 653.558Z" fill="#99C2FF" fill-opacity="0.3"/>
</svg>
