<svg width="1280" height="583" viewBox="0 0 1280 583" fill="none" xmlns="http://www.w3.org/2000/svg">
<path fill-rule="evenodd" clip-rule="evenodd" d="M1280 583V169.575C1280 169.575 1230.7 116.515 1188 99.9696C1151.7 85.9058 1127.26 79.8852 1088.5 85.9551C1061.36 90.2052 1045.1 101.69 1026.97 114.485C1016.94 121.57 1006.33 129.056 993 135.94C979.426 142.948 968.433 150.254 958.044 157.159C938.347 170.25 920.823 181.897 892 187.326C845.476 196.089 815.398 186.531 772.659 172.949C769.195 171.848 765.647 170.721 762 169.575C737.207 161.781 720.335 150.835 703.327 139.8C687.151 129.305 670.852 118.731 647.5 110.714C640.637 108.358 634.114 106.034 627.835 103.797C587.153 89.3044 556.688 78.4515 510 85.9551C482.379 90.3944 465.387 105.049 448.313 119.775C431.623 134.169 414.854 148.631 388 153.692C337.762 163.158 305.425 153.294 258.901 139.103C255.513 138.07 252.05 137.013 248.5 135.94C229.318 130.141 215.458 120.392 202.146 111.029C184.612 98.6967 168.032 87.035 141.5 85.9551C76.1768 83.2964 0 169.575 0 169.575V583H1280Z" fill="#99C2FF" fill-opacity="0.3"/>
<path fill-rule="evenodd" clip-rule="evenodd" d="M1280 583V298.075C1280 298.075 1251.77 272.79 1234 256.158C1221.6 244.559 1212.31 233.068 1203.49 222.159C1188.77 203.951 1175.35 187.361 1151 174.589C1125.64 161.289 1103.75 162.98 1081.1 164.729C1062.09 166.197 1042.55 167.706 1020 160.428C993.564 151.896 975.443 135.586 957.802 119.707C937.096 101.071 917.052 83.0289 885 78.8587C843.167 73.4158 814.841 91.1208 784.092 110.341C763.933 122.941 742.732 136.193 716 144.001C693.501 150.572 674.44 152.894 656.086 155.13C630.91 158.197 607.064 161.102 577.5 174.589C561.194 182.027 549.615 191.194 538.213 200.219C525.516 210.27 513.039 220.147 494.5 227.269C471.185 236.226 452.548 236.58 432.953 236.952C418.292 237.231 403.095 237.52 385 241.43C365.542 245.635 350.199 252.898 335.472 259.87C314.942 269.589 295.61 278.741 268 278.249C231.138 277.593 207.269 250.69 183.903 224.354C158.938 196.216 134.548 168.725 95.5 174.589C54.3785 180.764 0 227.269 0 227.269V583H1280Z" fill="#99C2FF" fill-opacity="0.4"/>
<path fill-rule="evenodd" clip-rule="evenodd" d="M1280 583V359.728C1280 359.728 1213.36 348.331 1174.5 335.418C1151.45 327.759 1136.67 317.212 1122.39 307.028C1104.52 294.284 1087.45 282.11 1056 276.881C1001.58 267.833 963.809 278.809 916.942 292.429C907.108 295.287 896.873 298.261 886 301.191C864.713 306.928 849.808 313.015 834.519 319.259C821.514 324.571 808.229 329.997 790.5 335.418C780.612 338.441 772.027 341.476 763.941 344.334C742.949 351.755 725.324 357.986 697 359.728C661.395 361.918 638.048 349.802 614.143 337.398C592.202 326.012 569.791 314.382 537 313.346C509.393 312.474 488.968 318.379 468.473 324.304C448.34 330.125 428.14 335.965 401 335.418C377.182 334.937 359.629 329.577 342.216 324.26C323.997 318.697 305.93 313.18 281 313.346C237.508 313.637 210.148 324.054 178.556 336.083C164.479 341.444 149.56 347.124 132 352.371C79.2975 368.118 0 396.513 0 396.513V583H1280Z" fill="#99C2FF" fill-opacity="0.5"/>
</svg>
