<svg width="200" height="200" viewBox="0 0 200 200" fill="none" xmlns="http://www.w3.org/2000/svg">
<path d="M163.236 94.912L94.092 36.656C91.6076 34.5666 88.7212 33.0087 85.6111 32.0784C82.5011 31.1481 79.2333 30.8652 76.0097 31.2472C72.786 31.6292 69.6748 32.6679 66.8683 34.2992C64.0617 35.9306 61.6194 38.1199 59.692 40.732L35.16 74C33.0622 76.8475 31.6269 80.1277 30.959 83.6009C30.2911 87.0742 30.4074 90.6527 31.2994 94.0752C32.1915 97.4978 33.8367 100.678 36.115 103.383C38.3933 106.088 41.2471 108.251 44.468 109.712L129.532 148.308C133.63 150.167 138.074 151.137 142.574 151.155C147.074 151.173 151.526 150.238 155.638 148.411C159.75 146.585 163.429 143.908 166.433 140.558C169.436 137.207 171.696 133.259 173.064 128.972C174.982 122.96 175.072 116.513 173.322 110.45C171.573 104.386 168.062 98.9784 163.236 94.912Z" fill="#3D8AED"/>
<path opacity="0.9" d="M163.236 94.912L94.092 36.656C91.6076 34.5666 88.7212 33.0087 85.6111 32.0784C82.5011 31.1481 79.2333 30.8652 76.0097 31.2472C72.786 31.6292 69.6748 32.6679 66.8683 34.2992C64.0617 35.9306 61.6194 38.1199 59.692 40.732L35.16 74C33.0622 76.8475 31.6269 80.1277 30.959 83.6009C30.2911 87.0742 30.4074 90.6527 31.2994 94.0752C32.1915 97.4978 33.8367 100.678 36.115 103.383C38.3933 106.088 41.2471 108.251 44.468 109.712L129.532 148.308C133.63 150.167 138.074 151.137 142.574 151.155C147.074 151.173 151.526 150.238 155.638 148.411C159.75 146.585 163.429 143.908 166.433 140.558C169.436 137.207 171.696 133.259 173.064 128.972C174.982 122.96 175.072 116.513 173.322 110.45C171.573 104.386 168.062 98.9784 163.236 94.912Z" fill="white"/>
<path d="M98.072 169.484C140.905 169.484 175.628 167.457 175.628 164.956C175.628 162.455 140.905 160.428 98.072 160.428C55.239 160.428 20.516 162.455 20.516 164.956C20.516 167.457 55.239 169.484 98.072 169.484Z" fill="#F5F5F5"/>
<path d="M150.676 67.82H152.436V62.692H150.676V67.82Z" fill="#263238"/>
<path d="M145.808 59.78C145.883 59.085 146.215 58.4431 146.739 57.9805C147.263 57.5179 147.941 57.268 148.64 57.28C148.816 57.28 150.004 57.28 150.22 57.28C150.407 57.2748 150.595 57.2855 150.78 57.312C151.356 57.392 151.844 57.444 152.304 57.472C152.764 57.5 153.268 57.392 153.868 57.312C154.08 57.284 155.776 57.28 155.924 57.28C157.392 57.28 158.396 58.2 158.232 59.78V59.86C158.052 61.6 156.496 63.46 154.744 63.704C153.686 63.8708 152.614 63.9271 151.544 63.872C150.482 63.9297 149.418 63.8734 148.368 63.704C146.676 63.472 145.568 61.6 145.824 59.86L145.808 59.78Z" fill="#263238"/>
<path d="M157.86 65.02C157.628 65.02 156.544 65 156.204 65.02C155.914 65.0359 155.627 65.0829 155.348 65.16C154.016 65.5442 152.649 65.7948 151.268 65.908C149.946 65.8008 148.64 65.55 147.372 65.16C147.021 65.059 146.657 65.0105 146.292 65.016C146.048 65.016 145.02 65.016 144.748 65.016C144.12 64.9997 143.509 65.2249 143.042 65.6454C142.574 66.0658 142.286 66.6494 142.236 67.276L139.812 83.276H154.76C156.113 83.2794 157.437 82.8812 158.564 82.132C159.031 77.18 159.497 72.2293 159.964 67.28C160.108 65.756 159.224 64.968 157.86 65.02Z" fill="#263238"/>
<path opacity="0.2" d="M148.34 63.704C149.929 63.9645 151.551 63.9645 153.14 63.704C154.892 63.472 156.448 61.6 156.628 59.86V59.78C156.808 58.04 155.572 57.084 153.864 57.312C152.311 57.564 150.729 57.564 149.176 57.312C148.791 57.2391 148.395 57.246 148.013 57.3323C147.631 57.4187 147.27 57.5827 146.954 57.8141C146.638 58.0455 146.373 58.3394 146.175 58.6776C145.977 59.0158 145.851 59.391 145.804 59.78V59.86C145.548 61.6 146.648 63.472 148.34 63.704Z" fill="white"/>
<path opacity="0.2" d="M155.348 65.16C151.46 66.196 149.404 66.196 145.772 65.16C144.032 64.664 142.512 65.44 142.236 67.276L139.812 83.276H154.76C155.484 83.2756 156.203 83.1622 156.892 82.94C157.38 77.7187 157.871 72.4987 158.364 67.28C158.536 65.44 157.2 64.664 155.348 65.16Z" fill="white"/>
<path d="M131.356 75.364L128.6 75.628L124.38 74.636L122.848 77.16L123.832 77.664L125.208 77.24L127.108 77.616L128.82 77.348L132.072 77.428L131.356 75.364Z" fill="#FFC3BD"/>
<path d="M130.24 75.26L130.896 77.616C130.896 77.616 135.648 78.26 137.516 77.444C139.384 76.628 137.972 62.836 136.176 62.988C134.38 63.14 135.376 70.768 135.376 73.164C135.368 74.996 130.24 75.26 130.24 75.26Z" fill="#3D8AED"/>
<path opacity="0.7" d="M130.24 75.26L130.896 77.616C130.896 77.616 135.648 78.26 137.516 77.444C139.384 76.628 137.972 62.836 136.176 62.988C134.38 63.14 135.376 70.768 135.376 73.164C135.368 74.996 130.24 75.26 130.24 75.26Z" fill="white"/>
<path d="M135.82 63.008C134.02 65.58 138.16 69.624 138.244 83.272H151.6C152 79.588 153.368 65.136 151.444 62.408C149.232 59.28 137.536 60.552 135.82 63.008Z" fill="#3D8AED"/>
<path d="M140.14 60.568C140.14 60.568 136.94 61.768 139.836 64.6L141.38 63.968L143.6 64.6C143.6 64.6 149.228 58.4 140.14 60.568Z" fill="#3D8AED"/>
<path opacity="0.7" d="M140.14 60.568C140.14 60.568 136.94 61.768 139.836 64.6L141.38 63.968L143.6 64.6C143.6 64.6 149.228 58.4 140.14 60.568Z" fill="white"/>
<path d="M140.584 63.46C139.784 62.816 138.888 61.832 139.66 61.188C141.249 60.8125 142.872 60.6047 144.504 60.568C144.956 60.864 144.704 61.64 142.292 63.484C142.046 63.673 141.744 63.7735 141.434 63.7691C141.124 63.7648 140.824 63.6558 140.584 63.46Z" fill="#FFC3BD"/>
<path d="M139.764 59.384L142.444 56.476C142.7 58.708 143.888 60.536 144.128 60.612L143.836 61.632C140.588 65.284 139.836 61.78 139.836 61.78C140.628 61.116 139.764 59.384 139.764 59.384Z" fill="#FFC3BD"/>
<path opacity="0.2" d="M141.372 57.64L142.62 57.516C142.62 57.516 142.568 61.26 140.004 61.58C140.48 60.824 139.764 59.384 139.764 59.384L141.372 57.64Z" fill="#263238"/>
<path d="M142.08 53.272C142.66 55.92 143.136 57.432 142.22 59.184C141.928 59.7554 141.485 60.236 140.939 60.5741C140.393 60.9121 139.766 61.0947 139.124 61.1021C138.482 61.1095 137.85 60.9415 137.297 60.6161C136.743 60.2908 136.29 59.8205 135.984 59.256C134.784 57.104 134.02 53.14 136.24 51.296C136.71 50.8849 137.279 50.6045 137.892 50.4828C138.504 50.361 139.138 50.4023 139.729 50.6024C140.32 50.8025 140.849 51.1544 141.261 51.6229C141.674 52.0914 141.956 52.6601 142.08 53.272Z" fill="#FFC3BD"/>
<path d="M138.4 55.256C138.46 55.468 138.4 55.656 138.256 55.708C138.112 55.76 137.96 55.616 137.9 55.404C137.84 55.192 137.9 55.004 138.044 54.956C138.188 54.908 138.336 55.048 138.4 55.256Z" fill="#263238"/>
<path d="M136.032 56.02C136.096 56.232 136.032 56.42 135.892 56.468C135.752 56.516 135.596 56.376 135.532 56.164C135.468 55.952 135.532 55.764 135.68 55.716C135.828 55.668 135.972 55.808 136.032 56.02Z" fill="#263238"/>
<path d="M138.904 54.252C138.924 54.2451 138.943 54.2357 138.96 54.224C138.984 54.2 138.997 54.1677 138.997 54.134C138.997 54.1003 138.984 54.068 138.96 54.044C138.798 53.9184 138.609 53.8338 138.408 53.7976C138.206 53.7613 137.999 53.7745 137.804 53.836C137.772 53.8477 137.746 53.8715 137.732 53.9023C137.718 53.933 137.716 53.9682 137.728 54C137.733 54.0161 137.742 54.0309 137.753 54.0435C137.764 54.0562 137.778 54.0664 137.794 54.0735C137.809 54.0806 137.826 54.0845 137.842 54.0849C137.859 54.0854 137.876 54.0823 137.892 54.076C138.044 54.0289 138.205 54.0188 138.361 54.0467C138.518 54.0745 138.666 54.1394 138.792 54.236C138.808 54.248 138.826 54.2558 138.846 54.2586C138.865 54.2614 138.885 54.2591 138.904 54.252Z" fill="#263238"/>
<path d="M134.8 55.524C134.819 55.5168 134.836 55.5044 134.849 55.4881C134.862 55.4719 134.87 55.4525 134.872 55.432C134.894 55.2665 134.954 55.1082 135.047 54.9695C135.14 54.8307 135.263 54.7153 135.408 54.632C135.436 54.6118 135.456 54.5814 135.463 54.5472C135.469 54.5129 135.463 54.4774 135.444 54.448C135.427 54.4267 135.405 54.4105 135.379 54.4013C135.354 54.3921 135.326 54.3902 135.3 54.396C135.12 54.4953 134.965 54.6352 134.847 54.8045C134.73 54.9739 134.654 55.1681 134.624 55.372C134.618 55.4054 134.626 55.4398 134.645 55.4675C134.665 55.4953 134.695 55.5141 134.728 55.52C134.739 55.5257 134.751 55.529 134.764 55.5297C134.776 55.5304 134.788 55.5284 134.8 55.524Z" fill="#263238"/>
<path d="M138.58 58.592C138.462 58.6244 138.342 58.6485 138.22 58.664C138.211 58.6657 138.201 58.6655 138.192 58.6633C138.183 58.6612 138.174 58.6572 138.167 58.6515C138.159 58.6459 138.153 58.6388 138.148 58.6306C138.144 58.6224 138.141 58.6133 138.14 58.604C138.138 58.5844 138.143 58.5647 138.155 58.5491C138.167 58.5334 138.185 58.523 138.204 58.52C138.512 58.4881 138.807 58.3843 139.067 58.2168C139.327 58.0493 139.544 57.8229 139.7 57.556C139.704 57.5472 139.709 57.5394 139.716 57.533C139.723 57.5265 139.732 57.5216 139.741 57.5186C139.75 57.5156 139.759 57.5145 139.769 57.5154C139.778 57.5164 139.788 57.5193 139.796 57.524C139.805 57.5279 139.813 57.5335 139.819 57.5404C139.826 57.5474 139.831 57.5555 139.834 57.5645C139.837 57.5734 139.839 57.5829 139.839 57.5924C139.838 57.602 139.836 57.6113 139.832 57.62C139.698 57.8569 139.519 58.0649 139.304 58.2318C139.089 58.3986 138.843 58.5211 138.58 58.592Z" fill="#263238"/>
<path d="M136.856 55.884C136.789 56.6111 136.628 57.3265 136.376 58.012C136.55 58.0695 136.734 58.0882 136.916 58.0667C137.097 58.0453 137.272 57.9843 137.428 57.888L136.856 55.884Z" fill="#ED893E"/>
<path d="M140.64 49.312C132.112 47.672 134.608 54.62 134.608 54.62C134.608 54.62 134.672 53.42 135.784 53.42C136.555 53.3585 137.286 53.0531 137.872 52.548C137.478 53.0227 136.96 53.3786 136.376 53.576C137.129 53.5825 137.872 53.3985 138.535 53.0412C139.198 52.6838 139.759 52.1647 140.168 51.532C140.208 51.7272 140.233 51.9251 140.244 52.124C140.244 53.1 141.044 53.628 141.444 54.96C141.844 56.292 143.424 54.96 143.424 54.96C145.632 49.276 140.64 49.312 140.64 49.312Z" fill="#263238"/>
<path d="M143.68 55.152C143.668 55.7574 143.428 56.3361 143.008 56.772C142.456 57.336 141.808 56.912 141.676 56.164C141.544 55.488 141.676 54.388 142.384 54.108C143.092 53.828 143.688 54.4 143.68 55.152Z" fill="#FFC3BD"/>
<path d="M140.8 49.696C140.8 49.696 138.996 47.496 137.748 48.096C136.5 48.696 140 48.8 140.8 49.696Z" fill="#263238"/>
<path d="M140.644 75.824L137.888 76.088L133.668 74.672L131.716 76.776L132.696 77.276H134.496L136.4 78.0719L138.108 77.808L141.36 77.888L140.644 75.824Z" fill="#FFC3BD"/>
<path d="M150.768 62.184C149.884 61.58 148.936 62.184 147.968 67.688C146.828 74.244 146.072 74.54 139.52 75.716L140.232 78.072C140.232 78.072 145.832 78.764 148.532 77.004C151.232 75.244 153.16 63.816 150.768 62.184Z" fill="#3D8AED"/>
<path opacity="0.7" d="M150.768 62.184C149.884 61.58 148.936 62.184 147.968 67.688C146.828 74.244 146.072 74.54 139.52 75.716L140.232 78.072C140.232 78.072 145.832 78.764 148.532 77.004C151.232 75.244 153.16 63.816 150.768 62.184Z" fill="white"/>
<path d="M142.8 78.732H106.244C106.48 79.3747 106.81 79.9786 107.224 80.524H142.8C143.038 80.524 143.266 80.4296 143.434 80.2616C143.602 80.0935 143.696 79.8656 143.696 79.628C143.696 79.3904 143.602 79.1625 143.434 78.9944C143.266 78.8264 143.038 78.732 142.8 78.732Z" fill="#263238"/>
<path opacity="0.6" d="M142.8 78.732H106.244C106.48 79.3747 106.81 79.9786 107.224 80.524H142.8C143.038 80.524 143.266 80.4296 143.434 80.2616C143.602 80.0935 143.696 79.8656 143.696 79.628C143.696 79.3904 143.602 79.1625 143.434 78.9944C143.266 78.8264 143.038 78.732 142.8 78.732Z" fill="white"/>
<path d="M112.724 83.272H141.96V80.524H107.224C107.864 81.3776 108.695 82.0704 109.65 82.5474C110.604 83.0244 111.657 83.2724 112.724 83.272Z" fill="#263238"/>
<path opacity="0.4" d="M112.724 83.272H141.96V80.524H107.224C107.864 81.3776 108.695 82.0704 109.65 82.5474C110.604 83.0244 111.657 83.2724 112.724 83.272Z" fill="white"/>
<path d="M137.164 77.568H115.864C115.718 77.5801 115.582 77.6467 115.483 77.7545C115.383 77.8623 115.328 78.0035 115.328 78.15C115.328 78.2965 115.383 78.4377 115.483 78.5455C115.582 78.6533 115.718 78.7199 115.864 78.732H137.164C137.245 78.7387 137.326 78.7286 137.402 78.7024C137.478 78.6761 137.548 78.6344 137.608 78.5797C137.667 78.525 137.715 78.4585 137.747 78.3846C137.78 78.3106 137.796 78.2307 137.796 78.15C137.796 78.0692 137.78 77.9893 137.747 77.9154C137.715 77.8414 137.667 77.775 137.608 77.7203C137.548 77.6656 137.478 77.6238 137.402 77.5976C137.326 77.5714 137.245 77.5613 137.164 77.568Z" fill="#263238"/>
<path opacity="0.3" d="M137.164 77.568H115.864C115.718 77.5801 115.582 77.6467 115.483 77.7545C115.383 77.8623 115.328 78.0035 115.328 78.15C115.328 78.2965 115.383 78.4377 115.483 78.5455C115.582 78.6533 115.718 78.7199 115.864 78.732H137.164C137.245 78.7387 137.326 78.7286 137.402 78.7024C137.478 78.6761 137.548 78.6344 137.608 78.5797C137.667 78.525 137.715 78.4585 137.747 78.3846C137.78 78.3106 137.796 78.2307 137.796 78.15C137.796 78.0692 137.78 77.9893 137.747 77.9154C137.715 77.8414 137.667 77.775 137.608 77.7203C137.548 77.6656 137.478 77.6238 137.402 77.5976C137.326 77.5714 137.245 77.5613 137.164 77.568Z" fill="white"/>
<path d="M116.18 78.376H123.46C123.504 78.376 123.548 78.3653 123.587 78.345C123.626 78.3247 123.66 78.2953 123.685 78.2592C123.711 78.2232 123.727 78.1816 123.733 78.1379C123.739 78.0941 123.735 78.0496 123.72 78.008L119.72 66.604C119.667 66.4501 119.567 66.3167 119.435 66.2227C119.302 66.1286 119.143 66.0787 118.98 66.08H111.7C111.656 66.0793 111.613 66.0894 111.573 66.1092C111.534 66.129 111.5 66.1581 111.475 66.1939C111.449 66.2297 111.433 66.2711 111.427 66.3147C111.42 66.3582 111.425 66.4026 111.44 66.444L115.44 77.852C115.496 78.004 115.596 78.1354 115.729 78.229C115.861 78.3225 116.018 78.3738 116.18 78.376Z" fill="#263238"/>
<path opacity="0.5" d="M116.18 78.376H123.46C123.504 78.376 123.548 78.3653 123.587 78.345C123.626 78.3247 123.66 78.2953 123.685 78.2592C123.711 78.2232 123.727 78.1816 123.733 78.1379C123.739 78.0941 123.735 78.0496 123.72 78.008L119.72 66.604C119.667 66.4501 119.567 66.3167 119.435 66.2227C119.302 66.1286 119.143 66.0787 118.98 66.08H111.7C111.656 66.0793 111.613 66.0894 111.573 66.1092C111.534 66.129 111.5 66.1581 111.475 66.1939C111.449 66.2297 111.433 66.2711 111.427 66.3147C111.42 66.3582 111.425 66.4026 111.44 66.444L115.44 77.852C115.496 78.004 115.596 78.1354 115.729 78.229C115.861 78.3225 116.018 78.3738 116.18 78.376Z" fill="white"/>
<path d="M115.828 78.376H123.112C123.156 78.3751 123.199 78.3639 123.238 78.3433C123.276 78.3228 123.31 78.2934 123.335 78.2576C123.36 78.2218 123.377 78.1806 123.383 78.1372C123.39 78.0939 123.386 78.0496 123.372 78.008L119.372 66.604C119.319 66.4501 119.219 66.3167 119.086 66.2227C118.954 66.1286 118.795 66.0787 118.632 66.08H111.352C111.308 66.0802 111.265 66.0908 111.227 66.1109C111.188 66.131 111.154 66.16 111.129 66.1956C111.104 66.2311 111.087 66.2721 111.081 66.3153C111.074 66.3585 111.078 66.4026 111.092 66.444L115.092 77.852C115.148 78.0033 115.248 78.1343 115.379 78.2278C115.51 78.3213 115.667 78.373 115.828 78.376Z" fill="#263238"/>
<path opacity="0.7" d="M115.828 78.376H123.112C123.156 78.3751 123.199 78.3639 123.238 78.3433C123.276 78.3228 123.31 78.2934 123.335 78.2576C123.36 78.2218 123.377 78.1806 123.383 78.1372C123.39 78.0939 123.386 78.0496 123.372 78.008L119.372 66.604C119.319 66.4501 119.219 66.3167 119.086 66.2227C118.954 66.1286 118.795 66.0787 118.632 66.08H111.352C111.308 66.0802 111.265 66.0908 111.227 66.1109C111.188 66.131 111.154 66.16 111.129 66.1956C111.104 66.2311 111.087 66.2721 111.081 66.3153C111.074 66.3585 111.078 66.4026 111.092 66.444L115.092 77.852C115.148 78.0033 115.248 78.1343 115.379 78.2278C115.51 78.3213 115.667 78.373 115.828 78.376Z" fill="white"/>
<path d="M116.644 72.228C116.736 72.664 117.044 73.028 117.32 73.028C117.596 73.028 117.748 72.672 117.656 72.228C117.564 71.784 117.256 71.428 116.98 71.428C116.704 71.428 116.552 71.788 116.644 72.228Z" fill="white"/>
<path opacity="0.2" d="M124.4 78.732C124.254 78.7199 124.118 78.6533 124.019 78.5455C123.919 78.4377 123.864 78.2965 123.864 78.15C123.864 78.0035 123.919 77.8623 124.019 77.7545C124.118 77.6467 124.254 77.5801 124.4 77.568H137.168C137.248 77.5613 137.329 77.5714 137.406 77.5976C137.482 77.6238 137.552 77.6656 137.612 77.7203C137.671 77.775 137.719 77.8414 137.751 77.9154C137.784 77.9893 137.8 78.0692 137.8 78.15C137.8 78.2307 137.784 78.3106 137.751 78.3846C137.719 78.4585 137.671 78.525 137.612 78.5797C137.552 78.6344 137.482 78.6761 137.406 78.7024C137.329 78.7286 137.248 78.7387 137.168 78.732H124.4Z" fill="white"/>
<path d="M111.46 59.548H110V62.728H111.46V59.548Z" fill="#3D8AED"/>
<path d="M128.948 59.548H127.488V62.728H128.948V59.548Z" fill="#3D8AED"/>
<path d="M120.18 53.4H120.008C120.352 48.292 119.608 46.632 118.896 46.14C118.787 46.0562 118.66 46.0001 118.525 45.9764C118.39 45.9527 118.251 45.9622 118.12 46.004L118.052 45.848C118.209 45.7925 118.377 45.7773 118.541 45.8038C118.706 45.8304 118.861 45.8979 118.992 46C119.728 46.508 120.528 48.212 120.18 53.4Z" fill="#3D8AED"/>
<path d="M119.2 52.884C119.032 48.54 119.784 46.916 120.448 46.324C120.551 46.2163 120.675 46.1317 120.813 46.0758C120.951 46.02 121.099 45.9941 121.248 46L121.224 46.172C121.1 46.1705 120.978 46.1955 120.865 46.2452C120.752 46.2948 120.651 46.3681 120.568 46.46C119.94 47.036 119.224 48.616 119.388 52.86L119.2 52.884Z" fill="#3D8AED"/>
<path d="M119.94 52.884H119.772C119.948 50.276 119.624 48.724 118.84 48.396C117.812 47.964 116.28 49.68 116.264 49.7L116.136 49.584C116.2 49.512 117.764 47.76 118.904 48.236C119.776 48.588 120.128 50.156 119.94 52.884Z" fill="#3D8AED"/>
<path d="M119.508 53.052C119.508 51.452 119.84 50.456 120.5 50.112C121.24 49.712 122.1 50.296 122.136 50.324L122.036 50.464C122.036 50.464 121.236 49.92 120.58 50.264C119.924 50.608 119.68 51.516 119.68 53.064L119.508 53.052Z" fill="#3D8AED"/>
<g opacity="0.2">
<path opacity="0.2" d="M120.18 53.4H120.008C120.352 48.292 119.608 46.632 118.896 46.14C118.787 46.0562 118.66 46.0001 118.525 45.9764C118.39 45.9527 118.251 45.9622 118.12 46.004L118.052 45.848C118.209 45.7925 118.377 45.7773 118.541 45.8038C118.706 45.8304 118.861 45.8979 118.992 46C119.728 46.508 120.528 48.212 120.18 53.4Z" fill="black"/>
<path opacity="0.2" d="M119.2 52.884C119.032 48.54 119.784 46.916 120.448 46.324C120.551 46.2163 120.675 46.1317 120.813 46.0758C120.951 46.02 121.099 45.9941 121.248 46L121.224 46.172C121.1 46.1706 120.978 46.1955 120.865 46.2452C120.752 46.2948 120.651 46.3681 120.568 46.46C119.94 47.036 119.224 48.616 119.388 52.86L119.2 52.884Z" fill="black"/>
<path opacity="0.2" d="M119.94 52.884H119.772C119.948 50.276 119.624 48.724 118.84 48.396C117.812 47.964 116.28 49.68 116.264 49.7L116.136 49.584C116.2 49.512 117.764 47.76 118.904 48.236C119.776 48.588 120.128 50.156 119.94 52.884Z" fill="black"/>
<path opacity="0.2" d="M119.508 53.052C119.508 51.452 119.84 50.456 120.5 50.112C121.24 49.712 122.1 50.296 122.136 50.324L122.036 50.464C122.036 50.464 121.236 49.92 120.58 50.264C119.924 50.608 119.68 51.516 119.68 53.064L119.508 53.052Z" fill="black"/>
</g>
<path d="M115.632 52.592L116.368 56.8C116.449 57.2647 116.692 57.6859 117.054 57.9889C117.415 58.2919 117.872 58.4574 118.344 58.456H121.272C121.744 58.4574 122.201 58.2919 122.562 57.9889C122.924 57.6859 123.167 57.2647 123.248 56.8L124 52.592H115.632Z" fill="#263238"/>
<path opacity="0.3" d="M115.632 52.592L116.368 56.8C116.449 57.2647 116.692 57.6859 117.054 57.9889C117.415 58.2919 117.872 58.4574 118.344 58.456H121.272C121.744 58.4574 122.201 58.2919 122.562 57.9889C122.924 57.6859 123.167 57.2647 123.248 56.8L124 52.592H115.632Z" fill="white"/>
<path d="M118.424 45.88C118.424 45.88 120.164 42.96 117.104 42.92C116.665 42.9168 116.227 42.9761 115.804 43.096C116.204 43.368 116.844 43.864 116.512 43.988C116.18 44.112 114.912 43.868 114.328 43.736C113.332 44.3513 112.455 45.1413 111.74 46.068C112.358 46.6496 113.019 47.1844 113.716 47.668C114.02 47.364 114.48 46.984 114.744 47.132C115.008 47.28 115.292 48.1 115.464 48.68C116.038 48.9575 116.65 49.1463 117.28 49.24C117.28 48.776 117.28 48.04 117.496 47.9C117.712 47.76 118.532 48.552 118.988 49.02C121.324 48 118.424 45.88 118.424 45.88Z" fill="#3D8AED"/>
<path opacity="0.1" d="M118.424 45.88C118.424 45.88 120.164 42.96 117.104 42.92C116.665 42.9168 116.227 42.9761 115.804 43.096C116.204 43.368 116.844 43.864 116.512 43.988C116.18 44.112 114.912 43.868 114.328 43.736C113.332 44.3513 112.455 45.1413 111.74 46.068C112.358 46.6496 113.019 47.1844 113.716 47.668C114.02 47.364 114.48 46.984 114.744 47.132C115.008 47.28 115.292 48.1 115.464 48.68C116.038 48.9575 116.65 49.1463 117.28 49.24C117.28 48.776 117.28 48.04 117.496 47.9C117.712 47.76 118.532 48.552 118.988 49.02C121.324 48 118.424 45.88 118.424 45.88Z" fill="white"/>
<path opacity="0.3" d="M118.424 45.88C118.424 45.88 120.164 42.96 117.104 42.92C116.665 42.9168 116.227 42.9761 115.804 43.096C116.204 43.368 116.844 43.864 116.512 43.988C116.18 44.112 114.912 43.868 114.328 43.736C113.332 44.3514 112.455 45.1413 111.74 46.068C115.072 44.652 118.424 45.88 118.424 45.88Z" fill="white"/>
<path d="M122.044 47.856C122.364 47.764 122.764 48.408 122.972 48.792C123.644 48.4923 124.264 48.0872 124.808 47.592C124.66 47.264 124.492 46.816 124.6 46.644C124.708 46.472 125.288 46.608 125.704 46.736C126.081 46.3405 126.433 45.9209 126.756 45.48C126.439 45.224 126.103 44.9914 125.752 44.784C125.152 44.852 124.304 44.904 124.096 44.696C123.888 44.488 124.348 44.296 124.68 44.236C124.122 43.9894 123.532 43.8237 122.928 43.744C122.848 44.016 122.672 44.436 122.348 44.436C122.024 44.436 121.684 44.072 121.46 43.804C118.956 44.344 120.944 46.136 120.944 46.136C120.944 46.136 118.788 48.696 121.344 49.036C121.484 48.608 121.74 47.944 122.044 47.856Z" fill="#3D8AED"/>
<path opacity="0.2" d="M122.044 47.856C122.364 47.764 122.764 48.408 122.972 48.792C123.644 48.4923 124.264 48.0872 124.808 47.592C124.66 47.264 124.492 46.816 124.6 46.644C124.708 46.472 125.288 46.608 125.704 46.736C126.081 46.3405 126.433 45.9209 126.756 45.48C126.439 45.224 126.103 44.9914 125.752 44.784C125.152 44.852 124.304 44.904 124.096 44.696C123.888 44.488 124.348 44.296 124.68 44.236C124.122 43.9894 123.532 43.8237 122.928 43.744C122.848 44.016 122.672 44.436 122.348 44.436C122.024 44.436 121.684 44.072 121.46 43.804C118.956 44.344 120.944 46.136 120.944 46.136C120.944 46.136 118.788 48.696 121.344 49.036C121.484 48.608 121.74 47.944 122.044 47.856Z" fill="white"/>
<path opacity="0.3" d="M124.096 44.708C123.876 44.488 124.348 44.308 124.68 44.248C124.122 44.0014 123.532 43.8357 122.928 43.756C122.848 44.028 122.672 44.448 122.348 44.448C122.024 44.448 121.684 44.084 121.46 43.816C118.956 44.356 120.944 46.148 120.944 46.148C120.944 46.148 124.196 44.948 126.756 45.492C126.439 45.236 126.103 45.0034 125.752 44.796C125.152 44.864 124.304 44.916 124.096 44.708Z" fill="white"/>
<path d="M125.708 50.104C125.36 50.292 124.692 50.596 124.424 50.328C124.156 50.06 124.564 48.928 124.768 48.46C124.458 48.0727 124.064 47.7609 123.616 47.548C120.896 46.348 121.82 50.252 121.82 50.252C121.82 50.252 118.4 51.08 120.6 53.2C120.762 53.3444 120.933 53.478 121.112 53.6C121.284 53.2 121.62 52.524 121.956 52.616C122.292 52.708 122.164 53.576 122.052 54.116C122.63 54.3534 123.239 54.5096 123.86 54.58C123.94 54.18 124.092 53.696 124.336 53.708C124.58 53.72 124.936 54.272 125.136 54.652C125.651 54.6483 126.165 54.6015 126.672 54.512C126.56 53.0045 126.236 51.5204 125.708 50.104Z" fill="#3D8AED"/>
<path opacity="0.2" d="M121.82 50.252C121.82 50.252 118.4 51.08 120.6 53.2C120.762 53.3444 120.933 53.478 121.112 53.6C121.284 53.2 121.62 52.524 121.956 52.616C122.292 52.708 122.164 53.576 122.052 54.116C122.63 54.3534 123.239 54.5096 123.86 54.58C123.94 54.18 124.092 53.696 124.336 53.708C124.58 53.72 124.936 54.272 125.136 54.652C125.651 54.6483 126.165 54.6015 126.672 54.512C126.195 53.5095 125.519 52.6147 124.685 51.8822C123.851 51.1498 122.876 50.5951 121.82 50.252Z" fill="white"/>
<path d="M116.484 49.42C116.484 49.42 114.644 46.376 113.284 49.12C113.073 49.5557 112.93 50.021 112.86 50.5C113.424 50.252 114.632 49.796 114.648 50.412C114.664 51.028 113.372 52.352 112.936 52.756C113.113 53.6474 113.412 54.5101 113.824 55.32C114.382 55.1 114.927 54.849 115.456 54.568C115.508 54.076 115.648 53.1 116.012 52.884C116.376 52.668 116.656 53.452 116.748 53.812C117.325 53.44 117.861 53.0083 118.348 52.524C117.996 52.124 117.512 51.484 117.656 51.156C117.8 50.828 118.804 50.952 119.356 51.068C119.457 50.829 119.524 50.5773 119.556 50.32C119.912 47.364 116.484 49.42 116.484 49.42Z" fill="#3D8AED"/>
<path opacity="0.2" d="M113.832 55.32C114.39 55.1 114.934 54.849 115.464 54.568C115.516 54.076 115.656 53.1 116.02 52.884C116.384 52.668 116.664 53.452 116.756 53.812C117.333 53.44 117.869 53.0083 118.356 52.524C118.004 52.124 117.52 51.484 117.664 51.156C117.808 50.828 118.812 50.952 119.364 51.068C119.465 50.829 119.532 50.5773 119.564 50.32C119.904 47.364 116.476 49.42 116.476 49.42C116.476 49.42 114.456 51.312 113.832 55.32Z" fill="white"/>
<path d="M130.752 58.092H108.2V59.888H130.752V58.092Z" fill="#3D8AED"/>
<path opacity="0.3" d="M130.752 58.092H108.2V59.888H130.752V58.092Z" fill="white"/>
<path d="M154.76 30.336H112.724C110.446 30.3392 108.263 31.2454 106.652 32.856C105.041 34.4667 104.135 36.6502 104.132 38.928V76.372C104.134 78.6501 105.04 80.8343 106.651 82.4451C108.262 84.056 110.446 84.9619 112.724 84.964H154.76C157.038 84.9619 159.222 84.056 160.833 82.4451C162.444 80.8343 163.35 78.6501 163.352 76.372V38.928C163.349 36.6502 162.443 34.4667 160.832 32.856C159.221 31.2454 157.038 30.3392 154.76 30.336ZM161.66 76.372C161.66 78.202 160.933 79.957 159.639 81.251C158.345 82.545 156.59 83.272 154.76 83.272H112.724C110.894 83.272 109.139 82.545 107.845 81.251C106.551 79.957 105.824 78.202 105.824 76.372V38.928C105.824 37.098 106.551 35.343 107.845 34.049C109.139 32.755 110.894 32.028 112.724 32.028H154.76C156.59 32.028 158.345 32.755 159.639 34.049C160.933 35.343 161.66 37.098 161.66 38.928V76.372Z" fill="#3D8AED"/>
<path opacity="0.4" d="M154.76 30.336H112.724C110.446 30.3392 108.263 31.2454 106.652 32.856C105.041 34.4667 104.135 36.6502 104.132 38.928V76.372C104.134 78.6501 105.04 80.8343 106.651 82.4451C108.262 84.056 110.446 84.9619 112.724 84.964H154.76C157.038 84.9619 159.222 84.056 160.833 82.4451C162.444 80.8343 163.35 78.6501 163.352 76.372V38.928C163.349 36.6502 162.443 34.4667 160.832 32.856C159.221 31.2454 157.038 30.3392 154.76 30.336ZM161.66 76.372C161.66 78.202 160.933 79.957 159.639 81.251C158.345 82.545 156.59 83.272 154.76 83.272H112.724C110.894 83.272 109.139 82.545 107.845 81.251C106.551 79.957 105.824 78.202 105.824 76.372V38.928C105.824 37.098 106.551 35.343 107.845 34.049C109.139 32.755 110.894 32.028 112.724 32.028H154.76C156.59 32.028 158.345 32.755 159.639 34.049C160.933 35.343 161.66 37.098 161.66 38.928V76.372Z" fill="white"/>
<path d="M149.6 43.952H144.332C143.769 43.952 143.312 44.4087 143.312 44.972V45.9C143.312 46.4633 143.769 46.92 144.332 46.92H149.6C150.163 46.92 150.62 46.4633 150.62 45.9V44.972C150.62 44.4087 150.163 43.952 149.6 43.952Z" fill="#3D8AED"/>
<path d="M154.192 40.28H148.924C148.361 40.28 147.904 40.7367 147.904 41.3V42.228C147.904 42.7913 148.361 43.248 148.924 43.248H154.192C154.755 43.248 155.212 42.7913 155.212 42.228V41.3C155.212 40.7367 154.755 40.28 154.192 40.28Z" fill="#3D8AED"/>
<path d="M152.54 47.624H147.272C146.709 47.624 146.252 48.0807 146.252 48.644V49.572C146.252 50.1353 146.709 50.592 147.272 50.592H152.54C153.103 50.592 153.56 50.1353 153.56 49.572V48.644C153.56 48.0807 153.103 47.624 152.54 47.624Z" fill="#3D8AED"/>
<path d="M157.844 43.952H152.576C152.013 43.952 151.556 44.4087 151.556 44.972V45.9C151.556 46.4633 152.013 46.92 152.576 46.92H157.844C158.407 46.92 158.864 46.4633 158.864 45.9V44.972C158.864 44.4087 158.407 43.952 157.844 43.952Z" fill="#3D8AED"/>
<path opacity="0.7" d="M149.6 43.952H144.332C143.769 43.952 143.312 44.4087 143.312 44.972V45.9C143.312 46.4633 143.769 46.92 144.332 46.92H149.6C150.163 46.92 150.62 46.4633 150.62 45.9V44.972C150.62 44.4087 150.163 43.952 149.6 43.952Z" fill="white"/>
<path opacity="0.8" d="M154.192 40.28H148.924C148.361 40.28 147.904 40.7367 147.904 41.3V42.228C147.904 42.7913 148.361 43.248 148.924 43.248H154.192C154.755 43.248 155.212 42.7913 155.212 42.228V41.3C155.212 40.7367 154.755 40.28 154.192 40.28Z" fill="white"/>
<path opacity="0.8" d="M152.54 47.624H147.272C146.709 47.624 146.252 48.0807 146.252 48.644V49.572C146.252 50.1353 146.709 50.592 147.272 50.592H152.54C153.103 50.592 153.56 50.1353 153.56 49.572V48.644C153.56 48.0807 153.103 47.624 152.54 47.624Z" fill="white"/>
<path opacity="0.7" d="M157.844 43.952H152.576C152.013 43.952 151.556 44.4087 151.556 44.972V45.9C151.556 46.4633 152.013 46.92 152.576 46.92H157.844C158.407 46.92 158.864 46.4633 158.864 45.9V44.972C158.864 44.4087 158.407 43.952 157.844 43.952Z" fill="white"/>
<path d="M136.52 39.928H141.788C142.351 39.928 142.808 39.4713 142.808 38.908V37.98C142.808 37.4167 142.351 36.96 141.788 36.96H136.52C135.957 36.96 135.5 37.4167 135.5 37.98V38.908C135.5 39.4713 135.957 39.928 136.52 39.928Z" fill="#3D8AED"/>
<path d="M133.572 43.6H138.84C139.403 43.6 139.86 43.1433 139.86 42.58V41.652C139.86 41.0887 139.403 40.632 138.84 40.632H133.572C133.009 40.632 132.552 41.0887 132.552 41.652V42.58C132.552 43.1433 133.009 43.6 133.572 43.6Z" fill="#3D8AED"/>
<path d="M128.268 39.928H133.536C134.099 39.928 134.556 39.4713 134.556 38.908V37.98C134.556 37.4167 134.099 36.96 133.536 36.96H128.268C127.705 36.96 127.248 37.4167 127.248 37.98V38.908C127.248 39.4713 127.705 39.928 128.268 39.928Z" fill="#3D8AED"/>
<path opacity="0.8" d="M136.52 39.928H141.788C142.351 39.928 142.808 39.4713 142.808 38.908V37.98C142.808 37.4167 142.351 36.96 141.788 36.96H136.52C135.957 36.96 135.5 37.4167 135.5 37.98V38.908C135.5 39.4713 135.957 39.928 136.52 39.928Z" fill="white"/>
<path opacity="0.8" d="M133.572 43.6H138.84C139.403 43.6 139.86 43.1433 139.86 42.58V41.652C139.86 41.0887 139.403 40.632 138.84 40.632H133.572C133.009 40.632 132.552 41.0887 132.552 41.652V42.58C132.552 43.1433 133.009 43.6 133.572 43.6Z" fill="white"/>
<path opacity="0.7" d="M128.268 39.928H133.536C134.099 39.928 134.556 39.4713 134.556 38.908V37.98C134.556 37.4167 134.099 36.96 133.536 36.96H128.268C127.705 36.96 127.248 37.4167 127.248 37.98V38.908C127.248 39.4713 127.705 39.928 128.268 39.928Z" fill="white"/>
<path d="M90.024 47.26H66.08V74.304H90.024V47.26Z" fill="#263238"/>
<path d="M91.94 74.304H64.16V76.484H91.94V74.304Z" fill="#263238"/>
<g opacity="0.4">
<path opacity="0.4" d="M91.94 74.304H64.16V76.484H91.94V74.304Z" fill="white"/>
</g>
<path opacity="0.6" d="M90.024 47.26H66.08V74.304H90.024V47.26Z" fill="white"/>
<path opacity="0.5" d="M88.336 48.952H67.772V72.616H88.336V48.952Z" fill="white"/>
<g opacity="0.2">
<path opacity="0.2" d="M67.772 48.952V72.612H67.916L73.572 48.952H67.772Z" fill="white"/>
<path opacity="0.2" d="M85.408 48.952H84.348L78.696 72.612H79.756L85.408 48.952Z" fill="white"/>
<path opacity="0.2" d="M82.924 48.952H78.488L72.836 72.612H77.272L82.924 48.952Z" fill="white"/>
</g>
<path d="M52.244 69.068C51.444 69.124 50.408 68.472 49.908 67.624L49.508 66.964C48.352 65.076 45.816 63.724 44.068 63.852L43.632 63.884L42.4 63.972L41.964 64.004C40.216 64.132 39.82 65.696 40.856 67.604C41.004 67.868 41.076 68.004 41.216 68.268C41.66 69.12 41.328 69.868 40.516 69.928C39.116 70.028 38.516 71.324 39.068 72.852C40.844 79.152 41.332 84.452 40.668 90.22C41.9387 91.4009 43.6094 92.0569 45.344 92.056H59.544C60.092 84.856 59.056 78.856 56.192 71.612C55.468 70.084 53.648 68.964 52.244 69.068Z" fill="#3D8AED"/>
<path opacity="0.1" d="M52.244 69.068C51.444 69.124 50.408 68.472 49.908 67.624L49.508 66.964C48.352 65.076 45.816 63.724 44.068 63.852L43.632 63.884L42.4 63.972L41.964 64.004C40.216 64.132 39.82 65.696 40.856 67.604C41.004 67.868 41.076 68.004 41.216 68.268C41.66 69.12 41.328 69.868 40.516 69.928C39.116 70.028 38.516 71.324 39.068 72.852C40.844 79.152 41.332 84.452 40.668 90.22C41.9387 91.4009 43.6094 92.0569 45.344 92.056H59.544C60.092 84.856 59.056 78.856 56.192 71.612C55.468 70.084 53.648 68.964 52.244 69.068Z" fill="black"/>
<path opacity="0.2" d="M52.244 69.068C51.444 69.124 50.408 68.472 49.908 67.624L49.508 66.964C48.352 65.076 45.816 63.724 44.068 63.852L43.632 63.884C41.88 64.008 41.504 65.572 42.568 67.484C42.716 67.748 42.788 67.884 42.932 68.148C43.388 68.996 43.064 69.748 42.252 69.808C40.852 69.908 40.276 71.2 40.836 72.728C42.836 79.496 43.312 85.128 42.436 91.428C43.3381 91.843 44.3191 92.0586 45.312 92.06H59.512C60.06 84.86 59.024 78.86 56.16 71.616C55.468 70.084 53.648 68.964 52.244 69.068Z" fill="black"/>
<path d="M61.852 76.204C61.852 76.204 61.232 84.4 63.288 84.316C65.344 84.232 69.392 84.26 69.392 84.26L72.736 82.768C72.8227 82.7282 72.9194 82.7161 73.0132 82.7333C73.1069 82.7505 73.1931 82.7961 73.26 82.864L74.776 84.364C74.8407 84.4309 74.8842 84.5155 74.9009 84.607C74.9177 84.6985 74.907 84.793 74.8702 84.8785C74.8335 84.964 74.7723 85.0367 74.6943 85.0875C74.6163 85.1383 74.5251 85.1649 74.432 85.164L73.504 85.14C72.2559 85.8075 70.8344 86.0795 69.428 85.92C69.908 85.776 60.968 87.436 60.052 86.168C58.8 84.44 58.248 77.2 58.248 77.2L61.852 76.204Z" fill="#B55B52"/>
<path opacity="0.1" d="M61.852 76.204C61.852 76.204 61.232 84.4 63.288 84.316C65.344 84.232 69.392 84.26 69.392 84.26L72.736 82.768C72.8227 82.7282 72.9194 82.7161 73.0132 82.7333C73.1069 82.7505 73.1931 82.7961 73.26 82.864L74.776 84.364C74.8407 84.4309 74.8842 84.5155 74.9009 84.607C74.9177 84.6985 74.907 84.793 74.8702 84.8785C74.8335 84.964 74.7723 85.0367 74.6943 85.0875C74.6163 85.1383 74.5251 85.1649 74.432 85.164L73.504 85.14C72.2559 85.8075 70.8344 86.0795 69.428 85.92C69.908 85.776 60.968 87.436 60.052 86.168C58.8 84.44 58.248 77.2 58.248 77.2L61.852 76.204Z" fill="black"/>
<path d="M59.916 71.1C61.308 71.06 62.88 72.868 62.188 77.672L58.356 78.4C58.356 78.4 57.112 71.2 59.916 71.1Z" fill="#263238"/>
<path opacity="0.2" d="M59.916 71.1C61.308 71.06 62.88 72.868 62.188 77.672L58.356 78.4C58.356 78.4 57.112 71.2 59.916 71.1Z" fill="black"/>
<path d="M45.768 71.2C43.672 73.9 44.016 88.104 44.168 91.956C44.5643 92.0257 44.9657 92.0618 45.368 92.064H57.544C58.584 78.412 63.004 74.372 61.384 71.796C59.808 69.324 48.2 68.048 45.768 71.2Z" fill="#263238"/>
<path d="M55.88 72.868C55.88 72.868 58.916 70.98 57.684 69.956C56.0938 69.5821 54.4691 69.3743 52.836 69.336C52.34 69.664 52.7 70.576 55.88 72.868Z" fill="#B55B52"/>
<path d="M57.6 68.156L54.92 65.244C54.664 67.476 53.476 69.308 53.236 69.38L53.528 70.404C56.776 74.056 57.528 70.548 57.528 70.548C56.716 69.888 57.6 68.156 57.6 68.156Z" fill="#B55B52"/>
<path opacity="0.2" d="M55.972 66.4L54.724 66.272C54.724 66.272 54.776 70.016 57.34 70.34C56.864 69.584 57.58 68.144 57.58 68.144L55.972 66.4Z" fill="#263238"/>
<path d="M55.264 62.044C54.684 64.688 54.208 66.204 55.124 67.952C55.4155 68.5245 55.8581 69.0064 56.4039 69.3453C56.9497 69.6842 57.5778 69.8673 58.2202 69.8747C58.8626 69.8821 59.4948 69.7136 60.0483 69.3874C60.6018 69.0611 61.0554 68.5896 61.36 68.024C62.56 65.872 63.32 61.908 61.104 60.064C60.633 59.6516 60.0615 59.3706 59.4473 59.2496C58.833 59.1285 58.1977 59.1715 57.6054 59.3744C57.0131 59.5772 56.4847 59.9327 56.0736 60.4049C55.6626 60.8771 55.3833 61.4494 55.264 62.064V62.044Z" fill="#B55B52"/>
<path d="M58.948 64.028C58.888 64.236 58.948 64.428 59.092 64.476C59.236 64.524 59.388 64.384 59.448 64.176C59.508 63.968 59.448 63.756 59.304 63.724C59.16 63.692 59.008 63.816 58.948 64.028Z" fill="#263238"/>
<path d="M61.312 64.8C61.248 65.008 61.312 65.2 61.452 65.248C61.592 65.296 61.748 65.156 61.812 64.944C61.876 64.732 61.812 64.544 61.664 64.492C61.516 64.44 61.372 64.576 61.312 64.8Z" fill="#263238"/>
<path d="M58.44 63.02C58.419 63.0164 58.3995 63.0067 58.384 62.992C58.3724 62.9805 58.3632 62.9668 58.3569 62.9517C58.3506 62.9366 58.3474 62.9204 58.3474 62.904C58.3474 62.8876 58.3506 62.8714 58.3569 62.8563C58.3632 62.8412 58.3724 62.8275 58.384 62.816C58.5445 62.6885 58.7341 62.6027 58.9358 62.5664C59.1376 62.5301 59.3452 62.5444 59.54 62.608C59.5561 62.6133 59.5709 62.6219 59.5836 62.6332C59.5962 62.6444 59.6064 62.6582 59.6135 62.6736C59.6206 62.6889 59.6245 62.7056 59.625 62.7225C59.6254 62.7394 59.6224 62.7563 59.616 62.772C59.6035 62.8031 59.5794 62.828 59.5487 62.8415C59.5181 62.8549 59.4834 62.8558 59.452 62.844C59.3005 62.796 59.1396 62.7851 58.983 62.8122C58.8264 62.8394 58.6786 62.9038 58.552 63C58.5366 63.0127 58.5183 63.0212 58.4986 63.0247C58.479 63.0282 58.4588 63.0266 58.44 63.02Z" fill="#263238"/>
<path d="M62.56 64.296C62.5409 64.2868 62.5242 64.2734 62.511 64.2568C62.4978 64.2401 62.4886 64.2207 62.484 64.2C62.4636 64.034 62.4044 63.8751 62.3113 63.7362C62.2182 63.5972 62.0938 63.4821 61.948 63.4C61.9205 63.3799 61.9018 63.35 61.8958 63.3164C61.8899 63.2829 61.8971 63.2483 61.916 63.22C61.9312 63.197 61.9535 63.1795 61.9794 63.1701C62.0054 63.1607 62.0336 63.16 62.06 63.168C62.2411 63.2666 62.3966 63.4062 62.514 63.5757C62.6313 63.7452 62.7074 63.9398 62.736 64.144C62.7418 64.1774 62.7341 64.2118 62.7147 64.2395C62.6952 64.2673 62.6654 64.2861 62.632 64.292C62.6088 64.2994 62.584 64.3008 62.56 64.296Z" fill="#263238"/>
<path d="M58.764 67.36C58.8813 67.3962 59.0019 67.4204 59.124 67.432C59.133 67.4337 59.1422 67.4336 59.1511 67.4317C59.16 67.4298 59.1684 67.4262 59.1759 67.4209C59.1834 67.4157 59.1897 67.409 59.1945 67.4013C59.1994 67.3936 59.2026 67.385 59.204 67.376C59.2051 67.3665 59.2044 67.3569 59.2017 67.3478C59.1991 67.3386 59.1947 67.3301 59.1888 67.3226C59.1828 67.3152 59.1754 67.309 59.1671 67.3044C59.1587 67.2999 59.1495 67.297 59.14 67.296C58.8332 67.2617 58.5384 67.1568 58.2789 66.9896C58.0193 66.8223 57.8021 66.5973 57.644 66.332C57.6401 66.3233 57.6346 66.3154 57.6276 66.3089C57.6207 66.3024 57.6125 66.2973 57.6036 66.2939C57.5946 66.2906 57.5851 66.289 57.5756 66.2894C57.566 66.2897 57.5567 66.292 57.548 66.296C57.5308 66.3054 57.5177 66.3207 57.511 66.3392C57.5044 66.3576 57.5047 66.3778 57.512 66.396C57.6458 66.6322 57.8255 66.8391 58.0405 67.0047C58.2555 67.1702 58.5015 67.2911 58.764 67.36Z" fill="#263238"/>
<path d="M60.488 64.652C60.5555 65.3804 60.7168 66.097 60.968 66.784C60.7941 66.8404 60.61 66.8585 60.4285 66.8371C60.2469 66.8157 60.0721 66.7553 59.916 66.66L60.488 64.652Z" fill="#A02724"/>
<path d="M55.316 63.52C55.316 63.52 57.884 63.544 57.148 62.068C57.148 62.068 60.712 62.752 60.104 61.408C60.104 61.408 62.504 63.304 61.892 61.512C61.892 61.512 63.536 62.912 63.588 62.012C63.64 61.112 62.74 60.54 62.74 60.54C62.74 60.54 64.74 58.912 61.836 58.916C61.836 58.916 62.524 56.468 59.204 58.424C59.204 58.424 59.648 55.888 57.172 58.424C57.172 58.424 53.82 58.448 54.612 59.556C54.612 59.556 52.5 60.244 53.812 60.984C53.812 60.984 52.212 62.436 53.376 63.032C53.376 63.032 51.856 65.12 54.076 64.86C54.076 64.86 53.276 66.792 54.26 66.396C55.244 66 55.316 63.52 55.316 63.52Z" fill="#263238"/>
<path d="M53.664 63.92C53.6806 64.5185 53.9203 65.0892 54.336 65.52C54.888 66.088 55.536 65.66 55.668 64.916C55.796 64.24 55.668 63.136 54.96 62.856C54.252 62.576 53.656 63.172 53.664 63.92Z" fill="#B55B52"/>
<path opacity="0.3" d="M58 87.744C58.12 86.944 58.252 86.144 58.4 85.428L57.124 85.172L50 81L47.464 75.136L46.408 72.868L45.416 73.396C45.416 73.396 45.416 85.132 50.372 87.264C52.476 88.164 55.124 87.88 58 87.744Z" fill="black"/>
<path d="M49.864 75.772C49.864 75.772 51.316 83.016 55.864 83.832C60.412 84.648 61.064 84.632 61.064 84.632L64.732 83.432C64.8394 83.3972 64.9549 83.3962 65.0629 83.4291C65.1709 83.462 65.2662 83.5272 65.336 83.616L66.264 84.816C66.3254 84.8948 66.3642 84.9889 66.376 85.0881C66.3878 85.1873 66.3723 85.2878 66.3311 85.3789C66.2899 85.4699 66.2246 85.5479 66.1423 85.6045C66.06 85.6611 65.9637 85.6941 65.864 85.7L64.296 85.804C63.8664 86.1464 63.3708 86.3966 62.8402 86.5391C62.3096 86.6815 61.7554 86.7132 61.212 86.632C61.212 86.632 53.872 87.432 51.316 85.964C48.76 84.496 46.732 78.476 46.732 78.476L49.864 75.772Z" fill="#B55B52"/>
<path d="M46.62 80.472C46.62 80.472 44.052 72.248 46.472 70.94C48.892 69.632 50.472 75.4 51.092 77.584L46.62 80.472Z" fill="#263238"/>
<path d="M70.752 85.82L61.896 86.244V87.5H70.752H76.456V85.82H70.752Z" fill="#3D8AED"/>
<path opacity="0.3" d="M70.752 87.5H61.896V86.244L70.752 85.82V87.5Z" fill="white"/>
<path opacity="0.6" d="M76.456 85.82H70.752V87.5H76.456V85.82Z" fill="white"/>
<path d="M90.224 83.168H71.512L73.4 67.784H92.112L90.224 83.168Z" fill="#3D8AED"/>
<path opacity="0.3" d="M90.224 83.168H71.512L73.4 67.784H92.112L90.224 83.168Z" fill="white"/>
<path d="M74.48 67.784L72.588 83.168H90.224L92.112 67.784H74.48Z" fill="#3D8AED"/>
<path opacity="0.6" d="M74.48 67.784L72.588 83.168H90.224L92.112 67.784H74.48Z" fill="white"/>
<path d="M84.132 87.456H80.152L79.752 81.108H82.976L84.132 87.456Z" fill="#3D8AED"/>
<path opacity="0.3" d="M84.132 87.456H80.152L79.752 81.108H82.976L84.132 87.456Z" fill="white"/>
<path d="M84.844 87.456H80.864L80.464 81.108H83.684L84.844 87.456Z" fill="#3D8AED"/>
<path opacity="0.5" d="M84.844 87.456H80.864L80.464 81.108H83.684L84.844 87.456Z" fill="white"/>
<path d="M82.084 86.348H81.44H75.94V87.5H81.44H82.084H87.584V86.348H82.084Z" fill="#3D8AED"/>
<path opacity="0.3" d="M82.084 86.348H81.44H75.94V87.5H81.44H82.084H87.584V86.348H82.084Z" fill="white"/>
<path d="M87.5841 86.348H81.4401V87.5H87.5841V86.348Z" fill="#3D8AED"/>
<path opacity="0.6" d="M87.5841 86.348H81.4401V87.5H87.5841V86.348Z" fill="white"/>
<path d="M58.28 89.296V92.044H87.368C88.435 92.0432 89.4872 91.7946 90.4417 91.3177C91.3961 90.8408 92.2268 90.1487 92.868 89.296H58.28Z" fill="#263238"/>
<path opacity="0.3" d="M58.28 89.296V92.044H87.368C88.435 92.0432 89.4872 91.7946 90.4417 91.3177C91.3961 90.8408 92.2268 90.1487 92.868 89.296H58.28Z" fill="white"/>
<path d="M93.844 87.5H56.548V89.296H92.868C93.282 88.7499 93.6111 88.1444 93.844 87.5Z" fill="#263238"/>
<path opacity="0.5" d="M93.844 87.5H56.548V89.296H92.868C93.282 88.7499 93.6111 88.1444 93.844 87.5Z" fill="white"/>
<path d="M87.368 39.108H45.332C43.0539 39.1101 40.8698 40.016 39.2589 41.6269C37.648 43.2377 36.7421 45.4219 36.74 47.7V85.144C36.7421 87.4217 37.6482 89.6055 39.2591 91.2157C40.8701 92.8259 43.0543 93.7309 45.332 93.732H87.368C89.645 93.7299 91.8282 92.8244 93.4383 91.2143C95.0484 89.6042 95.9539 87.421 95.956 85.144V47.7C95.9549 45.4223 95.0499 43.2381 93.4397 41.6271C91.8295 40.0162 89.6457 39.1101 87.368 39.108ZM94.268 85.144C94.2669 86.9737 93.5396 88.7281 92.2459 90.0219C90.9521 91.3156 89.1977 92.0429 87.368 92.044H45.332C43.5017 92.044 41.7462 91.3172 40.4516 90.0233C39.1569 88.7294 38.4291 86.9744 38.428 85.144V47.7C38.4291 45.8696 39.1569 44.1146 40.4516 42.8207C41.7462 41.5268 43.5017 40.8 45.332 40.8H87.368C89.1984 40.8011 90.9534 41.5289 92.2473 42.8235C93.5412 44.1182 94.268 45.8736 94.268 47.704V85.144Z" fill="#3D8AED"/>
<path opacity="0.4" d="M87.368 39.108H45.332C43.0539 39.1101 40.8698 40.016 39.2589 41.6269C37.648 43.2377 36.7421 45.4219 36.74 47.7V85.144C36.7421 87.4217 37.6482 89.6055 39.2591 91.2157C40.8701 92.8259 43.0543 93.7309 45.332 93.732H87.368C89.645 93.7299 91.8282 92.8244 93.4383 91.2143C95.0484 89.6042 95.9539 87.421 95.956 85.144V47.7C95.9549 45.4223 95.0499 43.2381 93.4397 41.6271C91.8295 40.0162 89.6457 39.1101 87.368 39.108ZM94.268 85.144C94.2669 86.9737 93.5396 88.7281 92.2459 90.0219C90.9521 91.3156 89.1977 92.0429 87.368 92.044H45.332C43.5017 92.044 41.7462 91.3172 40.4516 90.0233C39.1569 88.7294 38.4291 86.9744 38.428 85.144V47.7C38.4291 45.8696 39.1569 44.1146 40.4516 42.8207C41.7462 41.5268 43.5017 40.8 45.332 40.8H87.368C89.1984 40.8011 90.9534 41.5289 92.2473 42.8235C93.5412 44.1182 94.268 45.8736 94.268 47.704V85.144Z" fill="white"/>
<path d="M107.922 59.3651C112.216 55.0709 112.216 48.1086 107.922 43.8144C103.628 39.5202 96.6656 39.5202 92.3714 43.8144C88.0772 48.1086 88.0772 55.0709 92.3714 59.3651C96.6656 63.6593 103.628 63.6593 107.922 59.3651Z" fill="#3D8AED"/>
<path opacity="0.3" d="M107.922 59.3651C112.216 55.0709 112.216 48.1086 107.922 43.8144C103.628 39.5202 96.6656 39.5202 92.3714 43.8144C88.0772 48.1086 88.0772 55.0709 92.3714 59.3651C96.6656 63.6593 103.628 63.6593 107.922 59.3651Z" fill="black"/>
<path d="M110.847 53.3515C112.242 47.441 108.581 41.5187 102.671 40.1237C96.7603 38.7287 90.838 42.3892 89.4429 48.2997C88.0479 54.2103 91.7085 60.1326 97.619 61.5276C103.53 62.9226 109.452 59.2621 110.847 53.3515Z" fill="#3D8AED"/>
<path opacity="0.9" d="M109.212 52.9656C110.394 47.9581 107.292 42.9406 102.285 41.7588C97.2774 40.5769 92.2599 43.6782 91.0781 48.6857C89.8962 53.6932 92.9975 58.7106 98.005 59.8925C103.012 61.0744 108.03 57.9731 109.212 52.9656Z" fill="white"/>
<path d="M99.764 44.272C99.764 46.332 99.696 48.408 99.764 50.468C99.788 51.128 100.092 51.312 100.564 51.792L102.744 53.972C102.82 54.0116 102.906 54.026 102.99 54.0132C103.074 54.0003 103.152 53.9609 103.213 53.9006C103.273 53.8403 103.312 53.7623 103.325 53.678C103.338 53.5937 103.324 53.5075 103.284 53.432L101.256 51.408C100.953 51.1549 100.673 50.8751 100.42 50.572C100.676 50.972 100.516 50.52 100.516 50.172V44.272C100.49 44.192 100.439 44.1223 100.371 44.0729C100.302 44.0235 100.22 43.9969 100.136 43.9969C100.052 43.9969 99.9697 44.0235 99.9015 44.0729C99.8332 44.1223 99.7824 44.192 99.756 44.272H99.764Z" fill="#263238"/>
<path d="M117.572 163.492C117.326 163.493 117.089 163.402 116.907 163.237C116.725 163.072 116.611 162.845 116.588 162.6L116.272 159.304V131.936H118.868V159.304L118.552 162.6C118.529 162.844 118.416 163.071 118.235 163.236C118.053 163.401 117.817 163.492 117.572 163.492Z" fill="#263238"/>
<path opacity="0.3" d="M117.572 163.492C117.326 163.493 117.089 163.402 116.907 163.237C116.725 163.072 116.611 162.845 116.588 162.6L116.272 159.304V131.936H118.868V159.304L118.552 162.6C118.529 162.844 118.416 163.071 118.235 163.236C118.053 163.401 117.817 163.492 117.572 163.492Z" fill="white"/>
<path opacity="0.1" d="M118.868 135.028H116.272V138.216H118.868V135.028Z" fill="black"/>
<path d="M119.788 159.76V158.732C119.787 158.539 119.71 158.355 119.574 158.218C119.437 158.082 119.253 158.005 119.06 158.004H116.08C115.887 158.005 115.703 158.082 115.566 158.218C115.43 158.355 115.353 158.539 115.352 158.732V159.76L108.028 161.76C107.596 161.879 107.215 162.136 106.944 162.492C106.672 162.849 106.525 163.284 106.524 163.732H128.616C128.615 163.284 128.468 162.849 128.196 162.492C127.925 162.136 127.544 161.879 127.112 161.76L119.788 159.76Z" fill="#263238"/>
<path opacity="0.2" d="M119.788 159.76V158.732C119.787 158.539 119.71 158.355 119.574 158.218C119.437 158.082 119.253 158.005 119.06 158.004H116.08C115.887 158.005 115.703 158.082 115.566 158.218C115.43 158.355 115.353 158.539 115.352 158.732V159.76L108.028 161.76C107.596 161.879 107.215 162.136 106.944 162.492C106.672 162.849 106.525 163.284 106.524 163.732H128.616C128.615 163.284 128.468 162.849 128.196 162.492C127.925 162.136 127.544 161.879 127.112 161.76L119.788 159.76Z" fill="white"/>
<path opacity="0.1" d="M119.788 159.736V158.732C119.79 158.699 119.79 158.665 119.788 158.632H115.388C115.386 158.665 115.386 158.699 115.388 158.732V159.736H119.788Z" fill="black"/>
<path d="M129.328 105.2C124.448 105.372 120.228 109.516 119.728 114.4L117.908 131.732C117.86 132.093 117.891 132.461 117.998 132.809C118.106 133.158 118.287 133.479 118.53 133.751C118.774 134.022 119.073 134.238 119.407 134.383C119.742 134.529 120.103 134.6 120.468 134.592H135.188C135.971 134.575 136.722 134.276 137.303 133.751C137.884 133.226 138.256 132.509 138.352 131.732L140.196 114.188C140.728 109.124 136.964 105.04 131.84 105.22L129.328 105.2Z" fill="#263238"/>
<path opacity="0.2" d="M129.328 105.2C124.448 105.372 120.228 109.516 119.728 114.4L117.908 131.732C117.86 132.093 117.891 132.461 117.998 132.809C118.106 133.158 118.287 133.479 118.53 133.751C118.774 134.022 119.073 134.238 119.407 134.383C119.742 134.529 120.103 134.6 120.468 134.592H135.188C135.971 134.575 136.722 134.276 137.303 133.751C137.884 133.226 138.256 132.509 138.352 131.732L140.196 114.188C140.728 109.124 136.964 105.04 131.84 105.22L129.328 105.2Z" fill="white"/>
<path d="M137.684 114.18C138.216 109.116 134.448 105.032 129.328 105.212C124.448 105.384 120.228 109.528 119.728 114.412L117.908 131.744C117.86 132.105 117.891 132.473 117.998 132.821C118.106 133.17 118.287 133.491 118.53 133.763C118.774 134.034 119.073 134.25 119.407 134.395C119.742 134.541 120.103 134.612 120.468 134.604H132.688C133.471 134.587 134.222 134.288 134.803 133.763C135.384 133.238 135.756 132.521 135.852 131.744L137.684 114.18Z" fill="#263238"/>
<path d="M97.076 131.796C100.001 130.988 103.014 130.538 106.048 130.456C109.168 130.372 120.848 130.456 123.604 130.456C126.983 130.454 130.347 130.908 133.604 131.808C135.66 132.376 135.024 135.596 133.168 135.632C133.004 135.632 97.74 135.632 97.608 135.632C95.68 135.716 94.972 132.376 97.076 131.796Z" fill="#263238"/>
<path d="M132.664 135.552C126.733 133.916 120.471 133.916 114.54 135.552C112.3 136.172 111.34 132.416 113.588 131.796C120.143 129.988 127.065 129.988 133.62 131.796C135.856 132.416 134.908 136.172 132.664 135.552Z" fill="#263238"/>
<g opacity="0.2">
<path opacity="0.2" d="M132.664 135.552C126.733 133.916 120.471 133.916 114.54 135.552C112.3 136.172 111.34 132.416 113.588 131.796C120.143 129.988 127.065 129.988 133.62 131.796C135.856 132.416 134.908 136.172 132.664 135.552Z" fill="white"/>
</g>
<path d="M92.632 144.576L90.136 151.86L88.04 151.26L89.736 143.58L92.632 144.576Z" fill="#B97964"/>
<path d="M88.08 150.7L90.656 151.48C90.7106 151.494 90.7587 151.526 90.7922 151.571C90.8257 151.616 90.8426 151.672 90.84 151.728L90.744 154.288C90.7441 154.342 90.7331 154.396 90.7117 154.446C90.6904 154.496 90.6591 154.541 90.6199 154.578C90.5806 154.616 90.5341 154.645 90.4832 154.663C90.4324 154.682 90.3782 154.691 90.324 154.688C90.2948 154.692 90.2652 154.692 90.236 154.688C89.168 154.388 88.236 154.08 86.892 153.736C85.316 153.336 85.668 153.616 83.808 153.16C82.688 152.88 82.816 151.56 83.304 151.62C85.544 151.912 86.336 151.32 87.376 150.76C87.5959 150.656 87.8457 150.635 88.08 150.7Z" fill="#263238"/>
<path opacity="0.1" d="M91.2719 148.548L88.7839 147.908L89.7359 143.58L92.6319 144.576L91.2719 148.548Z" fill="black"/>
<path d="M93.08 146.524L92.384 147.868L88.392 146.524V144.976L93.08 146.524Z" fill="#3D8AED"/>
<path opacity="0.3" d="M93.08 146.524L92.384 147.868L88.392 146.524V144.976L93.08 146.524Z" fill="white"/>
<path d="M108.696 153.504L109.528 159.952L107.184 160.012L105.488 153.796L108.696 153.504Z" fill="#B97964"/>
<path d="M107.152 159.656H109.828C109.884 159.656 109.938 159.674 109.982 159.709C110.026 159.744 110.056 159.793 110.068 159.848L110.62 162.352C110.634 162.405 110.637 162.461 110.629 162.515C110.621 162.569 110.601 162.621 110.572 162.668C110.543 162.715 110.504 162.755 110.459 162.786C110.413 162.816 110.362 162.838 110.308 162.848H110.224C109.112 162.828 108.128 162.764 106.748 162.76C105.12 162.76 105.548 162.952 103.616 162.976C102.464 162.976 102.256 161.676 102.744 161.612C104.984 161.336 105.616 160.66 106.484 159.86C106.674 159.713 106.912 159.64 107.152 159.656Z" fill="#263238"/>
<path opacity="0.1" d="M106.472 157.4L105.488 153.796L108.696 153.504L109.176 157.232L106.472 157.4Z" fill="black"/>
<path d="M116.772 114.8H112.984C112.359 116.499 111.956 118.27 111.784 120.072C111.584 122.768 116.768 120.772 116.768 120.772L117.224 117.08L116.772 114.8Z" fill="#3D8AED"/>
<path opacity="0.1" d="M116.772 114.8H112.984C112.359 116.499 111.956 118.27 111.784 120.072C111.584 122.768 116.768 120.772 116.768 120.772L117.224 117.08L116.772 114.8Z" fill="black"/>
<path opacity="0.1" d="M114.572 114.8C115.624 120.324 113.596 120.04 113.596 120.04L114.744 120.84L116.828 120.328L117.228 117.08L116.772 114.8H114.572Z" fill="black"/>
<path d="M124.328 114.46C124.328 114.46 128.184 120.912 127.528 126.3C126.872 131.688 121.88 134.54 102.728 125.36C102.728 125.36 98.8 129.428 92.28 146.856L88.956 145.856C88.956 145.856 92.712 125.712 96.072 119.98C99.432 114.248 114.364 120.98 115.496 119.848C116.504 118.844 115.628 114.86 115.628 114.86L124.328 114.46Z" fill="#3D8AED"/>
<path opacity="0.2" d="M100.528 127.168L99.48 126.368C99.48 126.368 95.7879 128.368 97.6239 134.06C98.6052 131.973 99.6933 129.939 100.884 127.964L100.528 127.168Z" fill="black"/>
<path d="M116.528 130.656C113.048 129.824 108.528 128.152 102.712 125.36C102.712 125.36 98.22 125.42 97.912 128.76C97.604 132.1 105.512 155.22 105.512 155.22L109.152 154.904C109.152 154.904 107.008 131.856 106.508 130.656H116.528Z" fill="#3D8AED"/>
<path opacity="0.1" d="M116.528 130.656C113.048 129.824 108.528 128.152 102.712 125.36C102.712 125.36 98.22 125.42 97.912 128.76C97.604 132.1 105.512 155.22 105.512 155.22L109.152 154.904C109.152 154.904 107.008 131.856 106.508 130.656H116.528Z" fill="black"/>
<path opacity="0.1" d="M102.712 125.36C102.192 125.38 101.676 125.453 101.172 125.58C103.614 127.665 106.351 129.376 109.296 130.656H116.528C113.048 129.824 108.54 128.152 102.712 125.36Z" fill="black"/>
<path d="M109.58 154.304L109.68 155.8L105.44 156.132L104.836 154.708L109.58 154.304Z" fill="#3D8AED"/>
<path opacity="0.3" d="M109.58 154.304L109.68 155.8L105.44 156.132L104.836 154.708L109.58 154.304Z" fill="white"/>
<path d="M107.684 108L103.404 110.4L100.54 110.26C100.414 110.255 100.288 110.282 100.176 110.341C100.063 110.399 99.9684 110.486 99.9 110.592L99.08 111.872C99.0239 111.96 98.9877 112.06 98.9739 112.163C98.9601 112.267 98.969 112.372 99 112.472L99.02 112.532C99.0722 112.708 99.1904 112.857 99.3499 112.948C99.5094 113.039 99.6979 113.065 99.876 113.02L101.124 112.72L103.608 112.244L109.684 109.6L107.684 108Z" fill="#B97964"/>
<path d="M106.844 108.152C107.329 108.33 107.758 108.634 108.086 109.032C108.414 109.431 108.63 109.91 108.712 110.42C108.712 110.42 111.832 109.336 112.376 107.592C112.92 105.848 114.376 97.24 112.024 97.224C109.672 97.208 110.948 107.528 106.844 108.152Z" fill="#263238"/>
<path opacity="0.6" d="M106.844 108.152C107.329 108.33 107.758 108.634 108.086 109.032C108.414 109.431 108.63 109.91 108.712 110.42C108.712 110.42 111.832 109.336 112.376 107.592C112.92 105.848 114.376 97.24 112.024 97.224C109.672 97.208 110.948 107.528 106.844 108.152Z" fill="white"/>
<path d="M106.048 108.284C106.836 109.06 107.457 109.99 107.872 111.016L109.52 110.216C109.52 110.216 108.856 108.34 107.52 107.58L106.048 108.284Z" fill="#263238"/>
<path opacity="0.7" d="M106.048 108.284C106.836 109.06 107.457 109.99 107.872 111.016L109.52 110.216C109.52 110.216 108.856 108.34 107.52 107.58L106.048 108.284Z" fill="white"/>
<path d="M112.672 115.2C116.736 115.498 120.82 115.379 124.86 114.844C124.008 111.512 123.872 108.037 124.46 104.648C125.456 99.048 130.712 95.744 117.66 95.972C115.768 96.004 110.168 95.752 110.812 99.74C111.508 104 112.672 115.2 112.672 115.2Z" fill="#263238"/>
<path opacity="0.5" d="M112.672 115.2C116.736 115.498 120.82 115.379 124.86 114.844C124.008 111.512 123.872 108.037 124.46 104.648C125.456 99.048 130.712 95.744 117.66 95.972C115.768 96.004 110.168 95.752 110.812 99.74C111.508 104 112.672 115.2 112.672 115.2Z" fill="white"/>
<path d="M120.452 108.68L114.36 110.48L111.752 110.024C111.617 110.001 111.479 110.016 111.351 110.067C111.224 110.118 111.114 110.202 111.032 110.312L110.156 111.512C110.092 111.598 110.048 111.697 110.026 111.802C110.005 111.907 110.007 112.016 110.032 112.12V112.156C110.074 112.34 110.185 112.5 110.342 112.604C110.499 112.708 110.69 112.748 110.876 112.716L112.124 112.504L114.632 112.2L122.336 110.4L120.452 108.68Z" fill="#B97964"/>
<path d="M119.552 108.58C120.026 108.793 120.437 109.126 120.741 109.548C121.046 109.969 121.235 110.463 121.288 110.98C121.288 110.98 124.488 110.272 125.164 108.58C125.84 106.888 127.92 97.38 125.564 97.188C123.208 96.996 123.692 108.24 119.552 108.58Z" fill="#263238"/>
<path opacity="0.6" d="M119.552 108.58C120.026 108.793 120.437 109.126 120.741 109.548C121.046 109.969 121.235 110.463 121.288 110.98C121.288 110.98 124.488 110.272 125.164 108.58C125.84 106.888 127.92 97.38 125.564 97.188C123.208 96.996 123.692 108.24 119.552 108.58Z" fill="white"/>
<path d="M118.644 108.736C119.441 109.502 120.058 110.435 120.452 111.468L122.132 110.988C122.132 110.988 121.444 108.988 120.156 108.124L118.644 108.736Z" fill="#263238"/>
<path opacity="0.7" d="M118.644 108.736C119.441 109.502 120.058 110.435 120.452 111.468L122.132 110.988C122.132 110.988 121.444 108.988 120.156 108.124L118.644 108.736Z" fill="white"/>
<path d="M120.18 84.336C120.18 84.336 118.356 80.692 121.152 81.168C123.948 81.644 122.292 88.896 124.864 89.888C124.864 89.888 121.892 90.628 120.18 84.336Z" fill="#263238"/>
<path opacity="0.6" d="M119.656 82.8C119.77 83.3296 119.945 83.8438 120.18 84.332C120.5 85.6583 121.041 86.9213 121.78 88.068C122.2 86.744 122.368 84.58 121.124 83.34C120.648 82.864 120.148 82.992 119.656 82.8Z" fill="black"/>
<path d="M119.2 83.56C119.2 83.56 120.112 82.528 120.9 83.852C121.688 85.176 120.388 85.492 120.388 85.492L119.2 83.56Z" fill="#3D8AED"/>
<path d="M119.856 90.476C119.856 90.476 120.256 91.968 121.336 90.944C122.416 89.92 120.472 90.992 119.856 90.476Z" fill="#263238"/>
<path d="M117.668 95.856C117.668 95.856 115.052 94.956 113.94 97.176L114.972 97.576L114.4 98.28L116.532 99.828L120.172 98.58L119.972 98.064L121.724 97.588C121.724 97.588 122.192 95.028 117.668 95.856Z" fill="#263238"/>
<path opacity="0.7" d="M117.668 95.856C117.668 95.856 115.052 94.956 113.94 97.176L114.972 97.576L114.4 98.28L116.532 99.828L120.172 98.58L119.972 98.064L121.724 97.588C121.724 97.588 122.192 95.028 117.668 95.856Z" fill="white"/>
<path d="M117.744 96.06C117.744 96.06 113.388 95.104 116.448 99.444C116.448 99.444 125.16 95.972 117.744 96.06Z" fill="#B97964"/>
<path d="M119.476 91.064L116.512 93.972C116.776 95.24 116.408 95.896 116 96.236V97.176C116.502 97.3137 117.025 97.3611 117.544 97.316C118.503 97.3048 119.458 97.1894 120.392 96.972C119.1 95.94 119.284 92.8 119.476 91.064Z" fill="#B97964"/>
<path opacity="0.1" d="M116.54 95.32C116.628 94.8739 116.618 94.4141 116.512 93.972L119.156 91.376L119.416 91.676C119.416 91.676 118.884 94.984 116.54 95.32Z" fill="black"/>
<path d="M119.72 87.2C119.94 90.052 120.092 91.252 118.864 92.9C117.02 95.384 113.468 95.024 112.404 92.296C111.444 89.84 111.248 85.588 113.86 84.08C114.753 83.5589 115.817 83.4137 116.818 83.6761C117.818 83.9386 118.673 84.5874 119.196 85.48C119.504 86.0038 119.684 86.5933 119.72 87.2Z" fill="#B97964"/>
<path d="M113.9 90.096C113.768 90.6548 113.561 91.1931 113.284 91.696C113.413 91.7631 113.554 91.8018 113.699 91.8094C113.844 91.817 113.989 91.7933 114.124 91.74L113.9 90.096Z" fill="#A24E3F"/>
<path d="M116.06 88.148C116.077 88.1397 116.094 88.1289 116.108 88.116C116.128 88.0944 116.14 88.0658 116.14 88.036C116.14 88.0062 116.128 87.9776 116.108 87.956C115.947 87.8128 115.754 87.711 115.545 87.6594C115.336 87.6078 115.117 87.608 114.908 87.66C114.88 87.6708 114.858 87.6915 114.844 87.7181C114.831 87.7447 114.828 87.7753 114.836 87.804C114.845 87.832 114.865 87.8553 114.891 87.8687C114.917 87.8822 114.948 87.8848 114.976 87.876C115.147 87.8378 115.325 87.8408 115.494 87.8846C115.664 87.9284 115.821 88.0118 115.952 88.128C115.967 88.1403 115.984 88.1486 116.003 88.1522C116.022 88.1557 116.042 88.1542 116.06 88.148Z" fill="#2E353A"/>
<path d="M111.844 88.54C111.863 88.5357 111.881 88.5243 111.892 88.508C112.003 88.372 112.146 88.2647 112.307 88.1951C112.469 88.1255 112.645 88.0957 112.82 88.108C112.85 88.1126 112.881 88.1051 112.906 88.0871C112.93 88.0692 112.947 88.0422 112.952 88.012C112.954 87.997 112.953 87.9816 112.95 87.967C112.946 87.9523 112.939 87.9385 112.929 87.9265C112.92 87.9146 112.908 87.9046 112.895 87.8973C112.882 87.89 112.867 87.8855 112.852 87.884C112.64 87.8645 112.427 87.896 112.23 87.9761C112.033 88.0561 111.858 88.1823 111.72 88.344C111.709 88.3544 111.701 88.3669 111.695 88.3806C111.689 88.3943 111.686 88.4091 111.686 88.424C111.686 88.4389 111.689 88.4537 111.695 88.4674C111.701 88.4811 111.709 88.4936 111.72 88.504C111.735 88.5192 111.755 88.5296 111.776 88.5338C111.798 88.5381 111.82 88.5361 111.84 88.528L111.844 88.54Z" fill="#2E353A"/>
<path d="M115.476 89.488C115.508 89.72 115.408 89.92 115.256 89.944C115.104 89.968 114.96 89.796 114.932 89.544C114.904 89.292 114.996 89.112 115.144 89.092C115.292 89.072 115.44 89.256 115.476 89.488Z" fill="#2E353A"/>
<path d="M112.872 89.848C112.904 90.08 112.808 90.28 112.656 90.304C112.504 90.328 112.36 90.156 112.328 89.924C112.296 89.692 112.392 89.492 112.54 89.472C112.688 89.452 112.84 89.6 112.872 89.848Z" fill="#2E353A"/>
<path d="M112.608 89.472L112.036 89.392C112.036 89.392 112.4 89.784 112.608 89.472Z" fill="#2E353A"/>
<path d="M115.2 89.112L114.624 89.032C114.624 89.032 114.98 89.424 115.2 89.112Z" fill="#2E353A"/>
<path d="M115.656 91.824C115.701 91.7431 115.74 91.6589 115.772 91.572C115.777 91.5587 115.778 91.5438 115.772 91.5304C115.767 91.517 115.757 91.5061 115.744 91.5C115.73 91.496 115.714 91.4975 115.701 91.5041C115.688 91.5108 115.677 91.5221 115.672 91.536C115.594 91.7587 115.464 91.9597 115.293 92.1225C115.122 92.2852 114.914 92.405 114.688 92.472C114.674 92.4766 114.663 92.486 114.655 92.4985C114.648 92.511 114.645 92.5258 114.648 92.54C114.651 92.5542 114.659 92.5667 114.671 92.5749C114.683 92.5831 114.698 92.5864 114.712 92.584C114.912 92.5265 115.099 92.4297 115.261 92.2992C115.423 92.1687 115.557 92.0071 115.656 91.824Z" fill="#263238"/>
<path d="M119.856 90.476C119.856 90.476 118.296 89.624 118.196 87.276C118.096 84.928 114.524 84.444 112.32 85.824C112.32 85.824 111.692 83.748 113.996 83.564C113.996 83.564 117.364 81.1 120.12 83.856C122.556 86.288 119.856 90.476 119.856 90.476Z" fill="#263238"/>
<path d="M120.7 89.356C120.614 89.9019 120.317 90.392 119.872 90.72C119.276 91.148 118.728 90.676 118.672 89.984C118.632 89.36 118.892 88.384 119.592 88.232C119.714 88.2088 119.839 88.2099 119.961 88.2351C120.082 88.2604 120.197 88.3093 120.3 88.3792C120.402 88.449 120.49 88.5384 120.558 88.6422C120.626 88.746 120.673 88.8621 120.696 88.984C120.721 89.1066 120.723 89.2329 120.7 89.356Z" fill="#B97964"/>
<path d="M112.512 85.456C112.512 85.456 111.812 87.024 111.224 85.456C110.636 83.888 111.928 85.808 112.512 85.456Z" fill="#263238"/>
<path d="M114.312 112.4H93.876C93.7169 112.4 93.5643 112.463 93.4517 112.576C93.3392 112.688 93.276 112.841 93.276 113C93.276 113.159 93.3392 113.312 93.4517 113.424C93.5643 113.537 93.7169 113.6 93.876 113.6H114.312C114.471 113.6 114.624 113.537 114.736 113.424C114.849 113.312 114.912 113.159 114.912 113C114.912 112.841 114.849 112.688 114.736 112.576C114.624 112.463 114.471 112.4 114.312 112.4Z" fill="#3D8AED"/>
<path opacity="0.3" d="M114.312 112.4H93.876C93.7169 112.4 93.5643 112.463 93.4517 112.576C93.3392 112.688 93.276 112.841 93.276 113C93.276 113.159 93.3392 113.312 93.4517 113.424C93.5643 113.537 93.7169 113.6 93.876 113.6H114.312C114.471 113.6 114.624 113.537 114.736 113.424C114.849 113.312 114.912 113.159 114.912 113C114.912 112.841 114.849 112.688 114.736 112.576C114.624 112.463 114.471 112.4 114.312 112.4Z" fill="white"/>
<path opacity="0.2" d="M102.684 113.6C102.525 113.6 102.372 113.537 102.26 113.424C102.147 113.312 102.084 113.159 102.084 113C102.084 112.841 102.147 112.688 102.26 112.576C102.372 112.463 102.525 112.4 102.684 112.4H114.312C114.471 112.4 114.624 112.463 114.736 112.576C114.849 112.688 114.912 112.841 114.912 113C114.912 113.159 114.849 113.312 114.736 113.424C114.624 113.537 114.471 113.6 114.312 113.6H102.684Z" fill="white"/>
<path d="M94.204 113.24H101.716C101.764 113.241 101.812 113.231 101.855 113.209C101.897 113.187 101.934 113.154 101.961 113.114C101.988 113.074 102.004 113.028 102.008 112.98C102.012 112.932 102.004 112.884 101.984 112.84L97.864 101.068C97.8095 100.909 97.7063 100.772 97.5692 100.675C97.4321 100.578 97.2679 100.526 97.1 100.528H89.6C89.5546 100.527 89.5096 100.537 89.469 100.558C89.4284 100.578 89.3934 100.608 89.367 100.645C89.3406 100.682 89.3237 100.725 89.3176 100.77C89.3115 100.815 89.3164 100.861 89.332 100.904L93.452 112.676C93.5018 112.837 93.6014 112.979 93.7364 113.08C93.8715 113.181 94.0352 113.237 94.204 113.24Z" fill="#3D8AED"/>
<path d="M93.84 113.24H101.356C101.404 113.24 101.451 113.229 101.493 113.207C101.535 113.184 101.571 113.152 101.598 113.112C101.625 113.073 101.641 113.027 101.645 112.979C101.65 112.932 101.643 112.884 101.624 112.84L97.504 101.068C97.4494 100.909 97.3463 100.772 97.2092 100.675C97.0721 100.578 96.9079 100.526 96.74 100.528H89.224C89.1789 100.528 89.1344 100.539 89.0943 100.56C89.0542 100.58 89.0196 100.61 88.9934 100.647C88.9672 100.684 88.9502 100.726 88.9437 100.771C88.9372 100.816 88.9414 100.861 88.956 100.904L93.076 112.676C93.1264 112.839 93.2278 112.982 93.3653 113.084C93.5028 113.185 93.6691 113.24 93.84 113.24Z" fill="#3D8AED"/>
<path opacity="0.5" d="M93.84 113.24H101.356C101.404 113.24 101.451 113.229 101.493 113.207C101.535 113.184 101.571 113.152 101.598 113.112C101.625 113.073 101.641 113.027 101.645 112.979C101.65 112.932 101.643 112.884 101.624 112.84L97.504 101.068C97.4494 100.909 97.3463 100.772 97.2092 100.675C97.0721 100.578 96.9079 100.526 96.74 100.528H89.224C89.1789 100.528 89.1344 100.539 89.0943 100.56C89.0542 100.58 89.0196 100.61 88.9934 100.647C88.9672 100.684 88.9502 100.726 88.9437 100.771C88.9372 100.816 88.9414 100.861 88.956 100.904L93.076 112.676C93.1264 112.839 93.2278 112.982 93.3653 113.084C93.5028 113.185 93.6691 113.24 93.84 113.24Z" fill="white"/>
<path d="M94.68 106.892C94.776 107.344 95.08 107.692 95.376 107.692C95.672 107.692 95.824 107.328 95.728 106.892C95.632 106.456 95.328 106.092 95.028 106.092C94.728 106.092 94.584 106.44 94.68 106.892Z" fill="white"/>
<path d="M79.28 106.568C79.28 106.568 76.712 104.188 78.08 103.156C79.448 102.124 76.48 100.536 77.54 99.764C78.6 98.992 77.02 96.992 77.94 96.66C78.86 96.328 77.716 95.16 78.384 94.596C79.264 93.86 79.084 97.628 79.96 97.692C80.836 97.756 79.096 99.832 80.184 100.092C81.272 100.352 79.784 102.708 80.808 102.752C81.832 102.796 80.888 105.356 79.28 106.568Z" fill="#3D8AED"/>
<path opacity="0.5" d="M79.28 106.568C79.28 106.568 76.712 104.188 78.08 103.156C79.448 102.124 76.48 100.536 77.54 99.764C78.6 98.992 77.02 96.992 77.94 96.66C78.86 96.328 77.716 95.16 78.384 94.596C79.264 93.86 79.084 97.628 79.96 97.692C80.836 97.756 79.096 99.832 80.184 100.092C81.272 100.352 79.784 102.708 80.808 102.752C81.832 102.796 80.888 105.356 79.28 106.568Z" fill="white"/>
<g opacity="0.2">
<path opacity="0.2" d="M78.424 95.564C78.6907 97.124 78.9053 98.6907 79.068 100.264C79.28 102.192 79.724 104.628 79.12 106.524C79.056 106.724 79.372 106.812 79.44 106.612C80.064 104.66 79.616 102.244 79.4 100.264C79.224 98.664 79 97.064 78.744 95.464C78.712 95.252 78.392 95.344 78.424 95.552V95.564Z" fill="black"/>
</g>
<path d="M78.424 106.152C78.424 106.152 75.776 104.876 76.604 103.716C77.432 102.556 74.672 102.008 75.336 101.124C76 100.24 74.232 99.028 74.892 98.532C75.552 98.036 74.14 96.844 74.744 96.768C75.708 96.648 76.052 99.028 76.768 98.864C77.484 98.7 76.604 100.792 77.54 100.74C78.476 100.688 77.872 102.936 78.7 102.74C79.528 102.544 79.416 104.8 78.424 106.152Z" fill="#3D8AED"/>
<g opacity="0.2">
<path opacity="0.2" d="M75.296 97.892C76.564 100.492 77.848 103.312 78.264 106.196C78.296 106.408 78.612 106.316 78.584 106.108C78.16 103.204 76.86 100.348 75.58 97.708C75.488 97.516 75.2 97.684 75.296 97.876V97.892Z" fill="black"/>
</g>
<path d="M80.648 106.152C80.648 106.152 83.296 104.876 82.468 103.716C81.64 102.556 84.4 102.008 83.736 101.124C83.072 100.24 84.84 99.028 84.18 98.532C83.52 98.036 84.732 97.588 84.332 96.768C83.932 95.948 83.02 99.028 82.304 98.864C81.588 98.7 82.468 100.792 81.532 100.74C80.596 100.688 81.2 102.936 80.372 102.74C79.544 102.544 79.656 104.8 80.648 106.152Z" fill="#3D8AED"/>
<path opacity="0.2" d="M80.648 106.152C80.648 106.152 83.296 104.876 82.468 103.716C81.64 102.556 84.4 102.008 83.736 101.124C83.072 100.24 84.84 99.028 84.18 98.532C83.52 98.036 84.732 97.588 84.332 96.768C83.932 95.948 83.02 99.028 82.304 98.864C81.588 98.7 82.468 100.792 81.532 100.74C80.596 100.688 81.2 102.936 80.372 102.74C79.544 102.544 79.656 104.8 80.648 106.152Z" fill="white"/>
<g opacity="0.2">
<path opacity="0.2" d="M83.752 97.892C82.484 100.492 81.2 103.312 80.784 106.196C80.752 106.408 80.436 106.316 80.464 106.108C80.884 103.204 82.188 100.348 83.468 97.708C83.56 97.516 83.868 97.684 83.752 97.876V97.892Z" fill="black"/>
</g>
<path d="M82.048 113.676H77.34L76.456 105.748H82.928L82.048 113.676Z" fill="#3D8AED"/>
<path opacity="0.3" d="M82.048 113.676H77.34L76.456 105.748H82.928L82.048 113.676Z" fill="white"/>
<path d="M94.032 163.492C93.7865 163.492 93.5497 163.401 93.3678 163.236C93.1859 163.071 93.0719 162.844 93.048 162.6L92.736 159.304V114.128H95.328V159.304L95.016 162.6C94.9922 162.844 94.8782 163.071 94.6963 163.236C94.5144 163.401 94.2776 163.492 94.032 163.492Z" fill="#263238"/>
<path opacity="0.3" d="M94.032 163.492C93.7865 163.492 93.5497 163.401 93.3678 163.236C93.1859 163.071 93.0719 162.844 93.048 162.6L92.736 159.304V114.128H95.328V159.304L95.016 162.6C94.9922 162.844 94.8782 163.071 94.6963 163.236C94.5144 163.401 94.2776 163.492 94.032 163.492Z" fill="white"/>
<path opacity="0.1" d="M95.332 114.568H92.736V117.756H95.332V114.568Z" fill="black"/>
<path d="M96.248 159.76V158.732C96.2485 158.636 96.2301 158.541 96.1937 158.452C96.1574 158.363 96.1039 158.283 96.0362 158.215C95.9685 158.147 95.8881 158.093 95.7995 158.056C95.7109 158.019 95.616 158 95.52 158H92.544C92.3509 158 92.1658 158.077 92.0292 158.213C91.8927 158.35 91.816 158.535 91.816 158.728V159.756L84.492 161.756C84.0601 161.875 83.6792 162.132 83.4076 162.488C83.1359 162.845 82.9885 163.28 82.988 163.728H105.076C105.075 163.28 104.928 162.845 104.656 162.488C104.385 162.132 104.004 161.875 103.572 161.756L96.248 159.76Z" fill="#3D8AED"/>
<path opacity="0.1" d="M96.248 159.736V158.732C96.25 158.699 96.25 158.665 96.248 158.632H91.848C91.846 158.665 91.846 158.699 91.848 158.732V159.736H96.248Z" fill="black"/>
<path opacity="0.2" d="M96.248 159.76V158.732C96.2485 158.636 96.2301 158.541 96.1937 158.452C96.1574 158.363 96.1039 158.283 96.0362 158.215C95.9685 158.147 95.8881 158.093 95.7995 158.056C95.7109 158.019 95.616 158 95.52 158H92.544C92.3509 158 92.1658 158.077 92.0292 158.213C91.8927 158.35 91.816 158.535 91.816 158.728V159.756L84.492 161.756C84.0601 161.875 83.6792 162.132 83.4076 162.488C83.1359 162.845 82.9885 163.28 82.988 163.728H105.076C105.075 163.28 104.928 162.845 104.656 162.488C104.385 162.132 104.004 161.875 103.572 161.756L96.248 159.76Z" fill="black"/>
<path d="M122.148 115.124H65.912V116.64H122.148V115.124Z" fill="#263238"/>
<path opacity="0.3" d="M122.148 115.124H65.912V116.64H122.148V115.124Z" fill="white"/>
<path opacity="0.2" d="M122.148 115.124H94.108V116.64H122.148V115.124Z" fill="black"/>
<path d="M125.54 113.604H62.52V115.12H125.54V113.604Z" fill="#3D8AED"/>
<path opacity="0.3" d="M125.54 113.604H90.716V115.12H125.54V113.604Z" fill="black"/>
</svg>
