<svg width="1224" height="148" viewBox="0 0 1224 148" fill="none" xmlns="http://www.w3.org/2000/svg">
<rect width="1224" height="148" rx="8" fill="#EAF2FF"/>
<path d="M1224 106C1219.54 106 1215.11 105.172 1210.99 103.564C1206.86 101.956 1203.12 99.5989 1199.96 96.6274C1196.8 93.6559 1194.3 90.1283 1192.59 86.2459C1190.88 82.3634 1190 78.2023 1190 74C1190 69.7977 1190.88 65.6365 1192.59 61.7541C1194.3 57.8717 1196.8 54.3441 1199.96 51.3726C1203.12 48.4011 1206.86 46.044 1210.99 44.4359C1215.11 42.8277 1219.54 42 1224 42L1224 74V106Z" fill="white"/>
<path d="M2.02656e-06 42C4.46495 42 8.88617 42.8277 13.0112 44.4359C17.1363 46.044 20.8844 48.4011 24.0416 51.3726C27.1988 54.3441 29.7032 57.8717 31.4119 61.7541C33.1206 65.6366 34 69.7977 34 74C34 78.2023 33.1206 82.3635 31.4119 86.2459C29.7032 90.1283 27.1988 93.6559 24.0416 96.6274C20.8844 99.5989 17.1363 101.956 13.0112 103.564C8.88617 105.172 4.46494 106 0 106L2.02656e-06 74L2.02656e-06 42Z" fill="white"/>
</svg>
