<svg id="Layer_1" data-name="Layer 1" xmlns="http://www.w3.org/2000/svg" viewBox="0 0 1336 148"><defs><style>.cls-1{fill:#e1ecf8;}.cls-2{fill:#fff;}</style></defs><title>tiket-1366</title><path class="cls-1" d="M9.27778,0H1326.72222C1331.84626,0,1336,3.58172,1336,8V140c0,4.41827-4.15374,8-9.27778,8H9.27778C4.1538,148,0,144.41827,0,140V8C0,3.58172,4.1538,0,9.27778,0Z"/><path class="cls-2" d="M1336,106a42.39163,42.39163,0,0,1-14.2066-2.436,37.9786,37.9786,0,0,1-12.03792-6.9366,32.01021,32.01021,0,0,1-8.03694-10.3815,27.91317,27.91317,0,0,1,0-24.4918,32.01021,32.01021,0,0,1,8.03694-10.3815,37.98073,37.98073,0,0,1,12.03792-6.9367A42.38655,42.38655,0,0,1,1336,42v64Z"/><path class="cls-2" d="M0,42a42.30957,42.30957,0,0,1,14.20184,2.4359A37.97826,37.97826,0,0,1,26.2415,51.3726a32.13815,32.13815,0,0,1,8.04464,10.3815,27.95473,27.95473,0,0,1,0,24.4918A32.13815,32.13815,0,0,1,26.2415,96.6274a37.97613,37.97613,0,0,1-12.03966,6.9366A42.31464,42.31464,0,0,1,0,106V42Z"/></svg>