<svg id="Layer_1" data-name="Layer 1" xmlns="http://www.w3.org/2000/svg" viewBox="0 0 1920 505"><defs><style>.cls-1,.cls-2{fill:#99c2ff;fill-rule:evenodd;}.cls-1{fill-opacity:0.2;}.cls-2{fill-opacity:0.3;}</style></defs><title>Untitled-2</title><path class="cls-1" d="M1920,1080V662s-73.94-53.64-138-70.37c-54.46-14.22-91.12-20.3-149.25-14.17-40.7,4.3-65.11,15.91-92.28,28.85-15.07,7.16-31,14.73-51,21.69-20.35,7.08-36.84,14.47-52.42,21.45-29.55,13.24-55.83,25-99.07,30.5-69.79,8.86-114.9-.8-179-14.53L1143,662c-37.19-7.88-62.5-18.94-88-30.1-24.26-10.61-48.71-21.3-83.74-29.41-10.29-2.38-20.08-4.73-29.5-7-61-14.65-106.72-25.62-176.75-18-41.43,4.49-66.92,19.31-92.53,34.19-25,14.56-50.19,29.18-90.47,34.3-75.36,9.57-123.86-.41-193.65-14.75q-7.62-1.58-15.6-3.2c-28.77-5.87-49.56-15.72-69.53-25.19-26.3-12.47-51.17-24.26-91-25.35C114.27,574.78,0,662,0,662v418Z" transform="translate(0 -575)"/><path class="cls-2" d="M1920,1080V826.07s-42.34-22.53-69-37.36c-18.58-10.33-32.52-20.57-45.75-30.3-22.09-16.22-42.21-31-78.73-42.39-38-11.85-70.89-10.35-104.86-8.79-28.52,1.31-57.82,2.65-91.65-3.83-39.65-7.61-66.83-22.14-93.3-36.29-31.06-16.61-61.12-32.69-109.2-36.41-62.75-4.85-105.24,10.93-151.36,28.06-30.24,11.23-62,23-102.14,30-33.75,5.85-62.34,7.92-89.87,9.92C946.37,701.41,910.6,704,866.25,716c-24.46,6.63-41.83,14.8-58.93,22.84-19.05,9-37.76,17.76-65.57,24.11-35,8-62.93,8.3-92.32,8.63-22,.25-44.79.5-71.93,4-29.19,3.75-52.2,10.22-74.29,16.43-30.8,8.66-59.8,16.82-101.21,16.38-55.29-.58-91.1-24.56-126.15-48-37.44-25.08-74-49.58-132.6-44.35C81.57,721.52,0,763,0,763v317Z" transform="translate(0 -575)"/></svg>