<svg width="400" height="350" viewBox="0 0 400 350" fill="none" xmlns="http://www.w3.org/2000/svg">
<path d="M3 76.9727L3 268.313C3 272.14 6.10267 275.243 9.93 275.243H290.556C294.383 275.243 297.486 272.14 297.486 268.313V76.9727C297.486 73.1453 294.383 70.0427 290.556 70.0427L9.93 70.0427C6.10267 70.0427 3 73.1453 3 76.9727Z" fill="#263238"/>
<path d="M23.1479 76.5104L23.1479 268.774H269.076V76.5104L23.1479 76.5104Z" fill="#EBEBEB"/>
<path d="M282.684 164.765C284.243 164.763 285.767 165.225 287.063 166.09C288.359 166.955 289.37 168.185 289.967 169.625C290.564 171.065 290.721 172.649 290.417 174.178C290.113 175.707 289.363 177.111 288.261 178.213C287.158 179.315 285.754 180.066 284.225 180.37C282.697 180.673 281.112 180.517 279.672 179.92C278.233 179.323 277.002 178.312 276.137 177.016C275.272 175.719 274.811 174.195 274.812 172.637C274.814 170.549 275.643 168.548 277.119 167.072C278.595 165.596 280.597 164.766 282.684 164.765Z" fill="#455A64"/>
<path d="M11.478 142.468L11.478 202.81C11.478 203.215 11.8058 203.542 12.21 203.542H13.998C14.4023 203.542 14.73 203.215 14.73 202.81L14.73 142.468C14.73 142.064 14.4023 141.736 13.998 141.736H12.21C11.8058 141.736 11.478 142.064 11.478 142.468Z" fill="#455A64"/>
<path d="M109.218 114.748C108.282 121.45 108.996 127.072 105.018 132.352C103.452 134.422 101.292 136.192 100.584 138.694C100.086 140.44 100.374 142.336 99.9062 144.094C98.7962 148.246 94.1282 150.094 90.7382 152.77C86.4422 156.136 83.8802 161.332 82.6682 166.66C81.4562 171.988 81.4682 177.502 81.5042 182.962C81.5042 185.29 81.7082 187.984 83.6042 189.334C84.9122 190.264 86.6342 190.246 88.2362 190.192L119.052 189.172C119.976 189.142 120.99 189.07 121.638 188.422C122.123 187.819 122.405 187.077 122.442 186.304C125.114 169.104 127.78 151.904 130.44 134.704L109.218 114.748Z" fill="#263238"/>
<path d="M193.362 132.628C189.354 116.134 196.716 118.228 194.562 101.392C194.022 97.1924 190.728 77.7524 189.162 73.7924C185.052 63.5264 167.982 42.8983 147.402 57.2803C146.358 60.0163 148.806 69.3343 150.942 71.3383C153.078 73.3423 162.726 66.7783 164.526 69.0823C165.942 70.8823 166.74 73.0903 167.94 75.0464C169.044 76.8463 170.484 78.4304 171.438 80.3084C172.542 82.4924 172.932 84.9644 173.238 87.3944C174.216 95.1524 174.504 103.114 172.68 110.716C170.592 119.422 165.828 127.27 163.32 135.862C160.954 143.998 160.657 152.596 162.456 160.876C162.728 162.565 163.356 164.176 164.298 165.604C166.506 168.604 170.856 169.312 174.42 168.256C177.984 167.2 180.948 164.716 183.726 162.316C186.168 160.168 188.604 157.936 190.26 155.146C192.06 152.098 192.852 148.546 193.608 145.108C194.088 143.223 194.368 141.292 194.442 139.348C194.354 137.073 193.991 134.817 193.362 132.628Z" fill="#263238"/>
<path d="M165.726 146.5C165.786 140.164 165.726 138.7 165.726 138.754C165.726 138.808 179.094 136.504 181.824 119.056C183.18 110.374 182.718 96.1544 181.956 84.5264C181.272 74.0624 174.312 61.2404 163.89 62.3684L131.346 70.6664C129.818 70.8326 128.408 71.5657 127.393 72.7209C126.379 73.8761 125.835 75.3695 125.868 76.9064L129.516 146.854C129.739 147.467 130.077 148.031 130.512 148.516C138.006 158.374 150.642 163.702 160.764 156.568C163.551 153.901 165.308 150.336 165.726 146.5Z" fill="#FFBE9D"/>
<path d="M175.26 96.3763C175.267 96.9597 175.045 97.5226 174.643 97.9452C174.241 98.3677 173.689 98.6164 173.106 98.6383C172.822 98.662 172.535 98.6284 172.264 98.5395C171.993 98.4507 171.742 98.3084 171.527 98.121C171.311 97.9336 171.136 97.705 171.01 97.4486C170.885 97.1922 170.812 96.9133 170.796 96.6283C170.788 96.0454 171.008 95.4824 171.409 95.0597C171.811 94.637 172.362 94.3881 172.944 94.3663C173.229 94.3426 173.516 94.3761 173.787 94.4649C174.059 94.5536 174.31 94.6959 174.526 94.8832C174.742 95.0705 174.918 95.2991 175.044 95.5555C175.17 95.8119 175.243 96.091 175.26 96.3763Z" fill="#263238"/>
<path d="M152.442 96.8744C152.449 97.4578 152.227 98.0208 151.825 98.4433C151.423 98.8659 150.871 99.1146 150.288 99.1364C150.003 99.1584 149.717 99.1235 149.446 99.0337C149.175 98.9438 148.925 98.8009 148.71 98.6132C148.495 98.4255 148.319 98.1968 148.194 97.9405C148.068 97.6842 147.995 97.4054 147.978 97.1204C147.973 96.5374 148.195 95.9753 148.597 95.5531C148.999 95.1309 149.55 94.8818 150.132 94.8584C150.417 94.8347 150.704 94.8685 150.976 94.9577C151.247 95.0469 151.498 95.1897 151.714 95.3778C151.929 95.5658 152.104 95.7951 152.23 96.0522C152.355 96.3093 152.427 96.5889 152.442 96.8744Z" fill="#263238"/>
<path d="M154.608 93.6282C154.236 93.7362 152.646 92.3562 149.994 91.5942C147.342 90.8322 145.116 91.0722 144.894 90.7962C144.786 90.6642 145.212 90.4062 146.19 90.2742C147.591 90.1321 149.006 90.2687 150.354 90.6762C151.672 91.0349 152.899 91.6688 153.954 92.5362C154.626 93.1542 154.788 93.5862 154.608 93.6282Z" fill="#263238"/>
<path d="M178.74 90.6225C178.494 90.9225 176.4 90.6825 173.784 91.5585C171.168 92.4345 169.47 93.8865 169.128 93.7785C168.96 93.7365 169.164 93.2805 169.902 92.6205C170.974 91.7098 172.216 91.0205 173.556 90.5925C174.844 90.1437 176.212 89.9759 177.57 90.1005C178.488 90.2205 178.86 90.4845 178.74 90.6225Z" fill="#263238"/>
<path d="M164.01 110.273C164.01 110.135 165.492 109.871 167.916 109.559C168.516 109.493 169.116 109.367 169.218 108.959C169.32 108.551 169.098 107.855 168.804 107.159L166.974 102.479C164.436 95.8186 162.594 90.3466 162.864 90.2446C163.134 90.1426 165.408 95.4586 167.946 102.119C168.546 103.763 169.146 105.329 169.698 106.823C169.932 107.525 170.334 108.317 170.022 109.223C169.935 109.441 169.798 109.636 169.623 109.793C169.449 109.95 169.24 110.065 169.014 110.129C168.674 110.221 168.323 110.269 167.97 110.273C165.534 110.393 164.016 110.405 164.01 110.273Z" fill="#263238"/>
<path d="M165.726 138.754C157.504 138.901 149.403 136.761 142.326 132.574C142.326 132.574 148.23 144.634 165.684 142.966L165.726 138.754Z" fill="#EB996E"/>
<path d="M155.262 86.7164C155.028 87.3704 152.622 87.0644 149.796 87.4124C146.97 87.7604 144.69 88.5344 144.318 87.9464C144.15 87.6704 144.546 87.0524 145.464 86.4164C146.684 85.619 148.077 85.1252 149.526 84.9764C150.971 84.8012 152.437 84.9697 153.804 85.4684C154.842 85.8884 155.364 86.3984 155.262 86.7164Z" fill="#263238"/>
<path d="M180.192 86.4523C179.682 86.9983 177.666 86.4523 175.248 86.4163C172.83 86.3803 170.784 86.7943 170.31 86.2243C170.106 85.9423 170.424 85.3963 171.318 84.8743C172.556 84.226 173.942 83.9156 175.338 83.9743C176.726 83.977 178.087 84.352 179.28 85.0603C180.126 85.6243 180.42 86.1823 180.192 86.4523Z" fill="#263238"/>
<path d="M155.208 61.9906C155.012 61.6323 154.744 61.3179 154.422 61.0666C149.256 56.5306 141.552 55.4086 135.03 57.5806C128.508 59.7526 123.954 68.0026 120.87 74.1466C118.374 79.1146 115.656 86.3446 115.536 91.9186C114.72 96.9466 114.552 97.1806 112.95 102.011C111.108 107.573 108.462 113.153 109.008 118.985C109.362 122.843 111.114 126.593 110.634 130.433C110.154 134.273 107.436 137.633 106.608 141.497C106.068 143.981 106.338 146.573 106.566 149.075C106.836 152.348 107.35 155.597 108.102 158.795C108.183 159.269 108.39 159.712 108.702 160.079C109.103 160.429 109.583 160.678 110.1 160.805C118.464 163.571 127.218 166.373 135.9 165.047C136.526 165.005 137.127 164.782 137.628 164.405C137.701 164.334 137.76 164.251 137.802 164.159C140.238 158.825 131.076 151.901 130.806 145.979C130.548 140.159 130.056 133.727 133.944 129.389C137.28 125.675 138.06 121.397 134.544 111.431C133.809 109.383 133.398 107.233 133.326 105.059C133.326 104.783 133.326 104.507 133.326 104.231C133.566 97.6306 139.566 93.0166 144.06 88.1866C150.308 81.4265 154.252 72.8605 155.328 63.7186C155.446 63.1424 155.404 62.545 155.208 61.9906Z" fill="#263238"/>
<path d="M154.872 63.1422C156.462 66.3342 160.206 67.6602 163.518 68.9742C167.104 70.3923 170.562 72.1125 173.856 74.1162C175.327 74.9392 176.663 75.9834 177.816 77.2122C179.442 79.0722 180.264 81.4902 180.996 83.8542C181.952 86.9462 182.82 90.0602 183.6 93.1962C185.892 87.1302 186.534 80.3322 184.704 74.1102C182.874 67.8882 178.404 62.3442 172.41 59.8662C166.416 57.3882 158.976 58.3242 154.212 62.7222" fill="#263238"/>
<path d="M110.364 118.517C110.224 117.543 110.162 116.56 110.178 115.577C110.218 112.228 110.948 108.925 112.323 105.872C113.698 102.819 115.689 100.083 118.17 97.8346C121.506 94.7746 125.934 92.4706 130.362 89.8426C134.58 87.438 138.359 84.3361 141.54 80.6686C142.908 79.0546 144.163 77.3486 145.296 75.5626C146.269 73.998 147.141 72.3727 147.906 70.6966C149.026 68.2715 149.903 65.7411 150.522 63.1426C150.768 62.2246 150.882 61.4986 150.99 61.0126L151.104 60.4546C151.114 60.3906 151.132 60.3281 151.158 60.2686C151.163 60.3324 151.163 60.3967 151.158 60.4606C151.158 60.6046 151.11 60.7906 151.074 61.0246C150.99 61.5106 150.894 62.2246 150.666 63.1666C150.086 65.7867 149.237 68.3402 148.134 70.7866C147.375 72.4778 146.509 74.1191 145.542 75.7006C144.41 77.5042 143.153 79.2264 141.78 80.8546C140.254 82.6441 138.575 84.2982 136.764 85.7986C134.811 87.4008 132.732 88.8435 130.548 90.1126C126.102 92.7466 121.698 95.0326 118.386 98.0446C115.43 100.679 113.167 104.001 111.798 107.717C110.883 110.219 110.376 112.853 110.298 115.517C110.298 116.465 110.298 117.197 110.334 117.695L110.364 118.259C110.378 118.344 110.378 118.431 110.364 118.517Z" fill="#455A64"/>
<path d="M110.688 128.248C110.668 128.18 110.656 128.11 110.652 128.038C110.652 127.888 110.604 127.684 110.568 127.438C110.49 126.898 110.412 126.094 110.346 125.038C110.152 122.101 110.38 119.151 111.024 116.278C111.485 114.296 112.212 112.385 113.184 110.596C114.321 108.55 115.791 106.706 117.534 105.142C119.446 103.419 121.477 101.833 123.612 100.396C125.796 98.8664 128.106 97.3424 130.302 95.5664C134.418 92.1944 138.052 88.2738 141.102 83.9144C143.602 80.3654 145.869 76.6576 147.888 72.8144C149.634 69.5444 150.948 66.8144 151.854 64.9784C152.304 64.0604 152.652 63.3404 152.898 62.8304L153.174 62.2724C153.203 62.2069 153.24 62.1445 153.282 62.0864C153.263 62.155 153.237 62.2214 153.204 62.2844L152.958 62.8544L151.926 65.0384C151.056 66.9164 149.772 69.6344 148.05 72.9224C146.052 76.7909 143.797 80.5212 141.3 84.0884C138.257 88.4765 134.622 92.4237 130.5 95.8184C128.292 97.6184 125.976 99.1304 123.792 100.654C121.666 102.082 119.642 103.653 117.732 105.358C116.006 106.908 114.549 108.733 113.418 110.758C112.443 112.521 111.712 114.409 111.246 116.368C110.585 119.218 110.325 122.147 110.472 125.068C110.52 126.1 110.58 126.904 110.634 127.468C110.634 127.726 110.676 127.93 110.688 128.068C110.695 128.128 110.695 128.189 110.688 128.248Z" fill="#455A64"/>
<path d="M185.616 95.0625C185.616 95.0625 185.616 95.0145 185.676 94.9245C185.736 94.8345 185.79 94.6906 185.868 94.5285C185.946 94.3666 186.066 94.1505 186.174 93.8865C186.282 93.6225 186.384 93.3165 186.51 92.9745C187.112 90.9954 187.203 88.8962 186.774 86.8725C186.148 83.8676 184.745 81.0792 182.706 78.7845C180.426 76.1865 177.186 74.0685 173.61 72.3045C170.034 70.5405 166.44 69.2025 163.272 67.7625C160.44 66.5334 157.747 65.0069 155.238 63.2085C153.555 61.9777 152.054 60.5152 150.78 58.8645C150.57 58.5645 150.378 58.3005 150.21 58.0665C150.042 57.8325 149.94 57.6225 149.838 57.4665L149.61 57.0885C149.582 57.048 149.56 57.0035 149.544 56.9565C149.544 56.9565 149.58 56.9925 149.64 57.0705C149.7 57.1485 149.79 57.2865 149.886 57.4365C149.982 57.5865 150.12 57.7965 150.288 58.0365L150.888 58.8105C152.187 60.4213 153.699 61.8484 155.382 63.0525C157.89 64.8142 160.575 66.3103 163.392 67.5165C166.554 68.9385 170.142 70.2705 173.748 72.0405C177.354 73.8105 180.618 75.9645 182.922 78.6405C184.982 80.9798 186.388 83.8216 186.996 86.8785C187.409 88.9381 187.281 91.0693 186.624 93.0645L186.258 93.9705C186.144 94.2345 186.012 94.4325 185.922 94.6065L185.7 94.9905C185.652 95.0265 185.622 95.0686 185.616 95.0625Z" fill="#455A64"/>
<path d="M162.552 114.97L158.898 113.77C158.668 113.667 158.411 113.642 158.166 113.698C157.922 113.825 157.735 114.039 157.644 114.298C157.171 115.163 156.85 116.103 156.696 117.076C156.624 117.558 156.657 118.049 156.792 118.516C156.928 118.983 157.163 119.415 157.482 119.782C157.838 120.155 158.296 120.414 158.799 120.527C159.302 120.64 159.827 120.603 160.308 120.418C160.74 120.186 161.116 119.862 161.409 119.47C161.702 119.077 161.906 118.624 162.006 118.144C162.241 117.22 162.548 116.315 162.924 115.438L162.552 114.97Z" fill="#EB996E"/>
<path d="M160.386 120.412C160.386 120.442 160.248 120.61 159.858 120.754C159.294 120.935 158.686 120.923 158.13 120.718C157.722 120.558 157.352 120.316 157.042 120.006C156.733 119.696 156.49 119.326 156.33 118.918C155.933 117.915 155.914 116.803 156.276 115.786C156.447 115.27 156.685 114.777 156.984 114.322C157.265 113.833 157.729 113.474 158.274 113.326C158.762 113.268 159.256 113.354 159.696 113.572L160.74 114.028C162.006 114.628 162.774 114.994 162.744 115.072C162.714 115.15 161.886 114.904 160.578 114.442L159.51 114.052C159.16 113.898 158.774 113.842 158.394 113.89C158.008 114.024 157.686 114.298 157.494 114.658C157.243 115.074 157.042 115.517 156.894 115.978C156.579 116.859 156.579 117.822 156.894 118.702C157.15 119.412 157.676 119.993 158.358 120.316C158.828 120.526 159.349 120.597 159.858 120.52C160.164 120.46 160.362 120.364 160.386 120.412Z" fill="#263238"/>
<path d="M167.238 93.3941C166.899 93.2916 166.568 93.1632 166.248 93.0101C165.464 92.7203 164.625 92.6136 163.794 92.6981C162.966 92.8053 162.184 93.1374 161.532 93.6581C161.034 94.0661 160.788 94.3961 160.74 94.3601C160.883 94.0238 161.105 93.7273 161.388 93.4961C162.048 92.8795 162.89 92.4923 163.788 92.3921C164.668 92.2946 165.557 92.4377 166.362 92.806C166.692 92.9385 166.99 93.1389 167.238 93.3941Z" fill="#455A64"/>
<path d="M160.926 96.5024C160.916 96.4429 160.916 96.382 160.926 96.3224L160.878 95.7944C160.87 95.5062 160.838 95.2192 160.782 94.9364C160.725 94.5499 160.645 94.1672 160.542 93.7904C159.904 91.3647 158.469 89.224 156.468 87.7124C154.998 86.5957 153.271 85.8669 151.445 85.5933C149.62 85.3196 147.755 85.5098 146.022 86.1464C145.02 86.4986 144.079 87.0047 143.232 87.6464C142.793 87.9723 142.376 88.327 141.984 88.7084C141.597 89.1107 141.236 89.5376 140.904 89.9864C139.513 91.873 138.762 94.1554 138.762 96.4994C138.762 98.8434 139.513 101.126 140.904 103.012C141.233 103.464 141.594 103.891 141.984 104.29C142.376 104.674 142.793 105.031 143.232 105.358C144.08 105.998 145.021 106.504 146.022 106.858C148.436 107.733 151.079 107.743 153.499 106.886C155.92 106.029 157.968 104.359 159.294 102.16C159.853 101.245 160.274 100.253 160.542 99.2144C160.645 98.8375 160.725 98.4548 160.782 98.0684C160.838 97.7856 160.87 97.4986 160.878 97.2104L160.926 96.6824C160.916 96.6229 160.916 96.562 160.926 96.5024C160.933 96.5622 160.933 96.6226 160.926 96.6824C160.926 96.8204 160.926 96.9944 160.926 97.2164C160.928 97.506 160.904 97.7951 160.854 98.0804C160.811 98.4733 160.739 98.8624 160.638 99.2444C160.395 100.3 159.99 101.312 159.438 102.244C158.712 103.492 157.748 104.585 156.6 105.46C155.208 106.536 153.582 107.268 151.854 107.596C149.871 107.968 147.824 107.802 145.926 107.116C144.898 106.756 143.93 106.24 143.058 105.586C142.608 105.249 142.179 104.884 141.774 104.494C141.374 104.083 141.003 103.644 140.664 103.18C139.23 101.243 138.457 98.8973 138.457 96.4874C138.457 94.0776 139.23 91.7314 140.664 89.7944C141.328 88.8694 142.139 88.0588 143.064 87.3944C143.935 86.7459 144.9 86.234 145.926 85.8764C147.827 85.1871 149.879 85.0233 151.866 85.4024C153.438 85.7036 154.928 86.3368 156.236 87.2598C157.544 88.1827 158.639 89.3741 159.45 90.7544C160.003 91.6862 160.408 92.6983 160.65 93.7544C160.752 94.1362 160.824 94.5254 160.866 94.9184C160.916 95.2037 160.94 95.4928 160.938 95.7824C160.938 96.0044 160.938 96.1784 160.938 96.3164C160.941 96.3787 160.937 96.4411 160.926 96.5024Z" fill="#455A64"/>
<path d="M145.554 105.034C145.373 105.022 145.196 104.975 145.032 104.896C144.576 104.739 144.136 104.538 143.718 104.296C142.317 103.463 141.168 102.265 140.394 100.83C139.621 99.3952 139.252 97.777 139.326 96.1484C139.347 95.6616 139.411 95.1777 139.518 94.7024C139.546 94.5245 139.603 94.3523 139.686 94.1924C139.746 94.1924 139.548 94.9424 139.548 96.1544C139.538 97.7306 139.926 99.2837 140.677 100.669C141.429 102.055 142.518 103.229 143.844 104.08C144.846 104.716 145.572 104.986 145.554 105.034Z" fill="white"/>
<path d="M148.074 105.916C148.074 106 147.9 106.048 147.708 106.024C147.516 106 147.372 105.916 147.384 105.826C147.396 105.736 147.558 105.694 147.744 105.718C147.93 105.742 148.08 105.85 148.074 105.916Z" fill="white"/>
<path d="M189.126 96.5024C189.117 96.4428 189.117 96.3821 189.126 96.3224C189.126 96.1844 189.126 96.0104 189.084 95.7944C189.077 95.5059 189.043 95.2186 188.982 94.9364C188.931 94.5495 188.852 94.1666 188.748 93.7904C188.11 91.3647 186.675 89.224 184.674 87.7124C183.204 86.5957 181.477 85.8669 179.651 85.5933C177.826 85.3196 175.961 85.5098 174.228 86.1464C173.226 86.4986 172.285 87.0047 171.438 87.6464C170.999 87.9723 170.582 88.327 170.19 88.7084C169.803 89.1107 169.442 89.5376 169.11 89.9864C167.719 91.873 166.968 94.1554 166.968 96.4994C166.968 98.8434 167.719 101.126 169.11 103.012C169.439 103.464 169.8 103.891 170.19 104.29C170.582 104.674 170.999 105.031 171.438 105.358C172.286 105.998 173.227 106.504 174.228 106.858C176.642 107.733 179.285 107.743 181.705 106.886C184.126 106.029 186.174 104.359 187.5 102.16C188.059 101.245 188.48 100.253 188.748 99.2144C188.852 98.8381 188.93 98.4553 188.982 98.0684C189.043 97.7862 189.077 97.499 189.084 97.2104C189.084 96.9944 189.12 96.8204 189.126 96.6824C189.117 96.6228 189.117 96.5621 189.126 96.5024C189.133 96.5622 189.133 96.6226 189.126 96.6824C189.126 96.8204 189.126 96.9944 189.126 97.2164C189.125 97.5059 189.101 97.7947 189.054 98.0804C189.011 98.4733 188.939 98.8624 188.838 99.2444C188.595 100.3 188.19 101.312 187.638 102.244C186.911 103.493 185.945 104.586 184.794 105.46C183.405 106.537 181.781 107.269 180.054 107.596C178.071 107.968 176.024 107.802 174.126 107.116C173.098 106.756 172.13 106.24 171.258 105.586C170.807 105.251 170.378 104.886 169.974 104.494C169.574 104.083 169.203 103.644 168.864 103.18C167.43 101.243 166.656 98.8973 166.656 96.4874C166.656 94.0776 167.43 91.7314 168.864 89.7944C169.528 88.8694 170.339 88.0588 171.264 87.3944C172.135 86.7459 173.1 86.234 174.126 85.8764C176.027 85.1871 178.079 85.0233 180.066 85.4024C181.638 85.7036 183.128 86.3368 184.436 87.2598C185.744 88.1827 186.839 89.3741 187.65 90.7544C188.203 91.6862 188.608 92.6983 188.85 93.7544C188.952 94.1362 189.024 94.5254 189.066 94.9184C189.113 95.2041 189.137 95.493 189.138 95.7824C189.138 96.0044 189.138 96.1784 189.138 96.3164C189.141 96.3787 189.137 96.4411 189.126 96.5024Z" fill="#455A64"/>
<path d="M169.866 102.634C169.866 102.634 169.722 102.496 169.518 102.202C169.24 101.783 168.997 101.342 168.792 100.882C168.096 99.3584 167.761 97.6941 167.814 96.0195C167.867 94.3448 168.307 92.7051 169.098 91.2283C169.34 90.7832 169.617 90.3578 169.926 89.9563C170.031 89.804 170.156 89.6667 170.298 89.5483C170.346 89.5843 169.86 90.2023 169.314 91.3483C168.601 92.8158 168.203 94.416 168.144 96.0463C168.101 97.6769 168.395 99.2988 169.008 100.81C169.464 101.956 169.926 102.604 169.866 102.634Z" fill="white"/>
<path d="M171.168 104.116C171.102 104.176 170.916 104.068 170.748 103.876C170.58 103.684 170.496 103.486 170.562 103.426C170.628 103.366 170.814 103.48 170.982 103.672C171.15 103.864 171.234 104.068 171.168 104.116Z" fill="white"/>
<path d="M114.33 147.358L130.71 142.918C130.71 142.918 137.118 158.266 151.524 158.122C167.31 157.966 165.756 143.776 165.756 143.776L194.868 148.48L198.984 198.316C198.984 198.316 196.542 242.674 192.144 252.634L198.984 268.762H102.48L100.926 154.204L114.33 147.358Z" fill="#455A64"/>
<path d="M172.026 214.246C172.896 213.718 173.826 213.538 174.54 213.148C175.254 212.758 176.34 212.914 176.538 213.682C176.79 214.546 175.812 215.23 174.99 215.602C176.88 216.508 179.46 214.51 181.086 215.83C182.154 216.694 181.902 218.506 180.918 219.46C179.934 220.414 178.518 220.708 177.132 220.864C175.746 221.02 174.354 221.11 173.154 221.776C172.554 222.124 171.954 222.802 172.152 223.486C172.524 224.644 174.684 224.398 174.948 225.586C175.128 226.39 174.234 226.984 173.484 227.326L165.294 231.016C164.602 231.413 163.818 231.62 163.02 231.616C162.624 231.598 162.249 231.431 161.971 231.149C161.693 230.866 161.532 230.489 161.52 230.092C161.604 229.318 162.432 228.838 163.206 228.724C163.983 228.707 164.757 228.629 165.522 228.49C166.266 228.262 166.944 227.488 166.674 226.756C166.332 225.85 165.036 225.928 164.1 226.156L155.406 228.466C154.781 228.69 154.108 228.744 153.456 228.622C153.137 228.54 152.862 228.337 152.688 228.056C152.515 227.776 152.457 227.439 152.526 227.116C152.671 226.804 152.902 226.539 153.192 226.354C155.271 224.796 157.671 223.719 160.218 223.204C161.193 223.088 162.143 222.817 163.032 222.4C163.884 221.914 164.55 220.936 164.316 220C162.522 220.65 160.66 221.093 158.766 221.32C158.094 221.404 157.206 221.32 157.014 220.672C156.822 220.024 157.554 219.472 158.184 219.142L168.306 214.156C169.164 213.736 170.148 213.304 171.048 213.628L172.026 214.246Z" fill="white"/>
<path d="M132.684 246.448C133.56 245.92 134.484 245.74 135.198 245.35C135.912 244.96 136.998 245.116 137.202 245.878C137.454 246.748 136.476 247.432 135.648 247.804C137.538 248.71 140.118 246.712 141.75 248.032C142.812 248.896 142.56 250.708 141.576 251.662C140.592 252.616 139.176 252.91 137.796 253.066C136.416 253.222 135.012 253.312 133.812 253.978C133.212 254.326 132.612 255.004 132.81 255.688C133.182 256.846 135.342 256.6 135.606 257.788C135.786 258.592 134.898 259.186 134.148 259.522L125.952 263.218C125.259 263.612 124.475 263.819 123.678 263.818C122.892 263.74 122.1 263.08 122.184 262.294C122.268 261.508 123.096 261.04 123.864 260.926C124.641 260.91 125.415 260.831 126.18 260.692C126.924 260.464 127.608 259.69 127.332 258.958C126.996 258.052 125.7 258.13 124.764 258.358L116.064 260.668C115.441 260.892 114.77 260.946 114.12 260.824C113.799 260.748 113.52 260.551 113.341 260.274C113.162 259.996 113.097 259.66 113.16 259.336C113.304 259.022 113.538 258.756 113.832 258.574C115.909 257.017 118.307 255.941 120.852 255.424C121.827 255.308 122.777 255.037 123.666 254.62C124.518 254.134 125.19 253.156 124.956 252.22C123.162 252.868 121.3 253.311 119.406 253.54C118.728 253.624 117.846 253.54 117.648 252.892C117.45 252.244 118.194 251.692 118.818 251.362L128.94 246.376C129.798 245.956 130.782 245.518 131.682 245.848L132.684 246.448Z" fill="white"/>
<path d="M177.942 250.834C178.818 250.306 179.742 250.126 180.456 249.73C181.17 249.334 182.256 249.502 182.46 250.264C182.712 251.134 181.734 251.818 180.912 252.19C182.802 253.096 185.382 251.098 187.008 252.418C188.07 253.282 187.824 255.094 186.834 256.048C185.844 257.002 184.434 257.29 183.054 257.452C181.674 257.614 180.276 257.698 179.076 258.364C178.446 258.712 177.876 259.39 178.074 260.074C178.446 261.232 180.6 260.98 180.87 262.168C181.05 262.972 180.156 263.572 179.406 263.908L171.216 267.604C170.521 267.998 169.735 268.205 168.936 268.204C168.54 268.185 168.166 268.016 167.889 267.732C167.612 267.449 167.452 267.071 167.442 266.674C167.52 265.9 168.354 265.426 169.128 265.312C169.905 265.295 170.679 265.217 171.444 265.078C172.188 264.85 172.866 264.07 172.596 263.344C172.254 262.438 170.958 262.516 170.022 262.744L161.328 265.054C160.703 265.279 160.03 265.331 159.378 265.204C159.056 265.13 158.777 264.932 158.598 264.654C158.42 264.376 158.358 264.04 158.424 263.716C158.569 263.404 158.8 263.139 159.09 262.954C161.171 261.399 163.57 260.326 166.116 259.81C167.09 259.691 168.04 259.42 168.93 259.006C169.776 258.52 170.448 257.542 170.214 256.606C168.421 257.26 166.559 257.705 164.664 257.932C163.986 258.01 163.104 257.932 162.912 257.284C162.72 256.636 163.452 256.084 164.082 255.754L174.198 250.768C175.062 250.342 176.04 249.91 176.946 250.24L177.942 250.834Z" fill="white"/>
<path d="M138.864 193.768C139.74 193.24 140.664 193.06 141.378 192.67C142.092 192.28 143.178 192.442 143.382 193.204C143.634 194.068 142.65 194.752 141.828 195.124C143.718 196.036 146.298 194.038 147.924 195.352C148.992 196.216 148.74 198.034 147.756 198.982C146.772 199.93 145.356 200.23 143.97 200.392C142.584 200.554 141.192 200.638 139.992 201.298C139.392 201.646 138.792 202.324 138.99 203.008C139.362 204.172 141.522 203.92 141.786 205.108C141.966 205.912 141.078 206.506 140.322 206.848L132.126 210.538C131.433 210.932 130.649 211.139 129.852 211.138C129.456 211.118 129.082 210.949 128.804 210.666C128.526 210.382 128.365 210.005 128.352 209.608C128.436 208.834 129.27 208.36 130.038 208.246C130.815 208.226 131.589 208.148 132.354 208.012C133.098 207.778 133.776 207.004 133.506 206.272C133.164 205.366 131.874 205.444 130.938 205.672L122.238 207.976C121.613 208.2 120.941 208.254 120.288 208.132C119.967 208.056 119.688 207.859 119.511 207.581C119.333 207.304 119.269 206.968 119.334 206.644C119.478 206.33 119.712 206.064 120.006 205.882C122.085 204.327 124.482 203.251 127.026 202.732C128.003 202.61 128.955 202.335 129.846 201.916C130.284 201.7 130.643 201.352 130.874 200.922C131.105 200.492 131.197 200.001 131.136 199.516C129.34 200.165 127.476 200.608 125.58 200.836C124.908 200.92 124.02 200.836 123.828 200.194C123.636 199.552 124.368 198.994 124.998 198.664L135.126 193.684C135.984 193.258 136.968 192.826 137.868 193.15L138.864 193.768Z" fill="white"/>
<g opacity="0.2">
<path opacity="0.2" d="M193.452 246.478C193.14 245.038 192.342 243.766 191.652 242.452C190.008 239.182 189.168 235.564 187.596 232.252C184.728 226.21 179.58 221.572 174.246 217.528C168.912 213.484 163.23 209.824 158.646 204.958L158.454 205.072C163.434 213.13 168.618 221.614 173.802 229.546L185.154 246.946C185.887 248.248 186.874 249.389 188.058 250.3C189.3 251.122 191.058 251.374 192.258 250.498C193.458 249.622 193.764 247.918 193.452 246.478Z" fill="black"/>
</g>
<path d="M238.824 229.337C235.428 217.337 227.586 198.371 224.424 191.117C221.262 183.863 209.94 161.831 209.94 161.831C209.94 161.831 204.222 150.233 193.74 148.307L189.9 192.749L178.944 182.393C178.944 182.393 157.554 197.825 157.914 204.041L183.888 231.431C183.888 231.431 189.114 242.933 199.572 250.775C210.03 258.617 210.81 263.843 219.696 263.315C228.582 262.787 226.752 265.931 232.242 257.315C237.732 248.699 242.22 241.361 238.824 229.337Z" fill="#455A64"/>
<path d="M172.704 216.442C172.656 216.472 172.164 215.656 171.174 214.492C169.861 212.998 168.469 211.574 167.004 210.226C165.534 208.862 164.172 207.386 162.93 205.81C162.462 205.21 162.102 204.694 161.868 204.334C161.73 204.149 161.615 203.948 161.526 203.734C161.692 203.884 161.839 204.053 161.964 204.238C162.228 204.574 162.612 205.06 163.104 205.648C164.387 207.173 165.761 208.618 167.22 209.974C168.694 211.33 170.073 212.786 171.348 214.33C171.723 214.809 172.071 215.308 172.392 215.824C172.52 216.017 172.625 216.225 172.704 216.442Z" fill="#263238"/>
<path d="M178.086 215.44C177.867 215.308 177.666 215.149 177.486 214.966C177.126 214.648 176.61 214.174 175.992 213.568C174.75 212.368 173.082 210.652 171.342 208.672C169.602 206.692 168.126 204.802 167.1 203.41C166.584 202.714 166.176 202.144 165.9 201.742C165.746 201.543 165.613 201.327 165.504 201.1C165.688 201.272 165.853 201.463 165.996 201.67L167.262 203.278C168.33 204.634 169.83 206.482 171.564 208.462C173.298 210.442 174.936 212.176 176.136 213.412L177.558 214.882C177.75 215.052 177.927 215.239 178.086 215.44Z" fill="#263238"/>
<path d="M183.204 212.716C182.989 212.576 182.788 212.416 182.604 212.236C182.226 211.912 181.686 211.432 181.02 210.832C179.7 209.632 177.9 207.94 175.968 206.032C174.036 204.124 172.326 202.33 171.12 201.016C170.52 200.356 170.028 199.816 169.704 199.438C169.526 199.252 169.363 199.051 169.218 198.838C169.437 198.992 169.638 199.169 169.818 199.366L171.3 200.866C172.554 202.144 174.3 203.902 176.214 205.816C178.128 207.73 179.916 209.452 181.194 210.688L182.712 212.164C182.895 212.33 183.06 212.515 183.204 212.716Z" fill="#263238"/>
<path d="M185.49 207.034C185.49 207.034 185.298 206.896 184.992 206.596L183.726 205.336L179.526 201.136L175.29 196.972L174.018 195.7C173.851 195.552 173.702 195.385 173.574 195.202C173.765 195.317 173.943 195.454 174.102 195.61C174.426 195.886 174.882 196.3 175.446 196.81C176.568 197.836 178.098 199.282 179.748 200.914C181.398 202.546 182.856 204.064 183.894 205.174C184.416 205.732 184.83 206.188 185.094 206.506C185.244 206.668 185.377 206.845 185.49 207.034Z" fill="#263238"/>
<path d="M186.726 201.592C186.796 201.745 186.845 201.907 186.87 202.072L186.924 202.288L186.78 202.114C186.078 201.28 184.224 198.904 181.902 196.24C180.432 194.548 179.052 193.054 178.044 191.98L176.844 190.708C176.686 190.562 176.549 190.394 176.436 190.21C176.614 190.329 176.779 190.466 176.928 190.618C177.234 190.894 177.672 191.308 178.194 191.818C179.244 192.856 180.654 194.332 182.13 196.018C183.815 197.929 185.391 199.932 186.852 202.018L186.756 202.054C186.724 201.903 186.714 201.747 186.726 201.592Z" fill="#263238"/>
<path d="M190.962 199.661C190.794 199.476 190.645 199.275 190.518 199.061C190.254 198.665 189.858 198.095 189.366 197.405C186.789 193.796 183.765 190.528 180.366 187.679C179.712 187.133 179.166 186.701 178.806 186.407C178.601 186.266 178.413 186.101 178.248 185.915C178.472 186.02 178.683 186.151 178.878 186.305C179.274 186.575 179.832 186.983 180.504 187.505C182.256 188.884 183.897 190.398 185.412 192.035C186.928 193.671 188.317 195.423 189.564 197.273C190.038 197.987 190.404 198.569 190.638 198.989C190.775 199.198 190.884 199.423 190.962 199.661Z" fill="#263238"/>
<path d="M220.398 215.368C221.274 214.834 222.198 214.654 222.912 214.264C223.626 213.874 224.712 214.036 224.916 214.798C225.168 215.662 224.19 216.352 223.368 216.724C225.252 217.63 227.832 215.632 229.464 216.952C230.526 217.81 230.274 219.628 229.29 220.582C228.306 221.536 226.89 221.824 225.51 221.986C224.13 222.148 222.726 222.232 221.526 222.916C220.896 223.264 220.326 223.942 220.518 224.626C220.896 225.784 223.05 225.532 223.32 226.72C223.494 227.524 222.606 228.124 221.856 228.46L213.666 232.15C212.972 232.547 212.186 232.753 211.386 232.75C210.6 232.666 209.808 232.012 209.892 231.22C209.976 230.428 210.804 229.972 211.572 229.858C212.351 229.838 213.127 229.76 213.894 229.624C214.638 229.396 215.316 228.616 215.04 227.89C214.704 226.978 213.408 227.056 212.472 227.29L203.778 229.594C203.154 229.821 202.48 229.875 201.828 229.75C201.506 229.676 201.227 229.478 201.048 229.2C200.87 228.922 200.808 228.586 200.874 228.262C201.015 227.948 201.247 227.682 201.54 227.5C203.619 225.947 206.017 224.873 208.56 224.356C209.535 224.238 210.484 223.967 211.374 223.552C212.226 223.066 212.898 222.088 212.664 221.152C210.87 221.802 209.008 222.247 207.114 222.478C206.436 222.556 205.554 222.478 205.356 221.83C205.158 221.182 205.902 220.63 206.556 220.3L216.672 215.314C217.536 214.888 218.514 214.456 219.414 214.786L220.398 215.368Z" fill="white"/>
<path d="M212.76 262.055C212.76 262.055 212.55 261.899 212.16 261.575C211.77 261.251 211.176 260.765 210.426 260.135L203.856 254.633L199.158 250.691C197.273 249.172 195.471 247.553 193.758 245.843C191.853 243.858 190.103 241.73 188.526 239.477C186.744 236.981 185.173 234.342 183.828 231.587V231.623L157.068 203.969L157.008 203.909V203.831C157.374 202.133 158.4 200.675 159.45 199.283C160.568 197.896 161.77 196.579 163.05 195.341C165.57 192.857 168.228 190.583 170.886 188.435C173.544 186.287 176.22 184.235 178.884 182.363L178.986 182.291L179.076 182.381C182.754 185.885 186.276 189.311 189.708 192.539C190.566 193.349 191.418 194.147 192.282 194.897C193.155 195.638 193.958 196.458 194.682 197.345C194.868 197.549 195.06 197.747 195.282 197.945C195.486 198.129 195.7 198.301 195.924 198.461C196.364 198.805 196.78 199.178 197.172 199.577C197.946 200.369 198.636 201.215 199.308 202.043C199.98 202.871 200.646 203.681 201.372 204.443C202.077 205.168 202.872 205.801 203.736 206.327C204.588 206.849 205.476 207.293 206.31 207.803C207.133 208.305 207.901 208.892 208.602 209.555C209.298 210.197 209.934 210.863 210.57 211.505C211.206 212.147 211.812 212.801 212.37 213.455C213.49 214.696 214.394 216.115 215.046 217.655C216.047 220.32 216.523 223.154 216.45 226.001C216.45 228.491 216.252 230.615 216.168 232.349C216.084 234.083 216.054 235.415 216.066 236.321C216.066 236.765 216.066 237.107 216.096 237.347C216.126 237.587 216.096 237.701 216.096 237.701C216.096 237.701 216.042 237.227 216.006 236.321C215.97 235.415 216.006 234.077 216.06 232.343C216.114 230.609 216.294 228.485 216.288 226.001C216.348 223.176 215.863 220.367 214.86 217.727C213.696 214.775 211.086 212.327 208.434 209.723C207.742 209.072 206.984 208.495 206.172 208.001C205.35 207.503 204.462 207.059 203.598 206.531C202.721 205.995 201.915 205.352 201.198 204.617C200.466 203.873 199.788 203.051 199.116 202.217C198.444 201.383 197.754 200.555 196.992 199.781C196.615 199.392 196.214 199.028 195.792 198.689C195.582 198.527 195.342 198.359 195.132 198.161C194.922 197.963 194.724 197.759 194.532 197.561C193.807 196.689 193.004 195.886 192.132 195.161C191.262 194.399 190.41 193.607 189.546 192.797C186.108 189.575 182.58 186.149 178.908 182.651H179.1C176.442 184.541 173.772 186.569 171.12 188.711C168.468 190.853 165.816 193.121 163.32 195.599C162.054 196.83 160.866 198.138 159.762 199.517C158.718 200.885 157.716 202.331 157.362 203.921L157.32 203.789L184.044 231.473C185.376 234.216 186.931 236.845 188.694 239.333C190.272 241.592 192.021 243.726 193.926 245.717C195.62 247.429 197.404 249.049 199.272 250.571L203.946 254.543L210.468 260.099L212.178 261.569C212.568 261.875 212.76 262.055 212.76 262.055Z" fill="#263238"/>
<path d="M228.186 238.69C228.103 238.363 228.047 238.03 228.018 237.694C227.928 236.998 227.814 236.074 227.67 234.964C227.526 233.854 227.37 232.426 227.196 230.914C227.106 230.152 227.034 229.348 226.884 228.514C226.745 227.682 226.441 226.887 225.99 226.174C225.012 224.734 223.518 223.858 222.24 223.03C220.962 222.202 219.762 221.506 218.76 220.924L216.36 219.562C216.058 219.411 215.768 219.238 215.49 219.046C215.81 219.157 216.119 219.295 216.414 219.46C217.014 219.742 217.836 220.174 218.856 220.732C219.876 221.29 221.076 221.98 222.384 222.79C223.692 223.6 225.198 224.476 226.236 226C226.715 226.746 227.034 227.584 227.172 228.46C227.322 229.294 227.388 230.098 227.472 230.86C227.622 232.372 227.76 233.746 227.88 234.916C228 236.086 228.06 236.956 228.126 237.658C228.178 238 228.198 238.345 228.186 238.69Z" fill="#263238"/>
<path d="M216.654 194.818C216.54 195.019 216.401 195.205 216.24 195.37C215.952 195.712 215.532 196.198 214.992 196.78C213.586 198.3 212.104 199.748 210.552 201.118C209.001 202.49 207.381 203.782 205.698 204.988C205.184 205.368 204.598 205.64 203.976 205.786C203.804 205.818 203.629 205.832 203.454 205.828C203.394 205.836 203.334 205.836 203.274 205.828C203.274 205.798 203.526 205.828 203.946 205.696C204.534 205.512 205.083 205.221 205.566 204.838C206.826 203.884 208.566 202.51 210.366 200.914C212.166 199.318 213.744 197.782 214.854 196.66L216.126 195.316C216.281 195.129 216.458 194.962 216.654 194.818Z" fill="#263238"/>
<path d="M205.404 174.172C205.394 174.276 205.374 174.379 205.344 174.478C205.296 174.676 205.224 174.964 205.122 175.336C204.918 176.074 204.6 177.136 204.192 178.45C203.394 181.078 202.14 184.666 201.192 188.734C200.422 192.219 200.097 195.788 200.226 199.354C200.264 200.433 200.361 201.508 200.514 202.576C200.628 203.338 200.706 203.776 200.682 203.776C200.638 203.683 200.606 203.584 200.586 203.482C200.544 203.284 200.46 202.996 200.394 202.618C200.193 201.548 200.063 200.466 200.004 199.378C199.809 195.791 200.105 192.193 200.886 188.686C201.84 184.588 203.124 181.012 203.976 178.402C204.396 177.136 204.744 176.092 204.996 175.318L205.278 174.478C205.304 174.37 205.346 174.267 205.404 174.172Z" fill="#263238"/>
<path d="M114.33 147.358C114.33 147.358 99.198 151.912 93.024 158.848C88.368 164.08 81.93 188.938 81.93 188.938C81.93 188.938 65.688 250.348 66.084 255.1C66.48 259.852 74.796 267.898 80.742 270.946C86.688 273.994 96.588 277.282 108.072 263.02C114.462 255.094 120.672 247.6 123.672 240.712C125.149 237.106 125.906 233.245 125.898 229.348L145.326 207.034L125.112 185.374L107.28 208.354L114.33 147.358Z" fill="#455A64"/>
<path d="M126.93 191.116C126.784 191.332 126.617 191.533 126.432 191.716C126.09 192.106 125.61 192.67 125.022 193.378C123.822 194.788 122.286 196.798 120.54 199C119.067 200.901 117.485 202.714 115.8 204.43C115.146 205.078 114.6 205.588 114.198 205.918C114.004 206.104 113.791 206.269 113.562 206.41C113.726 206.193 113.911 205.992 114.114 205.81C114.486 205.456 115.008 204.922 115.644 204.256C116.91 202.93 118.554 200.992 120.294 198.79C122.034 196.588 123.63 194.59 124.854 193.216C125.454 192.526 125.976 191.98 126.342 191.62C126.521 191.434 126.718 191.265 126.93 191.116Z" fill="#263238"/>
<path d="M128.466 195.101C128.366 195.315 128.241 195.516 128.094 195.701C127.842 196.079 127.458 196.619 126.972 197.273C126 198.581 124.572 200.351 123.006 202.259C121.44 204.167 119.928 205.859 118.848 207.059C118.332 207.623 117.9 208.103 117.552 208.493C117.399 208.673 117.231 208.84 117.048 208.991C117.159 208.773 117.298 208.571 117.462 208.391C117.744 208.031 118.158 207.521 118.662 206.891L122.748 202.013C124.344 200.105 125.748 198.365 126.78 197.087L127.98 195.581C128.128 195.406 128.29 195.246 128.466 195.101Z" fill="#263238"/>
<path d="M131.526 199.342C131.417 199.534 131.286 199.714 131.136 199.876L130.014 201.268C129.066 202.468 127.788 204.088 126.372 205.912C124.956 207.736 123.648 209.362 122.658 210.502C122.16 211.072 121.752 211.528 121.458 211.834C121.319 212.003 121.16 212.154 120.984 212.284C121.089 212.091 121.218 211.911 121.368 211.75C121.68 211.372 122.052 210.904 122.49 210.364C123.438 209.164 124.722 207.538 126.132 205.72C127.542 203.902 128.856 202.27 129.852 201.124C130.344 200.554 130.758 200.098 131.052 199.798C131.192 199.628 131.351 199.475 131.526 199.342Z" fill="#263238"/>
<path d="M135.42 204.041C135.331 204.216 135.218 204.377 135.084 204.521C134.856 204.809 134.514 205.223 134.082 205.721C133.224 206.729 131.994 208.091 130.626 209.579L127.11 213.389C126.651 213.939 126.154 214.456 125.622 214.937C125.71 214.764 125.821 214.605 125.952 214.463C126.18 214.169 126.516 213.749 126.948 213.263C127.8 212.249 129.024 210.863 130.392 209.387L133.92 205.589C134.385 205.04 134.886 204.523 135.42 204.041Z" fill="#263238"/>
<path d="M138.204 206.32C137.868 206.898 137.483 207.447 137.052 207.958C136.302 208.942 135.252 210.274 134.052 211.726C132.852 213.178 131.778 214.51 131.01 215.476C130.615 216.017 130.186 216.532 129.726 217.018C130.044 216.429 130.414 215.869 130.83 215.344C131.556 214.342 132.63 212.992 133.83 211.528L136.92 207.82C137.311 207.29 137.74 206.789 138.204 206.32Z" fill="#263238"/>
<path d="M107.406 205.738C107.376 205.738 107.304 205.354 107.088 204.682C106.759 203.744 106.294 202.858 105.708 202.054C104.83 200.866 103.81 199.788 102.672 198.844C101.272 197.689 99.7745 196.657 98.1962 195.76C95.306 194.148 92.2973 192.758 89.1962 191.602C87.9962 191.152 87.0362 190.822 86.3642 190.594C86.0097 190.493 85.6628 190.367 85.3262 190.216C85.4221 190.217 85.5174 190.233 85.6082 190.264C85.7942 190.312 86.0582 190.378 86.4002 190.48C87.0842 190.672 88.0742 190.972 89.2742 191.398C92.4062 192.499 95.4374 193.868 98.3342 195.49C99.9282 196.395 101.436 197.444 102.84 198.622C103.977 199.592 104.985 200.703 105.84 201.928C106.421 202.759 106.866 203.676 107.16 204.646C107.238 204.911 107.295 205.182 107.328 205.456C107.369 205.546 107.396 205.641 107.406 205.738Z" fill="#263238"/>
<path d="M108.792 166.918C109.668 166.384 110.592 166.204 111.306 165.814C112.02 165.424 113.106 165.586 113.31 166.348C113.562 167.212 112.578 167.902 111.756 168.274C113.646 169.18 116.226 167.182 117.858 168.502C118.92 169.36 118.668 171.178 117.684 172.132C116.7 173.086 115.284 173.374 113.898 173.536C112.512 173.698 111.12 173.782 109.92 174.448C109.32 174.796 108.72 175.474 108.918 176.158C109.29 177.316 111.45 177.064 111.714 178.252C111.894 179.056 111.006 179.656 110.256 179.992L102.06 183.682C101.367 184.076 100.583 184.283 99.786 184.282C99 184.198 98.208 183.538 98.292 182.752C98.376 181.966 99.204 181.504 99.972 181.39C100.749 181.37 101.523 181.292 102.288 181.156C103.032 180.928 103.716 180.148 103.44 179.422C103.104 178.51 101.808 178.588 100.872 178.822L92.172 181.126C91.55 181.353 90.8782 181.407 90.228 181.282C89.906 181.208 89.6257 181.011 89.4465 180.733C89.2674 180.455 89.2033 180.119 89.268 179.794C89.4118 179.48 89.6457 179.214 89.94 179.032C92.0201 177.479 94.417 176.404 96.96 175.882C97.9346 175.768 98.8846 175.499 99.774 175.084C100.626 174.598 101.298 173.62 101.064 172.684C99.2698 173.333 97.4079 173.775 95.514 174.004C94.836 174.088 93.948 174.004 93.756 173.362C93.564 172.72 94.296 172.162 94.926 171.832L105.048 166.846C105.906 166.42 106.89 165.988 107.79 166.312L108.792 166.918Z" fill="white"/>
<path d="M92.844 228.364C93.714 227.836 94.644 227.656 95.358 227.26C96.072 226.864 97.158 227.032 97.362 227.794C97.614 228.664 96.63 229.348 95.808 229.72C97.698 230.626 100.278 228.628 101.904 229.948C102.972 230.812 102.72 232.624 101.736 233.548C100.752 234.472 99.336 234.79 97.95 234.952C96.564 235.114 95.172 235.198 93.972 235.864C93.372 236.212 92.772 236.89 92.97 237.574C93.342 238.732 95.502 238.48 95.766 239.674C95.946 240.478 95.058 241.072 94.302 241.408L86.112 245.116C85.4189 245.51 84.6352 245.717 83.838 245.716C83.4409 245.698 83.0653 245.53 82.787 245.247C82.5087 244.963 82.3482 244.584 82.338 244.186C82.422 243.412 83.256 242.938 84.024 242.824C84.801 242.807 85.5753 242.729 86.34 242.59C87.084 242.362 87.762 241.582 87.492 240.856C87.15 239.95 85.86 240.028 84.918 240.256L76.224 242.566C75.5995 242.792 74.9257 242.843 74.274 242.716C73.9531 242.64 73.6743 242.443 73.4963 242.165C73.3184 241.888 73.2552 241.552 73.32 241.228C73.4639 240.915 73.6979 240.652 73.992 240.472C76.0688 238.914 78.467 237.838 81.012 237.322C81.9863 237.203 82.9359 236.932 83.826 236.518C84.2635 236.302 84.6228 235.954 84.8539 235.524C85.0851 235.094 85.1767 234.603 85.116 234.118C83.3199 234.767 81.456 235.21 79.56 235.438C78.888 235.516 78 235.438 77.808 234.79C77.616 234.142 78.348 233.59 78.978 233.26L89.1 228.274C89.958 227.848 90.942 227.416 91.842 227.746L92.844 228.364Z" fill="white"/>
<path d="M107.658 206.914C107.61 206.791 107.572 206.665 107.544 206.536C107.478 206.248 107.388 205.882 107.28 205.432C107.046 204.436 106.722 203.032 106.332 201.37C105.528 197.938 104.382 193.21 103.008 188.014C101.634 182.818 100.302 178.138 99.3121 174.76C98.8261 173.098 98.4241 171.76 98.1121 170.758C97.9861 170.308 97.8841 169.948 97.8001 169.666C97.757 169.542 97.7288 169.413 97.7161 169.282C97.7762 169.399 97.8244 169.522 97.8601 169.648C97.9561 169.924 98.0761 170.284 98.2321 170.722C98.5441 171.658 98.9821 173.014 99.5041 174.7C100.548 178.06 101.904 182.734 103.29 187.936C104.676 193.138 105.774 197.878 106.518 201.322C106.896 203.044 107.19 204.436 107.376 205.408C107.46 205.864 107.532 206.236 107.586 206.518C107.625 206.647 107.649 206.78 107.658 206.914Z" fill="#263238"/>
<path d="M81.48 243.388L81.588 243.041C81.672 242.807 81.786 242.441 81.936 242.027C82.248 241.139 82.71 239.825 83.394 238.163C84.2183 236.12 85.2603 234.173 86.502 232.355C87.978 230.219 90.162 228.202 92.574 226.013C94.986 223.822 97.23 221.008 99.612 217.96C101.994 214.912 104.466 211.564 107.1 208.042C109.734 204.52 112.5 200.794 115.458 196.96C118.416 193.126 121.536 189.16 124.998 185.272L125.106 185.146L125.22 185.272L136.326 197.23L145.194 206.83L145.296 206.938L145.194 207.041C141.552 211.024 138.066 214.942 134.79 218.777C133.158 220.691 131.58 222.592 130.098 224.488C129.72 224.962 129.36 225.436 129.006 225.916C128.646 226.379 128.315 226.864 128.016 227.369C127.441 228.369 126.982 229.432 126.648 230.537C125.97 232.721 125.604 234.928 125.07 237.034C124.817 238.074 124.496 239.097 124.11 240.095C123.72 241.079 123.246 241.99 122.826 242.914C121.196 246.289 119.348 249.554 117.294 252.688C114.332 257.179 110.852 261.305 106.926 264.982L105.948 265.888C105.636 266.164 105.348 266.423 105.066 266.657C104.52 267.136 104.052 267.533 103.662 267.856C103.272 268.18 102.99 268.391 102.786 268.559L102.48 268.787C102.48 268.787 102.57 268.697 102.768 268.535L103.626 267.809C104.01 267.503 104.472 267.095 105.012 266.609L105.882 265.828L106.854 264.91C110.74 261.198 114.187 257.05 117.126 252.551C119.163 249.417 120.993 246.154 122.604 242.782C123.024 241.864 123.498 240.941 123.876 239.98C124.255 238.99 124.569 237.976 124.818 236.944C125.34 234.851 125.706 232.636 126.39 230.434C126.725 229.309 127.188 228.226 127.77 227.206C128.079 226.695 128.415 226.2 128.778 225.724C129.132 225.244 129.498 224.765 129.87 224.291C131.358 222.383 132.936 220.48 134.568 218.56C137.838 214.72 141.324 210.796 144.972 206.812V207.016L136.098 197.416L125.028 185.458H125.256C121.806 189.34 118.686 193.294 115.722 197.122C112.758 200.95 109.986 204.665 107.322 208.187C104.658 211.709 102.192 215.033 99.81 218.087C97.428 221.141 95.184 223.979 92.718 226.145C90.252 228.311 88.116 230.345 86.634 232.427C85.3894 234.23 84.3396 236.161 83.502 238.187C82.8 239.837 82.302 241.151 81.996 242.027C81.834 242.465 81.708 242.8 81.624 243.035C81.54 243.268 81.48 243.388 81.48 243.388Z" fill="#263238"/>
<path d="M127.41 147.076C127.452 147.156 127.488 147.238 127.518 147.322L127.794 148.042C128.205 148.92 128.704 149.755 129.282 150.532C131.42 153.267 133.954 155.667 136.8 157.654H136.764C138.72 158.326 140.868 159.004 143.184 159.574C145.601 160.194 148.077 160.556 150.57 160.654C154.274 160.764 157.952 159.997 161.304 158.416C164.035 157.109 166.362 155.091 168.042 152.572C169.18 150.88 169.952 148.97 170.31 146.962C170.376 146.608 170.418 146.29 170.442 146.008C170.466 145.726 170.496 145.498 170.496 145.312V144.88C170.488 144.831 170.488 144.78 170.496 144.73C170.548 145.482 170.512 146.237 170.388 146.98C170.072 149.02 169.321 150.968 168.186 152.692C166.507 155.272 164.157 157.347 161.388 158.692C158 160.308 154.275 161.094 150.522 160.984C148.006 160.886 145.507 160.516 143.07 159.88C140.895 159.337 138.748 158.684 136.638 157.924C133.782 155.911 131.256 153.466 129.15 150.676C128.577 149.881 128.094 149.023 127.71 148.12C127.608 147.814 127.53 147.568 127.47 147.382C127.44 147.283 127.419 147.18 127.41 147.076Z" fill="#263238"/>
<path d="M152.844 182.05C152.436 182.801 152.254 183.654 152.321 184.506C152.388 185.358 152.701 186.173 153.222 186.85C155.004 185.585 156.641 184.128 158.106 182.506L158.49 182.116L159.738 178.546L156.396 176.746L153.294 176.338L152.844 182.05Z" fill="#EB996E"/>
<path d="M158.046 179.812C157.264 181.131 156.695 182.565 156.36 184.06C156.022 185.565 156.133 187.136 156.678 188.579C156.716 188.703 156.789 188.813 156.888 188.897C156.973 188.947 157.066 188.98 157.164 188.993L158.796 189.341C159.179 188.616 159.498 187.859 159.75 187.079" fill="#EB996E"/>
<path d="M133.674 201.796C133.674 201.796 138 195.424 139.206 194.092C139.888 193.319 140.761 192.737 141.738 192.406C141.738 192.406 148.134 188.662 150.186 186.13C152.238 183.598 155.376 179.008 155.376 179.008L156.942 178.528L158.514 180.094C158.514 180.094 157.914 187.336 161.046 188.182L162.738 187.696V173.824L152.598 166.942L144.636 162.742C144.636 162.742 138.846 173.122 137.154 174.688C135.462 176.254 126.222 186.004 125.22 187.09C125.22 187.066 125.886 192.784 133.674 201.796Z" fill="#FFBE9D"/>
<path d="M135.42 158.938L149.172 153.538L166.326 160.042C166.326 160.042 173.472 177.664 174.336 179.02C175.2 180.376 179.016 184.576 179.016 184.576C178.642 186.398 177.833 188.103 176.658 189.544C174.96 191.656 173.184 194.008 171.624 195.1C171.624 195.1 164.466 191.71 163.614 188.26C162.762 184.81 159.774 177.172 159.774 177.172L157.23 172.372L152.328 169.042L147.102 169.786C147.102 169.786 146.412 173.11 143.862 172.246L141.312 170.896L144.198 167.296C144.198 167.296 140.568 171.61 138.228 169.516L137.37 168.526L140.202 166.066C140.202 166.066 137.496 168.034 136.632 166.558L139.344 161.626C139.344 161.626 135.09 161.77 135.42 158.938Z" fill="#FFBE9D"/>
<path d="M178.992 184.576C178.992 184.576 178.866 184.456 178.644 184.216L177.648 183.136C177.222 182.656 176.688 182.062 176.082 181.336C175.776 180.982 175.446 180.598 175.11 180.178C174.733 179.743 174.397 179.273 174.108 178.774C173.034 176.584 171.912 173.86 170.58 170.722C169.248 167.584 167.79 164.008 166.188 160.078L166.254 160.15L149.124 153.64H149.226L135.474 159.07L135.57 158.944C135.519 159.356 135.592 159.774 135.78 160.144C136.003 160.503 136.323 160.79 136.704 160.972C137.522 161.346 138.415 161.526 139.314 161.5H139.584L139.452 161.728L137.862 164.626L136.746 166.654V166.516C136.821 166.64 136.924 166.744 137.045 166.822C137.167 166.9 137.305 166.949 137.448 166.966C137.76 166.998 138.076 166.962 138.372 166.858C138.986 166.649 139.566 166.352 140.094 165.976L140.286 166.216L137.454 168.682V168.46L138.312 169.45C138.736 169.818 139.288 170.003 139.848 169.966C140.414 169.914 140.962 169.736 141.45 169.444C142.432 168.857 143.313 168.115 144.06 167.248L144.294 167.44L141.408 171.01L141.366 170.788L143.916 172.144C144.27 172.261 144.646 172.294 145.014 172.24C145.371 172.165 145.698 171.988 145.956 171.73C146.465 171.187 146.816 170.515 146.97 169.786L147 169.69H147.09L152.31 168.952H152.364H152.406L157.302 172.288L159.84 177.088C161.082 180.334 162.162 183.292 163.002 185.926C163.206 186.586 163.404 187.228 163.56 187.852C163.639 188.153 163.733 188.449 163.842 188.74C163.969 189.008 164.111 189.269 164.268 189.52C164.898 190.39 165.647 191.165 166.494 191.824C167.668 192.747 168.912 193.578 170.214 194.308C170.658 194.56 171 194.74 171.234 194.866L171.582 195.058C171.582 195.058 171.456 195.01 171.216 194.896C170.976 194.782 170.616 194.608 170.178 194.362C168.858 193.657 167.6 192.842 166.416 191.926C165.55 191.266 164.785 190.484 164.142 189.604C163.975 189.346 163.825 189.077 163.692 188.8C163.579 188.503 163.481 188.201 163.398 187.894C163.236 187.294 163.032 186.64 162.828 185.98C161.97 183.358 160.884 180.406 159.624 177.172L157.068 172.372L157.11 172.414L152.202 169.096H152.298L147.078 169.84L147.192 169.726C147.027 170.51 146.652 171.234 146.106 171.82C145.806 172.12 145.428 172.328 145.014 172.42C144.598 172.49 144.17 172.453 143.772 172.312L141.222 170.956L141.06 170.872L141.174 170.734L144.054 167.134L144.288 167.326C143.518 168.225 142.606 168.991 141.588 169.594C141.063 169.912 140.472 170.105 139.86 170.158C139.218 170.198 138.586 169.983 138.102 169.558L137.244 168.568L137.142 168.454L137.256 168.352L140.088 165.886L140.286 166.132C139.733 166.526 139.127 166.839 138.486 167.062C138.146 167.175 137.787 167.216 137.43 167.182C137.24 167.159 137.057 167.093 136.896 166.989C136.735 166.885 136.6 166.746 136.5 166.582L136.458 166.504L136.5 166.426L137.616 164.398L139.212 161.5L139.35 161.728C138.399 161.757 137.454 161.564 136.59 161.164C136.155 160.955 135.79 160.624 135.54 160.21C135.326 159.79 135.241 159.317 135.294 158.848V158.758L135.384 158.722L149.142 153.322H149.196H149.25L166.326 159.916H166.38V159.97L170.73 170.626C172.044 173.764 173.13 176.512 174.192 178.69C174.475 179.183 174.803 179.649 175.17 180.082C175.5 180.502 175.824 180.892 176.124 181.252L177.672 183.052L178.632 184.162L178.992 184.576Z" fill="#EB996E"/>
<path d="M139.11 161.83C139.179 161.645 139.283 161.473 139.416 161.326C139.741 160.896 140.127 160.516 140.562 160.198C141.672 159.412 143.238 158.44 144.966 157.33C146.694 156.22 148.254 155.236 149.454 154.582C149.697 154.448 149.966 154.366 150.243 154.342C150.52 154.318 150.799 154.353 151.062 154.444C151.428 154.6 151.536 154.816 151.524 154.822C151.368 154.713 151.199 154.625 151.02 154.558C150.773 154.497 150.517 154.485 150.266 154.523C150.015 154.561 149.773 154.649 149.556 154.78C148.422 155.464 146.868 156.514 145.134 157.594L140.694 160.378C140.114 160.802 139.583 161.289 139.11 161.83Z" fill="#EB996E"/>
<path d="M159.786 161.626C159.466 161.593 159.149 161.533 158.838 161.446C158.238 161.308 157.368 161.086 156.306 160.768C155.244 160.45 153.996 160.036 152.628 159.502C151.972 159.155 151.234 158.989 150.492 159.022C149.689 159.13 148.897 159.303 148.122 159.538C147.349 159.762 146.617 160.11 145.956 160.57C145.355 161.031 144.791 161.538 144.27 162.088C143.244 163.12 142.314 164.062 141.51 164.818C140.706 165.574 140.022 166.162 139.53 166.54C139.284 166.726 139.086 166.87 138.93 166.954C138.774 167.038 138.72 167.086 138.714 167.074C138.942 166.851 139.183 166.641 139.434 166.444C139.902 166.042 140.556 165.436 141.336 164.644C142.116 163.852 143.028 162.916 144.048 161.866C144.575 161.302 145.147 160.78 145.758 160.306C146.444 159.824 147.204 159.457 148.008 159.22C148.805 158.982 149.62 158.807 150.444 158.698C150.848 158.65 151.257 158.689 151.644 158.812C152.022 158.932 152.364 159.088 152.706 159.22C154.056 159.76 155.292 160.198 156.342 160.54C157.392 160.882 158.244 161.14 158.838 161.314C159.162 161.393 159.479 161.497 159.786 161.626Z" fill="#EB996E"/>
<path d="M161.526 167.116C161.275 167.087 161.029 167.027 160.794 166.936L158.838 166.336L155.946 165.394L154.248 164.83C153.661 164.609 153.059 164.426 152.448 164.284C151.239 164.134 150.013 164.36 148.938 164.932C147.882 165.4 146.886 165.682 146.112 166.042C145.275 166.439 144.52 166.988 143.886 167.662C143.886 167.662 143.886 167.596 143.988 167.488C144.098 167.338 144.216 167.194 144.342 167.056C144.821 166.556 145.389 166.149 146.016 165.856C146.802 165.466 147.816 165.16 148.824 164.686C149.372 164.434 149.943 164.234 150.528 164.086C151.174 163.916 151.85 163.889 152.508 164.008C153.139 164.158 153.76 164.346 154.368 164.572L156.066 165.172L158.934 166.174L160.854 166.882C161.084 166.94 161.309 167.019 161.526 167.116Z" fill="#EB996E"/>
<path d="M145.056 206.915C144.948 206.943 144.837 206.959 144.726 206.963C144.516 206.963 144.198 206.999 143.79 207.005C142.636 207.027 141.482 206.935 140.346 206.729C139.557 206.588 138.784 206.365 138.042 206.063C137.191 205.697 136.412 205.181 135.744 204.539C134.207 203.11 132.827 201.521 131.628 199.799C130.32 197.999 129.084 196.283 128.076 194.633C127.167 193.181 126.417 191.636 125.838 190.025C125.451 188.933 125.209 187.795 125.118 186.641C125.087 186.33 125.077 186.017 125.088 185.705C125.074 185.595 125.074 185.484 125.088 185.375C125.118 185.375 125.118 185.825 125.214 186.629C125.349 187.763 125.619 188.876 126.018 189.947C126.623 191.531 127.387 193.051 128.298 194.483C129.312 196.109 130.554 197.819 131.856 199.613C133.044 201.317 134.403 202.895 135.912 204.323C137.143 205.482 138.694 206.245 140.364 206.513C141.485 206.736 142.623 206.86 143.766 206.885C144.6 206.909 145.05 206.891 145.056 206.915Z" fill="#263238"/>
<path d="M178.962 182.422C179.007 182.521 179.036 182.626 179.046 182.734C179.104 183.043 179.134 183.356 179.136 183.67C179.12 184.825 178.85 185.962 178.344 187C177.59 188.527 176.64 189.949 175.518 191.23C174.318 192.706 172.89 194.266 171.318 195.826C169.746 197.386 168.174 198.778 166.692 199.984C165.399 201.094 164.019 202.097 162.564 202.984C161.574 203.578 160.466 203.948 159.318 204.07C159.007 204.101 158.693 204.101 158.382 204.07C158.272 204.064 158.163 204.044 158.058 204.01C158.058 203.974 158.508 204.058 159.306 203.974C160.424 203.809 161.497 203.414 162.456 202.816C163.878 201.917 165.232 200.915 166.506 199.816C167.976 198.616 169.536 197.2 171.096 195.658C172.656 194.116 174.096 192.562 175.296 191.098C176.415 189.846 177.37 188.457 178.14 186.964C178.654 185.955 178.952 184.849 179.016 183.718C179.034 182.866 178.926 182.428 178.962 182.422Z" fill="#263238"/>
<g opacity="0.2">
<path opacity="0.2" d="M132.354 221.68C129.726 224.746 127.524 226.306 126.492 230.206C125.622 233.494 124.692 239.362 121.272 245.554C116.388 254.44 110.688 262.354 104.208 267.358C115.452 265.288 124.728 256.45 128.328 245.596C130.212 239.92 130.488 233.788 132.528 228.196C134.28 223.444 137.262 219.226 140.652 215.464C142.608 213.298 144.294 210.976 144.432 208.054C140.754 211.666 136.356 217.012 132.354 221.68Z" fill="black"/>
</g>
<g opacity="0.2">
<path opacity="0.2" d="M82.5482 240.664C81.4054 244.015 79.7255 247.158 77.5742 249.97C76.2002 248.584 75.7742 246.448 76.1042 244.522C76.5043 242.605 77.2814 240.785 78.3902 239.17C84.2642 229.768 92.7902 222.214 101.64 215.524C98.8869 219.163 95.9323 222.644 92.7902 225.952C88.7882 230.116 84.4742 234.55 82.5482 240.664Z" fill="black"/>
</g>
<path d="M158.748 216.232C158.713 216.345 158.662 216.452 158.598 216.55L158.112 217.432C157.692 218.194 157.038 219.274 156.192 220.588C155.346 221.902 154.284 223.432 153.048 225.082C151.812 226.732 150.36 228.49 148.77 230.266C147.18 232.042 145.56 233.638 144.054 235.066C142.548 236.494 141.132 237.688 139.914 238.666C138.696 239.644 137.688 240.406 136.968 240.904L136.146 241.504C136.053 241.577 135.953 241.639 135.846 241.69C135.923 241.601 136.012 241.522 136.11 241.456L136.896 240.856C137.592 240.328 138.576 239.542 139.77 238.546C140.964 237.55 142.362 236.32 143.862 234.91C145.362 233.5 146.94 231.88 148.536 230.11C150.132 228.34 151.536 226.588 152.814 224.962C154.092 223.336 155.142 221.818 156.006 220.522C156.87 219.226 157.554 218.164 158.01 217.42C158.226 217.078 158.4 216.82 158.544 216.574C158.6 216.454 158.668 216.339 158.748 216.232Z" fill="#263238"/>
<g opacity="0.2">
<path opacity="0.2" d="M216.03 235.654L217.386 237.508C219.764 231.702 219.82 225.204 217.542 219.358C215.256 213.586 210.624 209.59 204.942 207.034C207.45 208.498 209.094 210.208 211.08 212.08C216.03 216.742 217.326 222.706 216.006 235.654" fill="black"/>
</g>
<path d="M194.052 157.582C194.922 157.054 195.852 156.874 196.566 156.484C197.28 156.094 198.366 156.25 198.564 157.018C198.816 157.882 197.838 158.566 197.016 158.938C198.906 159.85 201.486 157.846 203.112 159.166C204.18 160.03 203.928 161.842 202.944 162.796C201.96 163.75 200.544 164.044 199.158 164.2C197.772 164.356 196.38 164.446 195.18 165.112C194.58 165.46 193.98 166.138 194.178 166.822C194.55 167.98 196.71 167.734 196.974 168.922C197.154 169.726 196.26 170.32 195.51 170.662L187.326 174.352C186.634 174.749 185.85 174.956 185.052 174.952C184.656 174.934 184.281 174.767 184.003 174.485C183.725 174.202 183.564 173.825 183.552 173.428C183.636 172.654 184.464 172.174 185.238 172.06C186.015 172.043 186.789 171.965 187.554 171.826C188.298 171.598 188.976 170.824 188.706 170.092C188.364 169.186 187.068 169.264 186.132 169.492L177.438 171.802C176.813 172.026 176.14 172.08 175.488 171.958C175.168 171.881 174.89 171.683 174.712 171.406C174.535 171.129 174.471 170.793 174.534 170.47C174.679 170.158 174.91 169.893 175.2 169.708C177.28 168.152 179.68 167.076 182.226 166.558C183.201 166.442 184.151 166.171 185.04 165.754C185.892 165.268 186.558 164.29 186.324 163.354C184.53 164.004 182.668 164.447 180.774 164.674C180.102 164.758 179.214 164.674 179.022 164.026C178.83 163.378 179.562 162.826 180.222 162.496L190.326 157.516C191.184 157.096 192.168 156.664 193.068 156.988L194.052 157.582Z" fill="white"/>
<path d="M34.1101 251.77V252.37H31.2301V251.884L32.7841 250.414C33.1621 250.048 33.2281 249.814 33.2281 249.604C33.2281 249.244 32.9821 249.04 32.5021 249.04C32.3285 249.03 32.1551 249.062 31.9964 249.133C31.8377 249.204 31.6983 249.312 31.5901 249.448L31.0801 249.058C31.26 248.841 31.4884 248.669 31.7469 248.557C32.0054 248.444 32.2866 248.394 32.5681 248.41C33.4141 248.41 33.9601 248.836 33.9601 249.532C33.9559 249.774 33.8951 250.011 33.7826 250.224C33.67 250.438 33.5089 250.622 33.3121 250.762L32.2681 251.758L34.1101 251.77Z" fill="#263238"/>
<path d="M34.506 249.832C34.5072 249.742 34.5349 249.655 34.5857 249.581C34.6366 249.506 34.7082 249.449 34.7916 249.415C34.875 249.382 34.9665 249.374 35.0546 249.392C35.1426 249.41 35.2233 249.454 35.2865 249.518C35.3497 249.582 35.3925 249.663 35.4096 249.752C35.4267 249.84 35.4174 249.931 35.3827 250.014C35.348 250.097 35.2895 250.168 35.2147 250.218C35.1398 250.268 35.0519 250.294 34.962 250.294C34.9011 250.296 34.8406 250.285 34.7841 250.262C34.7276 250.24 34.6764 250.206 34.6336 250.162C34.5908 250.119 34.5575 250.067 34.5355 250.011C34.5135 249.954 34.5035 249.893 34.506 249.832ZM34.506 251.962C34.506 251.841 34.554 251.725 34.6395 251.64C34.7251 251.554 34.841 251.506 34.962 251.506C35.0829 251.506 35.1989 251.554 35.2844 251.64C35.3699 251.725 35.418 251.841 35.418 251.962C35.418 252.083 35.3699 252.199 35.2844 252.285C35.1989 252.37 35.0829 252.418 34.962 252.418C34.841 252.418 34.7251 252.37 34.6395 252.285C34.554 252.199 34.506 252.083 34.506 251.962Z" fill="#263238"/>
<path d="M37.236 248.477V252.383H36.516V249.083H35.688V248.483L37.236 248.477Z" fill="#263238"/>
<path d="M41.5261 251.495H40.8061V252.383H40.1041V251.495H37.9561V250.997L39.8821 248.477H40.6621L38.8621 250.877H40.1401V250.097H40.8241V250.883H41.5261V251.495Z" fill="#263238"/>
<path d="M237.048 250.696H47.1421V251.656H237.048V250.696Z" fill="white"/>
<path d="M110.604 249.665H44.8081V252.227H110.604V249.665Z" fill="#3D8AED"/>
<path d="M114.906 251.176C114.906 251.81 114.718 252.429 114.366 252.956C114.014 253.483 113.514 253.894 112.928 254.136C112.343 254.379 111.698 254.442 111.077 254.319C110.455 254.195 109.885 253.89 109.436 253.442C108.988 252.994 108.683 252.423 108.56 251.801C108.436 251.18 108.499 250.535 108.742 249.95C108.984 249.365 109.395 248.864 109.922 248.512C110.449 248.16 111.068 247.972 111.702 247.972C112.552 247.972 113.367 248.31 113.968 248.911C114.568 249.511 114.906 250.326 114.906 251.176Z" fill="#3D8AED"/>
<path d="M242.316 251.464C242.312 251.649 242.27 251.832 242.192 252C242.114 252.168 242.002 252.318 241.864 252.441C241.725 252.564 241.563 252.656 241.386 252.713C241.21 252.77 241.024 252.791 240.84 252.772C239.742 252.772 239.094 252.064 239.094 250.762C239.094 249.46 239.904 248.62 241.074 248.62C241.445 248.608 241.812 248.697 242.136 248.878L241.854 249.442C241.625 249.304 241.359 249.237 241.092 249.25C240.33 249.25 239.85 249.724 239.85 250.636C239.989 250.492 240.157 250.38 240.344 250.307C240.53 250.235 240.73 250.204 240.93 250.216C241.105 250.199 241.281 250.218 241.448 250.273C241.615 250.327 241.769 250.416 241.899 250.534C242.03 250.651 242.134 250.795 242.206 250.955C242.278 251.115 242.315 251.289 242.316 251.464ZM241.59 251.494C241.59 251.074 241.272 250.81 240.786 250.81C240.686 250.799 240.585 250.808 240.489 250.836C240.393 250.865 240.303 250.914 240.226 250.978C240.149 251.043 240.086 251.122 240.041 251.212C239.996 251.302 239.97 251.4 239.964 251.5C239.964 251.884 240.264 252.184 240.804 252.184C240.902 252.196 241.001 252.187 241.096 252.158C241.19 252.129 241.277 252.08 241.351 252.015C241.425 251.95 241.485 251.87 241.526 251.78C241.567 251.69 241.589 251.593 241.59 251.494Z" fill="#263238"/>
<path d="M242.682 250.078C242.682 249.953 242.732 249.832 242.821 249.743C242.91 249.654 243.03 249.604 243.156 249.604C243.282 249.604 243.402 249.654 243.491 249.743C243.58 249.832 243.63 249.953 243.63 250.078C243.63 250.204 243.58 250.325 243.491 250.414C243.402 250.503 243.282 250.552 243.156 250.552C243.03 250.552 242.91 250.503 242.821 250.414C242.732 250.325 242.682 250.204 242.682 250.078ZM242.682 252.274C242.682 252.149 242.732 252.028 242.821 251.939C242.91 251.85 243.03 251.8 243.156 251.8C243.282 251.8 243.402 251.85 243.491 251.939C243.58 252.028 243.63 252.149 243.63 252.274C243.63 252.4 243.58 252.521 243.491 252.61C243.402 252.699 243.282 252.748 243.156 252.748C243.03 252.748 242.91 252.699 242.821 252.61C242.732 252.521 242.682 252.4 242.682 252.274Z" fill="#263238"/>
<path d="M244.11 250.697C244.11 249.371 244.836 248.621 245.796 248.621C246.756 248.621 247.482 249.371 247.482 250.697C247.482 252.023 246.756 252.773 245.796 252.773C244.836 252.773 244.11 252.023 244.11 250.697ZM246.726 250.697C246.726 249.725 246.348 249.275 245.796 249.275C245.244 249.275 244.866 249.725 244.866 250.697C244.866 251.669 245.244 252.119 245.796 252.119C246.348 252.119 246.726 251.669 246.726 250.697Z" fill="#263238"/>
<path d="M247.986 250.697C247.986 249.371 248.712 248.621 249.672 248.621C250.632 248.621 251.358 249.371 251.358 250.697C251.358 252.023 250.632 252.773 249.672 252.773C248.712 252.773 247.986 252.023 247.986 250.697ZM250.602 250.697C250.602 249.725 250.224 249.275 249.672 249.275C249.12 249.275 248.742 249.725 248.742 250.697C248.742 251.669 249.12 252.119 249.672 252.119C250.224 252.119 250.602 251.669 250.602 250.697Z" fill="#263238"/>
<path d="M257.982 250.342H257.178V248.032H259.488V248.83H257.982V250.342Z" fill="#263238"/>
<path d="M259.488 253.36H257.178V251.05H257.982V252.556H259.488V253.36Z" fill="#263238"/>
<path d="M263.172 253.36H260.862V252.556H262.374V251.05H263.172V253.36Z" fill="#263238"/>
<path d="M263.172 250.336H262.374V248.83H260.862V248.032H263.172V250.336Z" fill="#263238"/>
<path d="M46.2989 98.0805C48.1409 96.0829 48.0148 92.9703 46.0172 91.1283C44.0197 89.2862 40.907 89.4123 39.065 91.4099C37.223 93.4075 37.3491 96.5201 39.3467 98.3621C41.3443 100.204 44.4569 100.078 46.2989 98.0805Z" fill="#E0E0E0"/>
<path d="M47.598 94.7381C47.562 94.7381 47.598 94.2941 47.382 93.5381C47.143 92.6498 46.6571 91.8474 45.9806 91.2241C45.3041 90.6007 44.4648 90.1818 43.56 90.0161C42.7172 89.8645 41.8492 89.9411 41.046 90.2381C40.1613 90.5637 39.393 91.1441 38.838 91.9061C38.2344 92.7212 37.9086 93.7087 37.9086 94.7231C37.9086 95.7374 38.2344 96.7249 38.838 97.5401C39.393 98.302 40.1613 98.8825 41.046 99.2081C41.7979 99.4861 42.6076 99.5714 43.401 99.4561C44.1944 99.3408 44.9463 99.0286 45.588 98.5481C46.4677 97.8954 47.1018 96.9654 47.388 95.9081C47.586 95.1641 47.568 94.7081 47.604 94.7081C47.617 94.8117 47.617 94.9165 47.604 95.0201C47.606 95.3234 47.5698 95.6258 47.496 95.9201C47.2773 96.8533 46.7932 97.7033 46.1023 98.3676C45.4114 99.0319 44.543 99.4821 43.602 99.6641C42.6651 99.8447 41.6961 99.7562 40.8074 99.409C39.9186 99.0618 39.1463 98.47 38.58 97.7021C37.9342 96.8352 37.5854 95.783 37.5854 94.7021C37.5854 93.6211 37.9342 92.569 38.58 91.7021C38.8754 91.2865 39.2385 90.9235 39.654 90.6281C40.0421 90.3319 40.4757 90.1009 40.938 89.9441C41.7895 89.6381 42.7078 89.5677 43.596 89.7401C44.537 89.922 45.4054 90.3722 46.0963 91.0366C46.7872 91.7009 47.2713 92.5509 47.49 93.4841C47.5638 93.7783 47.6 94.0807 47.598 94.3841C47.6142 94.5015 47.6142 94.6206 47.598 94.7381Z" fill="#263238"/>
<path d="M127.326 94.0305C127.326 94.1145 110.742 94.1865 90.288 94.1865C69.834 94.1865 53.25 94.1145 53.25 94.0305C53.25 93.9465 69.828 93.8745 90.288 93.8745C110.748 93.8745 127.326 93.9165 127.326 94.0305Z" fill="#263238"/>
<path d="M220.689 97.1976C222.658 95.2294 222.658 92.0382 220.689 90.07C218.721 88.1017 215.53 88.1017 213.562 90.07C211.593 92.0382 211.593 95.2294 213.562 97.1976C215.53 99.1659 218.721 99.1658 220.689 97.1976Z" fill="#E0E0E0"/>
<path d="M236.073 97.1976C238.042 95.2294 238.042 92.0382 236.073 90.07C234.105 88.1017 230.914 88.1017 228.946 90.07C226.977 92.0382 226.977 95.2294 228.946 97.1976C230.914 99.1659 234.105 99.1659 236.073 97.1976Z" fill="#E0E0E0"/>
<path d="M249.81 98.2909C252.384 97.2311 253.611 94.2855 252.551 91.7116C251.491 89.1377 248.546 87.9104 245.972 88.9702C243.398 90.03 242.171 92.9757 243.23 95.5495C244.29 98.1234 247.236 99.3508 249.81 98.2909Z" fill="#E0E0E0"/>
<path d="M109.326 85.2764L102.636 73.4804C106.791 66.7621 108.283 58.7324 106.818 50.97C105.352 43.2076 101.036 36.2741 94.7179 31.5327C88.3995 26.7914 80.536 24.5853 72.6734 25.3481C64.8108 26.111 57.518 29.7875 52.2289 35.655C46.9398 41.5225 44.037 49.1564 44.0913 57.0557C44.1456 64.955 47.153 72.5482 52.5223 78.3425C57.8915 84.1367 65.2341 87.7127 73.1065 88.3674C80.9788 89.0221 88.8112 86.7081 95.0639 81.8804L109.326 85.2764Z" fill="#FAFAFA"/>
<path d="M109.326 85.2762L95.028 82.0062L94.884 81.9762L94.9739 81.8562L95.112 81.9942C93.1105 83.5507 90.9312 84.8639 88.6199 85.9062C85.8546 87.1369 82.9266 87.9634 79.926 88.3602C78.2706 88.5908 76.5981 88.6751 74.928 88.6122C74.07 88.5642 73.194 88.5462 72.312 88.4742L69.642 88.0662C63.4763 86.8617 57.8055 83.8579 53.3452 79.4339C48.8848 75.0099 45.8348 69.3639 44.5799 63.2082C43.6702 58.5578 43.7972 53.764 44.952 49.1682C46.1448 44.3629 48.4671 39.9117 51.726 36.1842L53.0159 34.7623C53.4419 34.2883 53.946 33.8923 54.402 33.4543C54.858 33.0163 55.32 32.5723 55.836 32.2063L57.3479 31.0783C57.848 30.6943 58.3754 30.3474 58.926 30.0403L60.528 29.0682L62.202 28.2523C62.7501 27.9679 63.3152 27.7175 63.894 27.5023C68.3889 25.7239 73.2263 24.9795 78.048 25.3243C82.6054 25.6357 87.0383 26.9467 91.032 29.1643C98.2119 33.1587 103.582 39.7598 106.032 47.6022C107.006 50.935 107.468 54.3966 107.4 57.8682C107.314 60.8829 106.795 63.8696 105.858 66.7362C105.07 69.1121 104.007 71.3876 102.69 73.5162V73.4202L109.29 85.2642L102.528 73.5162V73.4682V73.4202C103.823 71.2945 104.866 69.0253 105.636 66.6582C106.553 63.8109 107.056 60.8466 107.13 57.8562C107.179 54.4246 106.706 51.0054 105.726 47.7162C103.294 39.9591 97.9788 33.4306 90.876 29.4762C86.9227 27.2909 82.537 26.0024 78.0299 25.7023C73.2674 25.3639 68.4897 26.1 64.0499 27.8563C63.4797 28.0709 62.9227 28.3194 62.3819 28.6003L60.726 29.4043L59.142 30.3703C58.6022 30.6751 58.0849 31.0179 57.594 31.3963L56.0999 32.5123C55.6058 32.8982 55.1331 33.3108 54.6839 33.7483C54.2279 34.1803 53.73 34.5643 53.31 35.0383L52.038 36.4362C48.8242 40.1194 46.5331 44.5145 45.354 49.2582C44.2074 53.7999 44.0783 58.5389 44.976 63.1362C45.8472 67.4853 47.6393 71.5974 50.2319 75.1962C54.8976 81.7101 61.8673 86.2043 69.726 87.7662L72.3659 88.1742C73.2419 88.2522 74.106 88.2702 74.958 88.3242C76.6136 88.3928 78.2721 88.3145 79.914 88.0902C82.8795 87.7032 85.7747 86.895 88.512 85.6902C90.8103 84.6644 92.9811 83.3737 94.98 81.8442L95.58 81.3942L95.13 81.9942L95.076 81.8442L109.326 85.2762Z" fill="#263238"/>
<path d="M66.834 56.9443C66.8304 57.5787 66.639 58.1977 66.2839 58.7234C65.9287 59.249 65.4258 59.6576 64.8386 59.8977C64.2514 60.1377 63.6062 60.1983 62.9846 60.072C62.3629 59.9456 61.7927 59.6379 61.3458 59.1876C60.8989 58.7374 60.5954 58.1648 60.4737 57.5423C60.352 56.9197 60.4175 56.275 60.6618 55.6896C60.9062 55.1042 61.3186 54.6044 61.8469 54.2532C62.3752 53.9019 62.9956 53.7151 63.63 53.7163C64.0528 53.7163 64.4714 53.8 64.8617 53.9625C65.252 54.125 65.6063 54.3631 65.9041 54.6632C66.2019 54.9633 66.4374 55.3193 66.597 55.7108C66.7566 56.1023 66.8372 56.5215 66.834 56.9443Z" fill="#263238"/>
<path d="M79.6619 56.9443C79.6583 57.5787 79.4669 58.1977 79.1118 58.7234C78.7566 59.249 78.2537 59.6576 77.6665 59.8977C77.0793 60.1377 76.4341 60.1983 75.8125 60.072C75.1908 59.9456 74.6206 59.6379 74.1737 59.1876C73.7268 58.7374 73.4233 58.1648 73.3016 57.5423C73.1799 56.9197 73.2453 56.275 73.4897 55.6896C73.7341 55.1042 74.1465 54.6044 74.6748 54.2532C75.203 53.9019 75.8235 53.7151 76.4579 53.7163C76.8807 53.7163 77.2993 53.8 77.6896 53.9625C78.0799 54.125 78.4342 54.3631 78.732 54.6632C79.0298 54.9633 79.2653 55.3193 79.4249 55.7108C79.5845 56.1023 79.6651 56.5215 79.6619 56.9443Z" fill="#263238"/>
<path d="M92.46 55.3363C92.7741 55.8879 92.9175 56.5203 92.8723 57.1535C92.827 57.7866 92.5951 58.3921 92.2057 58.8935C91.8164 59.3948 91.2871 59.7695 90.6849 59.9701C90.0827 60.1707 89.4345 60.1882 88.8223 60.0205C88.21 59.8528 87.6613 59.5073 87.2454 59.0278C86.8295 58.5482 86.5651 57.9561 86.4857 57.3263C86.4062 56.6966 86.5153 56.0574 86.7991 55.4896C87.0829 54.9218 87.5286 54.4508 88.08 54.1363C88.4461 53.9265 88.8501 53.7912 89.2687 53.738C89.6873 53.6848 90.1123 53.7148 90.5193 53.8263C90.9263 53.9378 91.3072 54.1286 91.6403 54.3877C91.9733 54.6469 92.2519 54.9692 92.46 55.3363Z" fill="#263238"/>
<path d="M317.985 285.295L319.401 280.539C319.649 279.507 319.977 278.291 320.417 276.903C320.817 275.655 321.833 274.343 322.761 273.399C324.205 271.931 324.893 271.923 325.861 271.143C325.949 271.087 326.049 271.003 326.133 270.959C326.316 270.859 326.476 270.723 326.605 270.559C327.441 269.655 326.637 268.251 324.937 268.387C323.661 268.487 321.573 268.851 318.181 272.351C318.137 272.407 318.093 272.451 318.053 272.503C316.273 274.819 314.601 268.211 314.297 265.751C314.238 265.37 314.094 265.007 313.875 264.689C313.657 264.371 313.37 264.106 313.035 263.914C312.701 263.722 312.327 263.607 311.943 263.579C311.558 263.551 311.172 263.61 310.813 263.751L302.549 267.615C301.76 267.386 300.92 267.414 300.149 267.695C299.57 267.898 299.089 268.309 298.797 268.848C298.506 269.388 298.426 270.016 298.573 270.611L301.929 283.975L292.085 316.735H313.305L317.985 285.295Z" fill="#FFBE9D"/>
<path d="M334.305 255.207L327.745 268.063L324.465 267.151L307.985 280.563C307.312 281.113 306.451 281.38 305.586 281.305C304.72 281.23 303.917 280.821 303.349 280.163L297.069 272.871C297.069 272.871 309.729 267.419 312.069 262.907C314.409 258.395 311.705 257.367 311.705 257.367L317.661 250.599L334.305 255.207Z" fill="#3D8AED"/>
<path d="M325.797 228.951C325.797 228.951 316.197 226.827 302.681 213.835C289.165 200.843 282.821 183.575 281.185 183.671C279.549 183.767 272.309 180.403 258.573 210.279C244.837 240.155 250.249 247.079 252.973 247.039C255.697 246.999 274.261 241.811 285.853 243.127C297.445 244.443 312.345 250.487 312.345 250.487L325.797 228.951Z" fill="#3D8AED"/>
<path d="M346.193 245.235L342.917 251.463L341.449 254.263C340.48 256.106 338.841 257.507 336.869 258.177C334.897 258.847 332.744 258.734 330.853 257.863L310.273 250.691L322.273 223.331L342.833 234.287C344.724 235.299 346.139 237.018 346.768 239.069C347.398 241.12 347.191 243.336 346.193 245.235Z" fill="#3D8AED"/>
<g opacity="0.4">
<path opacity="0.4" d="M346.193 245.235L342.917 251.463L341.449 254.263C340.48 256.106 338.841 257.507 336.869 258.177C334.897 258.847 332.744 258.734 330.853 257.863L310.273 250.691L322.273 223.331L342.833 234.287C344.724 235.299 346.139 237.018 346.768 239.069C347.398 241.12 347.191 243.336 346.193 245.235Z" fill="black"/>
</g>
<path d="M259.669 210.823C252.361 227.007 249.317 241.431 252.869 243.035C256.421 244.639 265.233 232.823 272.541 216.635C279.849 200.447 282.893 186.031 279.341 184.423C275.789 182.815 266.977 194.639 259.669 210.823Z" fill="#3D8AED"/>
<g opacity="0.5">
<path opacity="0.5" d="M259.669 210.823C252.361 227.007 249.317 241.431 252.869 243.035C256.421 244.639 265.233 232.823 272.541 216.635C279.849 200.447 282.893 186.031 279.341 184.423C275.789 182.815 266.977 194.639 259.669 210.823Z" fill="black"/>
</g>
<path d="M347.961 254.235L342.381 252.483L345.833 245.923L350.017 248.523L347.961 254.235Z" fill="#3D8AED"/>
<g opacity="0.6">
<path opacity="0.6" d="M345.833 245.923L342.381 252.483L343.529 252.843L346.333 246.231L345.833 245.923Z" fill="black"/>
</g>
<path d="M341.985 247.435C341.905 247.615 339.121 246.535 335.769 245.035C332.417 243.535 329.769 242.143 329.845 241.963C329.921 241.783 332.709 242.867 336.065 244.383C339.421 245.899 342.069 247.255 341.985 247.435Z" fill="#3D8AED"/>
<path d="M343.705 243.527C343.617 243.703 341.097 242.643 338.077 241.155C335.057 239.667 332.681 238.319 332.769 238.139C332.857 237.959 335.373 239.023 338.393 240.511C341.413 241.999 343.793 243.347 343.705 243.527Z" fill="#3D8AED"/>
<path d="M339.825 251.535C339.797 251.631 339.133 251.479 338.077 251.135C337.549 250.971 336.921 250.763 336.229 250.527C335.537 250.291 334.829 249.915 334.065 249.567C331.013 248.151 328.681 246.767 328.757 246.599C328.833 246.431 331.341 247.515 334.357 248.919C335.117 249.263 335.821 249.639 336.485 249.915C337.149 250.191 337.745 250.435 338.245 250.659C339.245 251.119 339.853 251.439 339.825 251.535Z" fill="#3D8AED"/>
<path d="M274.569 207.227C274.569 207.227 266.225 202.051 261.661 213.327C257.097 224.603 265.873 226.455 265.873 226.455C269.663 220.487 272.59 214.014 274.569 207.227Z" fill="#3D8AED"/>
<g opacity="0.5">
<path opacity="0.5" d="M283.445 193.787C283.497 193.787 283.377 194.563 283.121 195.943C282.865 197.323 282.481 199.319 281.945 201.775L280.785 205.723C280.574 206.429 280.357 207.161 280.133 207.919L279.793 209.067C279.669 209.467 279.505 209.831 279.361 210.219L277.477 215.083C277.313 215.507 277.145 215.931 276.981 216.359C276.817 216.787 276.581 217.195 276.393 217.619L275.153 220.179L273.909 222.735C273.697 223.135 273.509 223.583 273.281 223.975C273.053 224.367 272.813 224.775 272.585 225.155L269.925 229.647C269.709 229.999 269.525 230.363 269.285 230.699L268.593 231.679L267.265 233.551L264.865 236.899C263.265 238.831 261.929 240.355 261.009 241.415C260.557 241.989 260.058 242.524 259.517 243.015C259.893 242.39 260.321 241.799 260.797 241.247C261.685 240.115 262.937 238.531 264.473 236.583L266.773 233.211L268.061 231.335C268.285 231.015 268.509 230.687 268.737 230.355C268.965 230.023 269.137 229.659 269.357 229.303L271.985 224.815L272.669 223.639C272.905 223.239 273.069 222.839 273.289 222.407L274.521 219.867C274.921 219.007 275.349 218.163 275.757 217.327C275.949 216.927 276.181 216.503 276.341 216.079L276.841 214.815L278.753 210.015C278.901 209.615 279.069 209.259 279.197 208.875C279.325 208.491 279.433 208.115 279.549 207.739L280.229 205.567L281.457 201.667L282.845 195.907C282.984 195.184 283.185 194.475 283.445 193.787Z" fill="black"/>
</g>
<g opacity="0.4">
<path opacity="0.4" d="M299.061 271.975C299.825 273.359 300.601 274.775 301.725 275.867C302.849 276.959 304.385 277.735 305.985 277.575C307.585 277.415 309.045 276.111 309.061 274.535C309.813 275.099 310.969 274.795 311.593 274.087C312.217 273.379 312.421 272.399 312.493 271.459C313.517 272.063 314.941 271.587 315.625 270.615C315.939 270.109 316.138 269.54 316.207 268.948C316.276 268.356 316.214 267.756 316.025 267.191C315.635 266.067 315.081 265.006 314.381 264.043C315.181 264.107 316.005 264.163 316.709 263.807C317.413 263.451 317.909 262.515 317.481 261.843C317.2 261.468 316.792 261.208 316.333 261.111C315.097 260.711 314.233 260.415 312.945 260.563C312.649 260.563 313.461 263.955 305.393 268.587C300.605 271.327 299.061 271.975 299.061 271.975Z" fill="black"/>
</g>
<path d="M317.229 276.855C317.229 276.891 316.689 276.787 315.817 276.811C314.684 276.838 313.569 277.106 312.547 277.596C311.525 278.086 310.619 278.788 309.889 279.655C309.325 280.319 309.089 280.803 309.037 280.783C309.07 280.658 309.123 280.539 309.193 280.431C309.364 280.126 309.558 279.835 309.773 279.559C310.492 278.646 311.411 277.911 312.458 277.409C313.506 276.907 314.655 276.652 315.817 276.663C316.166 276.665 316.514 276.697 316.857 276.759C316.986 276.769 317.111 276.801 317.229 276.855Z" fill="#EB996E"/>
<path d="M299.585 269.811C300.885 271.059 301.773 272.439 303.137 273.695C303.757 274.267 304.737 275.347 305.537 275.491C306.337 275.635 306.897 275.527 307.225 274.751C307.493 274.123 307.013 273.263 306.685 272.751C305.817 271.387 304.985 270.323 304.337 269.263C304.029 268.767 304.425 268.663 304.569 268.895C305.193 269.543 306.129 270.095 306.689 270.811C307.457 271.775 307.593 273.059 309.601 272.651C309.869 272.608 310.124 272.502 310.345 272.343C311.101 271.763 311.145 270.743 310.817 269.943C310.533 269.326 310.156 268.756 309.697 268.255C310.553 269.219 311.485 270.255 312.845 270.343C313.229 270.39 313.618 270.316 313.958 270.132C314.299 269.947 314.574 269.662 314.745 269.315C315.145 268.403 314.573 267.519 313.993 266.807C312.966 265.541 311.824 264.373 310.581 263.319C310.116 262.929 309.531 262.713 308.925 262.707C308.221 262.707 307.325 262.835 306.925 263.443C306.696 263.736 306.53 264.073 306.436 264.433C306.341 264.792 306.321 265.167 306.377 265.535C306.377 265.535 304.617 264.643 303.201 265.575C302.329 266.187 301.703 267.089 301.433 268.119L299.585 269.811Z" fill="#FFBE9D"/>
<path d="M308.965 262.323C308.683 261.996 308.509 261.591 308.464 261.162C308.42 260.733 308.508 260.3 308.717 259.923C309.017 259.335 309.393 258.763 309.777 258.635C311.453 258.071 318.781 259.339 318.713 260.963C318.645 262.587 318.109 263.363 314.137 262.791C313.437 262.691 312.341 262.555 312.341 262.555L311.381 263.995L308.965 262.323Z" fill="#FFBE9D"/>
<path d="M310.277 269.131C309.315 267.545 307.913 266.273 306.241 265.471C306.513 265.515 306.776 265.607 307.017 265.743C308.221 266.325 309.232 267.241 309.929 268.383C310.09 268.608 310.208 268.862 310.277 269.131Z" fill="#EB996E"/>
<path d="M311.509 264.135C311.473 264.167 310.989 263.775 310.329 263.371C310.053 263.196 309.767 263.037 309.473 262.895C309.245 262.791 309.093 262.763 309.097 262.731C309.101 262.699 309.269 262.683 309.521 262.759C309.845 262.864 310.155 263.01 310.441 263.195C311.117 263.607 311.561 264.091 311.509 264.135Z" fill="#EB996E"/>
<path d="M312.741 262.623C312.264 262.679 311.781 262.624 311.329 262.463C310.998 262.362 310.691 262.196 310.425 261.975C310.225 261.803 310.141 261.663 310.161 261.643C310.546 261.892 310.958 262.096 311.389 262.251C311.847 262.345 312.299 262.469 312.741 262.623Z" fill="#EB996E"/>
<path d="M305.621 271.143C305.368 270.878 305.144 270.587 304.953 270.275C304.496 269.536 303.919 268.879 303.245 268.331C302.546 267.82 301.681 267.591 300.821 267.691C300.468 267.754 300.125 267.863 299.801 268.015C299.801 268.015 299.873 267.931 300.037 267.831C300.27 267.689 300.528 267.591 300.797 267.543C301.245 267.47 301.702 267.488 302.143 267.594C302.584 267.701 302.999 267.894 303.365 268.163C304.061 268.722 304.642 269.411 305.077 270.191C305.285 270.492 305.467 270.811 305.621 271.143Z" fill="#EB996E"/>
<path d="M311.225 287.343C310.238 287.553 309.239 287.696 308.233 287.771C307.233 287.916 306.224 287.991 305.213 287.995C306.201 287.785 307.202 287.642 308.209 287.567C309.208 287.424 310.216 287.349 311.225 287.343Z" fill="#EB996E"/>
<path d="M362.652 169.936L363.104 170.764L363.928 171.216L363.104 171.668L362.652 172.492L362.2 171.668L361.376 171.216L362.2 170.764L362.652 169.936Z" fill="#3D8AED"/>
<path d="M372.096 190.404L372.548 191.232L373.372 191.684L372.548 192.136L372.096 192.96L371.644 192.136L370.816 191.684L371.644 191.232L372.096 190.404Z" fill="#3D8AED"/>
<path d="M220.76 245.012L221.212 245.84L222.04 246.292L221.212 246.74L220.76 247.568L220.308 246.74L219.484 246.292L220.308 245.84L220.76 245.012Z" fill="#3D8AED"/>
<path d="M350.264 175.024L351.308 176.932L353.216 177.976L351.308 179.016L350.264 180.924L349.224 179.016L347.316 177.976L349.224 176.932L350.264 175.024Z" fill="#3D8AED"/>
<path d="M229.224 232.04L230.264 233.94L232.168 234.98L230.264 236.024L229.224 237.924L228.184 236.024L226.28 234.98L228.184 233.94L229.224 232.04Z" fill="#3D8AED"/>
<path d="M374.664 277.424L375.704 279.328L377.604 280.368L375.704 281.408L374.664 283.312L373.624 281.408L371.72 280.368L373.624 279.328L374.664 277.424Z" fill="#3D8AED"/>
</svg>
